<svg width="49" height="47" viewBox="0 0 49 47" fill="none" xmlns="http://www.w3.org/2000/svg">
<path d="M12.1806 9.6125L6.7832 4.24341L4.64631 6.36909L10.0437 11.7382L12.1806 9.6125Z" fill="white"/>
<path d="M42.2626 4.24859L36.8652 9.61768L39.0021 11.7434L44.3995 6.37427L42.2626 4.24859Z" fill="white"/>
<path d="M24.3992 46.4481C36.6308 46.4481 46.5464 36.5845 46.5464 24.4171C46.5464 12.2496 36.6308 2.38599 24.3992 2.38599C12.1676 2.38599 2.25195 12.2496 2.25195 24.4171C2.25195 36.5845 12.1676 46.4481 24.3992 46.4481Z" fill="#2093DD"/>
<path d="M24.3987 42.4822C34.4285 42.4822 42.5592 34.3941 42.5592 24.417C42.5592 14.4399 34.4285 6.35181 24.3987 6.35181C14.369 6.35181 6.23828 14.4399 6.23828 24.417C6.23828 34.3941 14.369 42.4822 24.3987 42.4822Z" fill="#D6D6D6"/>
<path d="M24.3981 41.1839C33.707 41.1839 41.2533 33.6772 41.2533 24.4172C41.2533 15.1571 33.707 7.65039 24.3981 7.65039C15.0893 7.65039 7.54297 15.1571 7.54297 24.4172C7.54297 33.6772 15.0893 41.1839 24.3981 41.1839Z" fill="white"/>
<path d="M24.6827 9.38623H24.1152V12.9287H24.6827V9.38623Z" fill="black"/>
<path d="M17.0735 11.1779L16.582 11.4602L18.3626 14.5281L18.8541 14.2458L17.0735 11.1779Z" fill="black"/>
<path d="M11.3639 16.5416L11.0801 17.0305L14.1641 18.8018L14.4479 18.3128L11.3639 16.5416Z" fill="black"/>
<path d="M12.8072 24.1348H9.24609V24.6993H12.8072V24.1348Z" fill="black"/>
<path d="M14.2065 30.0439L11.123 31.8162L11.4069 32.3049L14.4904 30.5326L14.2065 30.0439Z" fill="black"/>
<path d="M18.2738 34.1512L16.4922 37.2185L16.9836 37.501L18.7653 34.4337L18.2738 34.1512Z" fill="black"/>
<path d="M24.6398 35.9478H24.0723V39.4902H24.6398V35.9478Z" fill="black"/>
<path d="M30.3802 34.2038L29.8887 34.4861L31.6693 37.554L32.1608 37.2717L30.3802 34.2038Z" fill="black"/>
<path d="M34.5571 30.0285L34.2734 30.5173L37.3575 32.2886L37.6412 31.7998L34.5571 30.0285Z" fill="black"/>
<path d="M39.5084 24.1772H35.9473V24.7418H39.5084V24.1772Z" fill="black"/>
<path d="M37.3452 16.8173L34.2617 18.5896L34.5456 19.0784L37.6291 17.306L37.3452 16.8173Z" fill="black"/>
<path d="M31.929 11.7381L30.1484 14.8201L30.6421 15.1023L32.4227 12.0203L31.929 11.7381Z" fill="black"/>
<path d="M24.3555 15.1162L23.6035 24.3746H25.1216L24.3555 15.1162Z" fill="black"/>
<path d="M15.6445 32.8428L24.8383 24.7558L23.7742 23.6973L15.6445 32.8428Z" fill="black"/>
<path d="M24.398 25.6871C25.1032 25.6871 25.6749 25.1185 25.6749 24.4169C25.6749 23.7154 25.1032 23.1467 24.398 23.1467C23.6928 23.1467 23.1211 23.7154 23.1211 24.4169C23.1211 25.1185 23.6928 25.6871 24.398 25.6871Z" fill="#6F93DD"/>
<path d="M0.917969 10.9812H4.8056C4.808 9.27124 5.47548 7.62859 6.66828 6.39733C7.86107 5.16606 9.48647 4.44173 11.2042 4.3761V0.509033C8.45649 0.578849 5.84459 1.71197 3.92371 3.66759C2.00283 5.6232 0.924461 8.24703 0.917969 10.9812Z" fill="#2093DD"/>
<path d="M48.1343 10.9953H44.2326C44.2326 9.24222 43.5336 7.56072 42.2887 6.31979C41.0439 5.07885 39.3551 4.37983 37.5928 4.37609H37.3516V0.509021C38.7556 0.478978 40.1515 0.727882 41.4576 1.24122C42.7637 1.75457 43.9536 2.522 44.9578 3.49856C45.962 4.47512 46.7601 5.64119 47.3056 6.92846C47.851 8.21573 48.1327 9.59834 48.1343 10.9953Z" fill="#2093DD"/>
</svg>
