<svg width="156" height="133" viewBox="0 0 156 133" fill="none" xmlns="http://www.w3.org/2000/svg">
<path d="M61.9328 68.2763L60.7229 67.3111C57.1976 64.4986 52.0478 65.0615 49.2205 68.5683L28.8436 93.8423C26.0162 97.3491 26.5821 102.472 30.1073 105.284L31.3172 106.25C34.8425 109.062 39.9922 108.499 42.8195 104.992L63.1965 79.7184C66.0238 76.2116 65.4581 71.0888 61.9328 68.2763Z" fill="#F5F5F5"/>
<path d="M24.1882 53.8559L16.8848 55.99L22.9791 76.6281L30.2825 74.494L24.1882 53.8559Z" fill="#F8D6BF"/>
<path d="M6.52051 53.8928C6.52078 54.2208 6.55652 54.5477 6.62735 54.8681C6.8294 55.7065 7.2402 56.481 7.82181 57.1202C10.9403 57.7619 14.1535 57.8041 17.2878 57.2443L18.0721 59.8866C21.8513 59.124 24.5967 56.7301 24.5967 53.8928C24.5967 50.4526 20.5499 47.6685 15.5585 47.6685C10.567 47.6685 6.52051 50.3462 6.52051 53.8928Z" fill="#F8D6BF"/>
<path d="M24.2054 53.9099C25.062 52.4341 22.8326 49.5586 19.226 47.4872C15.6194 45.4158 12.0012 44.933 11.1447 46.4088C10.2881 47.8846 12.5176 50.7601 16.1242 52.8315C19.7308 54.9029 23.3489 55.3857 24.2054 53.9099Z" fill="#F8D6BF"/>
<path d="M36.5183 110.089C34.2502 110.752 31.8103 110.491 29.7354 109.365C27.6605 108.238 26.1205 106.337 25.4542 104.081L14.1899 65.9353L31.2938 60.9374L42.5481 99.0492C42.8833 100.168 42.9931 101.341 42.8713 102.503C42.7495 103.664 42.3984 104.789 41.8382 105.815C41.2779 106.841 40.5197 107.746 39.6068 108.48C38.6939 109.213 37.6442 109.76 36.5183 110.089Z" fill="#EBECED"/>
<path d="M3.38253 50.3107H10.9945C11.7526 50.3107 12.3672 49.7033 12.3672 48.9541C12.3672 48.2048 11.7526 47.5976 10.9945 47.5976H3.38253C2.62444 47.5976 2.00985 48.2048 2.00985 48.9541C2.00985 49.7033 2.62444 50.3107 3.38253 50.3107Z" fill="#F8D6BF"/>
<path d="M1.51166 52.6515H9.12363C9.88172 52.6515 10.4961 52.0441 10.4961 51.2949C10.4961 50.5457 9.88172 49.9384 9.12363 49.9384H1.51166C0.753569 49.9384 0.13898 50.5457 0.13898 51.2949C0.13898 52.0441 0.753569 52.6515 1.51166 52.6515Z" fill="#F8D6BF"/>
<path d="M2.97336 55.3114H10.5853C11.3434 55.3114 11.958 54.704 11.958 53.9548C11.958 53.2056 11.3434 52.5983 10.5853 52.5983H2.97336C2.21526 52.5983 1.60068 53.2056 1.60068 53.9548C1.60068 54.704 2.21526 55.3114 2.97336 55.3114Z" fill="#F8D6BF"/>
<path d="M5.59316 57.5636H13.6686C14.2987 57.5636 14.8096 57.0594 14.8096 56.4375C14.8096 55.8156 14.2987 55.3115 13.6686 55.3115H5.59316C4.96306 55.3115 4.45224 55.8156 4.45224 56.4375C4.45224 57.0594 4.96306 57.5636 5.59316 57.5636Z" fill="#F8D6BF"/>
<path opacity="0.1" d="M13.5264 53.751C16.5096 53.751 18.9279 52.8935 18.9279 51.8358C18.9279 50.7781 16.5096 49.9207 13.5264 49.9207C10.5433 49.9207 8.125 50.7781 8.125 51.8358C8.125 52.8935 10.5433 53.751 13.5264 53.751Z" fill="black"/>
<path d="M145.023 106.142L146.233 105.176C149.758 102.364 150.324 97.2411 147.497 93.7343L127.12 68.4603C124.293 64.9535 119.143 64.3907 115.618 67.2032L114.408 68.1684C110.882 70.9809 110.317 76.1036 113.144 79.6104L133.521 104.884C136.348 108.391 141.498 108.954 145.023 106.142Z" fill="#F5F5F5"/>
<path d="M115.923 31.6733C115.923 47.8281 104.032 60.9328 89.3787 60.9328C74.7253 60.9328 62.835 47.8281 62.835 31.6733C62.8339 28.4334 63.3208 25.2117 64.279 22.1153C67.8443 10.642 77.738 2.39612 89.3787 2.39612C101.019 2.39612 110.931 10.6774 114.496 22.2039C115.448 25.2711 115.928 28.4634 115.923 31.6733Z" fill="#F8D6BF"/>
<path d="M82.7287 29.7936C83.7822 29.7936 84.6362 28.9441 84.6362 27.8962C84.6362 26.8483 83.7822 25.9988 82.7287 25.9988C81.6753 25.9988 80.8213 26.8483 80.8213 27.8962C80.8213 28.9441 81.6753 29.7936 82.7287 29.7936Z" fill="black"/>
<path d="M96.0276 29.7936C97.081 29.7936 97.935 28.9441 97.935 27.8962C97.935 26.8483 97.081 25.9988 96.0276 25.9988C94.9741 25.9988 94.1201 26.8483 94.1201 27.8962C94.1201 28.9441 94.9741 29.7936 96.0276 29.7936Z" fill="black"/>
<path d="M89.9489 39.2986L89.5033 38.7488L91.3751 37.2415L89.0576 31.8152L89.7172 31.5315L92.2486 37.4721L89.9489 39.2986Z" fill="#F8C7A6"/>
<path d="M62.3711 43.4481C67.3233 43.4481 71.3378 39.4546 71.3378 34.5284C71.3378 29.6021 67.3233 25.6086 62.3711 25.6086C57.4188 25.6086 53.4043 29.6021 53.4043 34.5284C53.4043 39.4546 57.4188 43.4481 62.3711 43.4481Z" fill="#F8D6BF"/>
<path d="M61.5504 39.7064C59.3399 37.9331 58.2881 35.9647 58.4486 34.085C58.6092 33.1426 58.9727 32.2457 59.5142 31.456C60.0557 30.6664 60.7625 30.0025 61.586 29.5099L61.8535 29.9532C61.1037 30.4077 60.4577 31.0133 59.9572 31.731C59.4568 32.4487 59.113 33.2626 58.9478 34.1204C58.9849 35.1573 59.2712 36.1702 59.7829 37.0742C60.2947 37.9783 61.0169 38.7472 61.889 39.3163L61.5504 39.7064Z" fill="#F8CAAB"/>
<path d="M61.9428 35.7873C59.661 34.2622 58.8588 34.7411 58.8588 34.7411L58.5557 34.3155C58.5557 34.3155 59.6254 33.6239 62.2281 35.344L61.9428 35.7873Z" fill="#F8CAAB"/>
<path d="M116.688 43.4481C121.641 43.4481 125.655 39.4546 125.655 34.5284C125.655 29.6021 121.641 25.6086 116.688 25.6086C111.736 25.6086 107.722 29.6021 107.722 34.5284C107.722 39.4546 111.736 43.4481 116.688 43.4481Z" fill="#F8D6BF"/>
<path d="M117.473 39.7064L117.152 39.3163C118.02 38.7441 118.738 37.9741 119.247 37.0705C119.755 36.1668 120.039 35.1554 120.076 34.1204C119.91 33.2652 119.567 32.4535 119.07 31.7364C118.573 31.0192 117.932 30.412 117.188 29.9532L117.455 29.5099C118.274 30.0078 118.978 30.6732 119.519 31.462C120.06 32.2507 120.426 33.1449 120.593 34.085C120.569 35.2031 120.272 36.2987 119.729 37.2777C119.185 38.2568 118.411 39.0901 117.473 39.7064Z" fill="#F8CAAB"/>
<path d="M117.117 35.7874L116.832 35.3441C119.435 33.5707 120.397 34.2447 120.504 34.3156L120.183 34.7234L120.344 34.5284L120.183 34.7412C120.183 34.7412 119.399 34.2623 117.117 35.7874Z" fill="#F8CAAB"/>
<path d="M80.126 52.8466V63.4509V66.6251H97.9347V63.4509V52.8466H80.126Z" fill="#F8D6BF"/>
<path d="M122.286 63.4509V133H55.7754V63.4509H80.1265V66.6251H97.9352V63.4509H122.286Z" fill="#F5F5F5"/>
<path d="M80.1261 63.4332L89.0215 66.6252L77.7373 71.7146L80.1261 63.4332Z" fill="white"/>
<path d="M97.9348 63.4332L89.0215 66.6252L100.324 71.7146L97.9348 63.4332Z" fill="white"/>
<path d="M73.905 44.7603C77.2229 44.7603 79.9125 42.0847 79.9125 38.7843C79.9125 35.4838 77.2229 32.8082 73.905 32.8082C70.5871 32.8082 67.8975 35.4838 67.8975 38.7843C67.8975 42.0847 70.5871 44.7603 73.905 44.7603Z" fill="#F8BBA6"/>
<path d="M104.851 44.7603C108.169 44.7603 110.859 42.0847 110.859 38.7843C110.859 35.4838 108.169 32.8082 104.851 32.8082C101.533 32.8082 98.8438 35.4838 98.8438 38.7843C98.8438 42.0847 101.533 44.7603 104.851 44.7603Z" fill="#F8BBA6"/>
<path d="M89.1107 47.9522H88.2194C83.7894 47.4381 79.7417 45.2082 76.9531 41.7457L77.5235 41.3023C80.1944 44.5697 84.0219 46.6954 88.2194 47.2429C92.5869 47.5266 96.9545 45.4696 101.233 41.2668L101.75 41.7811C97.6498 45.8597 93.3891 47.9522 89.1107 47.9522Z" fill="#FF9E9E"/>
<path d="M55.543 63.4509V91.0081V133H88.8073V92.3913L75.7583 63.4509H55.543Z" fill="#0044A2"/>
<path d="M122.161 63.4509V91.0081V133H88.8965V92.3913L101.963 63.4509H122.161Z" fill="#0044A2"/>
<path d="M87.3816 74.0021L83.8163 75.0838C81.6414 75.7399 79.3418 74.8355 79.3418 72.8672V68.5934C79.3418 66.6251 81.6414 65.7207 83.8163 66.3768L87.3816 67.4586C87.8538 67.6164 88.2651 67.916 88.5589 68.3162C88.8526 68.7165 89.0144 69.1974 89.0217 69.6929V71.7677C89.0171 72.2639 88.8562 72.746 88.5621 73.1467C88.268 73.5474 87.8552 73.8466 87.3816 74.0021Z" fill="#FE77BE"/>
<path d="M90.6614 74.0021L94.3159 75.0838C96.4908 75.7399 98.8083 74.8355 98.8083 72.8672V68.5934C98.8083 66.6251 96.4908 65.7207 94.3159 66.3768L90.6614 67.4586C90.1906 67.6186 89.7808 67.9188 89.4874 68.3185C89.194 68.7182 89.0313 69.198 89.0215 69.6929V71.7677C89.0288 72.2632 89.1904 72.7441 89.4841 73.1443C89.7779 73.5445 90.1892 73.8443 90.6614 74.0021Z" fill="#FE77BE"/>
<path d="M88.9511 68.0615H88.7729C87.2862 68.0615 86.0811 69.2564 86.0811 70.7303C86.0811 72.2043 87.2862 73.3992 88.7729 73.3992H88.9511C90.4378 73.3992 91.643 72.2043 91.643 70.7303C91.643 69.2564 90.4378 68.0615 88.9511 68.0615Z" fill="#FEB4D7"/>
<path d="M116.906 104.622L95.6133 108.372L96.9403 115.829L118.233 112.079L116.906 104.622Z" fill="#F8D6BF"/>
<path d="M153.708 102.14C154.12 104.456 153.591 106.839 152.236 108.766C150.882 110.693 148.813 112.007 146.485 112.416L107.13 119.348L104.022 101.886L143.342 94.9612C144.497 94.7531 145.682 94.7739 146.828 95.0224C147.975 95.2708 149.061 95.742 150.024 96.409C150.987 97.076 151.808 97.9255 152.441 98.909C153.073 99.8924 153.504 100.991 153.708 102.14Z" fill="#EBECED"/>
<path d="M91.9781 107.682L96.625 110.351C97.6482 110.939 98.9564 110.59 99.5471 109.572L99.556 109.557C100.147 108.539 99.7963 107.238 98.7731 106.65L94.1262 103.981C93.103 103.394 91.7948 103.742 91.2041 104.76L91.1952 104.775C90.6045 105.793 90.9549 107.095 91.9781 107.682Z" fill="#F8D6BF"/>
<path d="M83.4166 111.441L90.912 110.121C91.6585 109.99 92.1572 109.285 92.0259 108.547C91.8946 107.809 91.183 107.318 90.4365 107.449L82.9411 108.77C82.1946 108.901 81.6959 109.606 81.8272 110.343C81.9585 111.081 82.6701 111.573 83.4166 111.441Z" fill="#F8D6BF"/>
<path d="M82.1256 114.817L89.621 113.497C90.3675 113.365 90.8662 112.661 90.7349 111.923C90.6036 111.185 89.892 110.694 89.1455 110.825L81.6501 112.145C80.9036 112.277 80.4051 112.981 80.5364 113.719C80.6677 114.457 81.3791 114.949 82.1256 114.817Z" fill="#F8D6BF"/>
<path d="M84.0904 117.518L91.5858 116.198C92.3323 116.067 92.8311 115.362 92.6997 114.624C92.5684 113.887 91.8568 113.395 91.1103 113.527L83.6149 114.847C82.8684 114.978 82.3697 115.683 82.501 116.421C82.6323 117.158 83.3439 117.65 84.0904 117.518Z" fill="#F8D6BF"/>
<path d="M87.0995 119.551L95.0513 118.151C95.6718 118.042 96.0864 117.457 95.9775 116.844C95.8685 116.232 95.2771 115.824 94.6567 115.933L86.7048 117.334C86.0844 117.443 85.6697 118.028 85.7787 118.64C85.8877 119.253 86.4791 119.661 87.0995 119.551Z" fill="#F8D6BF"/>
<path d="M97.6769 117.679L91.7262 118.727C91.1675 118.825 90.5925 118.699 90.1275 118.376C89.6626 118.052 89.3456 117.558 89.2467 117.003L88.0036 110.018C87.9047 109.462 88.0319 108.89 88.357 108.428C88.6821 107.965 89.1786 107.65 89.7372 107.552L95.6879 106.504C97.173 106.242 98.7016 106.578 99.9377 107.438C101.174 108.298 102.016 109.61 102.279 111.088C102.542 112.565 102.204 114.086 101.34 115.315C100.475 116.545 99.1558 117.383 97.6707 117.644L97.6769 117.679Z" fill="#F8D6BF"/>
<path d="M116.225 23.4097C112.036 9.84393 102.517 0.870972 88.7904 0.870972C75.0639 0.870972 65.6158 9.73756 61.3731 23.3211C61.3731 23.3211 60.7848 25.4668 60.3926 26.8677C60.3926 26.8677 81.6776 18.5863 80.9645 10.9079C80.9645 10.9079 84.3872 26.1761 92.1061 26.1761C92.1061 26.1761 87.3999 19.7212 93.8887 10.4469C93.8887 10.4469 92.7479 24.8639 104.888 25.3249C103.246 23.4362 102.188 21.1161 101.84 18.6435C101.492 16.1709 101.87 13.6511 102.927 11.3868C102.927 12.5851 103.089 13.7779 103.408 14.9334C105.993 27.0982 116.671 25.5732 116.671 25.5732C116.632 24.834 116.482 24.1047 116.225 23.4097Z" fill="#222136"/>
</svg>
