<svg width="166" height="127" viewBox="0 0 166 127" fill="none" xmlns="http://www.w3.org/2000/svg">
<path d="M14.2925 54.8453L28.6578 55.5612L24.2464 70.7495C24.0822 71.3058 23.7676 71.8107 23.3354 72.2113C22.8907 72.6427 22.366 72.9883 21.7899 73.2295C21.1786 73.456 20.537 73.5926 19.8865 73.6349C19.2664 73.6885 18.6427 73.6445 18.0395 73.5046C17.7044 73.4052 17.3862 73.2595 17.0946 73.072C16.8155 72.8978 16.5678 72.6807 16.3607 72.4291C16.1825 72.1797 16.0635 71.8946 16.0122 71.5938C15.9487 71.2911 15.9598 70.9771 16.0444 70.6775C16.1849 70.1754 16.4602 69.7172 16.8419 69.3501C17.2995 68.9242 17.8351 68.5856 18.4202 68.3525C19.0316 68.1264 19.6732 67.9897 20.3237 67.9471C20.8897 67.8648 21.4655 67.892 22.0178 68.0272C22.3537 68.0934 22.676 68.2108 22.9731 68.3749C23.1615 68.4919 23.3343 68.631 23.4877 68.7889L25.309 62.3929L13.6073 61.771L11.3248 70.1394C11.1842 70.6962 10.8899 71.2068 10.4739 71.616C10.0012 72.0334 9.45521 72.3645 8.86276 72.593C8.26086 72.8186 7.62807 72.9534 6.9865 72.9927C6.36971 73.0543 5.74798 73.0193 5.14513 72.8888C4.80397 72.8047 4.48327 72.6578 4.20021 72.4562C3.92194 72.2884 3.68167 72.0679 3.49352 71.8075C3.27293 71.5967 3.10226 71.3417 2.99313 71.0597C2.92514 70.7539 2.9457 70.4348 3.05255 70.1375C3.21031 69.599 3.5205 69.1126 3.94753 68.7343C4.40657 68.3285 4.93322 68.0018 5.50428 67.7688C6.11592 67.5434 6.75734 67.4068 7.40773 67.3634C7.97345 67.2735 8.55083 67.3008 9.10191 67.4435C9.44453 67.513 9.7751 67.628 10.0844 67.7854C10.2646 67.884 10.4198 68.0204 10.5389 68.1847L14.2925 54.8453ZM14.3781 58.8508L26.1071 59.4669L26.4535 58.2907L14.7254 57.8123L14.3781 58.8508Z" fill="black"/>
<path d="M146.191 1.10335L135.275 22.4815C135.008 23.0675 134.576 23.5599 134.033 23.8962C133.444 24.257 132.796 24.5056 132.119 24.6298C131.433 24.7347 130.735 24.7347 130.049 24.6298C129.377 24.5818 128.724 24.3851 128.135 24.0534C127.799 23.8906 127.499 23.6586 127.256 23.3723C127.004 23.1105 126.794 22.8098 126.635 22.4815C126.558 22.1542 126.558 21.8132 126.635 21.486C126.558 21.1587 126.558 20.8177 126.635 20.4904C126.922 19.9464 127.352 19.4932 127.876 19.1805C128.476 18.8536 129.121 18.6238 129.791 18.4993C130.477 18.3975 131.174 18.3975 131.86 18.4993C132.473 18.5665 133.068 18.7439 133.619 19.0233C133.974 19.1549 134.294 19.3705 134.55 19.652C134.733 19.8068 134.875 20.0048 134.964 20.2284L144.949 0.736572L146.191 1.10335Z" fill="black"/>
<path d="M155.928 105.364L156.845 105.018C157.104 105.468 157.399 105.969 157.727 106.506C158.127 107.134 158.689 107.642 159.354 107.977C159.914 108.298 160.492 108.586 161.085 108.842C161.616 109.072 162.13 109.338 162.625 109.638C163.264 109.967 163.848 110.393 164.355 110.901C164.827 111.402 165.197 111.99 165.446 112.632C165.826 113.632 166.014 114.695 165.999 115.764C165.998 116.651 165.929 117.536 165.792 118.412L165.463 118.533C165.463 117.91 165.463 117.114 165.567 116.162C165.6 115.201 165.405 114.246 164.996 113.376C164.761 112.858 164.465 112.37 164.113 111.922C163.748 111.481 163.294 111.121 162.781 110.867C162.181 110.529 161.524 110.306 160.842 110.209C160.212 110.052 159.552 110.052 158.922 110.209L163.179 121.267C163.341 121.704 163.383 122.176 163.3 122.634C163.249 123.133 163.096 123.617 162.85 124.053C162.581 124.477 162.255 124.861 161.881 125.196C161.517 125.513 161.102 125.765 160.652 125.94C160.388 126.047 160.106 126.106 159.821 126.113C159.563 126.136 159.303 126.1 159.06 126.009C158.812 125.948 158.585 125.823 158.402 125.646C158.219 125.479 158.076 125.271 157.987 125.04C157.827 124.608 157.797 124.139 157.901 123.69C158.005 123.214 158.186 122.758 158.437 122.34C158.689 121.899 159.004 121.497 159.371 121.146C159.709 120.829 160.102 120.576 160.531 120.402C160.781 120.301 161.043 120.231 161.31 120.194H161.794L155.928 105.364Z" fill="black"/>
</svg>
