<svg width="166" height="149" viewBox="0 0 166 149" fill="none" xmlns="http://www.w3.org/2000/svg">
<g clip-path="url(#clip0)">
<path d="M76.2197 54.3721V64.1497V67.0743H92.5733V64.1497V54.3721H76.2197Z" fill="#F8D6BF"/>
<path d="M136.02 103.656L137.114 102.779C140.349 100.184 140.869 95.4568 138.274 92.221L119.586 68.92C116.991 65.6842 112.264 65.1649 109.028 67.76L107.935 68.637C104.699 71.2322 104.179 75.9592 106.775 79.195L125.462 102.496C128.057 105.732 132.784 106.251 136.02 103.656Z" fill="white"/>
<path d="M92.5729 64.1497C84.7335 71.5564 76.2193 64.1497 76.2193 64.1497H53.8262V148.842H114.897V64.1497H92.5729Z" fill="white"/>
<path d="M122.771 80.0879C121.864 78.205 120.699 76.4577 119.31 74.8963C117.906 73.3133 116.28 71.9434 114.481 70.8296C112.797 69.7744 110.974 68.959 109.065 68.4068C106.297 67.615 103.383 67.4728 100.551 67.9915C97.5541 68.5239 94.7598 69.8642 92.469 71.8679C84.1362 78.4188 74.5913 83.2589 64.3824 86.1102C60.4119 87.1253 56.74 89.071 53.6704 91.7863C42.0758 102.17 41.8508 120.738 53.1685 133.492C64.4863 146.246 83.0549 148.236 94.7014 137.957C97.7498 135.278 100.122 131.915 101.624 128.145C104.484 121.199 108.255 114.664 112.837 108.711C114.708 106.252 116.761 103.938 118.981 101.789C121.865 99.062 123.792 95.4769 124.475 91.5669C125.158 87.6569 124.56 83.6309 122.771 80.0879Z" fill="#937A51"/>
<path d="M80.2513 126.847C89.8565 126.847 97.6432 119.06 97.6432 109.455C97.6432 99.8499 89.8565 92.0633 80.2513 92.0633C70.646 92.0633 62.8594 99.8499 62.8594 109.455C62.8594 119.06 70.646 126.847 80.2513 126.847Z" fill="#4F422C"/>
<path d="M80.2858 127.245C79.9224 127.245 79.559 127.245 79.1955 127.245C75.6941 127.042 72.3319 125.803 69.5356 123.686C66.7392 121.569 64.6346 118.67 63.4888 115.355C62.3431 112.04 62.2078 108.459 63.1001 105.067C63.9924 101.675 65.8722 98.625 68.5008 96.303C70.6438 94.3906 73.2195 93.0277 76.0061 92.3317C78.7928 91.6358 81.7068 91.6276 84.4973 92.3079C87.2878 92.9882 89.8711 94.3367 92.0248 96.2371C94.1784 98.1375 95.8379 100.533 96.8602 103.217C97.8825 105.901 98.2371 108.794 97.8933 111.645C97.5496 114.497 96.5178 117.222 94.8869 119.586C93.256 121.951 91.0749 123.883 88.5313 125.217C85.9878 126.551 83.158 127.247 80.2858 127.245ZM68.9335 96.6838C66.8389 98.5454 65.235 100.894 64.2636 103.523C63.2922 106.151 62.9832 108.979 63.3638 111.755C63.7444 114.532 64.803 117.171 66.446 119.442C68.089 121.712 70.2658 123.542 72.7842 124.772C75.3026 126.001 78.0849 126.591 80.8854 126.49C83.6859 126.388 86.4184 125.599 88.8414 124.191C91.2644 122.783 93.3033 120.8 94.778 118.417C96.2527 116.034 97.1179 113.325 97.297 110.528C97.5046 107.156 96.7075 103.798 95.0065 100.879C93.3056 97.9598 90.7771 95.6108 87.741 94.1288C84.7049 92.6469 81.2974 92.0986 77.9497 92.5534C74.6019 93.0082 71.4642 94.4456 68.9335 96.6838Z" fill="white"/>
<path d="M160.566 51.1015L161.777 52.832C161.985 53.1435 162.331 53.2646 162.539 53.0916L163.439 52.2782C163.629 52.1052 163.56 51.7591 163.283 51.5168L161.673 50.0805C161.604 50.0271 161.519 49.9982 161.431 49.9982C161.344 49.9982 161.258 50.0271 161.189 50.0805L160.6 50.5996C160.531 50.6627 160.489 50.7501 160.482 50.8436C160.476 50.9371 160.506 51.0295 160.566 51.1015Z" fill="black"/>
<path d="M159.758 49.7073L161.09 51.2089L161.776 50.6002L160.444 49.0986L159.758 49.7073Z" fill="black"/>
<path d="M157.173 53.2127L158.385 54.9432C158.61 55.2547 158.938 55.3758 159.146 55.1855L160.046 54.3894C160.236 54.2164 160.167 53.8703 159.89 53.628L158.281 52.1917C158.211 52.1383 158.126 52.1094 158.039 52.1094C157.951 52.1094 157.866 52.1383 157.796 52.1917L157.208 52.7108C157.139 52.7739 157.096 52.8613 157.09 52.9548C157.083 53.0483 157.113 53.1407 157.173 53.2127Z" fill="black"/>
<path d="M156.36 51.8747L157.692 53.3763L158.378 52.7676L157.046 51.266L156.36 51.8747Z" fill="black"/>
<path d="M153.73 55.324L154.941 57.0545C155.166 57.3487 155.495 57.4698 155.703 57.2968L156.603 56.5007C156.793 56.3277 156.724 55.9643 156.447 55.722L154.837 54.2857C154.771 54.2261 154.685 54.1931 154.595 54.1931C154.506 54.1931 154.42 54.2261 154.353 54.2857L153.765 54.8048C153.725 54.8348 153.693 54.8727 153.67 54.9161C153.647 54.9595 153.633 55.0074 153.63 55.0566C153.626 55.1057 153.634 55.155 153.651 55.2011C153.668 55.2472 153.695 55.2891 153.73 55.324Z" fill="black"/>
<path d="M152.904 54.0013L154.236 55.5029L154.922 54.8942L153.59 53.3926L152.904 54.0013Z" fill="black"/>
<path d="M147.725 36.565L146.115 35.1459C145.839 34.9037 145.752 34.5402 145.96 34.3672L146.86 33.5711C147.05 33.3981 147.396 33.5711 147.604 33.8134L148.832 35.544C148.889 35.6122 148.919 35.6978 148.919 35.7862C148.919 35.8746 148.889 35.9603 148.832 36.0285L148.244 36.5477C148.211 36.5833 148.172 36.6122 148.128 36.6324C148.084 36.6526 148.036 36.6639 147.988 36.6655C147.94 36.6671 147.892 36.659 147.846 36.6418C147.801 36.6245 147.76 36.5984 147.725 36.565Z" fill="black"/>
<path d="M149.647 36.9223L148.314 35.4207L147.628 36.0294L148.961 37.531L149.647 36.9223Z" fill="black"/>
<path d="M145.163 39.6799L143.554 38.2436C143.277 38.0013 143.191 37.6552 143.398 37.4821L144.298 36.6688C144.488 36.4957 144.835 36.6688 145.042 36.9284L146.271 38.6589C146.33 38.7255 146.363 38.8118 146.363 38.9012C146.363 38.9906 146.33 39.0768 146.271 39.1434L145.7 39.6626C145.629 39.7319 145.534 39.7721 145.435 39.7753C145.336 39.7785 145.239 39.7445 145.163 39.6799Z" fill="black"/>
<path d="M147.076 40.0373L145.744 38.5356L145.058 39.1444L146.39 40.646L147.076 40.0373Z" fill="black"/>
<path d="M142.637 42.8468L141.028 41.4104C140.751 41.1682 140.682 40.8221 140.872 40.649L141.772 39.8357C141.98 39.6626 142.326 39.8357 142.533 40.0952L143.762 41.8258C143.815 41.8953 143.844 41.9804 143.844 42.068C143.844 42.1557 143.815 42.2408 143.762 42.3103L143.174 42.8295C143.103 42.8988 143.008 42.939 142.909 42.9422C142.81 42.9454 142.713 42.9113 142.637 42.8468Z" fill="black"/>
<path d="M144.566 43.2039L143.233 41.7023L142.547 42.311L143.88 43.8126L144.566 43.2039Z" fill="black"/>
<path d="M138.225 49.1805L146.998 59.0792L166 45.7541L153.713 31.9098L138.225 49.1805Z" fill="#C4AB81"/>
<path d="M136.601 47.356L148.638 60.9222L151.667 58.2348L139.631 44.6685L136.601 47.356Z" fill="#C7A569"/>
<path d="M55.0907 119.671L67.127 133.237L70.1561 130.55L58.1198 116.984L55.0907 119.671Z" fill="#C7A569"/>
<path d="M60.5355 68.6554L59.442 67.7784C56.2062 65.1832 51.4792 65.7026 48.884 68.9384L30.1964 92.2393C27.6013 95.4752 28.1206 100.202 31.3564 102.797L32.4499 103.674C35.6858 106.269 40.4127 105.75 43.0079 102.514L61.6955 79.2133C64.2907 75.9775 63.7713 71.2505 60.5355 68.6554Z" fill="white"/>
<path d="M109.066 34.8518C109.066 49.7517 98.1631 61.8481 84.7169 61.8481C71.2706 61.8481 60.3682 49.7344 60.3682 34.8518C60.3627 31.865 60.812 28.8948 61.7007 26.0433C64.9887 15.4524 74.0395 7.83807 84.7169 7.83807C95.3943 7.83807 104.497 15.487 107.768 26.1298C108.636 28.9554 109.074 31.8958 109.066 34.8518Z" fill="#F8D6BF"/>
<path d="M85.235 41.895L84.8196 41.3758L86.5329 39.9914L84.4043 34.9728L85.01 34.7133L87.3462 40.1991L85.235 41.895Z" fill="#F8C7A6"/>
<path d="M59.9349 45.7022C64.4747 45.7022 68.1549 42.0219 68.1549 37.4821C68.1549 32.9423 64.4747 29.2621 59.9349 29.2621C55.3951 29.2621 51.7148 32.9423 51.7148 37.4821C51.7148 42.0219 55.3951 45.7022 59.9349 45.7022Z" fill="#F8D6BF"/>
<path d="M59.2079 42.2757C58.349 41.7044 57.6408 40.934 57.1436 40.0301C56.6464 39.1261 56.3751 38.1155 56.3525 37.0841C56.5026 36.2163 56.8386 35.3912 57.3375 34.6653C57.8363 33.9395 58.4862 33.3301 59.2425 32.8789L59.4848 33.2942C58.7972 33.7113 58.2057 34.2693 57.7493 34.9314C57.293 35.5936 56.9821 36.345 56.8371 37.136C56.8633 38.09 57.1212 39.0233 57.5885 39.8554C58.0558 40.6875 58.7185 41.3934 59.5194 41.9123L59.2079 42.2757Z" fill="#F8CAAB"/>
<path d="M59.5371 38.6416C57.4605 37.2399 56.7336 37.6725 56.7163 37.6898L56.4395 37.2572C56.526 37.2572 57.4259 36.6169 59.9005 38.209L59.5371 38.6416Z" fill="#F8CAAB"/>
<path d="M109.757 45.7022C114.297 45.7022 117.977 42.0219 117.977 37.4821C117.977 32.9423 114.297 29.2621 109.757 29.2621C105.217 29.2621 101.537 32.9423 101.537 37.4821C101.537 42.0219 105.217 45.7022 109.757 45.7022Z" fill="#F8D6BF"/>
<path d="M110.501 42.2757L110.189 41.9123C110.985 41.3881 111.644 40.6809 112.111 39.85C112.577 39.019 112.838 38.0884 112.872 37.136C112.72 36.3475 112.406 35.5991 111.95 34.9379C111.494 34.2767 110.907 33.7171 110.224 33.2942L110.466 32.8789C111.218 33.3353 111.865 33.9462 112.363 34.6711C112.861 35.3961 113.2 36.2185 113.356 37.0841C113.334 38.1155 113.062 39.1261 112.565 40.0301C112.068 40.934 111.36 41.7044 110.501 42.2757Z" fill="#F8CAAB"/>
<path d="M110.155 38.6416L109.896 38.2436C112.284 36.6515 113.166 37.2226 113.27 37.2918L112.976 37.6725L113.114 37.4821L112.993 37.6898C112.993 37.6898 112.249 37.2572 110.155 38.6416Z" fill="#F8CAAB"/>
<path d="M70.509 46.9136C73.5482 46.9136 76.0121 44.4497 76.0121 41.4105C76.0121 38.3712 73.5482 35.9073 70.509 35.9073C67.4697 35.9073 65.0059 38.3712 65.0059 41.4105C65.0059 44.4497 67.4697 46.9136 70.509 46.9136Z" fill="#F8BBA6"/>
<path d="M98.9064 46.9136C101.946 46.9136 104.41 44.4497 104.41 41.4105C104.41 38.3712 101.946 35.9073 98.9064 35.9073C95.8671 35.9073 93.4033 38.3712 93.4033 41.4105C93.4033 44.4497 95.8671 46.9136 98.9064 46.9136Z" fill="#F8BBA6"/>
<path d="M113.461 21.1286C113.034 21.1047 112.617 20.9954 112.234 20.8071C111.851 20.6188 111.51 20.3554 111.23 20.0325C110.951 19.7096 110.739 19.3338 110.608 18.9275C110.477 18.5213 110.429 18.0928 110.467 17.6675C110.568 16.6167 110.393 15.5577 109.959 14.5955C109.525 13.6332 108.847 12.8011 107.992 12.1817C107.992 12.1817 104.791 4.63656 97.7127 4.70578C97.7127 4.70578 88.2294 -2.35481 80.1997 2.80219C80.1997 2.80219 74.3678 1.07165 68.8128 7.78613C62.1156 9.08403 60.7485 16.4907 60.7485 16.4907C60.3299 16.766 59.8467 16.9271 59.3467 16.958C58.6026 16.958 57.8238 16.4734 57.2874 14.9159C57.2874 14.9159 56.4048 19.3807 59.6755 18.5328C59.6755 18.5328 55.5222 19.9864 56.8374 23.5167C57.9796 26.5798 56.4913 27.5662 55.6953 27.4969L55.3838 27.3931C55.5022 27.563 55.6536 27.7073 55.8291 27.8173C56.0045 27.9273 56.2003 28.0008 56.4048 28.0334C57.7426 28.3753 59.1582 28.2344 60.4023 27.6354C60.1947 27.9642 60.9215 29.3659 60.9215 29.3659C63.0501 29.3659 68.3455 22.2707 68.3455 22.2707C68.6688 22.6826 68.9049 23.156 69.0394 23.662C69.1739 24.1681 69.2041 24.6962 69.128 25.2142C69.0519 25.7323 68.8712 26.2294 68.5968 26.6754C68.3225 27.1214 67.9602 27.5069 67.5322 27.8084C67.8436 27.67 72.7238 25.4895 74.4543 22.1323C74.4543 22.1323 75.4753 25.9914 73.3641 28.1545C73.3641 28.1545 81.5322 23.6725 80.6496 15.1582C80.6496 15.1582 84.3011 26.6836 95.3073 24.5377C95.3073 24.5377 92.9018 22.1323 95.3073 15.6774C95.3073 15.6774 98.7683 27.5835 108.65 29.4005L109.688 29.314C110.069 29.1074 110.359 28.7651 110.5 28.3549C110.641 27.9446 110.623 27.4964 110.449 27.0989C111.176 28.3968 112.855 27.0989 112.855 27.0989C111.28 27.6873 111.28 25.1088 111.28 25.1088C111.506 24.3877 111.536 23.6193 111.366 22.8829C111.195 22.1466 110.831 21.4692 110.311 20.9209C110.553 21.2151 112.457 22.9283 113.461 21.1286Z" fill="#F2E179"/>
<path d="M109.065 64.0112V68.4068C106.297 67.615 103.383 67.4728 100.551 67.9915V64.0112H109.065Z" fill="#FE77BE"/>
<path d="M76.2371 63.7517L84.4052 66.6936L74.0566 71.3834L76.2371 63.7517Z" fill="#F7F7F7"/>
<path d="M92.5897 63.7517L84.4043 66.6936L94.7702 71.3834L92.5897 63.7517Z" fill="#F7F7F7"/>
<path d="M78.3653 32.6713C77.0966 32.5734 75.9081 32.013 75.0254 31.0965L75.4926 30.6465C76.2846 31.4504 77.3433 31.9367 78.4692 32.0137C78.9388 31.9749 79.3943 31.834 79.8038 31.6008C80.2133 31.3677 80.5669 31.0479 80.84 30.6639L81.3419 31.0792C81.0123 31.5382 80.5855 31.9189 80.092 32.1941C79.5984 32.4693 79.0502 32.6322 78.4865 32.6713H78.3653Z" fill="black"/>
<path d="M92.7625 32.6713C91.4877 32.5775 90.2923 32.0168 89.4053 31.0965L89.8898 30.6465C90.6765 31.4479 91.7289 31.9342 92.849 32.0137C93.3205 31.9728 93.7777 31.8311 94.1898 31.5982C94.6018 31.3653 94.959 31.0467 95.2372 30.6639L95.739 31.0792C95.4059 31.5387 94.976 31.9194 94.4796 32.1945C93.9833 32.4696 93.4325 32.6324 92.8663 32.6713H92.7625Z" fill="black"/>
<path d="M90.4962 49.3709C90.5014 50.6383 90.0533 51.8659 89.2329 52.832C88.8227 53.3255 88.3098 53.7236 87.73 53.9986C87.1502 54.2736 86.5173 54.4188 85.8756 54.4241C85.2362 54.4198 84.6056 54.2749 84.0284 53.9998C83.4513 53.7247 82.9416 53.326 82.5357 52.832C81.6994 51.8741 81.2437 50.6425 81.2551 49.3709C81.2512 48.2337 81.6087 47.1248 82.2761 46.204C82.6765 45.6187 83.2135 45.1398 83.8408 44.8089C84.468 44.478 85.1665 44.3051 85.8756 44.3051C86.5848 44.3051 87.2833 44.478 87.9105 44.8089C88.5377 45.1398 89.0748 45.6187 89.4751 46.204C90.1425 47.1248 90.5001 48.2337 90.4962 49.3709Z" fill="#FFC7C7"/>
<path d="M89.4754 46.1348H82.2764C82.6767 45.5495 83.2138 45.0706 83.841 44.7397C84.4683 44.4088 85.1667 44.2358 85.8759 44.2358C86.5851 44.2358 87.2835 44.4088 87.9107 44.7397C88.538 45.0706 89.075 45.5495 89.4754 46.1348Z" fill="white"/>
<path d="M89.2333 52.832C88.8231 53.3256 88.3103 53.7237 87.7304 53.9986C87.1506 54.2736 86.5178 54.4188 85.8761 54.4241C85.2367 54.4198 84.6061 54.275 84.0289 53.9998C83.4517 53.7247 82.9421 53.326 82.5361 52.832H89.2333Z" fill="white"/>
<path d="M60.0028 119.094L68.2949 128.44L146.767 58.818L138.475 49.4717L60.0028 119.094Z" fill="#C4BDB0"/>
<path d="M67.8086 127.885L67.6875 127.764L146.167 58.1447L146.271 58.2659L67.8086 127.885Z" fill="black"/>
<path d="M66.7708 126.726L66.667 126.605L145.147 56.9853L145.251 57.1064L66.7708 126.726Z" fill="black"/>
<path d="M65.7327 125.566L65.6289 125.445L144.109 55.8258L144.213 55.9469L65.7327 125.566Z" fill="black"/>
<path d="M64.7113 124.407L64.6074 124.286L143.07 54.649L143.191 54.7702L64.7113 124.407Z" fill="black"/>
<path d="M63.6732 123.248L63.5693 123.109L142.049 53.4896L142.153 53.6108L63.6732 123.248Z" fill="black"/>
<path d="M62.6351 122.071L62.5312 121.95L141.011 52.3301L141.115 52.4513L62.6351 122.071Z" fill="black"/>
<path d="M61.6136 120.911L61.5098 120.79L139.972 51.1707L140.093 51.2918L61.6136 120.911Z" fill="black"/>
<path d="M60.5755 119.752L60.4717 119.631L138.952 49.9939L139.055 50.1323L60.5755 119.752Z" fill="black"/>
<path d="M142.87 56.8257L142.66 56.9065C142.063 57.1365 141.765 57.8074 141.995 58.405L143.828 63.1694C144.058 63.7671 144.729 64.0651 145.327 63.8351L145.537 63.7543C146.134 63.5243 146.432 62.8533 146.202 62.2557L144.369 57.4913C144.139 56.8937 143.468 56.5957 142.87 56.8257Z" fill="#F8CAAB"/>
<path d="M137.577 59.9874L137.367 60.0682C136.77 60.2982 136.472 60.9691 136.702 61.5667L138.535 66.3311C138.765 66.9287 139.436 67.2267 140.034 66.9967L140.244 66.9159C140.841 66.6859 141.139 66.015 140.909 65.4174L139.076 60.653C138.846 60.0554 138.175 59.7574 137.577 59.9874Z" fill="#F8CAAB"/>
<path d="M140.347 58.926L140.137 59.0068C139.539 59.2368 139.241 59.9077 139.471 60.5053L141.305 65.2697C141.535 65.8673 142.206 66.1653 142.803 65.9353L143.013 65.8545C143.611 65.6245 143.909 64.9536 143.679 64.356L141.845 59.5916C141.615 58.994 140.944 58.696 140.347 58.926Z" fill="#F8CAAB"/>
<path d="M135.47 62.9375L135.26 63.0183C134.662 63.2483 134.364 63.9192 134.594 64.5168L136.428 69.2812C136.658 69.8789 137.329 70.1769 137.926 69.9469L138.136 69.8661C138.734 69.6361 139.032 68.9651 138.802 68.3675L136.968 63.6031C136.738 63.0055 136.067 62.7075 135.47 62.9375Z" fill="#F8CAAB"/>
<path d="M139.034 67.012L133.477 86.0673L140.188 88.0249L145.746 68.9696L139.034 67.012Z" fill="#F8C9A9"/>
<path d="M133.267 72.6008L149.024 77.2294L141.449 103.015C140.888 104.926 139.59 106.536 137.842 107.491C136.093 108.445 134.037 108.666 132.126 108.104L130.765 107.705C128.854 107.143 127.244 105.845 126.289 104.097C125.335 102.349 125.114 100.293 125.676 98.3817L133.25 72.5959L133.267 72.6008Z" fill="white"/>
<path d="M64.0537 111.843L39.5146 106.375L41.6086 99.643L66.1649 105.111L64.0537 111.843Z" fill="#F8D6BF"/>
<path d="M143.048 57.2538L142.838 57.3346C142.24 57.5646 141.942 58.2356 142.172 58.8332L144.006 63.5976C144.236 64.1952 144.907 64.4932 145.505 64.2632L145.714 64.1824C146.312 63.9524 146.61 63.2815 146.38 62.6839L144.546 57.9195C144.316 57.3218 143.646 57.0238 143.048 57.2538Z" fill="#F8D6BF"/>
<path d="M137.768 60.5073L137.558 60.5881C136.96 60.8181 136.662 61.489 136.892 62.0867L138.726 66.8511C138.956 67.4487 139.627 67.7467 140.224 67.5167L140.434 67.4359C141.032 67.2059 141.33 66.535 141.1 65.9374L139.266 61.1729C139.036 60.5753 138.365 60.2773 137.768 60.5073Z" fill="#F8D6BF"/>
<path d="M140.606 59.6011L140.397 59.6819C139.799 59.9119 139.501 60.5828 139.731 61.1804L141.565 65.9448C141.795 66.5424 142.466 66.8405 143.063 66.6104L143.273 66.5296C143.871 66.2996 144.169 65.6287 143.939 65.0311L142.105 60.2667C141.875 59.6691 141.204 59.3711 140.606 59.6011Z" fill="#F8D6BF"/>
<path d="M135.699 63.5207L135.489 63.6015C134.892 63.8316 134.594 64.5025 134.824 65.1001L136.657 69.8645C136.887 70.4621 137.558 70.7601 138.156 70.5301L138.366 70.4493C138.963 70.2193 139.261 69.5484 139.031 68.9508L137.198 64.1864C136.968 63.5888 136.297 63.2907 135.699 63.5207Z" fill="#F8D6BF"/>
<path d="M52.6494 97.951L48.0208 113.708L29.7566 108.343C28.8129 108.056 27.9348 107.587 27.1726 106.96C26.4103 106.334 25.7789 105.564 25.3143 104.694C24.8497 103.824 24.561 102.871 24.4647 101.89C24.3685 100.908 24.4665 99.917 24.7532 98.9732L25.1532 97.6117C25.7146 95.7005 27.0122 94.0906 28.7606 93.1362C30.5089 92.1818 32.5649 91.961 34.476 92.5224L52.7402 97.8875L52.6494 97.951Z" fill="white"/>
<path d="M137.141 64.1276L143.31 61.7532C143.931 61.5142 144.622 61.5317 145.23 61.8018C145.838 62.072 146.314 62.5727 146.553 63.1938L146.932 64.1789C147.439 65.4939 147.402 66.9561 146.83 68.2438C146.258 69.5315 145.197 70.5393 143.882 71.0454L142.946 71.4059C141.631 71.912 140.169 71.875 138.881 71.303C137.593 70.731 136.585 69.6709 136.079 68.3559L135.7 67.3708C135.461 66.7497 135.479 66.0591 135.749 65.4509C136.019 64.8426 136.52 64.3667 137.141 64.1276Z" fill="#F8D6BF"/>
<path d="M149.261 62.4438L149.078 62.2602C148.585 61.7669 147.785 61.7669 147.291 62.2602L145.468 64.0835C144.975 64.5769 144.975 65.3767 145.468 65.8701L145.652 66.0536C146.145 66.547 146.945 66.547 147.438 66.0536L149.261 64.2303C149.755 63.737 149.755 62.9371 149.261 62.4438Z" fill="#F8D6BF"/>
<path d="M62.7899 109.142L63.0526 108.209C63.4346 106.853 64.3398 105.704 65.5689 105.015C66.798 104.326 68.2505 104.153 69.6067 104.535L70.6228 104.822C70.94 104.911 71.2365 105.062 71.4953 105.266C71.7542 105.47 71.9703 105.723 72.1315 106.01C72.2926 106.298 72.3955 106.614 72.4343 106.941C72.4732 107.268 72.4472 107.6 72.3579 107.917L70.5751 114.247C70.3946 114.888 69.9671 115.43 69.3866 115.756C68.8061 116.081 68.1201 116.162 67.4795 115.982L66.4634 115.696C65.1071 115.314 63.9582 114.409 63.2693 113.18C62.5803 111.95 62.4079 110.498 62.7899 109.142Z" fill="#F8CDB0"/>
<path d="M69.7445 105.727L69.6835 105.944C69.5099 106.56 69.8688 107.201 70.4852 107.374L75.3991 108.758C76.0154 108.932 76.6558 108.573 76.8294 107.957L76.8904 107.74C77.064 107.124 76.7051 106.483 76.0887 106.31L71.1748 104.926C70.5585 104.752 69.9181 105.111 69.7445 105.727Z" fill="#F8CDB0"/>
<path d="M72.8148 106.597L72.7538 106.813C72.5802 107.43 72.9391 108.07 73.5555 108.244L78.4694 109.628C79.0858 109.801 79.7262 109.442 79.8998 108.826L79.9607 108.609C80.1343 107.993 79.7754 107.353 79.159 107.179L74.2451 105.795C73.6288 105.621 72.9884 105.98 72.8148 106.597Z" fill="#F8CDB0"/>
<path d="M66.9691 111.278L66.9081 111.495C66.7345 112.111 67.0934 112.752 67.7098 112.925L72.6237 114.309C73.2401 114.483 73.8805 114.124 74.0541 113.508L74.1151 113.291C74.2887 112.675 73.9297 112.034 73.3133 111.861L68.3995 110.477C67.7831 110.303 67.1427 110.662 66.9691 111.278Z" fill="#F8CDB0"/>
<path d="M68.7826 108.674L68.7216 108.89C68.548 109.507 68.9069 110.147 69.5233 110.321L74.4372 111.705C75.0535 111.878 75.6939 111.519 75.8675 110.903L75.9285 110.687C76.1021 110.07 75.7432 109.43 75.1268 109.256L70.2129 107.872C69.5965 107.699 68.9562 108.058 68.7826 108.674Z" fill="#F8CDB0"/>
<path d="M64.1829 113.628L64.122 113.845C63.9483 114.461 64.3073 115.102 64.9237 115.275L69.8375 116.659C70.4539 116.833 71.0943 116.474 71.2679 115.858L71.3289 115.641C71.5025 115.025 71.1436 114.384 70.5272 114.211L65.6133 112.827C64.9969 112.653 64.3565 113.012 64.1829 113.628Z" fill="#F8CDB0"/>
<path d="M67.8581 105.944L68.0579 106.109C68.5949 106.555 69.3913 106.48 69.8367 105.943L71.4827 103.959C71.9281 103.422 71.8538 102.625 71.3168 102.18L71.117 102.014C70.5799 101.569 69.7835 101.643 69.3381 102.18L67.6921 104.165C67.2467 104.702 67.321 105.498 67.8581 105.944Z" fill="#F8CDB0"/>
</g>
<defs>
<clipPath id="clip0">
<rect width="165.82" height="147.926" fill="white" transform="translate(0.179688 0.915894)"/>
</clipPath>
</defs>
</svg>
