<svg width="209" height="24" viewBox="0 0 209 24" fill="none" xmlns="http://www.w3.org/2000/svg">
<path d="M40.9462 19.9787C40.4871 19.8239 40.0902 19.5252 39.8143 19.127C39.5383 18.7288 39.3982 18.2523 39.4145 17.7682C39.432 17.2842 39.5908 16.8159 39.8714 16.4212C40.1521 16.0265 40.5422 15.7226 40.9936 15.5471V14.3997C40.534 14.2457 40.1366 13.9472 39.8606 13.5488C39.5845 13.1505 39.4447 12.6735 39.4619 12.1892C39.4803 11.7061 39.6397 11.239 39.9202 10.8453C40.2008 10.4516 40.5904 10.1486 41.041 9.97342V8.82605C40.576 8.6768 40.1721 8.38051 39.8901 7.98182C39.6082 7.58313 39.4634 7.10362 39.4777 6.61552C39.4951 6.13155 39.654 5.66329 39.9346 5.26857C40.2152 4.87386 40.6054 4.56998 41.0568 4.39447V3.45763C40.7286 3.46832 40.4019 3.41069 40.0972 3.2884C39.7926 3.16611 39.5166 2.98182 39.287 2.74724C39.0573 2.51266 38.879 2.23291 38.7632 1.92574C38.6474 1.61856 38.5967 1.29068 38.6144 0.962891L2.61079 0.99447C2.62115 1.3268 2.56172 1.65761 2.43634 1.96557C2.31096 2.27352 2.12241 2.55177 1.88286 2.78238C1.6433 3.01298 1.35807 3.19081 1.04554 3.30439C0.733024 3.41798 0.40016 3.46481 0.068428 3.44184V4.37342C0.527516 4.52821 0.924469 4.82686 1.20039 5.22506C1.47631 5.62325 1.6165 6.09979 1.60016 6.58395C1.5827 7.06792 1.42384 7.53618 1.14321 7.9309C0.862581 8.32561 0.472468 8.62949 0.0210548 8.805V9.95237C0.485101 10.1008 0.888174 10.3963 1.16929 10.7942C1.4504 11.1921 1.59427 11.6707 1.57911 12.1576C1.56063 12.6407 1.40131 13.1078 1.12074 13.5015C0.840178 13.8952 0.450614 14.1983 0 14.3734L0 15.5208C0.468817 15.6675 0.876837 15.9634 1.16191 16.3634C1.44699 16.7634 1.59349 17.2456 1.57911 17.7366C1.56031 18.2202 1.40093 18.6879 1.12048 19.0823C0.840019 19.4768 0.450645 19.781 0 19.9576V20.8892C0.328379 20.8793 0.655247 20.9376 0.959923 21.0605C1.2646 21.1834 1.54045 21.3681 1.77002 21.6031C1.99958 21.8381 2.17787 22.1182 2.2936 22.4256C2.40933 22.7331 2.45998 23.0612 2.44235 23.3892L38.4144 23.4418C38.4037 23.1138 38.4613 22.787 38.5836 22.4824C38.706 22.1778 38.8903 21.9019 39.1249 21.6722C39.3595 21.4426 39.6392 21.2642 39.9464 21.1485C40.2537 21.0327 40.5816 20.9821 40.9094 20.9997L40.9462 19.9787Z" fill="white"/>
<path d="M35.1457 19.037L5.81641 18.9422L5.87957 5.31592H35.2667L35.1457 19.037ZM7.0639 17.7212H33.9613V6.66855H7.0639V17.7212Z" fill="#FFD15C"/>
<path d="M9.85916 10.8525L11.3435 10.7683L11.3277 14.8998L12.2278 14.9735L12.2436 10.842L13.728 10.7577L13.7648 9.94722L9.84863 9.9209L9.85916 10.8525Z" fill="black"/>
<path d="M15.0383 9.93652H14.0908V14.9734H15.0383V9.93652Z" fill="black"/>
<path d="M19.3385 13.5841C19.2101 13.7834 19.0318 13.9455 18.8212 14.0545C18.6107 14.1635 18.3753 14.2154 18.1384 14.2052C17.9138 14.2096 17.6908 14.1669 17.4838 14.0797C17.2768 13.9926 17.0904 13.863 16.9366 13.6993C16.7828 13.5356 16.665 13.3415 16.591 13.1294C16.5169 12.9174 16.4882 12.6922 16.5067 12.4683C16.4878 12.2463 16.5174 12.0228 16.5932 11.8133C16.669 11.6037 16.7894 11.4131 16.946 11.2545C17.1026 11.096 17.2917 10.9732 17.5002 10.8947C17.7088 10.8162 17.9319 10.7839 18.1542 10.7999C18.3838 10.8136 18.6079 10.8755 18.812 10.9816C19.0161 11.0877 19.1955 11.2356 19.3385 11.4157L19.3912 11.5367L20.2123 11.0631L20.0755 10.9052C19.8542 10.5949 19.5654 10.3389 19.2307 10.1566C18.8961 9.9742 18.5244 9.87025 18.1437 9.85254C17.8029 9.85565 17.4661 9.92584 17.1524 10.0591C16.8388 10.1924 16.5544 10.3861 16.3157 10.6293C16.0769 10.8724 15.8884 11.1602 15.7608 11.4762C15.6333 11.7922 15.5693 12.1302 15.5724 12.471C15.5755 12.8117 15.6457 13.1485 15.779 13.4621C15.9123 13.7757 16.106 14.06 16.3492 14.2988C16.5923 14.5375 16.8802 14.726 17.1962 14.8536C17.5122 14.9811 17.8503 15.0451 18.1911 15.042C18.5727 15.0549 18.9506 14.9637 19.2844 14.7783C19.6182 14.5929 19.8953 14.3202 20.086 13.9894L20.1597 13.8157L19.328 13.3525L19.3385 13.5841Z" fill="black"/>
<path d="M24.408 9.9738L23.2974 9.91064L21.4604 12.0159L21.4288 9.93169L20.5761 9.97906L20.5234 14.9212L21.4604 14.9106L21.4498 13.2527L21.7709 12.9738L23.4185 14.9212L24.6502 14.937L22.371 12.3054L24.408 9.9738Z" fill="black"/>
<path d="M24.8656 14.9262L28.2712 14.942L28.2238 14.0946L25.7499 14.0631L25.7657 12.8315L28.1501 12.821L28.1869 12.0104L25.713 11.9841L25.8183 10.7841L28.287 10.8104L28.2396 9.96305L24.834 9.94727L24.8656 14.9262Z" fill="black"/>
<path d="M28.5762 9.8999L28.5867 10.8367H30.0342L30.0184 14.9683L30.9501 14.9578L30.9711 10.8262L32.5029 10.8683L32.4924 9.93148L28.5762 9.8999Z" fill="black"/>
<path d="M206.421 0.131836H178.523C177.838 0.133227 177.181 0.405938 176.697 0.89027C176.213 1.3746 175.94 2.0311 175.938 2.71604V21.3055C175.94 21.9905 176.213 22.647 176.697 23.1313C177.181 23.6156 177.838 23.8883 178.523 23.8897H206.421C207.105 23.8883 207.761 23.6155 208.245 23.131C208.728 22.6465 209 21.99 209 21.3055V2.71604C209 2.03158 208.728 1.37507 208.245 0.890591C207.761 0.406109 207.105 0.13323 206.421 0.131836Z" fill="white"/>
<path d="M187.309 10.4632H181.113C180.834 10.4632 180.566 10.3523 180.369 10.1549C180.171 9.95747 180.061 9.68973 180.061 9.41056V5.31582C180.061 5.03664 180.171 4.7689 180.369 4.57149C180.566 4.37408 180.834 4.26318 181.113 4.26318H187.309C187.588 4.26318 187.856 4.37408 188.053 4.57149C188.25 4.7689 188.361 5.03664 188.361 5.31582V9.4474C188.352 9.72014 188.237 9.97851 188.04 10.168C187.844 10.3575 187.582 10.4634 187.309 10.4632Z" fill="#FFD100"/>
<path d="M183.703 17.1736H181.124C180.845 17.1736 180.577 17.0627 180.38 16.8653C180.182 16.6679 180.071 16.4001 180.071 16.1209V15.5946C180.071 15.3154 180.182 15.0477 180.38 14.8503C180.577 14.6529 180.845 14.542 181.124 14.542H183.703C183.982 14.542 184.25 14.6529 184.448 14.8503C184.645 15.0477 184.756 15.3154 184.756 15.5946V16.1209C184.756 16.4001 184.645 16.6679 184.448 16.8653C184.25 17.0627 183.982 17.1736 183.703 17.1736Z" fill="#B8BAC0"/>
<path d="M190.409 17.1736H187.824C187.545 17.1736 187.277 17.0627 187.08 16.8653C186.882 16.6679 186.771 16.4001 186.771 16.1209V15.5946C186.771 15.3154 186.882 15.0477 187.08 14.8503C187.277 14.6529 187.545 14.542 187.824 14.542H190.409C190.688 14.542 190.956 14.6529 191.153 14.8503C191.35 15.0477 191.461 15.3154 191.461 15.5946V16.1209C191.461 16.4001 191.35 16.6679 191.153 16.8653C190.956 17.0627 190.688 17.1736 190.409 17.1736Z" fill="#B8BAC0"/>
<path d="M197.12 17.1736H194.541C194.262 17.1736 193.994 17.0627 193.797 16.8653C193.599 16.6679 193.488 16.4001 193.488 16.1209V15.5946C193.488 15.3154 193.599 15.0477 193.797 14.8503C193.994 14.6529 194.262 14.542 194.541 14.542H197.12C197.399 14.542 197.667 14.6529 197.865 14.8503C198.062 15.0477 198.173 15.3154 198.173 15.5946V16.1209C198.173 16.4001 198.062 16.6679 197.865 16.8653C197.667 17.0627 197.399 17.1736 197.12 17.1736Z" fill="#B8BAC0"/>
<path d="M203.836 17.1736H201.252C200.973 17.1736 200.705 17.0627 200.508 16.8653C200.31 16.6679 200.199 16.4001 200.199 16.1209V15.5946C200.199 15.3154 200.31 15.0477 200.508 14.8503C200.705 14.6529 200.973 14.542 201.252 14.542H203.836C204.116 14.542 204.383 14.6529 204.581 14.8503C204.778 15.0477 204.889 15.3154 204.889 15.5946V16.1209C204.889 16.4001 204.778 16.6679 204.581 16.8653C204.383 17.0627 204.116 17.1736 203.836 17.1736Z" fill="#B8BAC0"/>
<path d="M190.925 20.2738H180.598C180.458 20.2738 180.324 20.2184 180.225 20.1197C180.127 20.021 180.071 19.8871 180.071 19.7475C180.071 19.6079 180.127 19.474 180.225 19.3753C180.324 19.2766 180.458 19.2212 180.598 19.2212H190.925C191.065 19.2212 191.198 19.2766 191.297 19.3753C191.396 19.474 191.451 19.6079 191.451 19.7475C191.451 19.8871 191.396 20.021 191.297 20.1197C191.198 20.2184 191.065 20.2738 190.925 20.2738Z" fill="#8A8895"/>
<path d="M197.641 20.2738H192.988C192.849 20.2738 192.715 20.2184 192.616 20.1197C192.517 20.021 192.462 19.8871 192.462 19.7475C192.462 19.6079 192.517 19.474 192.616 19.3753C192.715 19.2766 192.849 19.2212 192.988 19.2212H197.641C197.781 19.2212 197.915 19.2766 198.014 19.3753C198.112 19.474 198.168 19.6079 198.168 19.7475C198.168 19.8871 198.112 20.021 198.014 20.1197C197.915 20.2184 197.781 20.2738 197.641 20.2738Z" fill="#8A8895"/>
<path d="M199.705 9.42653C199.286 9.89472 198.736 10.2248 198.125 10.3731C197.515 10.5214 196.874 10.4808 196.288 10.2569C195.701 10.0329 195.196 9.63612 194.84 9.11896C194.484 8.6018 194.293 7.98867 194.293 7.36074C194.293 6.73282 194.484 6.11969 194.84 5.60253C195.196 5.08536 195.701 4.68855 196.288 4.4646C196.874 4.24065 197.515 4.20013 198.125 4.34841C198.736 4.49669 199.286 4.82676 199.705 5.29495" fill="#FF4F19"/>
<path d="M188.34 7.87898H183.176V6.8474H188.34V5.81055H183.176V4.26318H182.145V10.4632H183.176V8.91056H188.34V7.87898Z" fill="#FF9500"/>
<path d="M201.772 10.4632C203.484 10.4632 204.872 9.07527 204.872 7.36319C204.872 5.6511 203.484 4.26318 201.772 4.26318C200.06 4.26318 198.672 5.6511 198.672 7.36319C198.672 9.07527 200.06 10.4632 201.772 10.4632Z" fill="#FFD100"/>
</svg>
