<svg width="203" height="136" viewBox="0 0 203 136" fill="none" xmlns="http://www.w3.org/2000/svg">
<path d="M172.88 59.6L158.613 81.626L166.367 86.6473L180.634 64.6213L172.88 59.6Z" fill="#F8D6BF"/>
<path d="M193.441 65.7896C193.329 66.1701 193.171 66.5358 192.973 66.8791C192.45 67.7927 191.703 68.5587 190.804 69.1054C186.261 69.2317 179.75 65.9844 179.75 65.9844L177.929 68.7949C173.797 66.6159 171.418 62.8528 172.402 59.537C173.602 55.5054 179.282 53.6528 185.088 55.3791C190.893 57.1054 194.636 61.7738 193.441 65.7896Z" fill="#F8D6BF"/>
<path d="M182.626 61.3113C187.545 60.1357 191.143 57.5464 190.66 55.5278C190.178 53.5092 185.798 52.8258 180.879 54.0013C175.959 55.1769 172.362 57.7663 172.844 59.7849C173.327 61.8034 177.706 62.4869 182.626 61.3113Z" fill="#F8D6BF"/>
<path d="M189.196 56.6155L199.468 59.6697C199.835 59.7787 200.143 60.0289 200.326 60.3652C200.508 60.7015 200.549 61.0964 200.44 61.463L200.318 61.8717C200.209 62.2383 199.959 62.5466 199.623 62.7287C199.286 62.9109 198.891 62.9519 198.525 62.8429L188.252 59.7887C188.149 59.7581 188.063 59.6878 188.012 59.5933C187.96 59.4988 187.949 59.3878 187.979 59.2848L188.694 56.8834C188.725 56.7817 188.796 56.6965 188.89 56.6463C188.984 56.5962 189.094 56.5851 189.196 56.6155Z" fill="#F8D6BF"/>
<path d="M190.543 61.0351L200.831 64.1427C201.198 64.2536 201.506 64.5058 201.687 64.8439C201.869 65.1819 201.908 65.5781 201.797 65.9453L201.674 66.3546C201.563 66.7218 201.31 67.0298 200.972 67.211C200.634 67.3922 200.238 67.4317 199.871 67.3208L189.583 64.2132C189.479 64.182 189.393 64.1112 189.342 64.0162C189.291 63.9212 189.28 63.8098 189.311 63.7066L190.031 61.3218C190.045 61.2688 190.07 61.2192 190.103 61.1758C190.136 61.1325 190.178 61.0964 190.226 61.0696C190.274 61.0428 190.326 61.026 190.381 61.02C190.435 61.0141 190.49 61.0192 190.543 61.0351Z" fill="#F8D6BF"/>
<path d="M187.91 63.6568L198.198 66.7643C198.565 66.8753 198.874 67.1275 199.055 67.4655C199.236 67.8036 199.275 68.1998 199.165 68.567L199.041 68.9762C198.93 69.3434 198.678 69.6515 198.34 69.8327C198.002 70.0139 197.605 70.0534 197.238 69.9424L186.95 66.8349C186.847 66.8037 186.76 66.7328 186.709 66.6378C186.658 66.5428 186.647 66.4315 186.678 66.3283L187.405 63.9232C187.436 63.8201 187.507 63.7335 187.602 63.6826C187.697 63.6316 187.808 63.6205 187.912 63.6517L187.91 63.6568Z" fill="#F8D6BF"/>
<path d="M183.646 64.679L194.049 67.7722C194.399 67.8761 194.692 68.1144 194.866 68.4347C195.039 68.7551 195.079 69.1312 194.975 69.4805C194.871 69.8297 194.633 70.1233 194.312 70.2968C193.992 70.4703 193.616 70.5095 193.266 70.4056L182.863 67.3124C182.777 67.287 182.705 67.2285 182.663 67.15C182.62 67.0714 182.61 66.9792 182.636 66.8935L183.236 64.8756C183.261 64.79 183.32 64.718 183.398 64.6754C183.477 64.6329 183.569 64.6233 183.655 64.6487L183.646 64.679Z" fill="#F8D6BF"/>
<g opacity="0.1">
<path opacity="0.1" d="M192.272 62.9353C192.64 61.6982 190.126 59.8592 186.657 58.8277C183.188 57.7963 180.077 57.963 179.709 59.2C179.341 60.4371 181.855 62.2761 185.324 63.3076C188.794 64.339 191.904 64.1723 192.272 62.9353Z" fill="black"/>
</g>
<path d="M92.6045 54.979V65.7527V68.979H110.601V65.7527V54.979H92.6045Z" fill="#F8D6BF"/>
<path d="M131.819 28.4211H72.1025C72.3659 26.4367 72.7991 24.4787 73.3974 22.5684C77.4715 9.42632 88.6937 0 101.958 0C115.223 0 126.497 9.47369 130.551 22.6632C131.132 24.544 131.557 26.4699 131.819 28.4211Z" fill="#4F331E"/>
<path d="M135.335 65.3633V136H68.1387V65.3633H92.7412V68.5949H110.738V65.3633H135.335Z" fill="white"/>
<path d="M92.736 65.3633L101.737 68.5949L90.3252 73.7633L92.736 65.3633Z" fill="#F7FBFF"/>
<path d="M110.738 65.3633L101.737 68.5949L113.149 73.7633L110.738 65.3633Z" fill="#F7FBFF"/>
<path d="M101.737 68.5947L97.3105 70.5947L98.7265 75.5368H101.737H104.748L106.164 70.5947L101.737 68.5947Z" fill="#FF79C3"/>
<path d="M104.748 75.5371H101.737H98.7265L96.3525 100.2L101.737 110.211L107.122 100.2L104.748 75.5371Z" fill="#FF96D0"/>
<path d="M68.1387 65.3633V93.3527V136H101.737V94.758L88.546 65.3633H68.1387Z" fill="#4E70A2"/>
<path d="M135.43 65.3633V93.3527V136H101.832V94.758L115.023 65.3633H135.43Z" fill="#4E70A2"/>
<path d="M128.766 33.4896C128.766 49.9001 116.765 63.2106 101.958 63.2106C87.1511 63.2106 75.1446 49.9001 75.1446 33.4896C75.1361 30.2022 75.6223 26.9322 76.5869 23.7896C80.2083 12.1317 90.1883 3.78955 101.942 3.78955C113.696 3.78955 123.723 12.2106 127.318 23.9001C128.277 27.0064 128.765 30.2387 128.766 33.4896Z" fill="#F8D6BF"/>
<path d="M102.532 41.237L102.074 40.6739L103.963 39.1475L101.621 33.6265L102.29 33.3423L104.842 39.3686L102.532 41.237Z" fill="#F8C7A6"/>
<path d="M74.6707 45.4475C79.6709 45.4475 83.7243 41.3945 83.7243 36.3949C83.7243 31.3953 79.6709 27.3423 74.6707 27.3423C69.6706 27.3423 65.6172 31.3953 65.6172 36.3949C65.6172 41.3945 69.6706 45.4475 74.6707 45.4475Z" fill="#F8D6BF"/>
<path d="M73.8663 41.6683C71.6292 39.7841 70.5712 37.863 70.708 35.9578C70.9397 33.1156 73.761 31.3946 73.8663 31.3262L74.1347 31.7735C74.1084 31.7735 71.4186 33.4314 71.2134 35.9841C71.0765 37.7104 72.0713 39.4841 74.1663 41.2472L73.8663 41.6683Z" fill="#F8CAAB"/>
<path d="M74.2345 37.663C71.929 36.1261 71.1342 36.6103 71.1237 36.6103L70.8184 36.1893C70.9184 36.1103 71.8711 35.4787 74.5029 37.2419L74.2345 37.663Z" fill="#F8CAAB"/>
<path d="M129.54 45.4475C134.54 45.4475 138.593 41.3945 138.593 36.3949C138.593 31.3953 134.54 27.3423 129.54 27.3423C124.54 27.3423 120.486 31.3953 120.486 36.3949C120.486 41.3945 124.54 45.4475 129.54 45.4475Z" fill="#F8D6BF"/>
<path d="M130.351 41.6682L130.014 41.2682C132.119 39.4998 133.103 37.7261 132.967 36.0051C132.761 33.4366 130.072 31.7945 130.045 31.7945L130.314 31.3472C130.435 31.4156 133.256 33.1366 133.472 35.9788C133.64 37.863 132.582 39.784 130.351 41.6682Z" fill="#F8CAAB"/>
<path d="M129.977 37.6633L129.688 37.2317C132.319 35.4738 133.293 36.1054 133.372 36.179L133.056 36.5948L133.214 36.3896L133.067 36.6001C133.067 36.6001 132.282 36.1264 129.977 37.6633Z" fill="#F8CAAB"/>
<path d="M86.3196 46.7845C89.6686 46.7845 92.3834 44.07 92.3834 40.7214C92.3834 37.3728 89.6686 34.6582 86.3196 34.6582C82.9707 34.6582 80.2559 37.3728 80.2559 40.7214C80.2559 44.07 82.9707 46.7845 86.3196 46.7845Z" fill="#F8BBA6"/>
<path d="M117.591 46.7845C120.94 46.7845 123.655 44.07 123.655 40.7214C123.655 37.3728 120.94 34.6582 117.591 34.6582C114.242 34.6582 111.527 37.3728 111.527 40.7214C111.527 44.07 114.242 46.7845 117.591 46.7845Z" fill="#F8BBA6"/>
<path d="M101.69 50.0001C101.39 50.0001 101.095 50.0001 100.795 49.9686C93.9258 49.5054 89.5885 43.8949 89.4043 43.6528L89.9833 43.2107C90.0254 43.2686 94.3153 48.8001 100.853 49.237C105.253 49.5265 109.669 47.4949 114.012 43.1738L114.538 43.7001C110.317 47.8949 106.011 50.0001 101.69 50.0001Z" fill="#FF9E9E"/>
<path d="M95.8789 29.7738C94.9296 29.0817 93.785 28.7087 92.6101 28.7087C91.4352 28.7087 90.2907 29.0817 89.3414 29.7738L89.0098 29.3633C90.0517 28.604 91.3077 28.1948 92.597 28.1948C93.8862 28.1948 95.1423 28.604 96.1842 29.3633L95.8789 29.7738Z" fill="black"/>
<path d="M113.876 29.7739C112.926 29.0818 111.782 28.7088 110.607 28.7088C109.432 28.7088 108.287 29.0818 107.338 29.7739L107.012 29.3634C108.052 28.6037 109.308 28.1943 110.596 28.1943C111.885 28.1943 113.14 28.6037 114.181 29.3634L113.876 29.7739Z" fill="black"/>
<path d="M128.213 27.437C113.633 24.358 109.79 12.1054 109.79 12.1054C104.758 23.2422 75.6973 27.4001 75.6973 27.4001C75.6973 27.4001 78.1923 6.93697 91.4462 4.68434C104.7 2.43171 108.327 2.83697 108.327 2.83697L120.96 9.67907L128.787 19.8791L128.213 27.437Z" fill="#4F331E"/>
<path d="M158.97 106.919L158.617 107.202C157.009 108.492 154.953 109.09 152.904 108.865C150.854 108.64 148.978 107.61 147.688 106.002L126.493 79.5766C125.854 78.7803 125.378 77.8659 125.093 76.8857C124.808 75.9056 124.718 74.8788 124.83 73.864C124.941 72.8493 125.252 71.8664 125.743 70.9716C126.234 70.0768 126.897 69.2875 127.694 68.6488L129.673 67.0616C130.469 66.4229 131.384 65.9473 132.364 65.662C133.344 65.3766 134.371 65.2872 135.386 65.3987C136.401 65.5102 137.384 65.8204 138.279 66.3118C139.174 66.8031 139.963 67.4659 140.602 68.2622L160.49 93.0572C162.126 95.0978 162.885 97.7051 162.6 100.305C162.314 102.906 161.007 105.286 158.966 106.922L158.97 106.919Z" fill="#4E70A2"/>
<path d="M164.277 67.049L157.628 78.2607L169.8 85.4786L176.45 74.2669L164.277 67.049Z" fill="white"/>
<path d="M146.37 95.5836L162.435 68.8298L177.39 77.8079L161.326 104.562C160.135 106.545 158.205 107.974 155.961 108.534C153.717 109.094 151.342 108.74 149.359 107.55C147.375 106.359 145.946 104.429 145.386 102.185C144.826 99.9413 145.18 97.5666 146.37 95.5836Z" fill="#4B6C9C"/>
<path d="M30.0143 59.5861L22.2607 64.6074L36.5277 86.6333L44.2813 81.6121L30.0143 59.5861Z" fill="#F8D6BF"/>
<path d="M9.45977 65.7892C9.57301 66.1702 9.73208 66.536 9.93351 66.8787C10.4525 67.7948 11.1972 68.563 12.0969 69.1103C16.6342 69.2366 23.1506 65.9945 23.1506 65.9945L24.9719 68.7997C29.1091 66.6208 31.4883 62.8629 30.4987 59.5419C29.3039 55.5155 23.6244 53.6576 17.8132 55.3892C12.0021 57.1208 8.26492 61.7576 9.45977 65.7892Z" fill="#F8D6BF"/>
<path d="M30.0577 59.7608C30.5401 57.7422 26.943 55.1528 22.0232 53.9773C17.1035 52.8017 12.7241 53.4851 12.2417 55.5037C11.7593 57.5223 15.3564 60.1117 20.2762 61.2872C25.1959 62.4628 29.5752 61.7794 30.0577 59.7608Z" fill="#F8D6BF"/>
<path d="M14.3408 59.7223L4.05263 62.8299C3.68542 62.9408 3.28919 62.9013 2.95109 62.7201C2.613 62.5389 2.36074 62.2309 2.24982 61.8637L2.12617 61.4544C2.01524 61.0873 2.05473 60.6911 2.23595 60.353C2.41717 60.015 2.72527 59.7627 3.09248 59.6518L13.3807 56.5442C13.4839 56.5131 13.5952 56.5242 13.6902 56.5751C13.7852 56.626 13.8561 56.7126 13.8873 56.8158L14.6139 59.2208C14.6451 59.324 14.634 59.4353 14.5831 59.5303C14.5321 59.6253 14.4455 59.6962 14.3424 59.7274L14.3408 59.7223Z" fill="#F8D6BF"/>
<path d="M13.2707 63.1438L3.01347 66.1935C2.64682 66.3025 2.25189 66.2615 1.91554 66.0793C1.5792 65.8972 1.32899 65.5889 1.21997 65.2223L1.09845 64.8136C1.04447 64.6321 1.02677 64.4417 1.04637 64.2534C1.06597 64.065 1.12249 63.8823 1.21268 63.7158C1.30288 63.5493 1.425 63.4022 1.57207 63.2828C1.71913 63.1635 1.88826 63.0743 2.06981 63.0203L12.327 59.9706C12.4301 59.94 12.541 59.9515 12.6356 60.0027C12.7301 60.0539 12.8004 60.1405 12.831 60.2436L13.5452 62.6449C13.5742 62.7475 13.5617 62.8573 13.5103 62.9507C13.4589 63.0441 13.3729 63.1135 13.2707 63.1438Z" fill="#F8D6BF"/>
<path d="M15.8911 65.7348L5.61876 68.789C5.25705 68.8923 4.8693 68.8502 4.5382 68.6717C4.20709 68.4932 3.95885 68.1924 3.8464 67.8334L3.72488 67.4248C3.61586 67.0582 3.65695 66.6633 3.83912 66.327C4.02128 65.9907 4.3296 65.7405 4.69624 65.6315L14.9535 62.5818C15.0565 62.5511 15.1675 62.5627 15.262 62.6139C15.3565 62.6651 15.4268 62.7517 15.4575 62.8547L16.1716 65.2561C16.2022 65.3591 16.1907 65.4701 16.1395 65.5646C16.0883 65.6591 16.0017 65.7294 15.8986 65.76L15.8911 65.7348Z" fill="#F8D6BF"/>
<path d="M20.0294 67.2723L9.62589 70.3655C9.27665 70.4693 8.90045 70.4302 8.58006 70.2567C8.25967 70.0832 8.02134 69.7895 7.91749 69.4403C7.81364 69.0911 7.85278 68.7149 8.0263 68.3946C8.19982 68.0742 8.49352 67.8359 8.84276 67.7321L19.2463 64.6389C19.3319 64.6134 19.4242 64.623 19.5027 64.6655C19.5813 64.7081 19.6397 64.7801 19.6652 64.8657L20.2653 66.8837C20.2908 66.9693 20.2812 67.0615 20.2386 67.1401C20.1961 67.2187 20.1241 67.2771 20.0384 67.3025L20.0294 67.2723Z" fill="#F8D6BF"/>
<g opacity="0.1">
<path opacity="0.1" d="M17.5756 63.2855C21.0448 62.2541 23.5589 60.4151 23.191 59.178C22.8231 57.9409 19.7125 57.7743 16.2434 58.8057C12.7742 59.8372 10.2601 61.6762 10.628 62.9133C10.9959 64.1503 14.1064 64.317 17.5756 63.2855Z" fill="black"/>
</g>
<path d="M73.2262 67.0481L75.2054 68.6352C76.0019 69.2739 76.6647 70.0632 77.1561 70.9581C77.6475 71.8529 77.9578 72.8358 78.0693 73.8505C78.1808 74.8653 78.0913 75.892 77.8059 76.8722C77.5206 77.8524 77.045 78.7668 76.4062 79.5631L55.211 105.988C53.9209 107.596 52.0447 108.627 49.9952 108.852C47.9456 109.077 45.8905 108.479 44.282 107.189L43.9288 106.906C41.888 105.269 40.5809 102.889 40.2952 100.288C40.0095 97.6883 40.7685 95.081 42.4053 93.0404L62.2931 68.2454C63.5832 66.6371 65.4593 65.607 67.5089 65.3819C69.5585 65.1567 71.6136 65.7549 73.2221 67.0448L73.2262 67.0481Z" fill="#4E70A2"/>
<path d="M25.8229 75.113L32.5342 86.29L44.6691 79.0051L37.9579 67.828L25.8229 75.113Z" fill="white"/>
<path d="M41.5642 104.53L25.5027 77.7807L40.4582 68.8025L56.5196 95.5517C57.7103 97.5348 58.0644 99.9095 57.504 102.154C56.9436 104.398 55.5147 106.327 53.5314 107.518C51.5482 108.708 49.1732 109.062 46.9289 108.502C44.6846 107.942 42.7549 106.513 41.5642 104.53Z" fill="#4B6C9C"/>
</svg>
