<svg width="241" height="192" viewBox="0 0 241 192" fill="none" xmlns="http://www.w3.org/2000/svg">
<path d="M71.1934 172.248L72.2838 171.606L74.1844 178.709L73.0939 179.35L71.1934 172.248Z" fill="#47712E"/>
<path d="M75.041 174.485L76.1315 173.828L78.0321 180.946L76.9416 181.587L75.041 174.485Z" fill="#47712E"/>
<path d="M78.873 176.706L79.9791 176.065L83.7958 190.27L82.6897 190.912L78.873 176.706Z" fill="#47712E"/>
<path d="M78.8735 176.706L82.6902 190.912L78.8424 188.674L75.0101 186.453L71.1467 184.216L67.2988 181.979L71.1934 172.248L73.094 179.35L75.0413 174.485L76.9418 181.587L78.8735 176.706Z" fill="#5E953D"/>
<path d="M138.896 83.4329L139.987 82.7915L141.888 89.8785L140.797 90.52L138.896 83.4329Z" fill="#47712E"/>
<path d="M142.744 85.6545L143.835 85.0131L145.751 92.1157L144.645 92.7572L142.744 85.6545Z" fill="#47712E"/>
<path d="M146.576 87.876L147.682 87.2502L151.499 101.44L150.393 102.081L146.576 87.876Z" fill="#47712E"/>
<path d="M146.577 87.876L150.393 102.081L146.546 99.8442L142.713 97.6226L138.865 95.3855L135.018 93.1483L138.897 83.433L140.797 90.52L142.744 85.6545L144.645 92.7572L146.577 87.876Z" fill="#5E953D"/>
<path d="M186.94 127.254L188.031 126.612L188.934 129.929L187.828 130.57L186.94 127.254Z" fill="#47712E"/>
<path d="M188.731 128.302L189.838 127.66L190.725 130.961L189.619 131.603L188.731 128.302Z" fill="#47712E"/>
<path d="M190.538 129.334L191.629 128.709L193.405 135.311L192.314 135.952L190.538 129.334Z" fill="#47712E"/>
<path d="M190.538 129.334L192.314 135.952L190.523 134.92L188.716 133.871L186.924 132.839L185.133 131.791L186.94 127.254L187.828 130.57L188.731 128.302L189.619 131.603L190.538 129.334Z" fill="#5E953D"/>
<path d="M188.855 92.8823L189.962 92.2408L191.364 97.4974L190.273 98.1389L188.855 92.8823Z" fill="#47712E"/>
<path d="M191.706 94.5406L192.812 93.8992L194.214 99.1558L193.124 99.7972L191.706 94.5406Z" fill="#47712E"/>
<path d="M194.558 96.1989L195.648 95.5575L198.468 106.055L197.377 106.696L194.558 96.1989Z" fill="#47712E"/>
<path d="M194.557 96.1989L197.377 106.696L194.526 105.054L191.691 103.395L188.825 101.753L185.989 100.094L188.856 92.8823L190.273 98.1389L191.707 94.5406L193.124 99.7972L194.557 96.1989Z" fill="#5E953D"/>
<path d="M28.0877 173.108C30.7049 174.673 30.7205 177.097 28.0877 178.615C26.6201 179.363 24.9977 179.752 23.3521 179.752C21.7064 179.752 20.0838 179.363 18.6162 178.615C15.999 177.051 15.9834 174.626 18.6162 173.108C20.0838 172.36 21.7064 171.971 23.3521 171.971C24.9977 171.971 26.6201 172.36 28.0877 173.108Z" fill="#7EB66F"/>
<path d="M27.7587 175.921C27.76 175.23 25.7454 174.666 23.2589 174.661C20.7724 174.656 18.7557 175.213 18.7543 175.904C18.753 176.595 20.7676 177.16 23.2541 177.164C25.7406 177.169 27.7573 176.613 27.7587 175.921Z" fill="#623D28"/>
<path d="M27.59 175.705C25.9706 168.701 25.2223 161.523 25.3622 154.334C25.3622 154.334 25.2689 154.178 25.1443 154.1C25.0037 161.199 25.6726 168.29 27.1382 175.236C27.3415 175.33 27.5026 175.498 27.59 175.705Z" fill="#8A5738"/>
<path d="M27.1382 175.236C27.3415 175.33 27.5026 175.498 27.59 175.705C25.9706 168.701 25.2223 161.523 25.3622 154.334C25.3622 154.334 25.2689 154.178 25.1443 154.1C25.0037 161.199 25.6726 168.29 27.1382 175.236Z" fill="#8A5738"/>
<path d="M20.9218 154.319C21.0344 161.511 20.26 168.689 18.6162 175.69C18.7253 175.251 19.6288 174.86 21.1243 174.657C23.1452 174.334 25.2145 174.534 27.1375 175.236C25.672 168.29 25.0031 161.199 25.1436 154.1C24.1867 153.752 23.1572 153.655 22.1525 153.818C21.4203 153.912 20.9685 154.116 20.9218 154.319Z" fill="#8A5738"/>
<path d="M18.6162 175.69C18.7253 175.251 19.6288 174.86 21.1243 174.657C23.1452 174.334 25.2145 174.534 27.1375 175.236C25.672 168.29 25.0031 161.199 25.1436 154.1C24.1867 153.752 23.1572 153.655 22.1525 153.818C21.4203 153.912 20.9685 154.116 20.9218 154.319C21.0344 161.511 20.26 168.689 18.6162 175.69Z" fill="#8A5738"/>
<path d="M27.5897 175.705C25.9784 168.716 25.2353 161.554 25.3775 154.381C25.2375 161.57 25.9859 168.748 27.6053 175.752" fill="#8A5738"/>
<path d="M27.59 175.705C27.4497 175.173 27.3095 174.626 27.2005 174.141L27.0136 173.28C27.0136 173.014 26.8734 172.654 26.8266 172.388L26.6553 171.466L26.4995 170.496L26.3436 169.51C26.3436 169.213 26.2502 168.806 26.2035 168.493L26.0789 167.445C26.0789 167.132 25.9853 166.694 25.9542 166.381L25.8452 165.27C25.8452 164.942 25.8451 164.488 25.7516 164.144L25.6583 163.002C25.6583 162.658 25.6582 162.188 25.5803 161.828V160.639C25.5803 160.28 25.5803 159.794 25.5803 159.435V158.214C25.5803 157.839 25.5803 157.338 25.5803 156.963V154.428C25.4309 161.601 26.1741 168.764 27.7925 175.752" fill="#8A5738"/>
<path d="M25.4396 154.381C25.2975 161.554 26.0406 168.716 27.6518 175.705C27.6591 175.736 27.6591 175.768 27.6518 175.799C26.027 168.78 25.2786 161.586 25.424 154.381" fill="#8A5738"/>
<path d="M27.6049 175.799C25.9801 168.78 25.2317 161.586 25.3771 154.381V155.649C25.3771 156.04 25.3771 156.54 25.3771 156.916V158.168C25.3771 158.527 25.3771 159.028 25.3771 159.388V160.592C25.3771 160.952 25.3771 161.437 25.3771 161.781L25.4551 162.955C25.4551 163.299 25.455 163.753 25.5485 164.097L25.642 165.223C25.642 165.552 25.6419 165.99 25.751 166.334L25.8757 167.398C25.8757 167.711 25.9691 168.133 26.0003 168.446L26.1405 169.463L26.2964 170.449L26.4521 171.419C26.4521 171.684 26.5767 172.06 26.6235 172.342L26.8104 173.233C26.8104 173.484 26.935 173.828 26.9973 174.094L27.1843 174.907L27.3868 175.705C27.3941 175.736 27.3941 175.768 27.3868 175.799" fill="#8A5738"/>
<path d="M20.9062 154.366C21.0116 161.541 20.2426 168.702 18.6162 175.689C20.26 168.689 21.0344 161.511 20.9218 154.319" fill="#8A5738"/>
<path d="M20.8748 156.916C20.8748 157.729 20.8748 158.559 20.8748 159.388V160.592C20.8748 160.952 20.8748 161.422 20.8748 161.781V162.955C20.8748 163.299 20.8749 163.753 20.7814 164.097L20.6722 165.223L20.5633 166.318L20.4387 167.382C20.4387 167.711 20.3451 168.117 20.2984 168.43L20.1582 169.447L20.0025 170.449L19.8311 171.403C19.8311 171.684 19.7221 172.044 19.6598 172.326L19.4885 173.218C19.4885 173.484 19.3483 173.828 19.3015 174.078L19.099 174.892L18.8965 175.689C20.5403 168.689 21.3147 161.511 21.202 154.319V155.649C21.202 156.024 21.202 156.525 21.202 156.916" fill="#8A5738"/>
<path d="M18.6158 175.689C20.2423 168.707 21.0113 161.551 20.9058 154.381C21.0231 161.584 20.2486 168.773 18.6002 175.783C18.5929 175.753 18.5929 175.72 18.6002 175.689" fill="#8A5738"/>
<path d="M18.6006 175.783L18.8187 174.907L19.0212 174.078L19.2081 173.218C19.2081 172.952 19.3327 172.592 19.3795 172.326L19.5508 171.403C19.5508 171.121 19.6754 170.73 19.7222 170.449L19.8781 169.463C19.8781 169.15 19.9715 168.743 20.0182 168.43L20.1584 167.398C20.1584 167.069 20.2518 166.647 20.2829 166.318L20.3921 165.223C20.3921 164.879 20.392 164.425 20.5011 164.097L20.5946 162.955C20.5946 162.595 20.5946 162.126 20.5946 161.781V160.592C20.5946 160.233 20.5946 159.748 20.5946 159.388V158.152C20.5946 157.776 20.5946 157.276 20.5946 156.916V155.649V154.366C20.7128 161.573 19.9383 168.768 18.2891 175.783" fill="#8A5738"/>
<path d="M18.6005 175.783C20.2498 168.768 21.0242 161.573 20.9061 154.366C20.9061 154.366 20.9996 154.522 21.1242 154.601C22.074 154.956 23.1005 155.053 24.0997 154.882C24.8475 154.788 25.2836 154.585 25.3459 154.381C25.2005 161.586 25.9489 168.78 27.5737 175.799C27.5737 176.253 26.639 176.706 25.05 176.925C23.0229 177.251 20.9466 177.046 19.0212 176.331C18.7096 176.159 18.5693 175.971 18.5693 175.783" fill="#8A5738"/>
<path d="M27.6049 175.799C27.6049 176.206 26.8883 176.597 25.6421 176.832L25.4707 176.018C25.4707 175.627 24.3957 171.497 24.3957 171.497C24.3957 171.497 24.0375 171.309 23.9285 171.403C23.8194 171.497 23.9285 171.497 23.9285 171.528C23.726 173.374 23.461 175.204 23.2273 177.051C21.8054 177.114 20.3867 176.869 19.068 176.331C18.7565 176.159 18.6162 175.971 18.6162 175.783C20.2655 168.768 21.0399 161.573 20.9218 154.366C20.9391 154.426 20.9688 154.483 21.0091 154.531C21.0493 154.58 21.0992 154.619 21.1555 154.648C22.1052 155.003 23.1318 155.1 24.131 154.929C24.8788 154.835 25.3148 154.632 25.3772 154.428C25.246 161.618 25.9996 168.795 27.6205 175.799" fill="#8A5738"/>
<path d="M25.4403 154.381C25.323 147.179 26.0974 139.99 27.7459 132.98C27.7459 132.792 27.5902 132.604 27.2786 132.416C25.8137 139.548 25.1189 146.818 25.2066 154.1C25.3312 154.1 25.4091 154.256 25.4247 154.335" fill="#8A5738"/>
<path d="M25.1441 154.1C25.2687 154.1 25.3464 154.256 25.362 154.335C25.2591 147.147 26.0387 139.975 27.6832 132.98C27.6832 132.792 27.5275 132.604 27.2159 132.416C25.751 139.548 25.0564 146.818 25.1441 154.1Z" fill="#8A5738"/>
<path d="M18.6787 132.965C20.2941 139.98 21.0422 147.168 20.9063 154.367C20.9063 154.163 21.4048 153.96 22.137 153.866C23.1417 153.703 24.1712 153.8 25.1281 154.148C25.0404 146.866 25.735 139.596 27.2 132.464C25.2787 131.754 23.2074 131.555 21.1868 131.885C19.6289 132.104 18.6631 132.542 18.6631 133.012" fill="#8A5738"/>
<path d="M20.9063 154.366C20.9063 154.115 21.4205 153.912 22.1527 153.818C23.1573 153.655 24.1868 153.752 25.1438 154.1C25.0561 146.818 25.7507 139.548 27.2156 132.416C25.9035 131.876 24.4879 131.635 23.0717 131.712L22.9783 132.526C22.7291 134.654 22.4331 137.219 22.3552 137.344C22.2853 137.389 22.2042 137.413 22.1215 137.413C22.0387 137.413 21.9576 137.389 21.8878 137.344L20.626 132.01C19.3953 132.244 18.6787 132.635 18.6787 133.042C20.2942 140.057 21.0423 147.245 20.9063 154.444" fill="#8A5738"/>
<path d="M25.4393 154.381C25.3251 147.211 26.0942 140.054 27.7293 133.073C27.7365 133.043 27.7365 133.011 27.7293 132.98C26.0808 139.99 25.3064 147.179 25.4237 154.381" fill="#8A5738"/>
<path d="M25.4393 154.381C25.4393 153.537 25.4393 152.692 25.4393 151.847V150.611C25.4393 150.236 25.4393 149.751 25.4393 149.375V148.171C25.4393 147.811 25.4393 147.341 25.4393 146.982L25.5172 145.808C25.5172 145.464 25.5171 145.01 25.6106 144.666L25.7197 143.54L25.8287 142.445L25.9533 141.365C25.9533 141.052 26.0469 140.63 26.0936 140.317L26.2338 139.3L26.3895 138.314L26.5453 137.36C26.5453 137.078 26.6699 136.703 26.7166 136.421L26.9035 135.53C26.9035 135.279 27.0283 134.935 27.0906 134.669L27.293 133.856L27.4955 133.073C25.8546 140.053 25.0854 147.211 25.2055 154.381" fill="#8A5738"/>
<path d="M27.6674 133.073C26.0324 140.054 25.2631 147.211 25.3773 154.381C25.2654 147.195 26.0398 140.022 27.6829 133.026" fill="#8A5738"/>
<path d="M25.4393 154.428C25.3275 147.242 26.1018 140.069 27.7449 133.073L27.5423 133.856L27.3398 134.669L27.1529 135.53C27.1529 135.796 27.0283 136.156 26.9659 136.421L26.7946 137.36L26.6389 138.314L26.4831 139.3C26.4831 139.613 26.3739 140.02 26.3428 140.317L26.2026 141.365C26.2026 141.694 26.1092 142.116 26.0781 142.445L25.9689 143.54C25.9689 143.884 25.969 144.322 25.8599 144.666L25.7664 145.808C25.7664 146.168 25.7665 146.622 25.6886 146.982V148.171C25.6886 148.53 25.6886 149.015 25.6886 149.375V150.595C25.6886 150.971 25.6886 151.472 25.6886 151.847V153.099V154.428" fill="#8A5738"/>
<path d="M18.6949 133.058C20.2993 140.043 21.0422 147.199 20.9069 154.366C21.0429 147.167 20.2948 139.979 18.6793 132.964C18.672 132.995 18.672 133.027 18.6793 133.058" fill="#8A5738"/>
<path d="M19.084 134.654L19.4578 136.421L19.6292 137.344L19.7849 138.299L19.9251 139.284C19.9251 139.597 20.0343 140.004 20.0654 140.317L20.2056 141.35C20.2056 141.678 20.2055 142.116 20.3301 142.429L20.4393 143.524C20.4393 143.868 20.4392 144.322 20.5327 144.651L20.6262 145.808C20.6262 146.152 20.6262 146.622 20.6262 146.966V148.155C20.6262 148.53 20.6262 149 20.6262 149.375V150.595C20.6262 150.971 20.6262 151.472 20.6262 151.847V154.366C20.7622 147.167 20.0139 139.979 18.3984 132.964L18.6166 133.84C18.6166 134.09 18.7568 134.419 18.8035 134.654" fill="#8A5738"/>
<path d="M20.9063 154.366C21.0486 147.199 20.3057 140.041 18.6943 133.058C20.3129 140.056 21.0611 147.229 20.9219 154.413" fill="#8A5738"/>
<path d="M20.9219 154.413V153.099C20.9219 152.723 20.9219 152.223 20.9219 151.847V150.595C20.9219 150.236 20.9219 149.735 20.9219 149.375V148.155C20.9219 147.811 20.9219 147.326 20.9219 146.966V145.808C20.9219 145.464 20.922 144.995 20.8286 144.651L20.735 143.54C20.735 143.196 20.7351 142.757 20.626 142.429L20.5013 141.365C20.5013 141.037 20.4079 140.63 20.3611 140.317L20.221 139.3C20.221 139.003 20.1276 138.596 20.0808 138.299L19.9249 137.344C19.9249 137.063 19.8003 136.687 19.7536 136.421L19.5666 135.53C19.5666 135.264 19.442 134.92 19.3797 134.654L19.1928 133.84L18.9902 133.058C20.6088 140.056 21.3571 147.229 21.218 154.413" fill="#8A5738"/>
<path d="M20.9219 154.413C21.0611 147.229 20.3129 140.056 18.6943 133.058C18.6943 133.199 18.8811 133.355 19.146 133.512C21.0655 134.229 23.1389 134.429 25.1592 134.09C26.717 133.887 27.5584 133.496 27.6675 133.073C26.0245 140.069 25.2499 147.242 25.3617 154.428C25.3617 154.632 24.8633 154.835 24.1156 154.929C23.1164 155.1 22.0898 155.003 21.1401 154.647C21.0154 154.569 20.9375 154.491 20.9219 154.413Z" fill="#8A5738"/>
<path d="M25.44 154.428C25.44 154.632 24.9415 154.835 24.1937 154.929C23.1945 155.1 22.1681 155.003 21.2184 154.647C21.0937 154.569 21.0158 154.491 21.0002 154.413C21.1394 147.229 20.391 140.056 18.7725 133.058C18.7725 133.199 18.9595 133.355 19.2243 133.512C21.1439 134.229 23.2172 134.429 25.2375 134.09C26.7953 133.887 27.6366 133.496 27.7456 133.073C26.1026 140.069 25.3282 147.242 25.44 154.428Z" fill="#8A5738"/>
<path d="M27.8356 133.098C27.8369 132.407 25.8225 131.843 23.336 131.838C20.8496 131.833 18.8328 132.389 18.8315 133.081C18.8302 133.772 20.8448 134.336 23.3313 134.341C25.8177 134.346 27.8343 133.789 27.8356 133.098Z" fill="#623D28"/>
<path d="M11.3105 160.717C15.2768 160.717 18.4921 158.133 18.4921 154.945C18.4921 151.756 15.2768 149.172 11.3105 149.172C7.34423 149.172 4.12891 151.756 4.12891 154.945C4.12891 158.133 7.34423 160.717 11.3105 160.717Z" fill="#026F24"/>
<path d="M21.779 161.938C25.2549 161.938 28.0727 159.675 28.0727 156.885C28.0727 154.094 25.2549 151.831 21.779 151.831C18.3031 151.831 15.4854 154.094 15.4854 156.885C15.4854 159.675 18.3031 161.938 21.779 161.938Z" fill="#026F24"/>
<path d="M32.7302 160.718C36.7481 160.718 40.0053 158.098 40.0053 154.866C40.0053 151.635 36.7481 149.015 32.7302 149.015C28.7122 149.015 25.4551 151.635 25.4551 154.866C25.4551 158.098 28.7122 160.718 32.7302 160.718Z" fill="#026F24"/>
<path d="M7.18162 154.381C11.1479 154.381 14.3632 150.046 14.3632 144.697C14.3632 139.349 11.1479 135.013 7.18162 135.013C3.21532 135.013 0 139.349 0 144.697C0 150.046 3.21532 154.381 7.18162 154.381Z" fill="#008C2D"/>
<path d="M14.831 158.762C18.7973 158.762 22.0126 154.426 22.0126 149.078C22.0126 143.73 18.7973 139.394 14.831 139.394C10.8647 139.394 7.64941 143.73 7.64941 149.078C7.64941 154.426 10.8647 158.762 14.831 158.762Z" fill="#008C2D"/>
<path d="M18.5849 158.762C22.5512 158.762 25.7666 154.426 25.7666 149.078C25.7666 143.73 22.5512 139.394 18.5849 139.394C14.6186 139.394 11.4033 143.73 11.4033 149.078C11.4033 154.426 14.6186 158.762 18.5849 158.762Z" fill="#008C2D"/>
<path d="M27.5117 159.92C31.478 159.92 34.6933 155.584 34.6933 150.236C34.6933 144.887 31.478 140.552 27.5117 140.552C23.5454 140.552 20.3301 144.887 20.3301 150.236C20.3301 155.584 23.5454 159.92 27.5117 159.92Z" fill="#008C2D"/>
<path d="M30.9853 159.92C34.9516 159.92 38.1669 155.584 38.1669 150.236C38.1669 144.887 34.9516 140.552 30.9853 140.552C27.019 140.552 23.8037 144.887 23.8037 150.236C23.8037 155.584 27.019 159.92 30.9853 159.92Z" fill="#008C2D"/>
<path d="M38.167 154.381C42.1333 154.381 45.3486 150.046 45.3486 144.697C45.3486 139.349 42.1333 135.013 38.167 135.013C34.2007 135.013 30.9854 139.349 30.9854 144.697C30.9854 150.046 34.2007 154.381 38.167 154.381Z" fill="#008C2D"/>
<path d="M10.6095 144.212C14.55 144.212 17.7444 139.66 17.7444 134.043C17.7444 128.427 14.55 123.874 10.6095 123.874C6.669 123.874 3.47461 128.427 3.47461 134.043C3.47461 139.66 6.669 144.212 10.6095 144.212Z" fill="#009B32"/>
<path d="M32.964 143.055C36.9045 143.055 40.0989 138.502 40.0989 132.886C40.0989 127.27 36.9045 122.717 32.964 122.717C29.0235 122.717 25.8291 127.27 25.8291 132.886C25.8291 138.502 29.0235 143.055 32.964 143.055Z" fill="#009B32"/>
<path d="M18.258 153.224C22.904 153.224 26.6703 148.671 26.6703 143.055C26.6703 137.439 22.904 132.886 18.258 132.886C13.612 132.886 9.8457 137.439 9.8457 143.055C9.8457 148.671 13.612 153.224 18.258 153.224Z" fill="#009B32"/>
<path d="M30.2063 152.614C34.8522 152.614 38.6186 148.061 38.6186 142.445C38.6186 136.828 34.8522 132.276 30.2063 132.276C25.5603 132.276 21.7939 136.828 21.7939 142.445C21.7939 148.061 25.5603 152.614 30.2063 152.614Z" fill="#009B32"/>
<path d="M14.8458 134.278C18.7863 134.278 21.9807 129.725 21.9807 124.109C21.9807 118.493 18.7863 113.94 14.8458 113.94C10.9053 113.94 7.71094 118.493 7.71094 124.109C7.71094 129.725 10.9053 134.278 14.8458 134.278Z" fill="#00A836"/>
<path d="M28.7267 134.278C32.6672 134.278 35.8616 129.725 35.8616 124.109C35.8616 118.493 32.6672 113.94 28.7267 113.94C24.7862 113.94 21.5918 118.493 21.5918 124.109C21.5918 129.725 24.7862 134.278 28.7267 134.278Z" fill="#00A836"/>
<path d="M21.7788 139.722C26.5453 139.722 30.4092 134.217 30.4092 127.426C30.4092 120.634 26.5453 115.129 21.7788 115.129C17.0124 115.129 13.1484 120.634 13.1484 127.426C13.1484 134.217 17.0124 139.722 21.7788 139.722Z" fill="#00A836"/>
<path d="M22.0122 130.899C26.7787 130.899 30.6426 125.393 30.6426 118.602C30.6426 111.811 26.7787 106.305 22.0122 106.305C17.2458 106.305 13.3818 111.811 13.3818 118.602C13.3818 125.393 17.2458 130.899 22.0122 130.899Z" fill="#009B32"/>
<path d="M20.19 128.709C24.9564 128.709 28.8204 123.203 28.8204 116.412C28.8204 109.621 24.9564 104.115 20.19 104.115C15.4235 104.115 11.5596 109.621 11.5596 116.412C11.5596 123.203 15.4235 128.709 20.19 128.709Z" fill="#009B32"/>
<path d="M23.7574 127.426C28.5238 127.426 32.3878 121.92 32.3878 115.129C32.3878 108.338 28.5238 102.832 23.7574 102.832C18.9909 102.832 15.127 108.338 15.127 115.129C15.127 121.92 18.9909 127.426 23.7574 127.426Z" fill="#009B32"/>
<path d="M22.0127 116.74C25.6091 116.74 28.5245 111.417 28.5245 104.851C28.5245 98.2839 25.6091 92.9606 22.0127 92.9606C18.4164 92.9606 15.501 98.2839 15.501 104.851C15.501 111.417 18.4164 116.74 22.0127 116.74Z" fill="#00A737"/>
<path d="M225.31 186.14C227.537 187.439 227.553 189.535 225.31 190.834C224.06 191.474 222.677 191.807 221.275 191.807C219.872 191.807 218.49 191.474 217.24 190.834C215.012 189.535 214.997 187.439 217.24 186.14C218.491 185.505 219.873 185.174 221.275 185.174C222.677 185.174 224.059 185.505 225.31 186.14Z" fill="#7EB66F"/>
<path d="M224.987 188.57C224.988 187.982 223.273 187.503 221.157 187.499C219.04 187.495 217.323 187.968 217.322 188.555C217.321 189.143 219.036 189.622 221.153 189.626C223.269 189.631 224.986 189.158 224.987 188.57Z" fill="#623D28"/>
<path d="M224.842 188.362C223.459 182.399 222.821 176.287 222.942 170.167C222.942 170.167 222.942 170.042 222.755 169.979C222.635 176.022 223.205 182.058 224.453 187.97C224.541 188.006 224.621 188.059 224.687 188.126C224.754 188.193 224.807 188.273 224.842 188.362Z" fill="#8A5738"/>
<path d="M224.406 188.033C224.494 188.069 224.574 188.121 224.641 188.189C224.708 188.256 224.76 188.336 224.795 188.424C223.412 182.462 222.774 176.35 222.895 170.229C222.895 170.229 222.895 170.104 222.708 170.042C222.588 176.084 223.158 182.121 224.406 188.033Z" fill="#8A5738"/>
<path d="M219.125 170.167C219.222 176.285 218.563 182.391 217.162 188.346C217.256 187.986 218.034 187.642 219.296 187.47C221.014 187.193 222.774 187.365 224.406 187.971C223.158 182.058 222.589 176.022 222.708 169.979C221.903 169.676 221.033 169.59 220.184 169.729C219.546 169.729 219.172 169.979 219.125 170.167Z" fill="#8A5738"/>
<path d="M217.162 188.346C217.256 187.986 218.034 187.642 219.296 187.47C221.014 187.193 222.774 187.365 224.406 187.971C223.158 182.058 222.589 176.022 222.708 169.979C221.903 169.676 221.033 169.59 220.184 169.729C219.546 169.729 219.172 169.979 219.125 170.167C219.222 176.285 218.563 182.391 217.162 188.346Z" fill="#8A5738"/>
<path d="M222.911 170.214C222.793 176.318 223.426 182.413 224.795 188.362C223.414 182.388 222.776 176.267 222.895 170.136" fill="#8A5738"/>
<path d="M224.842 188.44C223.461 182.467 222.823 176.345 222.942 170.214V171.293C222.942 171.606 222.942 172.044 222.942 172.373V173.421C222.942 173.734 222.942 174.156 222.942 174.469V175.502C222.942 175.799 222.942 176.206 222.942 176.519V177.504C222.942 177.802 222.942 178.193 222.942 178.49L223.035 179.444C223.035 179.726 223.035 180.101 223.129 180.383L223.222 181.29L223.331 182.182L223.456 183.058C223.456 183.308 223.549 183.637 223.58 183.887L223.721 184.716C223.721 184.951 223.814 185.264 223.861 185.499L224.017 186.265L224.172 186.985L224.344 187.689C224.344 187.892 224.453 188.158 224.515 188.362C224.578 188.565 224.515 188.362 224.515 188.362" fill="#8A5738"/>
<path d="M224.843 188.362C223.472 182.413 222.839 176.318 222.958 170.214C222.837 176.334 223.475 182.446 224.858 188.409" fill="#8A5738"/>
<path d="M224.842 188.362C224.718 187.908 224.609 187.454 224.499 186.985L224.344 186.265L224.188 185.499L224.048 184.716C224.048 184.466 223.954 184.138 223.908 183.887L223.783 183.058C223.783 182.792 223.783 182.448 223.658 182.182L223.549 181.29C223.549 181.024 223.549 180.649 223.456 180.383L223.362 179.444C223.362 179.163 223.362 178.771 223.269 178.49V177.504C223.269 177.207 223.269 176.816 223.269 176.519V175.502C223.269 175.189 223.269 174.782 223.269 174.469V173.421C223.269 173.108 223.269 172.686 223.269 172.373V171.293C223.269 170.965 223.269 170.527 223.269 170.214C223.138 176.318 223.771 182.415 225.154 188.362" fill="#8A5738"/>
<path d="M219.109 170.198C219.203 176.305 218.549 182.4 217.162 188.346C218.563 182.391 219.222 176.285 219.125 170.167" fill="#8A5738"/>
<path d="M219.094 172.388C219.094 173.092 219.094 173.796 219.094 174.5V175.517C219.094 175.83 219.094 176.237 219.094 176.534V177.536C219.094 177.833 219.094 178.224 219.016 178.506L218.922 179.46C218.922 179.741 218.922 180.117 218.829 180.398L218.72 181.321L218.611 182.213L218.486 183.074C218.486 183.324 218.393 183.668 218.346 183.919L218.206 184.732C218.206 184.967 218.112 185.28 218.065 185.514L217.91 186.281L217.754 187.016L217.582 187.705C217.582 187.908 217.458 188.174 217.411 188.377C218.812 182.422 219.471 176.316 219.374 170.198V171.309C219.374 171.638 219.374 172.076 219.374 172.388" fill="#8A5738"/>
<path d="M217.162 188.346C218.55 182.4 219.204 176.305 219.109 170.198C219.213 176.332 218.554 182.455 217.146 188.424" fill="#8A5738"/>
<path d="M217.147 188.424L217.334 187.689C217.334 187.47 217.458 187.188 217.505 186.985L217.661 186.25L217.816 185.483L217.957 184.701C217.957 184.45 218.066 184.138 218.097 183.887L218.237 183.043C218.237 182.777 218.237 182.432 218.362 182.182L218.471 181.29C218.471 181.009 218.471 180.649 218.58 180.367L218.673 179.429C218.673 179.147 218.673 178.771 218.767 178.474L218.845 177.504C218.845 177.207 218.845 176.8 218.845 176.503V175.502C218.845 175.189 218.845 174.766 218.845 174.469V173.421C218.845 173.108 218.845 172.67 218.845 172.357V170.198C218.948 176.332 218.289 182.455 216.882 188.424" fill="#8A5738"/>
<path d="M224.842 188.44C224.842 188.784 224.235 189.113 223.176 189.316L223.02 188.628C223.02 188.299 222.101 184.779 222.101 184.779C222.052 184.727 221.988 184.692 221.918 184.677C221.848 184.663 221.776 184.672 221.711 184.701C221.711 184.701 221.711 184.779 221.711 184.81C221.54 186.375 221.322 187.939 221.119 189.504C219.91 189.562 218.703 189.354 217.583 188.894C217.318 188.753 217.193 188.581 217.193 188.424C218.601 182.455 219.26 176.332 219.156 170.198C219.171 170.25 219.197 170.297 219.232 170.338C219.267 170.378 219.31 170.411 219.359 170.433C220.164 170.736 221.034 170.823 221.882 170.683C222.521 170.589 222.895 170.433 222.942 170.245C222.836 176.366 223.48 182.477 224.858 188.44" fill="#8A5738"/>
<path d="M222.91 170.214C222.803 164.102 223.452 158.001 224.842 152.05C224.842 151.894 224.718 151.737 224.453 151.581C223.2 157.652 222.605 163.842 222.677 170.042C222.791 170.104 222.853 170.167 222.864 170.229" fill="#8A5738"/>
<path d="M222.708 169.979C222.822 170.042 222.884 170.104 222.895 170.167C222.801 164.071 223.455 157.986 224.842 152.05C224.842 151.894 224.718 151.737 224.453 151.581C223.2 157.652 222.605 163.842 222.677 170.042" fill="#8A5738"/>
<path d="M217.209 152.05C218.589 158.024 219.228 164.146 219.109 170.276C219.109 170.089 219.53 169.917 220.169 169.838C221.017 169.699 221.888 169.785 222.693 170.089C222.621 163.889 223.216 157.699 224.469 151.628C222.831 151.022 221.066 150.85 219.343 151.127C217.988 151.315 217.193 151.691 217.193 152.082" fill="#8A5738"/>
<path d="M219.11 170.198C219.11 169.979 219.546 169.807 220.185 169.729C221.033 169.59 221.903 169.676 222.708 169.979C222.636 163.779 223.232 157.59 224.484 151.519C223.364 151.058 222.157 150.85 220.948 150.908V151.612C220.699 153.787 220.481 155.68 220.418 155.727C220.36 155.763 220.292 155.782 220.224 155.782C220.155 155.782 220.088 155.763 220.029 155.727L218.954 151.174C217.895 151.378 217.287 151.706 217.287 152.05C218.667 158.024 219.306 164.146 219.188 170.276" fill="#8A5738"/>
<path d="M222.911 170.214C222.911 169.494 222.911 168.774 222.911 168.055V166.991C222.911 166.678 222.911 166.256 222.911 165.943V164.926C222.911 164.613 222.911 164.206 222.911 163.909V162.908C222.911 162.626 222.911 162.235 222.911 161.938L223.004 160.983C223.004 160.702 223.004 160.326 223.098 160.045L223.207 159.137L223.316 158.246L223.441 157.385C223.441 157.119 223.534 156.791 223.581 156.54L223.721 155.727C223.721 155.477 223.815 155.164 223.861 154.929L224.017 154.178L224.173 153.443L224.344 152.739C224.344 152.535 224.469 152.269 224.516 152.066C223.118 158.011 222.464 164.107 222.568 170.214" fill="#8A5738"/>
<path d="M224.843 152.05C223.456 157.992 222.802 164.081 222.895 170.182C222.798 164.081 223.452 157.991 224.843 152.05Z" fill="#8A5738"/>
<path d="M222.895 170.245C222.793 164.123 223.447 158.011 224.843 152.05L224.671 152.723C224.671 152.927 224.547 153.208 224.5 153.427L224.344 154.147L224.188 154.913L224.048 155.696C224.048 155.946 223.939 156.274 223.908 156.525L223.768 157.354C223.768 157.62 223.768 157.964 223.643 158.23L223.534 159.122L223.425 160.029L223.331 160.968C223.331 161.249 223.331 161.641 223.238 161.922V162.892C223.238 163.189 223.238 163.596 223.238 163.893V164.91C223.238 165.207 223.238 165.63 223.238 165.927V166.975C223.238 167.288 223.238 167.711 223.238 168.039V170.198" fill="#8A5738"/>
<path d="M217.225 152.05C218.594 157.999 219.227 164.094 219.109 170.198C219.228 164.067 218.589 157.945 217.209 151.972" fill="#8A5738"/>
<path d="M217.567 153.427C217.676 153.928 217.785 154.428 217.878 154.913L218.018 155.711C218.018 155.946 218.112 156.274 218.159 156.525L218.283 157.37C218.283 157.62 218.283 157.98 218.408 158.23L218.517 159.122C218.517 159.403 218.517 159.763 218.61 160.045L218.704 160.968C218.704 161.265 218.704 161.64 218.797 161.938L218.875 162.908C218.875 163.205 218.875 163.596 218.875 163.893V164.91C218.875 165.223 218.875 165.63 218.875 165.943V166.991C218.875 167.304 218.875 167.726 218.875 168.039V169.119C218.875 169.447 218.875 169.87 218.875 170.198C218.993 164.067 218.355 157.945 216.975 151.972L217.162 152.723C217.162 152.942 217.286 153.224 217.333 153.427" fill="#8A5738"/>
<path d="M219.11 170.198C219.228 164.099 218.595 158.009 217.225 152.066C218.609 158.023 219.247 164.13 219.125 170.245" fill="#8A5738"/>
<path d="M219.125 170.245V169.119C219.125 168.79 219.125 168.368 219.125 168.039V166.991C219.125 166.678 219.125 166.256 219.125 165.943V164.91C219.125 164.613 219.125 164.206 219.125 163.893V162.908C219.125 162.61 219.125 162.219 219.047 161.938L218.954 160.968C218.954 160.702 218.954 160.326 218.86 160.045L218.767 159.122L218.658 158.23L218.533 157.37C218.533 157.119 218.439 156.775 218.408 156.525L218.268 155.711C218.268 155.476 218.175 155.164 218.128 154.913L217.972 154.162L217.816 153.427L217.645 152.723C217.645 152.52 217.536 152.254 217.474 152.05C218.856 158.013 219.494 164.125 219.374 170.245" fill="#8A5738"/>
<path d="M219.125 170.245C219.245 164.125 218.607 158.013 217.225 152.05C217.225 152.191 217.38 152.316 217.614 152.441C219.244 153.056 221.006 153.228 222.724 152.942C223.986 152.77 224.765 152.442 224.858 152.066C223.458 158.021 222.799 164.127 222.895 170.245C222.895 170.433 222.474 170.589 221.836 170.683C220.987 170.823 220.117 170.736 219.312 170.433C219.208 170.37 219.146 170.308 219.125 170.245Z" fill="#8A5738"/>
<path d="M222.895 170.245C222.895 170.433 222.474 170.589 221.836 170.683C220.987 170.823 220.117 170.736 219.312 170.433C219.208 170.37 219.146 170.308 219.125 170.245C219.245 164.125 218.607 158.013 217.225 152.05C217.225 152.191 217.38 152.316 217.614 152.441C219.244 153.056 221.006 153.228 222.724 152.942C223.986 152.77 224.765 152.442 224.858 152.066C223.458 158.021 222.799 164.127 222.895 170.245Z" fill="#8A5738"/>
<path d="M225.048 152.11C225.05 151.523 223.335 151.043 221.218 151.039C219.102 151.035 217.385 151.508 217.384 152.096C217.383 152.683 219.098 153.163 221.214 153.167C223.331 153.171 225.047 152.698 225.048 152.11Z" fill="#623D28"/>
<path d="M211.025 175.596C214.406 175.596 217.147 173.396 217.147 170.683C217.147 167.97 214.406 165.771 211.025 165.771C207.643 165.771 204.902 167.97 204.902 170.683C204.902 173.396 207.643 175.596 211.025 175.596Z" fill="#026F24"/>
<path d="M219.951 176.644C222.91 176.644 225.31 174.718 225.31 172.342C225.31 169.966 222.91 168.039 219.951 168.039C216.991 168.039 214.592 169.966 214.592 172.342C214.592 174.718 216.991 176.644 219.951 176.644Z" fill="#026F24"/>
<path d="M229.267 175.596C232.691 175.596 235.467 173.368 235.467 170.621C235.467 167.873 232.691 165.646 229.267 165.646C225.842 165.646 223.066 167.873 223.066 170.621C223.066 173.368 225.842 175.596 229.267 175.596Z" fill="#026F24"/>
<path d="M207.52 170.214C210.901 170.214 213.642 166.523 213.642 161.969C213.642 157.416 210.901 153.724 207.52 153.724C204.139 153.724 201.397 157.416 201.397 161.969C201.397 166.523 204.139 170.214 207.52 170.214Z" fill="#008C2D"/>
<path d="M214.016 173.937C217.397 173.937 220.138 170.246 220.138 165.692C220.138 161.139 217.397 157.448 214.016 157.448C210.635 157.448 207.894 161.139 207.894 165.692C207.894 170.246 210.635 173.937 214.016 173.937Z" fill="#008C2D"/>
<path d="M217.224 173.937C220.605 173.937 223.346 170.246 223.346 165.692C223.346 161.139 220.605 157.448 217.224 157.448C213.843 157.448 211.102 161.139 211.102 165.692C211.102 170.246 213.843 173.937 217.224 173.937Z" fill="#008C2D"/>
<path d="M224.811 174.923C228.192 174.923 230.933 171.232 230.933 166.678C230.933 162.125 228.192 158.433 224.811 158.433C221.43 158.433 218.688 162.125 218.688 166.678C218.688 171.232 221.43 174.923 224.811 174.923Z" fill="#008C2D"/>
<path d="M227.771 174.923C231.152 174.923 233.893 171.232 233.893 166.678C233.893 162.125 231.152 158.433 227.771 158.433C224.389 158.433 221.648 162.125 221.648 166.678C221.648 171.232 224.389 174.923 227.771 174.923Z" fill="#008C2D"/>
<path d="M233.894 170.214C237.275 170.214 240.016 166.523 240.016 161.969C240.016 157.416 237.275 153.724 233.894 153.724C230.513 153.724 227.771 157.416 227.771 161.969C227.771 166.523 230.513 170.214 233.894 170.214Z" fill="#008C2D"/>
<path d="M210.432 161.547C213.787 161.547 216.508 157.673 216.508 152.895C216.508 148.117 213.787 144.244 210.432 144.244C207.077 144.244 204.356 148.117 204.356 152.895C204.356 157.673 207.077 161.547 210.432 161.547Z" fill="#009B32"/>
<path d="M229.453 160.561C232.809 160.561 235.529 156.688 235.529 151.91C235.529 147.131 232.809 143.258 229.453 143.258C226.098 143.258 223.378 147.131 223.378 151.91C223.378 156.688 226.098 160.561 229.453 160.561Z" fill="#009B32"/>
<path d="M216.944 169.213C220.893 169.213 224.095 165.339 224.095 160.561C224.095 155.783 220.893 151.91 216.944 151.91C212.995 151.91 209.794 155.783 209.794 160.561C209.794 165.339 212.995 169.213 216.944 169.213Z" fill="#009B32"/>
<path d="M227.102 168.696C231.051 168.696 234.252 164.823 234.252 160.045C234.252 155.267 231.051 151.393 227.102 151.393C223.153 151.393 219.951 155.267 219.951 160.045C219.951 164.823 223.153 168.696 227.102 168.696Z" fill="#009B32"/>
<path d="M214.031 153.099C217.386 153.099 220.106 149.225 220.106 144.447C220.106 139.669 217.386 135.796 214.031 135.796C210.675 135.796 207.955 139.669 207.955 144.447C207.955 149.225 210.675 153.099 214.031 153.099Z" fill="#00A836"/>
<path d="M225.855 153.099C229.21 153.099 231.93 149.225 231.93 144.447C231.93 139.669 229.21 135.796 225.855 135.796C222.499 135.796 219.779 139.669 219.779 144.447C219.779 149.225 222.499 153.099 225.855 153.099Z" fill="#00A836"/>
<path d="M219.951 157.729C224.012 157.729 227.304 153.044 227.304 147.263C227.304 141.483 224.012 136.797 219.951 136.797C215.89 136.797 212.598 141.483 212.598 147.263C212.598 153.044 215.89 157.729 219.951 157.729Z" fill="#00A836"/>
<path d="M220.137 150.22C224.198 150.22 227.49 145.534 227.49 139.754C227.49 133.973 224.198 129.287 220.137 129.287C216.076 129.287 212.784 133.973 212.784 139.754C212.784 145.534 216.076 150.22 220.137 150.22Z" fill="#009B32"/>
<path d="M218.595 148.358C222.656 148.358 225.948 143.672 225.948 137.892C225.948 132.112 222.656 127.426 218.595 127.426C214.534 127.426 211.242 132.112 211.242 137.892C211.242 143.672 214.534 148.358 218.595 148.358Z" fill="#009B32"/>
<path d="M221.633 147.263C225.694 147.263 228.986 142.577 228.986 136.797C228.986 131.016 225.694 126.331 221.633 126.331C217.572 126.331 214.28 131.016 214.28 136.797C214.28 142.577 217.572 147.263 221.633 147.263Z" fill="#009B32"/>
<path d="M220.138 138.174C223.201 138.174 225.684 133.642 225.684 128.052C225.684 122.461 223.201 117.929 220.138 117.929C217.075 117.929 214.592 122.461 214.592 128.052C214.592 133.642 217.075 138.174 220.138 138.174Z" fill="#00A737"/>
<path d="M89.9184 111.218C93.5637 113.33 93.5793 116.74 89.9184 118.852C87.8848 119.894 85.6347 120.436 83.3521 120.436C81.0696 120.436 78.8193 119.894 76.7857 118.852C73.1404 116.74 73.1248 113.33 76.7857 111.218C78.8193 110.177 81.0696 109.634 83.3521 109.634C85.6347 109.634 87.8848 110.177 89.9184 111.218Z" fill="#7EB66F"/>
<path d="M89.5333 115.06C89.5351 114.101 86.7398 113.318 83.2897 113.311C79.8396 113.305 77.0413 114.077 77.0395 115.036C77.0376 115.995 79.833 116.778 83.2831 116.784C86.7331 116.791 89.5315 116.019 89.5333 115.06Z" fill="#623D28"/>
<path d="M89.3104 114.816C87.058 105.074 86.0116 95.0904 86.1947 85.0911C86.1673 85.0201 86.1255 84.9556 86.0719 84.9017C86.0182 84.8478 85.954 84.8058 85.8832 84.7783C85.7032 94.6248 86.6333 104.46 88.656 114.096C88.9381 114.222 89.1614 114.452 89.2792 114.738" fill="#8A5738"/>
<path d="M88.7343 114.175C89.0164 114.3 89.2396 114.53 89.3575 114.816C87.1051 105.074 86.0586 95.0904 86.2418 85.0911C86.2144 85.0201 86.1724 84.9556 86.1187 84.9017C86.0651 84.8478 86.0009 84.8058 85.9301 84.7783C85.7501 94.6248 86.6804 104.46 88.7031 114.096" fill="#8A5738"/>
<path d="M80.0893 85.1538C80.2639 95.1527 79.2176 105.135 76.9736 114.879C77.1294 114.268 78.3758 113.721 80.4478 113.439C83.2547 112.992 86.1288 113.272 88.7977 114.253C86.775 104.616 85.8447 94.7812 86.0247 84.9347C84.7023 84.4389 83.2738 84.2987 81.8808 84.528C80.8527 84.6688 80.2296 84.9348 80.1517 85.2321" fill="#8A5738"/>
<path d="M76.8486 114.8C77.0044 114.19 78.2507 113.643 80.3226 113.361C83.1295 112.914 86.0036 113.194 88.6725 114.175C86.6498 104.538 85.7197 94.7031 85.8997 84.8566C84.5773 84.3608 83.1488 84.2205 81.7558 84.4498C80.7277 84.5906 80.1046 84.8565 80.0267 85.1538C80.2013 95.1527 79.1549 105.135 76.911 114.879" fill="#8A5738"/>
<path d="M89.3109 114.816C87.0748 105.119 86.0285 95.1841 86.1953 85.2321C86.0121 95.2314 87.0586 105.215 89.3109 114.957" fill="#8A5738"/>
<path d="M89.311 114.816C88.9372 113.361 88.9372 113.361 88.7658 112.579L88.5009 111.39C88.5009 111.014 88.3295 110.514 88.2516 110.138L88.0181 108.855C88.0181 108.464 87.8623 107.932 87.8 107.526L87.5975 106.149L87.3949 104.741L87.2236 103.286C87.2236 102.848 87.099 102.253 87.0523 101.8L86.8963 100.235C86.8963 99.7659 86.8029 99.1401 86.7562 98.6708L86.6316 97.1063C86.6316 96.6213 86.6315 95.9799 86.5225 95.5419V93.9774C86.5225 93.4768 86.5225 92.8041 86.5225 92.3035V90.5981C86.5225 90.0818 86.5225 89.3935 86.5225 88.8772V87.125C86.5225 86.5931 86.5225 85.8891 86.5225 85.3572C86.3488 95.3095 87.3952 105.246 89.6381 114.941" fill="#8A5738"/>
<path d="M86.2731 85.2321C86.1144 95.1786 87.1606 105.107 89.3887 114.8C89.3944 114.847 89.3944 114.895 89.3887 114.941C87.1428 105.198 86.0964 95.2154 86.2731 85.2164" fill="#8A5738"/>
<path d="M89.3106 114.941C87.0647 105.198 86.0183 95.2154 86.1949 85.2164V86.9843C86.1949 87.5162 86.1949 88.2046 86.1949 88.7365V90.4574C86.1949 90.9736 86.1949 91.6463 86.1949 92.1626V93.8366C86.1949 94.3373 86.1949 94.9944 86.1949 95.4011L86.3039 96.9656C86.3039 97.4506 86.3975 98.0763 86.4286 98.53L86.5688 100.095L86.7245 101.659L86.8959 103.145C86.8959 103.583 87.0207 104.162 87.0674 104.6L87.2697 106.008C87.2697 106.43 87.41 106.978 87.4723 107.385L87.6904 108.715C87.6904 109.106 87.8618 109.622 87.9241 109.998L88.1734 111.249C88.1734 111.609 88.3446 112.078 88.4381 112.438L88.703 113.58C88.7809 113.909 88.89 114.347 88.9835 114.675C88.9835 114.675 88.9835 114.675 88.9835 114.8" fill="#8A5738"/>
<path d="M80.0893 85.2164C80.2461 95.1629 79.1999 105.092 76.9736 114.785C79.2123 105.073 80.2586 95.1214 80.0893 85.1538" fill="#8A5738"/>
<path d="M80.0424 88.7365C80.0424 90.7233 80.0423 91.0361 79.9332 92.1626L79.8399 93.8366C79.8399 94.3373 79.8398 94.9943 79.7463 95.4949L79.6373 97.0593C79.6373 97.5443 79.5438 98.1858 79.5126 98.6238L79.3569 100.188L79.2011 101.753L79.0298 103.317C79.0298 103.755 78.9052 104.334 78.8428 104.772L78.6403 106.18C78.6403 106.603 78.5001 107.15 78.4378 107.557L78.2041 108.887C78.2041 109.278 78.0482 109.794 77.9704 110.17L77.7212 111.406L77.4563 112.61L77.1914 113.752C77.098 114.081 76.989 114.519 76.9111 114.847C79.1551 105.104 80.2014 95.1214 80.0268 85.1225V86.953C80.0268 87.4849 80.0268 88.1889 80.0268 88.7052" fill="#8A5738"/>
<path d="M76.8482 114.8C79.0659 105.106 80.112 95.1781 79.9639 85.2321C80.1106 95.2349 79.0327 105.218 76.7547 114.957C76.7458 114.916 76.7458 114.873 76.7547 114.832" fill="#8A5738"/>
<path d="M76.8481 114.926L77.1596 113.705L77.4245 112.563L77.6894 111.374L77.9385 110.123L78.1723 108.84C78.1723 108.449 78.3281 107.917 78.406 107.51L78.6085 106.149L78.811 104.725L78.998 103.27C78.998 102.832 79.1226 102.238 79.1693 101.706L79.325 100.141L79.4808 98.5768L79.6055 97.0123C79.6055 96.5274 79.6054 95.8859 79.7145 95.4479L79.8081 93.7896C79.8081 93.289 79.808 92.6162 79.9014 92.1156V90.4104C79.9014 89.8941 79.9014 89.2058 79.9014 88.6895V86.9373C79.9014 86.421 79.9014 85.7014 79.9014 85.1694C80.0478 95.1723 78.9701 105.155 76.6924 114.894" fill="#8A5738"/>
<path d="M76.8486 114.926C79.1263 105.187 80.2042 95.2036 80.0579 85.2007C80.1215 85.3389 80.2318 85.4497 80.3694 85.5136C81.6935 86.0017 83.12 86.1418 84.5132 85.9203C85.5414 85.7795 86.1645 85.498 86.2424 85.2007C86.0658 95.1997 87.1121 105.183 89.3581 114.926C89.3581 115.567 88.0651 116.193 85.853 116.49C83.0461 116.938 80.1719 116.657 77.503 115.676C77.0824 115.426 76.8642 115.16 76.8642 114.91" fill="#8A5738"/>
<path d="M89.3109 114.941C89.3109 115.504 88.3139 116.052 86.5847 116.38L86.3354 115.254C86.2263 114.722 84.7776 108.996 84.7776 108.996C84.6954 108.925 84.5949 108.878 84.4874 108.861C84.3798 108.845 84.2697 108.859 84.17 108.902L83.578 112.923C83.4066 114.159 83.3133 115.411 83.1575 116.646C81.1825 116.745 79.2097 116.409 77.3778 115.661C76.9572 115.411 76.7393 115.145 76.7393 114.894L77.0352 113.784C79.0468 104.387 80.0237 94.7963 79.9483 85.1851C79.9655 85.2705 80.0027 85.3504 80.0569 85.4185C80.1111 85.4865 80.1806 85.5406 80.2598 85.5762C81.5839 86.0644 83.0105 86.2044 84.4037 85.983C85.4319 85.8422 86.055 85.5606 86.1329 85.2634C85.9546 95.2625 87.001 105.246 89.2485 114.988" fill="#8A5738"/>
<path d="M86.2727 85.2321C86.1263 75.2292 87.204 65.2462 89.4817 55.5072C89.4817 55.2413 89.2792 54.991 88.843 54.7407C86.8143 64.6419 85.8481 74.7329 85.961 84.841C86.0318 84.8685 86.096 84.9105 86.1497 84.9643C86.2033 85.0182 86.2453 85.0827 86.2727 85.1538" fill="#8A5738"/>
<path d="M85.961 84.8566C86.0318 84.8841 86.096 84.9261 86.1497 84.98C86.2033 85.0339 86.2453 85.0984 86.2727 85.1694C86.1251 75.1665 87.2028 65.1833 89.4817 55.4446C89.4817 55.1786 89.2792 54.9283 88.843 54.678C86.8143 64.5792 85.8481 74.6703 85.961 84.7783" fill="#8A5738"/>
<path d="M76.9883 55.5072C79.2358 65.2498 80.2822 75.233 80.1039 85.232C80.1818 84.9348 80.8049 84.6687 81.8331 84.5279C83.2261 84.2986 84.6546 84.4389 85.977 84.9347C85.8641 74.8267 86.8303 64.7356 88.859 54.8344C86.1918 53.8459 83.3157 53.5656 80.509 54.0208C78.2969 54.3181 77.0195 54.9439 77.0039 55.5853" fill="#8A5738"/>
<path d="M80.0884 85.2164C80.1662 84.8565 80.7894 84.5906 81.8175 84.4498C83.2105 84.2205 84.639 84.3607 85.9614 84.8566C85.8485 74.7485 86.8147 64.6575 88.8434 54.7563C87.0138 54.0003 85.0394 53.6635 83.0639 53.7707L82.9237 54.897C82.5498 58.198 82.1915 61.3112 82.0824 61.4207C81.9895 61.4882 81.8778 61.5246 81.7631 61.5246C81.6485 61.5246 81.5366 61.4882 81.4437 61.4207C81.4437 61.4207 80.1818 56.1173 79.7145 54.0835C77.9853 54.412 77.0039 54.9596 76.9883 55.5228C79.2358 65.2655 80.2822 75.2486 80.1039 85.2477" fill="#8A5738"/>
<path d="M86.2737 85.2321C86.1247 75.286 87.1708 65.3581 89.3894 55.6636C89.3951 55.6169 89.3951 55.5696 89.3894 55.5229C87.1116 65.2618 86.0338 75.2449 86.1801 85.2477" fill="#8A5738"/>
<path d="M86.2737 85.2321V81.712V79.991C86.2737 79.4747 86.2737 78.802 86.2737 78.2857L86.367 76.6118C86.367 76.1112 86.3671 75.454 86.4606 74.9534L86.5695 73.389C86.5695 72.904 86.663 72.2625 86.6941 71.8245L86.85 70.26L87.0058 68.6956L87.1771 67.1311C87.1771 66.693 87.3017 66.1143 87.3641 65.6762L87.5666 64.2525C87.5666 63.8458 87.7068 63.2982 87.7847 62.8914L88.0028 61.5617C88.0028 61.1706 88.1742 60.6542 88.2365 60.2631L88.4857 59.0273L88.7506 57.8383L89.0155 56.6962C89.1089 56.3677 89.2179 55.9295 89.3114 55.601C87.0666 65.2964 86.0201 75.2326 86.1957 85.1851" fill="#8A5738"/>
<path d="M89.4671 55.648C87.2402 65.3464 86.194 75.2805 86.3514 85.2321C86.1734 75.2589 87.2199 65.3015 89.4671 55.5854" fill="#8A5738"/>
<path d="M86.2733 85.2946C86.0953 75.3213 87.1418 65.3642 89.389 55.648L89.1085 56.7431C89.015 57.0872 88.9059 57.5411 88.828 57.8853L88.5633 59.0741C88.5633 59.4496 88.3919 59.9503 88.314 60.3101L88.0803 61.5931C88.0803 61.9998 87.9245 62.5317 87.8622 62.9385L87.6442 64.2995L87.4417 65.7231L87.2548 67.1625C87.2548 67.6161 87.13 68.2106 87.0832 68.7269L86.9275 70.2914L86.7717 71.8558L86.6472 73.4203C86.6472 73.9209 86.6471 74.5624 86.538 74.9848L86.4447 76.6432C86.4447 77.1438 86.4446 77.8165 86.3511 78.3171V80.0223C86.3511 80.5386 86.3511 81.2271 86.3511 81.7434V83.4956C86.3511 84.0275 86.3511 84.7315 86.3511 85.2634" fill="#8A5738"/>
<path d="M77.0197 55.6323C79.2476 65.3305 80.2939 75.2647 80.1353 85.2164C80.3136 75.2174 79.2672 65.2342 77.0197 55.4916C77.0143 55.5331 77.0143 55.5751 77.0197 55.6167" fill="#8A5738"/>
<path d="M77.5646 57.8696C77.8918 59.434 77.8919 59.4339 78.0633 60.2944L78.297 61.5774C78.297 61.9841 78.4526 62.516 78.5149 62.9228L78.7174 64.2838L78.9199 65.7076L79.0913 67.1624C79.0913 67.6005 79.2161 68.195 79.2628 68.7269L79.4186 70.2913C79.4186 70.7607 79.512 71.3865 79.5587 71.8558L79.6833 73.4203C79.6833 73.9053 79.6834 74.5467 79.7924 74.9847V76.5492C79.7924 77.0498 79.7924 77.7227 79.7924 78.2233V79.9285C79.7924 80.4448 79.7924 81.1331 79.7924 81.665V83.4016C79.7924 83.9335 79.7924 84.6375 79.7924 85.1694C79.9707 75.1704 78.9243 65.1872 76.6768 55.4446V55.5697C77.0195 56.9151 77.0662 57.1342 77.222 57.8069" fill="#8A5738"/>
<path d="M80.0883 85.2164C80.2459 75.2648 79.1997 65.3307 76.9727 55.6323C79.2253 65.3741 80.2718 75.3579 80.0883 85.3572" fill="#8A5738"/>
<path d="M80.0882 85.2945V83.4486C80.0882 82.9323 80.0882 82.2283 80.0882 81.712V79.9755C80.0882 79.4749 80.0882 78.7864 80.0882 78.2701V76.5962C80.0882 76.0956 80.0882 75.4385 80.0882 75.0317L79.9793 73.4673C79.9793 72.9823 79.8859 72.3565 79.8547 71.9028L79.7144 70.3383L79.5586 68.7739L79.3873 67.2094C79.3873 66.7714 79.2627 66.1924 79.2159 65.7544L79.0134 64.3309L78.8109 62.9698L78.5928 61.6398C78.5928 61.2487 78.4214 60.7325 78.3591 60.3414L78.1099 59.1054L77.8606 57.9164L77.5801 56.7744L77.3154 55.6793C79.5681 65.4211 80.6146 75.4049 80.4311 85.4042" fill="#8A5738"/>
<path d="M80.0883 85.2945C80.2718 75.2952 79.2253 65.3114 76.9727 55.5697C76.9727 55.7887 77.2219 55.9921 77.5802 56.2112C80.2489 57.1937 83.1249 57.4685 85.9302 57.009C88.0021 56.7431 89.2484 56.1798 89.4197 55.5853C87.1725 65.3015 86.1261 75.2589 86.3041 85.2321C86.3041 85.5293 85.6031 85.8109 84.5749 85.9517C83.1817 86.1731 81.7553 86.0331 80.4312 85.5449C80.2937 85.481 80.1831 85.3702 80.1195 85.2321" fill="#8A5738"/>
<path d="M86.2731 85.2945C86.2731 85.5918 85.5719 85.8735 84.5437 86.0143C83.1505 86.2357 81.7242 86.0957 80.4 85.6075C80.2625 85.5436 80.1519 85.4326 80.0883 85.2945C80.2718 75.2952 79.2253 65.3114 76.9727 55.5697C76.9727 55.7887 77.2219 55.9921 77.5802 56.2112C80.2489 57.1937 83.1249 57.4685 85.9302 57.009C88.0021 56.7431 89.2484 56.1798 89.4197 55.5853C87.1725 65.3015 86.1261 75.2589 86.3041 85.2321" fill="#8A5738"/>
<path d="M89.6427 55.6369C89.6445 54.6778 86.8491 53.8949 83.3991 53.8883C79.949 53.8816 77.1507 54.6537 77.1488 55.6128C77.147 56.5718 79.9424 57.3547 83.3924 57.3613C86.8425 57.368 89.6408 56.5959 89.6427 55.6369Z" fill="#623D28"/>
<path d="M66.644 94.0088C72.1503 94.0088 76.6141 90.4225 76.6141 85.9987C76.6141 81.5749 72.1503 77.9886 66.644 77.9886C61.1376 77.9886 56.6738 81.5749 56.6738 85.9987C56.6738 90.4225 61.1376 94.0088 66.644 94.0088Z" fill="#026F24"/>
<path d="M81.1633 95.6984C85.9899 95.6984 89.9027 92.5604 89.9027 88.6896C89.9027 84.8187 85.9899 81.6808 81.1633 81.6808C76.3366 81.6808 72.4238 84.8187 72.4238 88.6896C72.4238 92.5604 76.3366 95.6984 81.1633 95.6984Z" fill="#026F24"/>
<path d="M96.3526 94.0244C101.928 94.0244 106.447 90.3892 106.447 85.9049C106.447 81.4205 101.928 77.7853 96.3526 77.7853C90.7774 77.7853 86.2578 81.4205 86.2578 85.9049C86.2578 90.3892 90.7774 94.0244 96.3526 94.0244Z" fill="#026F24"/>
<path d="M60.9116 85.232C66.4179 85.232 70.8817 79.2153 70.8817 71.7933C70.8817 64.3712 66.4179 58.3545 60.9116 58.3545C55.4052 58.3545 50.9414 64.3712 50.9414 71.7933C50.9414 79.2153 55.4052 85.232 60.9116 85.232Z" fill="#008C2D"/>
<path d="M71.52 91.3178C77.0263 91.3178 81.4901 85.3011 81.4901 77.8791C81.4901 70.457 77.0263 64.4403 71.52 64.4403C66.0136 64.4403 61.5498 70.457 61.5498 77.8791C61.5498 85.3011 66.0136 91.3178 71.52 91.3178Z" fill="#008C2D"/>
<path d="M76.7231 91.3178C82.2294 91.3178 86.6932 85.3011 86.6932 77.8791C86.6932 70.457 82.2294 64.4403 76.7231 64.4403C71.2167 64.4403 66.7529 70.457 66.7529 77.8791C66.7529 85.3011 71.2167 91.3178 76.7231 91.3178Z" fill="#008C2D"/>
<path d="M89.1078 92.9137C94.6142 92.9137 99.078 86.8969 99.078 79.4749C99.078 72.0529 94.6142 66.0361 89.1078 66.0361C83.6015 66.0361 79.1377 72.0529 79.1377 79.4749C79.1377 86.8969 83.6015 92.9137 89.1078 92.9137Z" fill="#008C2D"/>
<path d="M93.9379 92.9137C99.4443 92.9137 103.908 86.8969 103.908 79.4749C103.908 72.0529 99.4443 66.0361 93.9379 66.0361C88.4316 66.0361 83.9678 72.0529 83.9678 79.4749C83.9678 86.8969 88.4316 92.9137 93.9379 92.9137Z" fill="#008C2D"/>
<path d="M103.908 85.232C109.414 85.232 113.878 79.2153 113.878 71.7933C113.878 64.3712 109.414 58.3545 103.908 58.3545C98.4013 58.3545 93.9375 64.3712 93.9375 71.7933C93.9375 79.2153 98.4013 85.232 103.908 85.232Z" fill="#008C2D"/>
<path d="M65.6627 71.1049C71.1347 71.1049 75.5705 64.787 75.5705 56.9934C75.5705 49.1999 71.1347 42.882 65.6627 42.882C60.1908 42.882 55.7549 49.1999 55.7549 56.9934C55.7549 64.787 60.1908 71.1049 65.6627 71.1049Z" fill="#009B32"/>
<path d="M96.6793 69.5092C102.151 69.5092 106.587 63.1913 106.587 55.3977C106.587 47.6042 102.151 41.2863 96.6793 41.2863C91.2074 41.2863 86.7715 47.6042 86.7715 55.3977C86.7715 63.1913 91.2074 69.5092 96.6793 69.5092Z" fill="#009B32"/>
<path d="M76.2873 83.6207C82.7315 83.6207 87.9555 77.3027 87.9555 69.5092C87.9555 61.7156 82.7315 55.3977 76.2873 55.3977C69.8432 55.3977 64.6191 61.7156 64.6191 69.5092C64.6191 77.3027 69.8432 83.6207 76.2873 83.6207Z" fill="#009B32"/>
<path d="M92.8469 82.7758C99.291 82.7758 104.515 76.4579 104.515 68.6643C104.515 60.8708 99.291 54.5529 92.8469 54.5529C86.4027 54.5529 81.1787 60.8708 81.1787 68.6643C81.1787 76.4579 86.4027 82.7758 92.8469 82.7758Z" fill="#009B32"/>
<path d="M71.5358 57.3377C77.0077 57.3377 81.4436 51.0198 81.4436 43.2262C81.4436 35.4327 77.0077 29.1147 71.5358 29.1147C66.0638 29.1147 61.6279 35.4327 61.6279 43.2262C61.6279 51.0198 66.0638 57.3377 71.5358 57.3377Z" fill="#00A836"/>
<path d="M90.8063 57.3377C96.2782 57.3377 100.714 51.0198 100.714 43.2262C100.714 35.4327 96.2782 29.1147 90.8063 29.1147C85.3343 29.1147 80.8984 35.4327 80.8984 43.2262C80.8984 51.0198 85.3343 57.3377 90.8063 57.3377Z" fill="#00A836"/>
<path d="M81.1633 64.8941C87.7796 64.8941 93.1431 57.2523 93.1431 47.8258C93.1431 38.3992 87.7796 30.7574 81.1633 30.7574C74.5471 30.7574 69.1836 38.3992 69.1836 47.8258C69.1836 57.2523 74.5471 64.8941 81.1633 64.8941Z" fill="#00A836"/>
<path d="M81.4905 52.6442C88.1067 52.6442 93.4702 45.0025 93.4702 35.5759C93.4702 26.1493 88.1067 18.5076 81.4905 18.5076C74.8743 18.5076 69.5107 26.1493 69.5107 35.5759C69.5107 45.0025 74.8743 52.6442 81.4905 52.6442Z" fill="#009B32"/>
<path d="M78.967 49.5935C85.5833 49.5935 90.9468 41.9518 90.9468 32.5252C90.9468 23.0987 85.5833 15.4569 78.967 15.4569C72.3508 15.4569 66.9873 23.0987 66.9873 32.5252C66.9873 41.9518 72.3508 49.5935 78.967 49.5935Z" fill="#009B32"/>
<path d="M83.9202 47.8257C90.5364 47.8257 95.8999 40.184 95.8999 30.7574C95.8999 21.3308 90.5364 13.6891 83.9202 13.6891C77.3039 13.6891 71.9404 21.3308 71.9404 30.7574C71.9404 40.184 77.3039 47.8257 83.9202 47.8257Z" fill="#009B32"/>
<path d="M81.4905 33.0102C86.4807 33.0102 90.526 25.6206 90.526 16.5051C90.526 7.38959 86.4807 0 81.4905 0C76.5004 0 72.4551 7.38959 72.4551 16.5051C72.4551 25.6206 76.5004 33.0102 81.4905 33.0102Z" fill="#00A737"/>
</svg>
