<svg width="94" height="90" viewBox="0 0 94 90" fill="none" xmlns="http://www.w3.org/2000/svg">
<path d="M27.0577 34.4955C32.7905 37.8278 32.8217 43.2253 27.0577 46.5576C23.8466 48.2005 20.2942 49.0569 16.6904 49.0569C13.0867 49.0569 9.53403 48.2005 6.323 46.5576C0.57459 43.2253 0.543433 37.8278 6.323 34.4955C9.53476 32.855 13.0871 32 16.6904 32C20.2937 32 23.8459 32.855 27.0577 34.4955V34.4955Z" fill="#7EB66F"/>
<path d="M89.3576 41.463C92.8712 43.4167 92.8903 46.5811 89.3576 48.5347C87.3896 49.4979 85.2123 50 83.0036 50C80.7949 50 78.6175 49.4979 76.6495 48.5347C73.1264 46.5811 73.1073 43.4167 76.6495 41.463C78.618 40.5013 80.7952 40 83.0036 40C85.2121 40 87.3892 40.5013 89.3576 41.463V41.463Z" fill="#7EB66F"/>
<path d="M82.2076 42.2055V46.8989C82.203 47.0173 82.1728 47.1331 82.119 47.2385C82.0651 47.3439 81.9889 47.4363 81.8959 47.5091C81.518 47.765 81.0842 47.9256 80.6313 47.9774C80.1784 48.0291 79.7199 47.9704 79.2944 47.8063L79.014 47.6655C78.8607 47.5974 78.729 47.4887 78.6329 47.3508C78.5368 47.2129 78.48 47.0512 78.4688 46.8833V42.1899C78.4847 42.3564 78.5434 42.5159 78.6389 42.653C78.7345 42.79 78.8636 42.9 79.014 42.9721L79.2944 43.0972C79.7192 43.2653 80.1785 43.3262 80.6321 43.2744C81.0857 43.2226 81.5196 43.0597 81.8959 42.8C81.9906 42.7288 82.0678 42.6367 82.1218 42.5309C82.1758 42.4252 82.2052 42.3087 82.2076 42.1899" fill="white"/>
<path d="M81.6622 41.4389C82.2853 41.7987 82.4098 42.3775 81.8957 42.8156C81.5195 43.0752 81.0855 43.2381 80.6319 43.29C80.1783 43.3418 79.719 43.2809 79.2943 43.1128L79.0138 42.9877C78.3907 42.6122 78.266 42.0333 78.7801 41.5953C79.158 41.3394 79.5918 41.1787 80.0447 41.127C80.4976 41.0753 80.9562 41.134 81.3817 41.2981L81.6622 41.4389Z" fill="#DEDEDE"/>
<path d="M78.1879 40.8131V45.5065C78.1833 45.6248 78.1531 45.7407 78.0993 45.846C78.0454 45.9514 77.9694 46.0439 77.8764 46.1167C77.4985 46.3726 77.0647 46.5332 76.6118 46.5849C76.1589 46.6367 75.7002 46.5779 75.2747 46.4138L74.9944 46.2731C74.8412 46.205 74.7092 46.0962 74.6131 45.9583C74.517 45.8205 74.4605 45.6587 74.4492 45.4908V40.7974C74.4678 40.9633 74.5292 41.1215 74.6276 41.256C74.726 41.3905 74.8579 41.4966 75.01 41.564L75.2903 41.7048C75.7158 41.8689 76.1745 41.9276 76.6274 41.8759C77.0803 41.8241 77.5141 41.6635 77.892 41.4076C77.9842 41.3341 78.0598 41.2417 78.1135 41.1364C78.1673 41.0312 78.1979 40.9156 78.2035 40.7974" fill="white"/>
<path d="M77.6425 39.9838C78.2656 40.3436 78.3747 40.9225 77.8762 41.3605C77.4983 41.6164 77.0645 41.777 76.6116 41.8288C76.1587 41.8805 75.7001 41.822 75.2746 41.6579L74.9943 41.5169C74.3711 41.1571 74.2465 40.5782 74.7606 40.1402C75.1385 39.8843 75.5723 39.7237 76.0251 39.6719C76.478 39.6202 76.9367 39.6789 77.3622 39.843L77.6425 39.9838Z" fill="#DEDEDE"/>
<path d="M71.5668 41.9864C75.4557 41.9864 78.6082 38.8204 78.6082 34.915C78.6082 31.0096 75.4557 27.8436 71.5668 27.8436C67.6779 27.8436 64.5254 31.0096 64.5254 34.915C64.5254 38.8204 67.6779 41.9864 71.5668 41.9864Z" fill="white"/>
<path d="M82.3315 44.5365C88.3713 44.5365 93.2675 40.7682 93.2675 36.1197C93.2675 31.4712 88.3713 27.7029 82.3315 27.7029C76.2917 27.7029 71.3955 31.4712 71.3955 36.1197C71.3955 40.7682 76.2917 44.5365 82.3315 44.5365Z" fill="white"/>
<path d="M78.219 45.7882C78.219 46.6643 77.2999 47.3526 76.1471 47.3526C75.6699 47.4071 75.1901 47.275 74.8072 46.9837C74.4243 46.6924 74.1676 46.2643 74.0907 45.7882C74.0831 45.7101 74.0831 45.6315 74.0907 45.5535C74.2613 45.9529 74.5449 46.2932 74.9063 46.5324C75.2676 46.7716 75.6909 46.8993 76.1237 46.8993C76.5565 46.8993 76.9798 46.7716 77.3412 46.5324C77.7025 46.2932 77.9862 45.9529 78.1568 45.5535C78.1854 45.6294 78.2061 45.708 78.219 45.7882Z" fill="#FAFAFA"/>
<path d="M78.1873 45.5065C78.3748 45.9453 78.4166 46.4331 78.3064 46.8976C78.1962 47.362 77.9399 47.7783 77.5756 48.085C77.2112 48.3918 76.7582 48.5725 76.2836 48.6003C75.809 48.6281 75.3381 48.5018 74.9406 48.2397C74.5432 47.9777 74.2402 47.5941 74.0769 47.1456C73.9136 46.6972 73.8986 46.2079 74.0339 45.7502C74.1693 45.2925 74.4479 44.8908 74.8285 44.6045C75.209 44.3183 75.6712 44.1628 76.1467 44.1611C76.5881 44.121 77.0301 44.2321 77.4006 44.4764C77.7712 44.7207 78.0484 45.0838 78.1873 45.5065Z" fill="white"/>
<path d="M78.2191 45.3187C78.2267 45.3967 78.2267 45.4753 78.2191 45.5534C78.0485 45.9528 77.765 46.2931 77.4037 46.5323C77.0423 46.7715 76.619 46.8992 76.1862 46.8992C75.7534 46.8992 75.3301 46.7715 74.9688 46.5323C74.6074 46.2931 74.3238 45.9528 74.1532 45.5534C74.1456 45.4753 74.1456 45.3967 74.1532 45.3187C74.2301 44.8425 74.4866 44.4145 74.8695 44.1232C75.2524 43.8319 75.7324 43.6997 76.2096 43.7542C77.3001 43.7386 78.2191 44.4426 78.2191 45.3187Z" fill="white"/>
<path d="M82 47.2708C81.855 47.7663 81.5314 48.2046 81.0798 48.5174C80.6281 48.8302 80.0737 49 79.5033 49C78.933 49 78.3788 48.8302 77.9271 48.5174C77.4754 48.2046 77.1518 47.7663 77.0069 47.2708C76.9977 47.1808 76.9977 47.0901 77.0069 47C77.1778 47.4556 77.5139 47.8466 77.9614 48.1104C78.4088 48.3743 78.9416 48.4957 79.475 48.4554C80.0059 48.4948 80.5361 48.3728 80.9804 48.1088C81.4247 47.8448 81.7573 47.4543 81.9246 47C81.9591 47.0879 81.9844 47.1787 82 47.2708V47.2708Z" fill="#FAFAFA"/>
<path d="M81.9248 47.0071C81.934 47.1051 81.934 47.2038 81.9248 47.3018C81.7575 47.8291 81.4249 48.2824 80.9806 48.5888C80.5363 48.8952 80.0061 49.0369 79.4752 48.9912C78.9418 49.038 78.4087 48.897 77.9612 48.5907C77.5137 48.2845 77.1778 47.8307 77.0069 47.3018C76.9977 47.2038 76.9977 47.1051 77.0069 47.0071C77.1519 46.432 77.4755 45.9233 77.9272 45.5602C78.3789 45.197 78.9331 45 79.5034 45C80.0738 45 80.628 45.197 81.0797 45.5602C81.5314 45.9233 81.855 46.432 82 47.0071H81.9248Z" fill="white"/>
<path d="M89.9802 38.0126L88.874 37.3713C89.2338 37.1027 89.6563 36.9314 90.101 36.8738C90.5456 36.8163 90.9975 36.8744 91.4133 37.0427L92.5195 37.6841C92.1037 37.5159 91.6518 37.4578 91.2072 37.5153C90.7625 37.5729 90.34 37.744 89.9802 38.0126Z" fill="white"/>
<path d="M86.0239 45.6005L84.9179 44.959C84.7856 44.8754 84.679 44.7565 84.6102 44.6156C84.5414 44.4747 84.5132 44.3173 84.5285 44.1611C84.5546 43.6941 84.6994 43.2418 84.9491 42.847L86.0551 43.4883C85.7946 43.8789 85.6439 44.3331 85.6189 44.8026C85.6051 44.9603 85.6359 45.1187 85.7075 45.2598C85.7791 45.4008 85.8887 45.519 86.0239 45.6005Z" fill="white"/>
<path d="M86.0552 43.4883L84.9492 42.847C85.1559 42.5064 85.4016 42.1912 85.6814 41.9082L86.7718 42.5497C86.4968 42.833 86.2563 43.1481 86.0552 43.4883Z" fill="white"/>
<path d="M86.7711 42.5497L85.6807 41.9082C85.7879 41.1809 86.0424 40.4835 86.4284 39.8588L87.5188 40.5003C87.1328 41.125 86.8783 41.8224 86.7711 42.5497Z" fill="white"/>
<path d="M87.5181 40.5003L86.4277 39.8588C86.9131 39.0475 87.5474 38.3362 88.2971 37.7625L89.3876 38.4038C88.6434 38.9833 88.01 39.6938 87.5181 40.5003Z" fill="white"/>
<path d="M89.3884 38.4038L88.2979 37.7625L88.8742 37.3714L89.9804 38.0127C89.7739 38.1283 89.576 38.2591 89.3884 38.4038Z" fill="white"/>
<path d="M89.9813 38.0126C91.7728 36.9644 93.2371 37.4963 93.2371 39.1703C93.1161 40.1904 92.7604 41.1683 92.198 42.0263C91.6356 42.8844 90.882 43.5991 89.9968 44.1141L89.2023 44.5522L87.9404 45.3031L87.5821 45.4752C86.5072 45.9445 85.666 45.6786 85.666 44.7712C85.7737 43.9073 86.182 43.1092 86.8188 42.5183C87.0047 41.5876 87.382 40.7062 87.9265 39.9304C88.4711 39.1546 89.171 38.5013 89.9813 38.0126Z" fill="#F4F4F4"/>
<path d="M68.9346 29.1265L70.0406 28.485C70.0694 28.5001 70.1016 28.5079 70.1341 28.5079C70.1667 28.5079 70.1986 28.5001 70.2275 28.485L69.1215 29.1265C69.0926 29.1416 69.0605 29.1494 69.0279 29.1494C68.9954 29.1494 68.9634 29.1416 68.9346 29.1265Z" fill="white"/>
<path d="M68.7163 22.4932L69.8223 21.8517C69.4951 22.0395 69.2615 23.2128 69.2615 24.7459C69.1585 25.9893 69.373 27.2386 69.8847 28.3756L68.7787 29.0169C68.2827 27.8751 68.0689 26.63 68.1555 25.3874C68.1555 23.823 68.3891 22.6809 68.7163 22.4932Z" fill="#FCFCFC"/>
<path d="M68.8252 29.0169L69.9314 28.3756L70.0403 28.485L68.9343 29.1265L68.8252 29.0169Z" fill="white"/>
<path d="M68.7158 22.4932L69.8218 21.8517C69.8507 21.8366 69.8828 21.8288 69.9154 21.8288C69.9479 21.8288 69.9799 21.8366 70.0088 21.8517L68.9183 22.4932C68.8868 22.4779 68.852 22.4699 68.817 22.4699C68.7819 22.4699 68.7474 22.4779 68.7158 22.4932Z" fill="#F0F0F0"/>
<path d="M68.9658 22.4932L70.0562 21.8517L70.1654 21.9611L69.0592 22.6026L68.9658 22.4932Z" fill="#F0F0F0"/>
<path d="M69.0586 22.6026L70.1648 21.9611C70.6681 23.1062 70.882 24.3584 70.7878 25.6065C70.9119 26.6015 70.7153 27.6103 70.227 28.485L69.121 29.1265C69.4481 28.9388 69.6974 27.7809 69.6974 26.2478C69.7779 24.9989 69.5588 23.7489 69.0586 22.6026Z" fill="#F1F1F1"/>
<path d="M68.9655 22.4933C69.5805 23.6423 69.8357 24.9508 69.6977 26.2479C69.6977 28.0783 69.3394 29.3769 68.9343 29.1266C68.3159 27.9845 68.0605 26.6797 68.2022 25.3875C68.2022 23.604 68.5449 22.2586 68.9655 22.4933Z" fill="#F2F2F2"/>
<path d="M68.7158 19.7241L69.8218 19.0826C69.8568 19.0603 69.8974 19.0486 69.9388 19.0486C69.9802 19.0486 70.0206 19.0603 70.0555 19.0826L68.9651 19.7241C68.9286 19.6985 68.8849 19.6847 68.8404 19.6847C68.7958 19.6847 68.7524 19.6985 68.7158 19.7241Z" fill="white"/>
<path d="M68.9658 19.7397L70.0562 19.0982C70.1137 19.126 70.1622 19.1693 70.1964 19.2233L69.106 19.8491C69.0672 19.8034 69.0195 19.7662 68.9658 19.7397Z" fill="white"/>
<path d="M69.1055 19.8492L70.1959 19.2233C70.8979 20.9087 71.1968 22.7359 71.0683 24.5582C71.0683 26.858 70.7256 28.5945 70.2738 28.8448L69.1834 29.4863C69.6196 29.236 69.9623 27.4838 69.9623 25.1997C70.0912 23.3737 69.7979 21.5425 69.1055 19.8492Z" fill="#FCFCFC"/>
<path d="M68.9657 19.7396C69.5265 20.0525 69.9783 22.5087 69.9627 25.1996C69.9471 27.8905 69.4953 29.893 68.9345 29.4862C68.3737 29.0795 67.9219 26.7015 67.9219 24.0106C67.9219 21.3197 68.4049 19.4111 68.9657 19.7396ZM68.9657 29.1264C69.3707 29.3611 69.7134 28.0781 69.729 26.2477C69.867 24.9506 69.6119 23.6421 68.9969 22.4931C68.5763 22.2584 68.2334 23.5569 68.2334 25.3873C68.0916 26.6795 68.3473 27.9844 68.9657 29.1264Z" fill="#FAFAFA"/>
<path d="M72.0967 31.0665L73.2027 30.425C73.2316 30.4401 73.2635 30.448 73.2961 30.448C73.3286 30.448 73.3608 30.4401 73.3896 30.425L72.2836 31.0665C72.2547 31.0816 72.2226 31.0895 72.1901 31.0895C72.1575 31.0895 72.1255 31.0816 72.0967 31.0665Z" fill="white"/>
<path d="M71.9243 24.4489L73.0303 23.8074C72.7032 23.9951 72.4695 25.1528 72.454 26.686C72.3704 27.9299 72.5897 29.1758 73.0927 30.3156L71.9865 30.9569C71.4827 29.8176 71.2685 28.5705 71.3634 27.3274C71.2393 26.3324 71.436 25.3236 71.9243 24.4489Z" fill="#FCFCFC"/>
<path d="M71.9863 30.9569L73.0925 30.3156C73.1205 30.3596 73.1576 30.3969 73.2015 30.4251L72.0955 31.0665L71.9863 30.9569Z" fill="white"/>
<path d="M71.9248 24.4489L73.0308 23.8074C73.0597 23.7923 73.0916 23.7845 73.1242 23.7845C73.1567 23.7845 73.1889 23.7923 73.2177 23.8074L72.1117 24.4489C72.0829 24.4338 72.0507 24.4258 72.0182 24.4258C71.9856 24.4258 71.9537 24.4338 71.9248 24.4489Z" fill="#F0F0F0"/>
<path d="M72.1113 24.4489L73.2173 23.8074L73.3263 23.9012L72.2203 24.5426C72.2203 24.5426 72.2204 24.5427 72.1113 24.4489Z" fill="#F0F0F0"/>
<path d="M72.2207 24.5427L73.3267 23.9012C73.8216 25.0487 74.0353 26.2989 73.9499 27.5465C73.9499 29.111 73.7162 30.2373 73.3891 30.4251L72.2831 31.0665C72.6102 30.8788 72.8439 29.7212 72.8595 28.188C72.9488 26.9386 72.7293 25.6863 72.2207 24.5427Z" fill="#F1F1F1"/>
<path d="M72.1271 21.6797C72.6879 22.0082 73.1397 24.4644 73.1397 27.1396C73.1397 29.8149 72.6569 31.833 72.0961 31.4263C71.5352 31.0195 71.0834 28.6415 71.099 25.9663C71.1146 23.2911 71.5662 21.3668 72.1271 21.6797ZM72.1271 31.0665C72.5477 31.3012 72.875 30.0183 72.8906 28.1879C73.0348 26.8938 72.7732 25.5867 72.1426 24.4488C71.7376 24.2141 71.3949 25.4969 71.3949 27.3274C71.2532 28.6196 71.5086 29.9244 72.1271 31.0665Z" fill="#FAFAFA"/>
<path d="M72.1112 24.4489C72.7418 25.5867 73.0032 26.8938 72.859 28.188C72.859 30.0184 72.5162 31.3169 72.0956 31.0665C71.4772 29.9245 71.2216 28.6196 71.3633 27.3274C71.3633 25.497 71.7062 24.2142 72.1112 24.4489Z" fill="#F2F2F2"/>
<path d="M71.8311 21.6798L72.937 21.0383C72.972 21.016 73.0126 21.0043 73.054 21.0043C73.0954 21.0043 73.1358 21.016 73.1708 21.0383L72.0804 21.6798C72.043 21.6561 71.9997 21.6435 71.9556 21.6435C71.9115 21.6435 71.8684 21.6561 71.8311 21.6798Z" fill="white"/>
<path d="M72.127 21.6798L73.2176 21.0383L73.3577 21.1634L72.2673 21.8048L72.127 21.6798Z" fill="white"/>
<path d="M72.2676 21.8048L73.358 21.1634C74.0645 22.8474 74.3636 24.6757 74.2305 26.4982C74.2305 28.7824 73.8877 30.5189 73.436 30.7849L72.3454 31.4263C72.7971 31.1604 73.1243 29.4238 73.1399 27.1397C73.2648 25.3176 72.9662 23.4912 72.2676 21.8048Z" fill="#FCFCFC"/>
<path d="M67.1586 33.1629C67.2754 33.2797 67.3619 33.4235 67.4108 33.5817C67.4597 33.7398 67.4695 33.9074 67.4391 34.0702C67.4393 34.1307 67.4199 34.1899 67.384 34.2386C67.3481 34.2873 67.2978 34.323 67.24 34.3406C67.1823 34.3582 67.1205 34.3565 67.0638 34.336C67.007 34.3155 66.9583 34.2772 66.9249 34.2268C66.8126 34.1101 66.7288 33.9688 66.6802 33.8141C66.6315 33.6593 66.6194 33.4952 66.6446 33.3349C66.6758 32.9907 66.9094 32.9908 67.1586 33.1629Z" fill="black"/>
<path d="M69.9926 34.696C70.111 34.8121 70.1999 34.9553 70.2514 35.1132C70.3029 35.2712 70.3157 35.4395 70.2887 35.6035C70.2887 35.8851 69.9927 35.9633 69.7591 35.7599C69.6468 35.6432 69.563 35.5019 69.5143 35.3472C69.4657 35.1924 69.4534 35.0283 69.4786 34.868C69.5409 34.5551 69.7745 34.5552 69.9926 34.696Z" fill="black"/>
<path d="M68.3101 36.808C68.1483 36.7915 67.9925 36.7377 67.8547 36.6509C67.7169 36.5641 67.6009 36.4466 67.5156 36.3075C67.3754 36.0415 67.5157 35.8381 67.8117 35.8538C67.9734 35.8637 68.1302 35.913 68.2687 35.9976C68.4071 36.0821 68.523 36.1992 68.6062 36.3388C68.7153 36.6048 68.6217 36.808 68.3101 36.808Z" fill="black"/>
<path d="M29.1614 33.5853V40.3437C29.1532 40.5154 29.1071 40.6831 29.0262 40.8347C28.9454 40.9862 28.832 41.1179 28.6942 41.2199C28.1492 41.5901 27.5227 41.822 26.8688 41.8955C26.2149 41.9691 25.5529 41.8823 24.9398 41.6423L24.5347 41.4546C24.3112 41.3532 24.1183 41.194 23.976 40.9934C23.8337 40.7927 23.747 40.5579 23.7246 40.3126V33.5696C23.7466 33.811 23.8316 34.0423 23.9711 34.2401C24.1106 34.4379 24.2997 34.5951 24.5191 34.696C24.6496 34.7679 24.785 34.8306 24.9242 34.8837C25.5392 35.1277 26.2042 35.2169 26.8614 35.1432C27.5185 35.0696 28.1479 34.8354 28.6942 34.4613C28.8282 34.3557 28.9389 34.2234 29.0194 34.0726C29.0998 33.9218 29.1482 33.7558 29.1614 33.5853Z" fill="white"/>
<path d="M28.3517 32.4589C29.2553 32.9908 29.4268 33.8198 28.6946 34.4613C28.1483 34.8353 27.5189 35.0696 26.8618 35.1432C26.2046 35.2169 25.5396 35.1277 24.9246 34.8837C24.7854 34.8306 24.65 34.7679 24.5195 34.696C23.616 34.164 23.4447 33.3194 24.1768 32.6936C24.7215 32.3157 25.3508 32.0792 26.0087 32.0055C26.6666 31.9318 27.3325 32.0231 27.9467 32.2712C28.0871 32.3212 28.2227 32.384 28.3517 32.4589Z" fill="#DEDEDE"/>
<path d="M23.305 36.0257V42.7843C23.2986 42.9547 23.2549 43.1215 23.1768 43.273C23.0987 43.4244 22.9883 43.5567 22.8533 43.6603C22.307 44.0344 21.6777 44.2686 21.0205 44.3423C20.3634 44.4159 19.6983 44.3267 19.0833 44.0827C18.9379 44.0326 18.7972 43.9698 18.6627 43.895C18.4451 43.7915 18.2578 43.6336 18.1186 43.4363C17.9795 43.239 17.8932 43.0091 17.8682 42.7686V36.0102C17.8917 36.2511 17.9774 36.4817 18.1167 36.6792C18.256 36.8767 18.4442 37.0344 18.6627 37.1366C18.7966 37.2168 18.9374 37.2848 19.0833 37.34C19.7003 37.5777 20.3654 37.662 21.0219 37.5858C21.6783 37.5095 22.3067 37.2748 22.8533 36.9019C22.9883 36.7983 23.0987 36.666 23.1768 36.5146C23.2549 36.3631 23.2986 36.1961 23.305 36.0257Z" fill="white"/>
<path d="M22.5102 34.8993C23.4137 35.4312 23.5852 36.2605 22.853 36.9019C22.3064 37.2748 21.678 37.5095 21.0215 37.5858C20.3651 37.662 19.7 37.5777 19.083 37.34C18.9371 37.2848 18.7963 37.2168 18.6623 37.1366C17.7744 36.6047 17.6031 35.7755 18.3353 35.134C18.8832 34.7637 19.5122 34.5319 20.1686 34.4584C20.8251 34.3848 21.4893 34.4716 22.1051 34.7116L22.5102 34.8993Z" fill="#DEDEDE"/>
<path d="M24.567 31.3637C30.2111 31.3637 34.7864 26.7688 34.7864 21.1008C34.7864 15.4327 30.2111 10.8379 24.567 10.8379C18.923 10.8379 14.3477 15.4327 14.3477 21.1008C14.3477 26.7688 18.923 31.3637 24.567 31.3637Z" fill="white"/>
<path d="M15.8743 40.2968C24.6415 40.2968 31.7487 34.8264 31.7487 28.0784C31.7487 21.3303 24.6415 15.8599 15.8743 15.8599C7.10718 15.8599 0 21.3303 0 28.0784C0 34.8264 7.10718 40.2968 15.8743 40.2968Z" fill="white"/>
<path d="M23.8186 43.7229C23.6255 44.3666 23.2311 44.9309 22.6938 45.3319C22.1565 45.7329 21.5047 45.9493 20.8353 45.9493C20.1658 45.9493 19.5141 45.7329 18.9768 45.3319C18.4395 44.9309 18.0451 44.3666 17.852 43.7229C17.8358 43.6088 17.8358 43.4929 17.852 43.3788C18.1009 43.9553 18.5123 44.4462 19.0354 44.791C19.5585 45.1359 20.1706 45.3195 20.7963 45.3195C21.4221 45.3195 22.0341 45.1359 22.5572 44.791C23.0804 44.4462 23.4917 43.9553 23.7406 43.3788C23.7831 43.4891 23.8094 43.605 23.8186 43.7229Z" fill="#FAFAFA"/>
<path d="M23.7882 43.3788C24.0559 44.0132 24.113 44.7174 23.9512 45.3869C23.7893 46.0565 23.4172 46.6558 22.8897 47.0964C22.3621 47.5369 21.7073 47.7951 21.0222 47.8328C20.3372 47.8704 19.6584 47.6856 19.0862 47.3055C18.5139 46.9254 18.0788 46.3703 17.8452 45.7225C17.6115 45.0747 17.5919 44.3684 17.7891 43.7085C17.9863 43.0485 18.3897 42.47 18.9399 42.0584C19.4901 41.6468 20.1578 41.4241 20.8439 41.4233C21.482 41.3698 22.1195 41.5335 22.6537 41.8883C23.1878 42.243 23.5875 42.7682 23.7882 43.3788Z" fill="white"/>
<path d="M23.819 43.0191C23.8343 43.1385 23.8343 43.2594 23.819 43.3788C23.5701 43.9554 23.1587 44.4463 22.6356 44.7911C22.1125 45.1359 21.5004 45.3195 20.8746 45.3195C20.2489 45.3195 19.6368 45.1359 19.1137 44.7911C18.5906 44.4463 18.1792 43.9554 17.9303 43.3788C17.9152 43.2594 17.9152 43.1385 17.9303 43.0191C18.1234 42.3753 18.5178 41.8111 19.0551 41.4101C19.5925 41.0091 20.244 40.7925 20.9134 40.7925C21.5829 40.7925 22.2346 41.0091 22.7719 41.4101C23.3092 41.8111 23.7037 42.3753 23.8968 43.0191H23.819Z" fill="white"/>
<path d="M29.7696 41.0791C29.5765 41.7228 29.1821 42.2868 28.6448 42.6879C28.1074 43.0889 27.4557 43.3055 26.7863 43.3055C26.1168 43.3055 25.4653 43.0889 24.928 42.6879C24.3907 42.2868 23.9963 41.7228 23.8032 41.0791C23.787 40.9649 23.787 40.8489 23.8032 40.7347C24.0551 41.3103 24.4682 41.7997 24.9925 42.1434C25.5167 42.487 26.1291 42.6701 26.7551 42.6701C27.3811 42.6701 27.9937 42.487 28.5179 42.1434C29.0421 41.7997 29.4553 41.3103 29.7072 40.7347C29.7365 40.8478 29.7574 40.9629 29.7696 41.0791Z" fill="#FAFAFA"/>
<path d="M29.7702 40.3749C29.7779 40.4948 29.7779 40.6149 29.7702 40.7347C29.5183 41.3103 29.105 41.7997 28.5808 42.1434C28.0565 42.487 27.4441 42.6701 26.8181 42.6701C26.1921 42.6701 25.5797 42.487 25.0555 42.1434C24.5313 41.7997 24.1179 41.3103 23.866 40.7347C23.8507 40.6153 23.8507 40.4944 23.866 40.3749C24.0591 39.7312 24.4535 39.1672 24.9908 38.7662C25.5281 38.3652 26.1799 38.1486 26.8493 38.1486C27.5188 38.1486 28.1705 38.3652 28.7078 38.7662C29.2451 39.1672 29.6395 39.7312 29.8326 40.3749H29.7702Z" fill="white"/>
<path d="M5.90378 30.8005L4.81318 31.4733C4.28954 31.0886 3.67517 30.8473 3.03057 30.7732C2.38597 30.6992 1.73335 30.7949 1.13672 31.0509L2.22713 30.3938C2.82309 30.1386 3.47454 30.042 4.11851 30.1132C4.76248 30.1845 5.37742 30.4212 5.90378 30.8005Z" fill="white"/>
<path d="M11.8389 41.7204L10.7485 42.3776C10.9388 42.255 11.0919 42.082 11.1908 41.8778C11.2897 41.6736 11.3307 41.446 11.3093 41.2199C11.1356 39.968 10.5223 38.8194 9.58008 37.9813L10.6705 37.3244C11.6128 38.1624 12.226 39.3108 12.3997 40.5627C12.4177 40.7884 12.3753 41.0149 12.2766 41.2185C12.178 41.4221 12.0268 41.5954 11.8389 41.7204Z" fill="white"/>
<path d="M10.671 37.3244L9.5806 37.9813C9.29951 36.6138 8.73185 35.3222 7.91532 34.192C7.09879 33.0618 6.05203 32.119 4.84473 31.4263L5.93513 30.7535C7.14228 31.4426 8.19091 32.3801 9.01239 33.5043C9.83386 34.6285 10.4098 35.9142 10.7022 37.2774" fill="white"/>
<path d="M4.84432 31.4264C6.05225 32.1106 7.10171 33.0446 7.92347 34.1665C8.74523 35.2884 9.32066 36.5728 9.61138 37.9346C10.5536 38.7727 11.1669 39.921 11.3406 41.173C11.3406 42.4871 10.1566 42.894 8.58316 42.2369H8.50519L8.05355 42.0335L6.18403 41.0009L5.03125 40.3594C3.73335 39.6418 2.62146 38.6282 1.78532 37.3999C0.949178 36.1716 0.41224 34.763 0.217596 33.288C0.170861 30.8161 2.18042 30.0027 4.84432 31.4264Z" fill="#F6F6F6"/>
<path d="M22.075 16.5012L20.9844 15.8599C21.0249 15.8731 21.0684 15.8731 21.1089 15.8599L22.1995 16.5012H22.075Z" fill="#FCFCFC"/>
<path d="M22.2 16.5482L21.1094 15.9067H21.2653L22.3557 16.5482C22.3047 16.5622 22.251 16.5622 22.2 16.5482Z" fill="white"/>
<path d="M22.3551 16.5012L21.2646 15.8599L22.3706 16.5012" fill="white"/>
<path d="M22.3863 16.4856L21.2803 15.8443C21.3767 15.7739 21.4563 15.6831 21.5138 15.5782L22.6044 16.2197C22.5518 16.3233 22.4774 16.4139 22.3863 16.4856Z" fill="white"/>
<path d="M22.6043 16.2197L21.5137 15.5782C21.5798 15.4629 21.6373 15.3426 21.6852 15.2184L22.7756 15.8599C22.734 15.9867 22.6765 16.1076 22.6043 16.2197Z" fill="white"/>
<path d="M22.7756 15.8599L21.6852 15.2185C22.1689 13.6657 22.3848 12.0413 22.3238 10.4154C22.3238 8.19389 21.9654 6.52005 21.5137 6.25409L22.6043 6.89538C23.0716 7.16134 23.4144 8.83538 23.43 11.0569C23.4797 12.6833 23.2585 14.3067 22.7756 15.8599Z" fill="#FCFCFC"/>
<path d="M22.0743 16.5012L20.9837 15.8599C20.5164 15.594 20.1736 13.9043 20.158 11.6827C20.1137 10.0629 20.3294 8.44637 20.7968 6.89539L21.9028 7.53687C21.4199 9.08444 21.204 10.7036 21.2642 12.3242C21.2642 14.5458 21.6225 16.2353 22.0743 16.5012Z" fill="#F1F1F1"/>
<path d="M21.981 7.53687L20.875 6.89538C20.9276 6.77058 20.9901 6.65028 21.0619 6.53558L22.1523 7.17707C22.0802 7.28918 22.0226 7.41007 21.981 7.53687Z" fill="#F0F0F0"/>
<path d="M22.074 7.17707L20.9834 6.53558C21.0306 6.42861 21.106 6.33676 21.2015 6.26974L22.3075 6.91104C22.2111 6.98136 22.1315 7.07224 22.074 7.17707Z" fill="#F6F6F6"/>
<path d="M22.3082 6.91104L21.2021 6.26974L22.2926 6.91104" fill="#F0F0F0"/>
<path d="M21.981 17.0176L20.875 16.3761C20.2207 16.0007 19.7378 13.4975 19.7222 10.1183C19.646 7.72163 19.9563 5.32832 20.6413 3.03122L21.7317 3.65704C21.0471 5.95932 20.7419 8.35859 20.8282 10.7598C20.8282 14.0764 21.3267 16.5952 21.981 17.0176Z" fill="#FCFCFC"/>
<path d="M21.981 17.0176L20.875 16.3761C20.2207 16.0007 19.7378 13.4975 19.7222 10.1183C19.646 7.72163 19.9563 5.32832 20.6413 3.03122L21.7317 3.65704C21.0471 5.95932 20.7419 8.35859 20.8282 10.7598C20.8282 14.0764 21.3267 16.5952 21.981 17.0176Z" fill="#FCFCFC"/>
<path d="M22.3238 6.89537L21.2334 6.25407C21.2844 6.2401 21.3381 6.2401 21.3891 6.25407L22.4796 6.89537H22.3238Z" fill="#F0F0F0"/>
<path d="M22.4791 6.8486L21.3887 6.20712H21.5132L22.6038 6.8486C22.5638 6.83289 22.5192 6.83289 22.4791 6.8486Z" fill="#F1F1F1"/>
<path d="M21.981 17.0176L20.875 16.3761C20.2207 16.0007 19.7378 13.4975 19.7222 10.1183C19.646 7.72163 19.9563 5.32832 20.6413 3.03122L21.7317 3.65704C21.0471 5.95932 20.7419 8.35859 20.8282 10.7598C20.8282 14.0764 21.3267 16.5952 21.981 17.0176Z" fill="#FCFCFC"/>
<path d="M21.981 17.0176L20.875 16.3761C20.2207 16.0007 19.7378 13.4975 19.7222 10.1183C19.646 7.72161 19.9563 5.32831 20.6413 3.0312L21.7317 3.65703C21.0471 5.95931 20.7419 8.35857 20.8282 10.7598C20.8282 14.0764 21.3267 16.5952 21.981 17.0176Z" fill="#FCFCFC"/>
<path d="M21.7633 3.704L20.6729 3.07818C20.7271 2.90879 20.8003 2.746 20.891 2.59311L21.997 3.23459C21.9098 3.38619 21.8317 3.54299 21.7633 3.704Z" fill="white"/>
<path d="M21.981 3.26589L20.875 2.62441C20.9535 2.49365 21.0535 2.3773 21.1709 2.28027L22.2769 2.92176C22.1553 3.01442 22.0546 3.13163 21.981 3.26589Z" fill="white"/>
<path d="M22.2925 2.89044L21.1865 2.24896L22.2925 2.89044Z" fill="white"/>
<path d="M22.3237 2.87483C23.1338 2.40549 23.8815 5.19024 23.8815 9.13269C23.8815 13.0751 23.2585 16.5796 22.4328 17.049C21.6072 17.5183 20.875 14.7336 20.875 10.7911C20.875 6.84866 21.498 3.34417 22.3237 2.87483ZM22.3237 16.5013C22.9157 16.1571 23.3987 13.7165 23.3987 11.057C23.3987 8.39736 22.9 6.55124 22.2925 6.89542C21.6849 7.2396 21.2177 9.66467 21.2333 12.3243C21.2489 14.9839 21.7317 16.8454 22.3237 16.5013Z" fill="#FAFAFA"/>
<path d="M22.3239 6.89545C22.9314 6.55127 23.4145 8.45997 23.4301 11.057C23.4456 13.654 22.947 16.1571 22.3551 16.5013C21.7631 16.8455 21.2646 14.937 21.2646 12.3243C21.2646 9.71163 21.7319 7.23963 22.3239 6.89545Z" fill="#F2F2F2"/>
<path d="M22.3238 2.87489L21.2178 2.23341C21.2845 2.21903 21.3536 2.21903 21.4203 2.23341L22.5107 2.87489H22.3238Z" fill="white"/>
<path d="M22.5103 2.82781L21.4199 2.18652H21.5757L22.6661 2.82781C22.6153 2.81213 22.5611 2.81213 22.5103 2.82781Z" fill="#FCFCFC"/>
<path d="M27.6667 14.3265L26.5605 13.6853H26.6853L27.7913 14.3111C27.7512 14.3268 27.7068 14.3268 27.6667 14.3111" fill="#FCFCFC"/>
<path d="M27.7915 14.3579L26.6855 13.7321C26.7365 13.746 26.7903 13.746 26.8413 13.7321L27.9473 14.3735C27.9226 14.3839 27.8962 14.3892 27.8695 14.3892C27.8428 14.3892 27.8162 14.3839 27.7915 14.3735" fill="white"/>
<path d="M27.9478 14.3265L26.8418 13.6853L27.9478 14.3265Z" fill="white"/>
<path d="M27.9634 14.3111L26.8574 13.6696C26.9576 13.6035 27.0383 13.5116 27.0911 13.4036L28.1971 14.0451C28.1397 14.1499 28.0598 14.2408 27.9634 14.3111Z" fill="white"/>
<path d="M28.2124 14.045L27.1064 13.4036C27.1786 13.2914 27.2362 13.1706 27.2778 13.0438L28.3838 13.6852C28.3359 13.8094 28.2786 13.9297 28.2124 14.045Z" fill="white"/>
<path d="M28.3682 13.6853L27.2622 13.0438C27.745 11.4906 27.9662 9.86734 27.9165 8.24095C27.9165 6.01941 27.5582 4.34538 27.0908 4.07942L28.1968 4.72091C28.6486 4.98687 29.0069 6.66071 29.0069 8.88225C29.0679 10.5081 28.8519 12.1325 28.3682 13.6853Z" fill="#FCFCFC"/>
<path d="M27.6672 14.3265L26.561 13.6853C26.0936 13.4193 25.7511 11.7296 25.7511 9.50806C25.6909 7.88742 25.9068 6.26847 26.3896 4.7209L27.4802 5.36219C27.0115 6.91289 26.7958 8.52964 26.8415 10.1495C26.8415 12.3711 27.1998 14.0606 27.6672 14.3265Z" fill="#F1F1F1"/>
<path d="M27.4802 5.3622L26.3896 4.72089C26.4312 4.5941 26.4888 4.47301 26.561 4.3609L27.6672 5.0024C27.5953 5.11709 27.5328 5.2374 27.4802 5.3622Z" fill="#F0F0F0"/>
<path d="M27.6677 5.0024L26.5615 4.36091C26.619 4.25608 26.6988 4.16539 26.7952 4.09508L27.8858 4.73637C27.7904 4.80339 27.7149 4.89543 27.6677 5.0024Z" fill="#F6F6F6"/>
<path d="M27.8855 4.73637L26.7949 4.09508L27.9011 4.73637" fill="#F0F0F0"/>
<path d="M27.5893 14.843L26.4989 14.2015C25.8446 13.826 25.3617 11.3072 25.3461 7.94361C25.2747 5.54312 25.5795 3.14621 26.2496 0.840866L27.3556 1.48235C26.6685 3.7841 26.3633 6.18378 26.4521 8.58509C26.4521 11.9018 26.9506 14.4206 27.5893 14.843Z" fill="#FCFCFC"/>
<path d="M27.5893 14.843L26.4989 14.2015C25.8446 13.826 25.3617 11.3072 25.3461 7.94361C25.2747 5.54312 25.5795 3.14621 26.2496 0.840866L27.3556 1.48235C26.6685 3.7841 26.3633 6.18378 26.4521 8.58509C26.4521 11.9018 26.9506 14.4206 27.5893 14.843Z" fill="#FCFCFC"/>
<path d="M27.9167 4.7209L26.8105 4.07942H26.9663L28.0725 4.7209C28.0217 4.70522 27.9675 4.70522 27.9167 4.7209Z" fill="#F0F0F0"/>
<path d="M28.072 4.67387L26.9658 4.03237C27.0063 4.01922 27.0501 4.01922 27.0906 4.03237L28.1966 4.67387H28.072Z" fill="#F1F1F1"/>
<path d="M27.5893 14.843L26.4989 14.2015C25.8446 13.826 25.3617 11.3072 25.3461 7.94361C25.2747 5.54312 25.5795 3.14621 26.2496 0.840866L27.3556 1.48235C26.6685 3.7841 26.3633 6.18378 26.4521 8.58509C26.4521 11.9018 26.9506 14.4206 27.5893 14.843Z" fill="#FCFCFC"/>
<path d="M27.5893 14.8429L26.4989 14.2014C25.8446 13.826 25.3617 11.3072 25.3461 7.94359C25.2747 5.5431 25.5795 3.1462 26.2496 0.840851L27.3556 1.48234C26.6685 3.78409 26.3633 6.18377 26.4521 8.58507C26.4521 11.9017 26.9506 14.4205 27.5893 14.8429Z" fill="#FCFCFC"/>
<path d="M27.356 1.52931L26.25 0.887832C26.3152 0.725352 26.3934 0.568516 26.4837 0.41861L27.5741 1.0599C27.4895 1.21048 27.4166 1.36747 27.356 1.52931Z" fill="white"/>
<path d="M27.5738 1.05991L26.4834 0.418612C26.557 0.284347 26.6577 0.166945 26.7793 0.0742798L27.8699 0.715773C27.749 0.809098 27.6481 0.926168 27.5738 1.05991Z" fill="white"/>
<path d="M27.8699 0.715782L26.7793 0.0742798L27.8699 0.715782Z" fill="white"/>
<path d="M27.901 0.700144C28.711 0.230805 29.4588 3.01555 29.4588 6.95801C29.4588 10.9005 28.82 14.4206 28.0099 14.89C27.1999 15.3593 26.53 12.5745 26.4521 8.63209C26.3742 4.68964 27.0909 1.16948 27.901 0.700144ZM27.901 14.3266C28.493 13.9824 28.9758 11.5419 28.9602 8.88227C28.9446 6.22268 28.4618 4.37674 27.8698 4.72093C27.2778 5.06511 26.7948 7.48998 26.7948 10.1496C26.7948 12.8092 27.2934 14.6708 27.901 14.3266Z" fill="#FAFAFA"/>
<path d="M27.9162 4.72097C28.5082 4.37679 29.0066 6.28529 29.0066 8.8823C29.0066 11.4793 28.5392 13.9824 27.9472 14.3266C27.3552 14.6708 26.8568 12.7623 26.8412 10.1496C26.8256 7.53696 27.3242 5.06515 27.9162 4.72097Z" fill="#F2F2F2"/>
<path d="M27.9012 0.700111L26.8105 0.0586395H26.9975L28.1037 0.700111C28.0379 0.6786 27.967 0.6786 27.9012 0.700111Z" fill="white"/>
<path d="M28.1033 0.653061L26.9971 0.0117636C27.0478 -0.00392122 27.1021 -0.00392122 27.1528 0.0117636L28.259 0.653061H28.1033Z" fill="#FCFCFC"/>
<path d="M26.312 19.99C26.6236 19.7396 26.9039 19.8649 26.9662 20.2403C26.9879 20.4555 26.9583 20.6727 26.8797 20.874C26.8011 21.0753 26.676 21.255 26.5146 21.398C26.2186 21.6327 25.9225 21.5077 25.8602 21.1322C25.8371 20.9193 25.8663 20.7039 25.945 20.5048C26.0238 20.3058 26.1498 20.1289 26.312 19.99Z" fill="black"/>
<path d="M31.0626 18.3317C31.3742 18.0814 31.6703 18.191 31.717 18.5821C31.7381 18.7958 31.7097 19.0115 31.6341 19.2123C31.5584 19.4131 31.4374 19.5936 31.2808 19.7398C31.2272 19.7956 31.1584 19.8341 31.083 19.8505C31.0076 19.867 30.929 19.8605 30.8573 19.832C30.7855 19.8035 30.7237 19.7543 30.6798 19.6905C30.636 19.6267 30.6121 19.5512 30.611 19.4737C30.5918 19.2611 30.6227 19.0471 30.7011 18.8487C30.7796 18.6503 30.9034 18.4732 31.0626 18.3317Z" fill="black"/>
<path d="M30.4712 20.8662C30.8607 20.8662 31.0476 21.0539 30.9074 21.4137C30.8192 21.6098 30.6855 21.7817 30.5174 21.915C30.3494 22.0484 30.1519 22.1394 29.9416 22.1803C29.5521 22.1803 29.3651 21.977 29.5054 21.6171C29.5945 21.4233 29.7288 21.2538 29.8969 21.1231C30.065 20.9924 30.262 20.9043 30.4712 20.8662Z" fill="#3A200D"/>
<path d="M76.5049 64.28L77.5953 63.6385C77.9636 63.4448 78.3837 63.3736 78.7949 63.4351L77.7045 64.0766C77.2932 64.014 76.8728 64.0853 76.5049 64.28Z" fill="white"/>
<path d="M78.8574 62.3088L79.9478 61.6673C80.607 61.4028 81.3229 61.3129 82.0267 61.406C82.7305 61.4992 83.3987 61.7724 83.9672 62.1993L82.8766 62.8406C82.3081 62.4137 81.6399 62.1407 80.9361 62.0475C80.2323 61.9544 79.5166 62.0443 78.8574 62.3088Z" fill="white"/>
<path d="M82.877 62.8407L83.9676 62.1994C85.3736 63.0074 86.5703 64.1366 87.4607 65.4956C88.3511 66.8546 88.9102 68.4052 89.0927 70.0217C89.1336 70.4841 89.0496 70.949 88.8495 71.3675C88.6493 71.786 88.3405 72.1425 87.9555 72.3995L86.8495 73.041C87.2374 72.7859 87.5493 72.4303 87.7522 72.0116C87.9552 71.593 88.0416 71.1269 88.0023 70.663C87.8126 69.0487 87.2505 67.5011 86.3608 66.1432C85.4711 64.7853 84.2782 63.6544 82.877 62.8407Z" fill="white"/>
<path d="M82.8767 62.8407C84.2779 63.6545 85.4708 64.7853 86.3605 66.1432C87.2503 67.5012 87.8124 69.0487 88.002 70.6631C88.002 73.3383 85.6963 74.1675 82.8455 72.5092L81.5838 71.774L79.5741 70.6163L79.0757 70.2876H78.9821C78.1798 69.7624 77.4973 69.0727 76.9791 68.2638C76.4609 67.455 76.1189 66.5452 75.9756 65.5942C75.9756 64.5147 76.7232 64.0298 77.8137 64.1394C78.063 61.9022 80.2284 61.3075 82.8767 62.8407Z" fill="#F6F6F6"/>
<path d="M80.3213 74.7619C86.0542 78.0943 86.0853 83.4918 80.3213 86.8241C77.1103 88.467 73.5579 89.3234 69.9541 89.3234C66.3503 89.3234 62.7977 88.467 59.5867 86.8241C53.8383 83.4918 53.8071 78.0943 59.5867 74.7619C62.7984 73.1215 66.3508 72.2665 69.9541 72.2665C73.5574 72.2665 77.1096 73.1215 80.3213 74.7619Z" fill="#7EB66F"/>
<path d="M62.2663 71.0541V78.4385C62.2563 78.6259 62.205 78.8086 62.1161 78.9736C62.0271 79.1387 61.903 79.2819 61.7523 79.3928C61.1585 79.8057 60.4722 80.0645 59.7546 80.1464C59.037 80.2283 58.3104 80.1306 57.6396 79.862L57.1877 79.6587C56.95 79.5437 56.7453 79.3701 56.5927 79.1539C56.4401 78.9377 56.3447 78.6862 56.3154 78.4229V71.023C56.3447 71.2863 56.4401 71.5378 56.5927 71.754C56.7453 71.9702 56.95 72.1438 57.1877 72.2588L57.6396 72.4778C58.3139 72.7423 59.0421 72.8378 59.7614 72.7561C60.4807 72.6743 61.1695 72.4175 61.7679 72.0084C61.9134 71.8937 62.033 71.7495 62.1189 71.585C62.2048 71.4205 62.2551 71.2395 62.2663 71.0541Z" fill="white"/>
<path d="M61.3941 69.8183C62.3911 70.3971 62.5624 71.3826 61.7679 72.0084C61.1695 72.4175 60.4808 72.6743 59.7615 72.7561C59.0422 72.8378 58.3139 72.7423 57.6396 72.4778L57.1878 72.2588C56.2063 71.6799 56.0194 70.7725 56.8139 70.0685C57.4165 69.6618 58.1085 69.408 58.8302 69.329C59.552 69.25 60.2821 69.3482 60.9578 69.6149L61.3941 69.8183Z" fill="#DEDEDE"/>
<path d="M62.2975 79.0331C62.1038 79.7536 61.6791 80.3898 61.0892 80.8436C60.4992 81.2973 59.7769 81.5431 59.0339 81.5431C58.2908 81.5431 57.5683 81.2973 56.9784 80.8436C56.3884 80.3898 55.9637 79.7536 55.77 79.0331C55.755 78.9084 55.755 78.7822 55.77 78.6575C56.0446 79.2868 56.496 79.8221 57.0687 80.1981C57.6414 80.574 58.3107 80.7742 58.9949 80.7742C59.679 80.7742 60.3484 80.574 60.9211 80.1981C61.4937 79.8221 61.9449 79.2868 62.2195 78.6575C62.2607 78.7789 62.2869 78.9052 62.2975 79.0331Z" fill="#FAFAFA"/>
<path d="M62.2668 78.6574C62.5686 79.3557 62.638 80.1333 62.4645 80.8744C62.2911 81.6155 61.8842 82.2806 61.3042 82.7708C60.7241 83.261 60.0022 83.5501 59.2454 83.595C58.4887 83.64 57.7377 83.4384 57.1042 83.0204C56.4706 82.6024 55.9882 81.9903 55.7289 81.2749C55.4696 80.5595 55.4473 79.7793 55.665 79.05C55.8827 78.3208 56.3289 77.6816 56.9374 77.2276C57.5459 76.7735 58.2841 76.5287 59.0421 76.5297C59.7395 76.4691 60.4369 76.646 61.0219 77.032C61.607 77.418 62.0454 77.9905 62.2668 78.6574Z" fill="white"/>
<path d="M62.2972 78.3603C62.3139 78.4849 62.3139 78.6112 62.2972 78.7358C62.0227 79.3651 61.5715 79.9004 60.9988 80.2764C60.4261 80.6523 59.7568 80.8525 59.0726 80.8525C58.3884 80.8525 57.7189 80.6523 57.1462 80.2764C56.5735 79.9004 56.1224 79.3651 55.8478 78.7358C55.8307 78.6112 55.8307 78.4849 55.8478 78.3603C56.0414 77.6399 56.4661 77.0036 57.0561 76.5499C57.646 76.0962 58.3683 75.8503 59.1114 75.8503C59.8545 75.8503 60.577 76.0962 61.1669 76.5499C61.7568 77.0036 62.1815 77.6399 62.3752 78.3603H62.2972Z" fill="white"/>
<path d="M73.4207 86.5737C83.0052 86.5737 90.7749 80.592 90.7749 73.2132C90.7749 65.8344 83.0052 59.8527 73.4207 59.8527C63.8362 59.8527 56.0664 65.8344 56.0664 73.2132C56.0664 80.592 63.8362 86.5737 73.4207 86.5737Z" fill="white"/>
<path d="M60.0859 79.5493L61.1765 78.9235C61.55 78.7286 61.9752 78.6574 62.3915 78.7201L61.2855 79.3616C60.876 79.3015 60.4579 79.3669 60.0859 79.5493Z" fill="white"/>
<path d="M62.3906 77.5625L63.4968 76.921C64.1518 76.6526 64.8648 76.5591 65.5664 76.6496C66.268 76.7401 66.9342 77.0115 67.5004 77.4374L66.3944 78.0787C65.8282 77.6528 65.1618 77.3816 64.4602 77.2911C63.7586 77.2006 63.0456 77.2941 62.3906 77.5625Z" fill="white"/>
<path d="M66.3945 78.0786L67.5005 77.4373C68.9023 78.2521 70.0964 79.3827 70.9886 80.7402C71.8807 82.0977 72.4466 83.6449 72.6415 85.2596C72.6796 85.7212 72.5925 86.1845 72.3895 86.6004C72.1866 87.0164 71.8753 87.3694 71.4887 87.622L70.3981 88.2633C70.783 88.0099 71.0923 87.6565 71.2926 87.2404C71.4929 86.8243 71.5769 86.3612 71.5355 85.9009C71.3477 84.2841 70.7846 82.7341 69.8917 81.3756C68.9988 80.017 67.8011 78.8876 66.3945 78.0786Z" fill="white"/>
<path d="M66.3946 78.0785C67.8012 78.8876 68.9989 80.0169 69.8918 81.3755C70.7846 82.7341 71.3478 84.284 71.5356 85.9008C71.5356 88.5604 69.2143 89.3896 66.379 87.7313L65.1171 86.9961L63.1076 85.854L62.609 85.5254C61.8025 85.0032 61.1159 84.3147 60.5948 83.5054C60.0737 82.6962 59.7302 81.7849 59.5869 80.832C59.5869 79.7525 60.3346 79.2676 61.4251 79.3771C61.5964 77.1556 63.7775 76.561 66.3946 78.0785Z" fill="#F6F6F6"/>
<path d="M58.0915 71.0855C64.269 71.0855 69.2768 66.0563 69.2768 59.8526C69.2768 53.6489 64.269 48.6198 58.0915 48.6198C51.9141 48.6198 46.9062 53.6489 46.9062 59.8526C46.9062 66.0563 51.9141 71.0855 58.0915 71.0855Z" fill="white"/>
<path d="M58.606 35.7441L57.5 35.1026C57.5714 35.0834 57.6465 35.0834 57.7179 35.1026L58.8241 35.7441C58.7529 35.7233 58.6772 35.7233 58.606 35.7441Z" fill="white"/>
<path d="M58.824 35.6816L57.7178 35.0403C57.7739 35.025 57.8332 35.025 57.8893 35.0403L58.9953 35.6816C58.9398 35.6625 58.8795 35.6625 58.824 35.6816Z" fill="#FCFCFC"/>
<path d="M58.2631 51.2011L57.1725 50.5596C56.4714 50.1529 55.9263 47.4308 55.9107 43.7699C55.8208 41.1255 56.1575 38.484 56.9078 35.9476L58.0138 36.5891C57.2545 39.1235 56.9176 41.7666 57.0167 44.4114C57.0167 48.0566 57.562 50.7944 58.2631 51.2011Z" fill="#FCFCFC"/>
<path d="M58.0142 36.6515L56.9082 36.0102C56.9789 35.8324 57.0621 35.6597 57.1573 35.4939L58.2479 36.1353C58.1583 36.3018 58.0802 36.4742 58.0142 36.6515Z" fill="white"/>
<path d="M58.2478 36.1197L57.1572 35.4782C57.242 35.3336 57.3531 35.2063 57.4845 35.1027L58.5749 35.7442C58.4435 35.8478 58.3326 35.9751 58.2478 36.1197Z" fill="white"/>
<path d="M58.5748 35.7599L57.4844 35.1184L58.5904 35.7599" fill="white"/>
<path d="M58.6057 35.7441C59.4937 35.2278 60.1635 38.2629 60.1635 42.5338C60.1635 46.8048 59.4625 50.6848 58.6057 51.201C57.7489 51.7173 57.0479 48.6823 57.0479 44.4113C57.0479 40.1403 57.7177 36.2604 58.6057 35.7441Z" fill="#FAFAFA"/>
<path d="M53.1383 39.7493L52.0479 39.108C52.1189 39.0862 52.1947 39.0862 52.2658 39.108L53.3564 39.7493C53.2852 39.7284 53.2095 39.7284 53.1383 39.7493Z" fill="white"/>
<path d="M53.2779 39.7024L52.1875 39.0609C52.2438 39.0469 52.3026 39.0469 52.3588 39.0609L53.4492 39.7024C53.3933 39.6863 53.3339 39.6863 53.2779 39.7024Z" fill="#FCFCFC"/>
<path d="M52.7332 55.2218L51.6272 54.5805C50.9262 54.1581 50.3964 51.4514 50.3808 47.7749C50.2828 45.1302 50.6197 42.4873 51.3779 39.9526L52.4683 40.5941C51.7181 43.1305 51.3815 45.772 51.4714 48.4164C51.4714 52.0616 52.0322 54.7994 52.7332 55.2218Z" fill="#FCFCFC"/>
<path d="M52.4683 40.6567L51.3779 40.0152C51.4421 39.8346 51.5257 39.6615 51.6272 39.499L52.7176 40.1403C52.6224 40.3062 52.539 40.4789 52.4683 40.6567Z" fill="white"/>
<path d="M52.7174 40.1403L51.627 39.499C51.697 39.3533 51.8045 39.2291 51.9384 39.1392L53.0444 39.7805C52.9058 39.8695 52.793 39.9936 52.7174 40.1403Z" fill="white"/>
<path d="M53.0445 39.7805L51.9385 39.1392L53.0291 39.7805" fill="white"/>
<path d="M53.1381 39.7491C54.0417 39.2328 54.696 42.268 54.7895 46.539C54.883 50.81 54.0885 54.6898 53.2317 55.2217C52.3749 55.7536 51.6738 52.6873 51.6738 48.4163C51.6738 44.1453 52.1878 40.2654 53.1381 39.7491Z" fill="#FAFAFA"/>
</svg>
