<svg width="256" height="161" viewBox="0 0 256 161" fill="none" xmlns="http://www.w3.org/2000/svg">
<path d="M109.105 11.439L106.911 10.1699C112.379 9.95056 114.29 8.91648 114.384 8.86948L116.593 10.1542C116.499 10.1542 114.588 11.2353 109.12 11.4547" fill="#BFBFBF"/>
<path d="M104.781 8.75981L102.572 7.47504C102.82 7.25796 103.088 7.06392 103.371 6.89532C103.745 6.62927 104.182 6.46607 104.638 6.42207C105.095 6.37808 105.555 6.45483 105.972 6.64463L108.181 7.92941C107.764 7.73641 107.304 7.65791 106.847 7.70197C106.39 7.74603 105.953 7.91106 105.58 8.18009C105.297 8.3487 105.03 8.54274 104.781 8.75981Z" fill="#BFBFBF"/>
<path d="M96.7286 3.13499L94.5195 1.85022C95.3423 1.25518 96.3091 0.890629 97.3199 0.794225C98.3307 0.697821 99.3489 0.873062 100.269 1.30184L102.478 2.58661C101.558 2.15783 100.54 1.98259 99.5289 2.079C98.5181 2.1754 97.5514 2.53995 96.7286 3.13499Z" fill="#BFBFBF"/>
<path d="M89.1925 13.5229L86.9834 12.2381C88.1367 7.9685 90.8186 4.2716 94.5193 1.85022L96.7284 3.13499C93.0277 5.55637 90.3458 9.25327 89.1925 13.5229Z" fill="#BFBFBF"/>
<path d="M81.2019 28.5954L78.9928 27.3107C78.3832 26.8748 77.8988 26.2865 77.5881 25.6046C77.2774 24.9226 77.1513 24.171 77.2224 23.425C77.3367 21.3217 77.9452 19.2751 78.9987 17.4511C80.0522 15.6271 81.5209 14.0773 83.2856 12.9275C83.824 12.5701 84.4289 12.3248 85.0642 12.2064C85.6994 12.0879 86.3521 12.0987 86.9831 12.2381L89.1921 13.5229C88.5589 13.3794 87.903 13.3666 87.2646 13.4851C86.6262 13.6037 86.0186 13.8511 85.479 14.2122C83.7181 15.3648 82.2531 16.9156 81.2025 18.7392C80.1519 20.5629 79.5452 22.6082 79.4315 24.7098C79.3604 25.4558 79.4865 26.2074 79.7972 26.8893C80.1079 27.5713 80.5923 28.1596 81.2019 28.5954Z" fill="#BFBFBF"/>
<path d="M96.728 3.13498C101.178 0.565432 104.812 2.6336 104.828 7.75703C104.828 8.08605 104.828 8.43075 104.828 8.75978C105.076 8.54271 105.344 8.34867 105.627 8.18006C107.648 7.02063 109.293 7.96071 109.293 10.2796C109.289 10.6692 109.247 11.0575 109.168 11.439C114.636 11.2196 116.547 10.1856 116.641 10.1386L106.442 16.0297C106.192 16.2405 105.925 16.4292 105.643 16.5938C105.396 16.7382 105.133 16.8539 104.859 16.9385L97.9814 20.9025C97.6111 21.1868 97.224 21.4484 96.822 21.6858C96.4467 21.896 96.0596 22.0843 95.6627 22.2499L86.6071 27.483C86.2812 27.7398 85.9354 27.9703 85.573 28.1724C82.2203 30.1152 79.4942 28.5641 79.4785 24.7098C79.5922 22.6082 80.1989 20.5629 81.2495 18.7392C82.3001 16.9155 83.7651 15.3647 85.526 14.2122C86.0656 13.8511 86.6732 13.6037 87.3116 13.4851C87.95 13.3666 88.6059 13.3794 89.2391 13.5228C90.3806 9.26059 93.045 5.56477 96.728 3.13498Z" fill="#FAFAFA"/>
<path d="M41.3604 40.3464L39.1514 39.0616C40.8813 39.131 42.6062 38.8319 44.2118 38.1842L46.4366 39.469C44.8309 40.1167 43.106 40.4157 41.3761 40.3464" fill="#BFBFBF"/>
<path d="M38.4151 38.5289L36.2061 37.2598C36.3721 37.1142 36.5503 36.9832 36.7387 36.8681C36.9924 36.6857 37.2898 36.5737 37.6007 36.5435C37.9117 36.5132 38.2251 36.5657 38.5091 36.6958L40.7182 37.9805C40.4341 37.8505 40.1207 37.798 39.8098 37.8282C39.4989 37.8585 39.2015 37.9705 38.9478 38.1529C38.763 38.2677 38.5851 38.3932 38.4151 38.5289Z" fill="#BFBFBF"/>
<path d="M32.9473 34.7373L30.7695 33.4525C31.3274 33.0482 31.9832 32.8002 32.669 32.7341C33.3548 32.668 34.0458 32.7862 34.6707 33.0765L36.8797 34.3612C36.2549 34.0709 35.5639 33.9527 34.878 34.0188C34.1922 34.0849 33.5365 34.333 32.9786 34.7373" fill="#BFBFBF"/>
<path d="M27.839 41.7722L25.6299 40.4874C26.4191 37.5901 28.2487 35.0854 30.7687 33.4525L32.9778 34.7373C30.4665 36.3726 28.6476 38.8778 27.8703 41.7722" fill="#BFBFBF"/>
<path d="M22.4342 51.9877L20.2251 50.7029C19.8073 50.4082 19.4754 50.0076 19.2634 49.5423C19.0514 49.077 18.9669 48.5637 19.0187 48.055C19.0977 46.6327 19.5104 45.2491 20.2236 44.016C20.9367 42.7829 21.9302 41.7351 23.1235 40.9574C23.4875 40.7129 23.8975 40.5451 24.3285 40.4643C24.7595 40.3835 25.2024 40.3913 25.6303 40.4874L27.8394 41.7722C27.4115 41.6761 26.9686 41.6682 26.5376 41.7491C26.1066 41.8299 25.6966 41.9977 25.3326 42.2422C24.1392 43.0199 23.1458 44.0677 22.4326 45.3008C21.7195 46.5338 21.3068 47.9175 21.2278 49.3398C21.176 49.8485 21.2604 50.3618 21.4724 50.8271C21.6844 51.2924 22.0164 51.693 22.4342 51.9877Z" fill="#BFBFBF"/>
<path d="M32.9465 34.7373C35.9703 32.9981 38.43 34.3926 38.4457 37.8709C38.4457 38.1059 38.4457 38.3252 38.4457 38.5446C38.6157 38.4089 38.7936 38.2833 38.9784 38.1686C40.3571 37.3852 41.4695 38.0119 41.4695 39.5787C41.4675 39.8417 41.4413 40.1039 41.3911 40.3621C43.117 40.4242 44.8363 40.1198 46.436 39.469L39.5267 43.4643C39.3541 43.6038 39.1707 43.7296 38.9784 43.8404C38.8104 43.9429 38.6318 44.027 38.4457 44.0911L33.7456 46.7703C33.4929 46.9675 33.2258 47.1456 32.9465 47.303C32.702 47.4503 32.4451 47.5761 32.1788 47.679L26.0687 51.2357C25.8336 51.408 25.6143 51.5647 25.3793 51.7057C23.0919 53.0218 21.2588 51.972 21.2432 49.3398C21.3221 47.9176 21.7349 46.5339 22.448 45.3008C23.1611 44.0677 24.1546 43.0199 25.348 42.2422C25.712 41.9977 26.122 41.8299 26.5529 41.7491C26.9839 41.6683 27.4269 41.6761 27.8547 41.7722C28.6281 38.8803 30.4411 36.3754 32.9465 34.7373Z" fill="#FAFAFA"/>
<path d="M107.774 50.7656L105.564 49.4808C107.298 49.5302 109.024 49.2319 110.641 48.6034L112.85 49.8882C111.232 50.5138 109.507 50.812 107.774 50.7656Z" fill="#BFBFBF"/>
<path d="M104.844 48.9481L102.635 47.6634C102.801 47.5178 102.979 47.3867 103.167 47.2717C103.422 47.0922 103.72 46.982 104.03 46.9518C104.34 46.9216 104.653 46.9724 104.938 47.0993L107.147 48.3841C106.862 48.2572 106.549 48.2063 106.239 48.2365C105.929 48.2667 105.631 48.377 105.377 48.5564C105.188 48.6715 105.01 48.8025 104.844 48.9481Z" fill="#BFBFBF"/>
<path d="M99.3761 45.1408L97.167 43.856C97.7249 43.4517 98.3806 43.2037 99.0664 43.1376C99.7522 43.0715 100.443 43.1897 101.068 43.48L103.277 44.7648C102.652 44.4745 101.961 44.3563 101.276 44.4224C100.59 44.4885 99.934 44.7365 99.3761 45.1408Z" fill="#BFBFBF"/>
<path d="M94.2843 52.1757L92.0752 50.9066C92.8445 48.0128 94.6585 45.5066 97.167 43.8717L99.3761 45.1565C96.8676 46.7914 95.0536 49.2976 94.2843 52.1914" fill="#BFBFBF"/>
<path d="M88.8475 62.3912L86.6385 61.1065C86.2236 60.8135 85.8944 60.4151 85.6851 59.9523C85.4758 59.4895 85.3938 58.9793 85.4478 58.4742C85.5255 57.0496 85.9377 55.6632 86.6508 54.4274C87.3639 53.1916 88.358 52.1411 89.5525 51.361C89.9208 51.1193 90.3335 50.9532 90.7665 50.8725C91.1996 50.7919 91.6443 50.7981 92.0749 50.891L94.284 52.1757C93.8537 52.0784 93.4081 52.0698 92.9744 52.1507C92.5406 52.2315 92.128 52.4 91.7616 52.6458C90.567 53.4259 89.573 54.4764 88.8598 55.7122C88.1467 56.948 87.7346 58.3343 87.6568 59.759C87.6029 60.264 87.6848 60.7743 87.8942 61.2371C88.1035 61.6998 88.4326 62.0983 88.8475 62.3912Z" fill="#BFBFBF"/>
<path d="M99.3753 45.1408C102.399 43.4016 104.859 44.7961 104.874 48.2744C104.874 48.4937 104.874 48.7131 104.874 48.9481C105.04 48.8025 105.219 48.6715 105.407 48.5564C106.786 47.773 107.898 48.3997 107.898 49.9822C107.897 50.246 107.865 50.5089 107.804 50.7656C109.538 50.812 111.263 50.5138 112.88 49.8882L105.971 53.8678C105.799 54.0123 105.615 54.1432 105.423 54.2595C105.251 54.3509 105.073 54.4294 104.89 54.4945L100.19 57.1738C99.9373 57.371 99.6702 57.549 99.391 57.7065C99.1464 57.8538 98.8896 57.9796 98.6233 58.0825L92.4661 61.6391C92.2463 61.81 92.0161 61.967 91.7767 62.1092C89.4893 63.4253 87.6406 62.3755 87.6406 59.759C87.7184 58.3343 88.1305 56.9479 88.8437 55.7122C89.5568 54.4764 90.5508 53.4259 91.7454 52.6457C92.1118 52.3999 92.5244 52.2315 92.9582 52.1506C93.3919 52.0698 93.8375 52.0783 94.2678 52.1757C95.0411 49.2794 96.8609 46.7728 99.3753 45.1408Z" fill="#FAFAFA"/>
<path d="M15.0079 80.096L12.7988 78.8113C13.8686 78.8279 14.9318 78.6418 15.9323 78.2629L18.1413 79.532C17.1465 79.9325 16.08 80.1245 15.0079 80.096Z" fill="#BFBFBF"/>
<path d="M13.1749 78.968L10.9658 77.6832C11.0701 77.5859 11.1858 77.5017 11.3105 77.4325C11.4674 77.319 11.6514 77.2491 11.8441 77.2299C12.0367 77.2106 12.231 77.2427 12.4072 77.3228L14.6163 78.6076C14.44 78.5275 14.2458 78.4954 14.0531 78.5146C13.8605 78.5339 13.6764 78.6038 13.5196 78.7173C13.3949 78.7865 13.2792 78.8707 13.1749 78.968Z" fill="#BFBFBF"/>
<path d="M9.77547 76.5864L7.56641 75.3016C7.91308 75.0486 8.32131 74.8934 8.74848 74.852C9.17564 74.8107 9.60607 74.8848 9.99482 75.0666L12.2039 76.3514C11.8151 76.1696 11.3847 76.0955 10.9575 76.1368C10.5304 76.1781 10.1221 76.3334 9.77547 76.5864Z" fill="#BFBFBF"/>
<path d="M6.59481 80.9734L4.38574 79.6887C4.8603 77.8931 5.97468 76.3329 7.51918 75.3016L9.72825 76.5864C8.18375 77.6177 7.06937 79.1779 6.59481 80.9734Z" fill="#BFBFBF"/>
<path d="M3.22621 87.3346L1.00148 86.0498C0.739817 85.8685 0.531866 85.6201 0.399523 85.3305C0.267179 85.041 0.215339 84.7212 0.249458 84.4047C0.295476 83.5166 0.55081 82.652 0.994625 81.8814C1.43844 81.1108 2.05815 80.4561 2.8032 79.9707C3.03127 79.8192 3.28793 79.716 3.55738 79.6675C3.82682 79.619 4.10335 79.6262 4.36992 79.6886L6.57898 80.9734C6.31242 80.911 6.03589 80.9038 5.76644 80.9523C5.497 81.0008 5.24033 81.104 5.01227 81.2554C4.26722 81.7409 3.64751 82.3956 3.20369 83.1662C2.75988 83.9368 2.50454 84.8014 2.45852 85.6895C2.4386 85.9932 2.49734 86.297 2.62907 86.5715C2.7608 86.8459 2.96107 87.0818 3.21055 87.2562" fill="#BFBFBF"/>
<path d="M9.7755 76.5864C11.6556 75.5053 13.1909 76.3671 13.1909 78.5292C13.1985 78.6754 13.1985 78.8218 13.1909 78.968C13.2952 78.8707 13.411 78.7865 13.5356 78.7173C14.3816 78.2316 15.1023 78.6233 15.1023 79.5947C15.1023 79.767 15.1023 79.9237 15.1023 80.096C16.1744 80.1245 17.2409 79.9325 18.2358 79.532L13.849 82.0232C13.7513 82.1055 13.6464 82.1789 13.5356 82.2426C13.4324 82.3074 13.322 82.36 13.2066 82.3992L10.2925 84.0757C10.1368 84.1943 9.9747 84.3041 9.80683 84.4047L9.32116 84.6397L5.46703 86.9429C5.33245 87.051 5.19117 87.1504 5.04402 87.2406C3.61831 88.0554 2.47461 87.3973 2.47461 85.7678C2.52063 84.8798 2.77596 84.0151 3.21978 83.2446C3.66359 82.474 4.28331 81.8192 5.02835 81.3338C5.25642 81.1823 5.51308 81.0792 5.78253 81.0307C6.05198 80.9822 6.3285 80.9894 6.59507 81.0518C7.06407 79.2201 8.19775 77.6284 9.7755 76.5864Z" fill="#FAFAFA"/>
<path d="M255.782 122.008C255.789 134.88 254.157 147.7 250.925 160.159H58L239.864 54.4789C250.364 75.4391 255.815 98.5648 255.782 122.008V122.008Z" fill="#2C7844"/>
<path d="M95.3497 95.3548L92.0439 93.4277C92.5363 93.1506 93.0631 92.9399 93.6107 92.801L96.8537 94.7751C96.3047 94.9096 95.7773 95.1206 95.287 95.4018" fill="#246138"/>
<path d="M96.8536 94.7769L93.5479 92.8498C93.9568 92.7448 94.3802 92.7077 94.8012 92.7401L98.1383 94.6203C97.7173 94.5885 97.294 94.6255 96.8849 94.7299" fill="#235E36"/>
<path d="M98.1388 94.6203L94.833 92.6931C95.2079 92.7235 95.5716 92.8358 95.8984 93.0221L99.2198 94.9493C98.8883 94.7608 98.5191 94.6484 98.1388 94.6203Z" fill="#215B34"/>
<path d="M99.1886 94.9493L95.8672 93.0222L95.8828 93.0378L99.2043 94.965L99.1886 94.9493Z" fill="#205732"/>
<path d="M68.5275 158.389L65.2061 156.462L87.3594 99.258L90.6808 101.169L68.5275 158.389Z" fill="#25653A"/>
<path d="M90.6808 101.169L87.3594 99.258C87.5798 98.7191 87.8363 98.1956 88.1271 97.6912L91.4328 99.6183C91.1495 100.124 90.8983 100.648 90.6808 101.185" fill="#235E36"/>
<path d="M91.4327 99.5557L88.127 97.6285C88.5626 96.8053 89.088 96.0328 89.6937 95.3253L92.9994 97.2525C92.3988 97.9638 91.8737 98.7357 91.4327 99.5557Z" fill="#246138"/>
<path d="M93.0626 97.2525L89.7568 95.3253C90.2684 94.7435 90.8409 94.2182 91.4646 93.7585L94.786 95.6857C94.1539 96.1408 93.5757 96.6664 93.0626 97.2525Z" fill="#25653A"/>
<path d="M94.7853 95.7327L91.4639 93.8055C91.6498 93.6693 91.8433 93.5437 92.0436 93.4295L95.3493 95.3567C95.1542 95.471 94.9659 95.5966 94.7853 95.7327Z" fill="#246138"/>
<path d="M95.3495 95.3566C97.1826 94.3069 99.0156 94.2912 100.05 95.764L122.454 127.241L68.5273 158.389L90.6807 101.169C91.5597 98.7735 93.1997 96.7317 95.3495 95.3566Z" fill="#3CA25D"/>
<path d="M228.254 45.4678L224.948 43.5406C225.412 43.2623 225.913 43.0513 226.437 42.9139L229.742 44.841C229.19 44.9651 228.661 45.1767 228.176 45.4678" fill="#246138"/>
<path d="M229.742 44.8431L226.421 42.916C226.829 42.8039 227.253 42.7667 227.674 42.8063L230.98 44.7335C230.564 44.6933 230.145 44.7305 229.742 44.8431Z" fill="#235E36"/>
<path d="M230.996 44.7334L227.69 42.8063C228.065 42.8367 228.429 42.949 228.756 43.1353L232.077 45.0625C231.746 44.8739 231.376 44.7615 230.996 44.7334Z" fill="#215B34"/>
<path d="M232.076 45.0625L228.755 43.1353L228.771 43.151L232.092 45.0625H232.076Z" fill="#205732"/>
<path d="M213.902 76.2574L210.581 74.3302L220.248 49.3712L223.569 51.2827L213.902 76.2574Z" fill="#25653A"/>
<path d="M223.569 51.2826L220.248 49.3398C220.467 48.8003 220.724 48.2768 221.016 47.773L224.321 49.7002C224.035 50.2044 223.784 50.7279 223.569 51.267" fill="#235E36"/>
<path d="M224.321 49.6845L221.016 47.773C221.451 46.9449 221.977 46.1672 222.582 45.4542L225.904 47.3813C225.268 48.088 224.715 48.8662 224.259 49.7002" fill="#246138"/>
<path d="M225.967 47.3656L222.646 45.4385C223.164 44.8574 223.741 44.3322 224.369 43.8717L227.675 45.7989C227.041 46.2464 226.467 46.7729 225.967 47.3656Z" fill="#25653A"/>
<path d="M227.674 45.8302L224.368 43.9031C224.556 43.7777 224.744 43.6524 224.948 43.5427L228.254 45.4698L227.674 45.8302Z" fill="#246138"/>
<path d="M228.253 45.4698C230.071 44.4044 231.904 44.4044 232.954 45.8772L242.73 59.618L213.902 76.2574L223.569 51.2827C224.449 48.8827 226.095 46.8397 228.253 45.4698Z" fill="#3CA25D"/>
<path d="M200.491 62.5479L197.186 60.6207C197.653 60.3485 198.153 60.1379 198.674 59.994L201.995 61.8742C201.445 62.0055 200.917 62.2167 200.429 62.5009" fill="#246138"/>
<path d="M201.995 61.8742L198.674 59.947C199.083 59.8426 199.506 59.8056 199.927 59.8373L203.233 61.8742C202.817 61.8419 202.399 61.8789 201.995 61.9839" fill="#235E36"/>
<path d="M203.233 61.8742L199.975 59.8843C200.348 59.922 200.71 60.0339 201.04 60.2134L204.361 62.1405C204.03 61.952 203.661 61.8396 203.28 61.8115" fill="#215B34"/>
<path d="M204.314 62.1405L200.992 60.2134L201.008 60.2291L204.329 62.1562L204.314 62.1405Z" fill="#205732"/>
<path d="M186.657 92.0037L183.336 90.0765L192.486 66.4492L195.807 68.3764L186.657 92.0037Z" fill="#25653A"/>
<path d="M195.807 68.3764L192.485 66.4493C192.708 65.9114 192.965 65.3881 193.253 64.8824L196.559 66.8096C196.273 67.3141 196.021 67.8376 195.807 68.3764Z" fill="#235E36"/>
<path d="M196.559 66.7626L193.253 64.8354C193.685 64.0099 194.21 63.2371 194.82 62.5322L198.141 64.4594C197.505 65.1605 196.953 65.9334 196.496 66.7626" fill="#246138"/>
<path d="M198.204 64.4594L194.883 62.5323C195.392 61.9428 195.971 61.4167 196.606 60.9655L199.975 62.9239C199.341 63.3715 198.767 63.898 198.267 64.4907" fill="#25653A"/>
<path d="M199.974 62.9239L196.668 60.9968C196.851 60.857 197.045 60.7313 197.248 60.6208L200.553 62.5479C200.353 62.6621 200.16 62.7877 199.974 62.9239Z" fill="#246138"/>
<path d="M200.491 62.5479C202.309 61.4981 204.142 61.4825 205.191 62.9553L214.435 75.9597L186.657 92.0037L195.807 68.3764C196.686 65.9718 198.332 63.9236 200.491 62.5479Z" fill="#3CA25D"/>
<path d="M179.89 86.9408L176.584 85.0137C177.073 84.7295 177.601 84.5183 178.151 84.387L181.456 86.3141C180.907 86.4486 180.38 86.6595 179.89 86.9408Z" fill="#246138"/>
<path d="M181.394 86.3475L178.041 84.4204C178.445 84.3154 178.863 84.2784 179.279 84.3107L182.6 86.2379C182.179 86.2055 181.756 86.2426 181.347 86.3475" fill="#235E36"/>
<path d="M182.648 86.2378L179.326 84.3107C179.706 84.3388 180.076 84.4512 180.407 84.6397L183.713 86.5669C183.386 86.3805 183.023 86.2682 182.648 86.2378Z" fill="#215B34"/>
<path d="M183.713 86.5669L180.407 84.6397L180.423 84.6554L183.729 86.5825L183.713 86.5669Z" fill="#205732"/>
<path d="M172.401 100.057L169.079 98.1455L171.899 90.8755L175.205 92.8027L172.401 100.057Z" fill="#25653A"/>
<path d="M175.205 92.8028L171.899 90.8756C172.114 90.3368 172.365 89.8133 172.651 89.3088L175.957 91.236C175.671 91.7405 175.42 92.264 175.205 92.8028Z" fill="#235E36"/>
<path d="M175.957 91.189L172.651 89.2618C173.083 88.4363 173.609 87.6634 174.218 86.9586L177.54 88.8701C176.912 89.5835 176.36 90.3607 175.894 91.189" fill="#246138"/>
<path d="M177.602 88.8701L174.28 86.943C174.79 86.3535 175.368 85.8274 176.004 85.3762L179.325 87.2877C178.697 87.7482 178.12 88.2733 177.602 88.8545" fill="#25653A"/>
<path d="M179.325 87.3347L176.004 85.3762C176.19 85.2399 176.383 85.1143 176.584 85.0001L179.889 86.943L179.325 87.3033" fill="#246138"/>
<path d="M179.889 86.9429C181.722 85.8932 183.54 85.8775 184.589 87.3503L187.441 91.377L172.4 100.057L175.205 92.8027C176.084 90.3901 177.73 88.3319 179.889 86.9429Z" fill="#3CA25D"/>
<path d="M215.313 70.7715L212.007 68.8444C212.498 68.5644 213.025 68.3535 213.574 68.2177L216.879 70.1448C216.33 70.2793 215.803 70.4903 215.313 70.7715Z" fill="#246138"/>
<path d="M216.817 70.1469L213.511 68.2197C213.914 68.1148 214.333 68.0777 214.748 68.11L218.07 70.0372C217.649 70.0049 217.225 70.0419 216.817 70.1469Z" fill="#235E36"/>
<path d="M218.07 70.0372L214.749 68.1414C215.128 68.1765 215.496 68.2885 215.83 68.4704L219.136 70.3975C218.809 70.2112 218.445 70.0989 218.07 70.0685" fill="#215B34"/>
<path d="M219.136 70.3662L215.83 68.4391L215.846 68.4547L219.152 70.3819L219.136 70.3662Z" fill="#205732"/>
<path d="M207.808 83.872L204.502 81.9449L207.322 74.6749L210.628 76.6021L207.808 83.872Z" fill="#25653A"/>
<path d="M210.628 76.6021L207.322 74.6749C207.54 74.1373 207.791 73.614 208.074 73.1081L211.38 75.0353C211.094 75.5397 210.843 76.0632 210.628 76.6021Z" fill="#235E36"/>
<path d="M211.38 74.9883L208.074 73.0611C208.506 72.2356 209.032 71.4628 209.641 70.7579L212.962 72.6851C212.326 73.3862 211.774 74.1591 211.317 74.9883" fill="#246138"/>
<path d="M213.025 72.6851L209.703 70.7579C210.213 70.1684 210.791 69.6424 211.427 69.1911L214.732 71.1183C214.105 71.5741 213.533 72.0997 213.025 72.6851Z" fill="#25653A"/>
<path d="M214.733 71.1496L211.427 69.2225C211.613 69.0862 211.806 68.9607 212.006 68.8464L215.312 70.7736L214.733 71.1496Z" fill="#246138"/>
<path d="M215.312 70.7736C217.145 69.7239 218.963 69.7082 220.012 71.181L222.864 75.192L207.808 83.8093L210.628 76.5394C211.519 74.158 213.164 72.1332 215.312 70.7736Z" fill="#3CA25D"/>
<path d="M154.242 80.6758L150.937 78.7643C151.421 78.4702 151.95 78.2584 152.503 78.1376L155.809 80.0491C155.261 80.188 154.735 80.3987 154.242 80.6758Z" fill="#246138"/>
<path d="M155.746 80.002L152.44 78.0906C152.843 77.9779 153.262 77.9407 153.678 77.9809L156.984 79.8924C156.568 79.8685 156.151 79.9054 155.746 80.002Z" fill="#235E36"/>
<path d="M156.985 79.8924L153.679 77.9809C154.054 78.0087 154.418 78.1212 154.744 78.3099L158.066 80.2371C157.732 80.0501 157.364 79.9329 156.985 79.8924Z" fill="#215B34"/>
<path d="M158.065 80.2371L154.743 78.3099H154.774L158.08 80.2371H158.065Z" fill="#205732"/>
<path d="M136.147 121.083L132.841 119.156L146.252 84.5301L149.558 86.4573L136.147 121.083Z" fill="#25653A"/>
<path d="M149.558 86.4573L146.252 84.5301C146.469 83.9926 146.721 83.4693 147.004 82.9633L150.31 84.8905C150.026 85.3964 149.775 85.9197 149.558 86.4573Z" fill="#235E36"/>
<path d="M150.31 84.8434L147.004 82.9163C147.44 82.0931 147.965 81.3206 148.571 80.6131L151.892 82.5403C151.287 83.2481 150.761 84.0205 150.325 84.8434" fill="#246138"/>
<path d="M151.954 82.5403L148.633 80.6758C149.142 80.0863 149.721 79.5603 150.356 79.109L153.662 81.0362C153.032 81.4878 152.458 82.0139 151.954 82.603" fill="#25653A"/>
<path d="M153.662 81.0048L150.356 79.109C150.544 78.9836 150.732 78.8583 150.936 78.7486L154.242 80.6758L153.662 81.0518" fill="#246138"/>
<path d="M154.242 80.6758C156.075 79.626 157.892 79.6104 158.942 81.0832L172.494 100.135L136.146 121.13L149.558 86.5043C150.442 84.1026 152.087 82.0558 154.242 80.6758Z" fill="#3CA25D"/>
<path d="M129.613 115.41L126.339 113.482C126.833 113.208 127.359 112.998 127.906 112.856L131.227 114.783C130.678 114.919 130.151 115.13 129.66 115.41" fill="#246138"/>
<path d="M131.117 114.785L127.796 112.858C128.2 112.753 128.618 112.716 129.034 112.748L132.355 114.675C131.939 114.643 131.521 114.68 131.117 114.785Z" fill="#235E36"/>
<path d="M132.355 114.675L129.033 112.748C129.411 112.791 129.777 112.903 130.114 113.077L133.42 115.004C133.093 114.818 132.73 114.706 132.355 114.675Z" fill="#215B34"/>
<path d="M133.42 115.004L130.114 113.093H130.13L133.436 115.02L133.42 115.004Z" fill="#205732"/>
<path d="M119.712 134.715L116.391 132.787L121.623 119.313L124.929 121.24L119.712 134.715Z" fill="#25653A"/>
<path d="M124.929 121.224L121.639 119.313C121.854 118.774 122.105 118.251 122.391 117.746L125.696 119.673C125.413 120.179 125.162 120.703 124.944 121.24" fill="#235E36"/>
<path d="M125.681 119.611L122.375 117.684C122.811 116.86 123.336 116.088 123.942 115.38L127.263 117.307C126.658 118.015 126.132 118.788 125.696 119.611" fill="#246138"/>
<path d="M127.325 117.307L124.004 115.38C124.517 114.794 125.095 114.269 125.727 113.813L129.033 115.741C128.403 116.192 127.829 116.718 127.325 117.307Z" fill="#25653A"/>
<path d="M129.033 115.788L125.728 113.86C125.908 113.724 126.096 113.599 126.292 113.484L129.613 115.412C129.411 115.522 129.217 115.648 129.033 115.788Z" fill="#246138"/>
<path d="M129.614 115.412C131.431 114.362 133.264 114.346 134.314 115.819L139.594 123.23L119.728 134.715L124.945 121.224C125.82 118.826 127.461 116.783 129.614 115.412Z" fill="#3CA25D"/>
</svg>
