<svg width="179" height="125" viewBox="0 0 179 125" fill="none" xmlns="http://www.w3.org/2000/svg">
<path d="M154.464 32.3159C154.716 32.5269 154.878 32.8263 154.915 33.1527C154.953 33.4791 154.865 33.8076 154.668 34.0707C154.229 34.5408 153.477 34.4154 152.85 34.2587C153.054 34.9951 152.318 35.7159 151.55 35.8255C150.782 35.9352 149.545 35.1048 149.654 35.4652C149.765 35.8591 149.912 36.242 150.093 36.6089C150.171 36.7969 150.25 37.0163 150.093 37.173C150.039 37.2353 149.971 37.2847 149.895 37.3172C149.819 37.3498 149.737 37.3647 149.654 37.361C146.521 37.737 143.387 36.3426 140.505 34.8384C137.622 33.3343 134.786 31.7049 131.574 31.3758C130.634 31.3758 129.663 31.3758 128.723 31.3758C128.264 32.3551 127.525 33.1759 126.599 33.7338C125.673 34.2918 124.602 34.5618 123.522 34.5094C123.323 34.5246 123.124 34.5246 122.926 34.5094V34.5094C122.555 34.4748 122.188 34.4066 121.829 34.3057L121.547 34.2117C121.281 34.1177 121.03 34.0237 120.795 33.914L120.545 33.773C120.304 33.6453 120.073 33.4986 119.855 33.3343L119.699 33.209C119.45 33.0047 119.219 32.7792 119.009 32.5353C118.115 31.7548 117.037 31.2155 115.876 30.9685C116.327 30.9303 116.766 30.8026 117.166 30.5928C117.567 30.3829 117.922 30.0952 118.21 29.7464V29.7464C118.203 29.7208 118.203 29.6936 118.21 29.668C118.241 29.2789 118.336 28.8977 118.492 28.5399C118.639 28.1774 118.84 27.8393 119.088 27.5372C119.26 27.3288 119.448 27.1349 119.652 26.9575H119.746C119.935 26.804 120.134 26.6627 120.341 26.5344C120.42 26.4834 120.504 26.4414 120.592 26.4091C120.761 26.2998 120.939 26.2054 121.124 26.1271L121.594 25.9704L122.017 25.8294C122.321 25.7531 122.63 25.7007 122.942 25.6727V25.6727C123.14 25.6565 123.339 25.6565 123.537 25.6727C124.492 25.6688 125.435 25.8831 126.295 26.2994C125.95 24.7326 124.54 22.8525 124.305 21.1917C124.133 19.9225 124.885 18.9511 125.151 17.6977C126.284 12.5033 127.007 7.22784 127.313 1.92006C127.3 1.74678 127.323 1.57274 127.38 1.40847C127.436 1.24419 127.525 1.09309 127.642 0.96431C127.82 0.842371 128.03 0.7771 128.245 0.7771C128.461 0.7771 128.671 0.842371 128.848 0.96431C129.255 1.19835 129.61 1.51179 129.892 1.88595C130.175 2.26011 130.379 2.68733 130.493 3.14216C130.521 3.34496 130.596 3.53834 130.713 3.7062C131.324 4.36426 132.279 2.89147 133.141 3.14216C133.643 3.29884 133.768 3.92556 133.878 4.4426C133.987 4.95964 134.332 5.55502 134.849 5.44535C135.115 5.44535 135.35 5.11632 135.632 5.13199C135.73 5.14312 135.824 5.17554 135.908 5.22697C135.992 5.2784 136.064 5.34759 136.118 5.42968C137.136 6.71445 136.51 8.56327 136.964 10.2084C137.201 10.8342 137.484 11.4417 137.81 12.0259C138.86 14.3918 138.452 17.1023 138.217 19.6719C138.185 19.8272 138.183 19.9875 138.213 20.1434C138.243 20.2993 138.303 20.4479 138.39 20.5806C138.465 20.6749 138.562 20.75 138.672 20.8C139.382 21.0915 140.166 21.1519 140.912 20.9723C146.054 19.7936 151.062 18.0926 155.859 15.8959C155.095 16.9486 154.274 17.9582 153.399 18.9198C150.614 21.8647 146.945 23.8227 142.949 24.4976L142.181 24.6543H142.024H142.15C143.525 25.4038 144.778 26.3602 145.863 27.4902C147.868 29.2299 150.202 30.551 152.725 31.3758C153.369 31.5517 153.964 31.8734 154.464 32.3159V32.3159Z" fill="white"/>
<path d="M120.451 31.1878C120.642 31.1878 120.796 30.8581 120.796 30.4514C120.796 30.0447 120.642 29.715 120.451 29.715C120.261 29.715 120.106 30.0447 120.106 30.4514C120.106 30.8581 120.261 31.1878 120.451 31.1878Z" fill="black"/>
<path d="M118.54 28.963C118.54 29.3547 118.383 29.6994 118.195 29.715C118.226 29.3259 118.321 28.9447 118.477 28.5869C118.523 28.7068 118.545 28.8347 118.54 28.963Z" fill="black"/>
<path d="M118.132 29.715C117.462 30.3252 116.648 30.7563 115.767 30.9685C116.866 31.3736 117.917 31.8991 118.9 32.5352C118.99 31.5336 118.718 30.5328 118.132 29.715V29.715Z" fill="#FF7361"/>
<path d="M152.85 34.2587C151.929 34.0363 151.081 33.5772 150.391 32.9269C151.14 33.4911 151.969 33.94 152.85 34.2587V34.2587Z" fill="#D9D9D9"/>
<path d="M149.2 33.773L149.686 35.3398C149.433 34.8501 149.269 34.3197 149.2 33.773V33.773Z" fill="#D9D9D9"/>
<path d="M130.697 3.70618C130.907 4.7032 130.907 5.73307 130.697 6.7301C130.981 6.27675 131.131 5.75283 131.131 5.21814C131.131 4.68344 130.981 4.15952 130.697 3.70618V3.70618Z" fill="#D9D9D9"/>
<path d="M134.488 5.21033C134.698 6.2074 134.698 7.23717 134.488 8.23425C134.774 7.78155 134.925 7.25738 134.925 6.72229C134.925 6.1872 134.774 5.66302 134.488 5.21033V5.21033Z" fill="#D9D9D9"/>
<path d="M27.3098 102.446C27.4822 102.595 27.5924 102.803 27.6185 103.029C27.6446 103.256 27.5847 103.484 27.4508 103.668C27.2696 103.793 27.0595 103.87 26.8403 103.892C26.621 103.914 26.3998 103.88 26.1974 103.793C26.3384 104.295 25.8214 104.796 25.3044 104.843C24.7873 104.89 23.91 104.342 23.9883 104.592C24.0696 104.862 24.1745 105.124 24.3017 105.376C24.328 105.438 24.3415 105.504 24.3415 105.571C24.3415 105.639 24.328 105.705 24.3017 105.767C24.2603 105.808 24.2113 105.84 24.1575 105.861C24.1038 105.883 24.0462 105.894 23.9883 105.893C21.7723 105.954 19.589 105.348 17.7215 104.154C15.8538 102.958 13.7656 102.148 11.5799 101.772C10.9219 101.772 10.2639 101.772 9.60589 101.772C9.29012 102.443 8.78201 103.006 8.14602 103.388C7.51003 103.77 6.77485 103.955 6.03377 103.919H5.59509C5.34137 103.89 5.09005 103.842 4.84307 103.778H4.6394L4.16938 103.527C4.11816 103.481 4.05997 103.444 3.99705 103.417C3.83138 103.333 3.67401 103.233 3.52703 103.119L3.41736 103.041C3.24544 102.9 3.08799 102.743 2.94735 102.571C2.31452 102.035 1.55323 101.674 0.738281 101.521C1.04272 101.492 1.33823 101.402 1.60734 101.257C1.87644 101.112 2.11367 100.914 2.305 100.675V100.675C2.32083 100.405 2.38448 100.14 2.493 99.8918C2.59568 99.644 2.73281 99.412 2.90034 99.2025C3.01908 99.0606 3.15016 98.9295 3.29202 98.8108C3.42146 98.7079 3.55754 98.6137 3.69937 98.5287L3.87171 98.4347C3.99217 98.3627 4.11785 98.2999 4.24772 98.2467L4.56106 98.137L4.85874 98.043C5.06805 97.9824 5.28353 97.9456 5.50109 97.9334V97.9334H5.9241C6.57974 97.9304 7.22765 98.075 7.81983 98.3564C7.58483 97.2596 6.61346 95.9905 6.44112 94.8468C6.33145 93.9694 6.84847 93.28 7.02081 92.4339C7.83227 88.8623 8.35619 85.2314 8.58752 81.576C8.56469 81.4299 8.5785 81.2804 8.62772 81.1409C8.67695 81.0014 8.76004 80.8764 8.86953 80.7769C9.08887 80.5733 9.43354 80.6829 9.69989 80.7769C9.98687 80.9449 10.2355 81.171 10.4298 81.4409C10.6241 81.7107 10.7597 82.0183 10.8279 82.3437C10.8441 82.486 10.8982 82.6213 10.9846 82.7354C11.4076 83.1898 12.0656 82.1714 12.661 82.3437C13.0057 82.4534 13.084 82.8764 13.1623 83.2368C13.2407 83.5972 13.4757 84.0045 13.836 83.9262C14.1964 83.8479 14.1807 83.7068 14.3687 83.7225C14.4371 83.731 14.5029 83.7534 14.5623 83.7885C14.6216 83.8235 14.673 83.8704 14.7134 83.9262C15.4027 84.8036 14.9797 86.1197 15.2931 87.2165C15.4573 87.6471 15.6509 88.0659 15.8727 88.4699C16.4063 90.1734 16.5032 91.9836 16.1548 93.7343C16.1291 93.8407 16.1257 93.9513 16.1445 94.0591C16.1634 94.1669 16.2042 94.2697 16.2644 94.3611C16.3217 94.4218 16.3911 94.4699 16.4681 94.5021C16.9623 94.7152 17.513 94.7593 18.0348 94.6274C21.575 93.813 25.0236 92.6424 28.3281 91.1335C27.7811 91.8934 27.1899 92.6206 26.5577 93.3113C24.6265 95.3043 22.1051 96.6227 19.3665 97.0716L18.8338 97.1813H18.7242H18.8182C19.7766 97.7148 20.6483 98.391 21.4032 99.1868C22.7735 100.387 24.3722 101.299 26.1034 101.866C26.5426 101.97 26.9541 102.168 27.3098 102.446V102.446Z" fill="white"/>
<path d="M3.87174 101.678C4.00153 101.678 4.10675 101.446 4.10675 101.161C4.10675 100.875 4.00153 100.644 3.87174 100.644C3.74194 100.644 3.63672 100.875 3.63672 101.161C3.63672 101.446 3.74194 101.678 3.87174 101.678Z" fill="black"/>
<path d="M2.60218 100.143C2.60218 100.409 2.49252 100.644 2.36719 100.66C2.38302 100.389 2.44667 100.124 2.55519 99.8762C2.58716 99.9613 2.60309 100.052 2.60218 100.143V100.143Z" fill="black"/>
<path d="M2.28936 100.66C1.84549 101.071 1.30752 101.367 0.722656 101.521C1.49488 101.79 2.23558 102.142 2.93171 102.571C2.94388 101.879 2.71701 101.204 2.28936 100.66V100.66Z" fill="#FF7361"/>
<path d="M26.1978 103.793C25.5758 103.629 25.0048 103.311 24.5371 102.869C25.0436 103.255 25.6029 103.566 26.1978 103.793V103.793Z" fill="#D9D9D9"/>
<path d="M23.6748 103.495L24.0038 104.53C23.8395 104.205 23.7284 103.856 23.6748 103.495Z" fill="#D9D9D9"/>
<path d="M10.9375 82.7511C11.0802 83.4384 11.0802 84.1477 10.9375 84.8349C11.1336 84.5228 11.2376 84.1617 11.2376 83.793C11.2376 83.4244 11.1336 83.0632 10.9375 82.7511V82.7511Z" fill="#D9D9D9"/>
<path d="M13.5693 83.7852C13.7121 84.4724 13.7121 85.1817 13.5693 85.869C13.7655 85.5569 13.8695 85.1957 13.8695 84.8271C13.8695 84.4584 13.7655 84.0973 13.5693 83.7852V83.7852Z" fill="#D9D9D9"/>
<path d="M177.229 118.127C177.56 118.4 177.773 118.79 177.823 119.217C177.872 119.643 177.755 120.072 177.495 120.414C176.931 121.041 175.928 120.868 175.129 120.665C175.396 121.636 174.424 122.576 173.422 122.655C172.419 122.733 170.805 121.715 170.946 122.185C171.094 122.697 171.288 123.195 171.526 123.673C171.62 123.924 171.73 124.206 171.526 124.409C171.456 124.494 171.367 124.561 171.266 124.605C171.166 124.649 171.056 124.668 170.946 124.66C166.779 125.146 162.705 123.328 158.992 121.37C155.279 119.411 151.519 117.187 147.32 116.842C146.098 116.732 144.829 116.842 143.607 116.842C143.004 118.118 142.036 119.186 140.826 119.911C139.615 120.636 138.217 120.986 136.807 120.916C136.547 120.938 136.285 120.938 136.024 120.916C135.536 120.877 135.053 120.787 134.583 120.649C134.46 120.617 134.339 120.575 134.222 120.524C133.886 120.412 133.557 120.281 133.235 120.132L132.906 119.96C132.595 119.789 132.296 119.595 132.013 119.38C132.013 119.38 131.857 119.286 131.81 119.223C131.48 118.954 131.176 118.655 130.901 118.33C129.693 117.325 128.247 116.645 126.702 116.356C127.29 116.311 127.863 116.149 128.387 115.88C128.912 115.611 129.378 115.24 129.757 114.789V114.789C129.75 114.753 129.75 114.716 129.757 114.68C129.805 114.172 129.931 113.675 130.133 113.207C130.327 112.736 130.591 112.298 130.917 111.906C131.142 111.632 131.388 111.375 131.653 111.139L131.778 111.045C132.022 110.841 132.278 110.652 132.546 110.481L132.875 110.324C133.1 110.18 133.335 110.054 133.58 109.948L134.191 109.744C134.368 109.67 134.552 109.612 134.739 109.572C135.134 109.465 135.538 109.397 135.946 109.368C136.206 109.344 136.469 109.344 136.729 109.368C137.977 109.36 139.21 109.638 140.333 110.183C139.878 108.099 138.045 105.671 137.732 103.508C137.512 101.848 138.484 100.578 138.844 98.949C140.321 92.1601 141.263 85.266 141.664 78.33C141.645 78.1032 141.673 77.8749 141.746 77.6593C141.818 77.4437 141.935 77.2453 142.087 77.0765C142.33 76.9374 142.608 76.8735 142.887 76.893C143.166 76.9126 143.433 77.0146 143.654 77.1862C144.184 77.4903 144.647 77.8981 145.016 78.3854C145.385 78.8727 145.652 79.4293 145.8 80.0221C145.836 80.2861 145.933 80.5381 146.082 80.7585C146.881 81.6202 148.15 79.6931 149.216 80.0221C149.874 80.2258 150.031 81.0562 150.172 81.7299C150.313 82.4036 150.767 83.187 151.441 83.0304C151.785 83.0304 152.099 82.6073 152.475 82.623C152.601 82.6398 152.722 82.6834 152.83 82.751C152.938 82.8185 153.031 82.9085 153.101 83.0147C154.433 84.6912 153.618 87.198 154.214 89.2819C154.521 90.0961 154.888 90.8868 155.31 91.6477C156.689 94.7813 156.156 98.2753 155.843 101.644C155.801 101.848 155.8 102.058 155.841 102.263C155.881 102.467 155.962 102.662 156.078 102.835C156.176 102.954 156.299 103.05 156.438 103.117C157.368 103.495 158.393 103.571 159.368 103.336C166.084 101.799 172.626 99.5781 178.889 96.7085C177.937 98.0534 176.912 99.3453 175.819 100.578C172.179 104.42 167.39 106.977 162.173 107.864L161.17 108.068H160.966C161.018 108.073 161.071 108.073 161.123 108.068C162.926 109.044 164.565 110.297 165.98 111.781C168.583 114.116 171.631 115.901 174.941 117.03C175.777 117.217 176.559 117.592 177.229 118.127V118.127Z" fill="white"/>
<path d="M132.781 116.654C133.031 116.654 133.235 116.219 133.235 115.682C133.235 115.146 133.031 114.711 132.781 114.711C132.53 114.711 132.326 115.146 132.326 115.682C132.326 116.219 132.53 116.654 132.781 116.654Z" fill="black"/>
<path d="M130.211 113.755C130.211 114.257 130.007 114.711 129.757 114.727C129.804 114.219 129.931 113.722 130.133 113.254C130.193 113.414 130.219 113.585 130.211 113.755V113.755Z" fill="black"/>
<path d="M129.757 114.68C128.862 115.458 127.784 115.997 126.624 116.246C128.089 116.754 129.497 117.416 130.823 118.221C130.89 116.952 130.513 115.7 129.757 114.68V114.68Z" fill="#FF7361"/>
<path d="M161.013 108.115H161.17C161.17 108.115 158.036 106.971 152.851 109.682C158.146 106.955 160.857 108.021 160.998 108.115H161.013Z" fill="#D9D9D9"/>
<path d="M175.129 120.665C173.918 120.38 172.805 119.78 171.901 118.926C172.884 119.663 173.972 120.249 175.129 120.665V120.665Z" fill="#D9D9D9"/>
<path d="M170.351 120.116L170.977 122.075C170.658 121.463 170.446 120.8 170.351 120.116V120.116Z" fill="#D9D9D9"/>
<path d="M146.176 80.7429C146.452 82.0444 146.452 83.3896 146.176 84.6912C146.547 84.0997 146.744 83.4154 146.744 82.717C146.744 82.0186 146.547 81.3344 146.176 80.7429Z" fill="#D9D9D9"/>
<path d="M151.127 82.717C151.404 84.0185 151.404 85.3637 151.127 86.6653C151.498 86.0738 151.695 85.3895 151.695 84.6911C151.695 83.9927 151.498 83.3085 151.127 82.717V82.717Z" fill="#D9D9D9"/>
<path d="M178.278 69.8203C178.373 69.9195 178.426 70.0514 178.426 70.1885C178.426 70.3257 178.373 70.4576 178.278 70.5567C178.16 70.6198 178.028 70.6528 177.894 70.6528C177.76 70.6528 177.629 70.6198 177.51 70.5567C177.604 70.8544 177.291 71.1678 176.978 71.1834C176.664 71.1991 176.132 70.8858 176.179 71.0424C176.232 71.2028 176.295 71.3597 176.367 71.5125C176.367 71.5125 176.367 71.6848 176.367 71.7475C176.338 71.764 176.306 71.7727 176.273 71.7727C176.24 71.7727 176.207 71.764 176.179 71.7475C174.828 71.788 173.497 71.4223 172.356 70.6977C171.222 69.9686 169.955 69.4732 168.627 69.2406C168.236 69.2406 167.828 69.2406 167.421 69.2406C167.23 69.6507 166.92 69.994 166.532 70.2259C166.144 70.4578 165.695 70.5676 165.243 70.5411H164.992H164.522H164.413L164.099 70.4157H163.99C163.888 70.3713 163.793 70.3133 163.708 70.2434H163.629C163.528 70.1574 163.433 70.063 163.347 69.9613C162.957 69.6436 162.494 69.4282 162 69.3346C162.191 69.3183 162.376 69.2641 162.545 69.1753C162.715 69.0866 162.865 68.965 162.987 68.8176V68.8176C163.007 68.6558 163.049 68.4976 163.112 68.3476C163.178 68.1968 163.262 68.0547 163.363 67.9245C163.433 67.8385 163.512 67.7598 163.598 67.6895V67.6895C163.675 67.6233 163.759 67.5655 163.849 67.5171H163.958L164.178 67.4075H164.381H164.554C164.684 67.3911 164.815 67.3911 164.945 67.4075H165.196C165.598 67.4088 165.994 67.4998 166.355 67.6738C166.214 67.0001 165.619 66.2324 165.525 65.543C165.431 64.8536 165.76 64.6029 165.87 64.0702C166.351 61.8997 166.655 59.6937 166.778 57.474C166.778 57.333 166.778 57.1606 166.919 57.0823C166.992 57.0288 167.08 57 167.17 57C167.26 57 167.348 57.0288 167.421 57.0823C167.592 57.1789 167.741 57.3093 167.859 57.4656C167.978 57.6218 168.063 57.8006 168.11 57.991C168.125 58.0751 168.157 58.1551 168.204 58.226C168.455 58.4924 168.862 57.8813 169.223 57.991C169.583 58.1007 169.489 58.32 169.52 58.5394C169.552 58.7588 169.724 58.9938 169.928 58.9468C170.131 58.8998 170.147 58.8058 170.257 58.8214C170.298 58.8261 170.337 58.8398 170.372 58.8614C170.408 58.8831 170.438 58.9122 170.46 58.9468C170.883 59.4795 170.633 60.2785 170.821 60.9366C170.916 61.2006 171.032 61.4573 171.165 61.7043C171.488 62.7173 171.547 63.7957 171.338 64.8379C171.311 64.897 171.297 64.9611 171.297 65.0259C171.297 65.0908 171.311 65.1549 171.338 65.214C171.366 65.2538 171.404 65.2861 171.447 65.308C171.753 65.4042 172.081 65.4042 172.387 65.308C174.544 64.814 176.644 64.1 178.654 63.1771C178.341 63.6204 178.001 64.0443 177.636 64.4462C176.47 65.6769 174.936 66.4961 173.265 66.7808H172.936C173.516 67.0879 174.045 67.4845 174.502 67.9559C175.35 68.6633 176.33 69.1958 177.385 69.5226C177.701 69.5546 178.006 69.6563 178.278 69.8203V69.8203Z" fill="white"/>
<path d="M163.974 69.3503C164.052 69.3503 164.115 69.21 164.115 69.0369C164.115 68.8639 164.052 68.7236 163.974 68.7236C163.896 68.7236 163.833 68.8639 163.833 69.0369C163.833 69.21 163.896 69.3503 163.974 69.3503Z" fill="black"/>
<path d="M163.16 68.4102C163.16 68.5826 163.16 68.7236 163.003 68.7236C163.022 68.5618 163.065 68.4036 163.128 68.2535C163.148 68.3036 163.158 68.3566 163.16 68.4102V68.4102Z" fill="black"/>
<path d="M163.003 68.7236C162.728 68.9874 162.387 69.1715 162.016 69.2563C162.488 69.4124 162.94 69.6227 163.363 69.883C163.383 69.4661 163.256 69.0555 163.003 68.7236Z" fill="#FF7361"/>
<path d="M173.014 66.6084C172.097 66.4196 171.142 66.5937 170.351 67.0941C170.728 66.8335 171.155 66.6531 171.605 66.5642C172.055 66.4753 172.519 66.4797 172.967 66.5771L173.014 66.6084Z" fill="#D9D9D9"/>
<path d="M177.526 70.6351C177.144 70.538 176.793 70.3437 176.508 70.071C176.82 70.3048 177.163 70.4945 177.526 70.6351V70.6351Z" fill="#D9D9D9"/>
<path d="M176.007 70.447L176.21 71.0737C176.108 70.8776 176.039 70.6658 176.007 70.447V70.447Z" fill="#D9D9D9"/>
<path d="M168.267 57.85C168.351 58.2688 168.351 58.7002 168.267 59.1191C168.383 58.9278 168.444 58.7083 168.444 58.4845C168.444 58.2607 168.383 58.0412 168.267 57.85V57.85Z" fill="#D9D9D9"/>
<path d="M169.85 58.4767C169.934 58.8956 169.934 59.327 169.85 59.7459C169.968 59.5552 170.03 59.3355 170.03 59.1113C170.03 58.8871 169.968 58.6674 169.85 58.4767Z" fill="#D9D9D9"/>
<path d="M95.5564 100.926C95.7736 101.119 95.9126 101.385 95.9472 101.674C95.9818 101.962 95.9097 102.254 95.7444 102.493C95.3371 102.931 94.6634 102.806 94.0837 102.665C94.2717 103.339 93.598 103.997 92.9087 104.044C92.2193 104.091 91.0756 103.401 91.1853 103.715C91.2803 104.077 91.4115 104.429 91.577 104.765C91.6182 104.844 91.6397 104.933 91.6397 105.023C91.6397 105.113 91.6182 105.202 91.577 105.282C91.526 105.338 91.4626 105.381 91.3919 105.408C91.3212 105.435 91.245 105.446 91.1696 105.438C88.2299 105.527 85.3313 104.73 82.8504 103.151C80.38 101.578 77.6212 100.513 74.7348 100.017C73.8731 100.017 72.9957 100.017 72.134 100.017C71.7161 100.9 71.0473 101.639 70.2114 102.143C69.3754 102.648 68.4093 102.895 67.4339 102.853C67.2514 102.868 67.068 102.868 66.8856 102.853V102.853C66.5513 102.822 66.2208 102.759 65.8985 102.665H65.6322C65.4027 102.583 65.1778 102.489 64.9585 102.383L64.7235 102.258C64.5056 102.142 64.2962 102.011 64.0968 101.866C64.0533 101.82 64.0062 101.778 63.9558 101.741C63.7279 101.557 63.518 101.353 63.3291 101.13C62.4946 100.424 61.49 99.9484 60.415 99.7508C60.8245 99.7179 61.223 99.6024 61.5865 99.4112C61.95 99.22 62.271 98.9571 62.5301 98.6384C62.5227 98.6128 62.5227 98.5856 62.5301 98.56C62.5597 98.2095 62.6443 97.8658 62.7808 97.5416C62.9177 97.2133 63.1025 96.907 63.3291 96.6329C63.4852 96.4402 63.6582 96.2619 63.8461 96.1001V96.1001C64.0158 95.9521 64.1995 95.821 64.3945 95.7084C64.4626 95.6626 64.5363 95.6258 64.6138 95.5988C64.767 95.4948 64.9296 95.4057 65.0995 95.3324L65.5225 95.1914L65.9142 95.0661C66.2176 94.9821 66.5265 94.9192 66.8386 94.878V94.878C67.021 94.862 67.2045 94.862 67.3869 94.878C68.2561 94.875 69.1141 95.0734 69.8936 95.4578C69.5803 94.0006 68.3269 92.3242 68.0763 90.7574C67.9196 89.6136 68.6089 88.7205 68.8596 87.6238C69.886 82.9036 70.5408 78.1101 70.818 73.2876C70.7982 72.9674 70.9052 72.6522 71.1157 72.4102C71.2772 72.2997 71.4684 72.2406 71.664 72.2406C71.8597 72.2406 72.0509 72.2997 72.2124 72.4102C72.596 72.6129 72.9333 72.893 73.203 73.2328C73.4727 73.5726 73.6688 73.9647 73.7791 74.3843C73.7961 74.57 73.8609 74.7481 73.9671 74.9014C74.5311 75.4968 75.4085 74.165 76.1762 74.3843C76.6305 74.5254 76.7559 75.1051 76.8499 75.5751C76.9439 76.0452 77.2572 76.5779 77.7272 76.4839C78.1972 76.3898 78.1972 76.1862 78.4479 76.2018C78.5363 76.2107 78.6215 76.2392 78.6974 76.2853C78.7733 76.3314 78.838 76.3939 78.8866 76.4682C79.811 77.6276 79.2469 79.3668 79.6543 80.8082C79.8716 81.3788 80.1281 81.9338 80.422 82.469C81.1366 84.7182 81.266 87.1125 80.798 89.4256C80.7664 89.5648 80.7641 89.7091 80.791 89.8494C80.818 89.9896 80.8737 90.1227 80.9547 90.2403C81.019 90.329 81.1054 90.3992 81.2053 90.444C81.8514 90.7068 82.5634 90.7616 83.2421 90.6007C87.926 89.5105 92.4836 87.9352 96.8411 85.9003C96.1422 86.8574 95.3944 87.7778 94.6007 88.6579C92.0674 91.3313 88.7365 93.1123 85.1064 93.7343L84.4014 93.8753H84.2604H84.3701C85.6201 94.5643 86.7607 95.4356 87.7542 96.4605C89.5826 98.0483 91.7147 99.2477 94.021 99.9858C94.5963 100.181 95.1208 100.502 95.5564 100.926Z" fill="white"/>
<path d="M64.6132 99.9075C64.7862 99.9075 64.9265 99.6059 64.9265 99.2338C64.9265 98.8617 64.7862 98.5601 64.6132 98.5601C64.4401 98.5601 64.2998 98.8617 64.2998 99.2338C64.2998 99.6059 64.4401 99.9075 64.6132 99.9075Z" fill="black"/>
<path d="M62.827 97.8863C62.827 98.2467 62.686 98.56 62.5137 98.56C62.5433 98.2095 62.6279 97.8658 62.7644 97.5416C62.8105 97.6505 62.8319 97.7682 62.827 97.8863V97.8863Z" fill="black"/>
<path d="M62.5136 98.5601C61.9055 99.1155 61.1673 99.5089 60.3672 99.7038C61.3849 100.058 62.3619 100.52 63.2813 101.083C63.3312 100.177 63.0593 99.2839 62.5136 98.5601V98.5601Z" fill="#FF7361"/>
<path d="M84.2593 93.9693H84.3846C84.3846 93.9693 82.1913 93.1702 78.6035 95.0191C82.2853 93.1232 84.181 93.8596 84.2593 93.891V93.9693Z" fill="#D9D9D9"/>
<path d="M94.0832 102.712C93.2435 102.513 92.4709 102.097 91.8428 101.506C92.5241 102.019 93.2795 102.426 94.0832 102.712V102.712Z" fill="#D9D9D9"/>
<path d="M90.7617 102.32L91.2004 103.668C90.9772 103.248 90.8287 102.792 90.7617 102.32V102.32Z" fill="#D9D9D9"/>
<path d="M73.9355 74.9171C74.1285 75.8209 74.1285 76.7552 73.9355 77.659C74.1944 77.2486 74.3318 76.7733 74.3318 76.2881C74.3318 75.8028 74.1944 75.3275 73.9355 74.9171V74.9171Z" fill="#D9D9D9"/>
<path d="M77.3818 76.2958C77.5753 77.1996 77.5753 78.134 77.3818 79.0377C77.6407 78.6273 77.7781 78.152 77.7781 77.6668C77.7781 77.1816 77.6407 76.7062 77.3818 76.2958V76.2958Z" fill="#D9D9D9"/>
</svg>
