<svg width="133" height="116" viewBox="0 0 133 116" fill="none" xmlns="http://www.w3.org/2000/svg">
<path d="M38.1184 32.6133L37.4316 32.2139C37.6544 32.0793 37.8897 31.967 38.1344 31.8784L38.8374 32.2779L38.1184 32.6133Z" fill="#9DAFBB"/>
<path d="M5.43626 51.5002L4.7334 51.1007L37.4482 32.2139L38.135 32.6294L5.43626 51.5002Z" fill="#DEBE34"/>
<path d="M2.4809 61.391L1.79393 60.9915C1.37091 60.6928 1.03551 60.2865 0.822074 59.8146C0.608642 59.3426 0.524914 58.8223 0.57989 58.3072C0.688335 55.868 1.7565 53.5706 3.55122 51.9157L4.25399 52.3152C3.36029 53.1317 2.63644 54.1163 2.12386 55.2131C1.61128 56.3099 1.32004 57.4972 1.26686 58.7067C1.21188 59.2217 1.29541 59.7421 1.50885 60.2141C1.72228 60.686 2.05788 61.0922 2.4809 61.391" fill="#DEBE34"/>
<path d="M4.25354 52.379L3.55078 51.9795C3.91112 51.6438 4.30755 51.3491 4.73284 51.1008L5.41961 51.5003C5.003 51.7542 4.61245 52.0484 4.25354 52.379Z" fill="#DEBE34"/>
<path d="M41.2652 38.3976C41.2732 38.5467 41.2732 38.696 41.2652 38.8451C40.7784 39.7647 40.1412 40.5965 39.3802 41.3059C39.0165 41.6606 38.6084 41.9667 38.1661 42.2166L5.46741 61.1035C3.16715 62.4457 1.28223 61.3751 1.28223 58.7067C1.35905 57.2634 1.77519 55.8585 2.49685 54.6063C3.21851 53.3541 4.22528 52.29 5.43543 51.5003L30.7064 36.9117L38.1501 32.6133L38.6294 32.3736C40.2221 33.9867 41.1611 36.1328 41.2652 38.3976V38.3976Z" fill="#FFD93C"/>
<path d="M119.538 81.1887L120.225 80.7892C120.659 80.5804 121.14 80.4869 121.622 80.5177C122.103 80.5485 122.568 80.7025 122.973 80.965L122.286 81.3645C121.88 81.1048 121.415 80.9524 120.934 80.9217C120.454 80.8909 119.973 80.9829 119.538 81.1887" fill="#0A3654"/>
<path d="M122.285 81.3644L122.972 80.9649L123.196 81.0927L122.509 81.4921L122.285 81.3644Z" fill="#9DAFBB"/>
<path d="M122.525 81.4922L123.212 81.0927L128.468 84.1287L127.781 84.5282L122.525 81.4922Z" fill="#DEBE34"/>
<path d="M127.766 84.5281L128.468 84.1286C129.342 84.6551 130.102 85.3505 130.705 86.174L130.018 86.5734C129.405 85.7536 128.64 85.0592 127.766 84.5281Z" fill="#DEBE34"/>
<path d="M130.018 86.5734L130.705 86.174C131.869 87.6506 132.539 89.4561 132.621 91.335C132.673 91.8498 132.588 92.3691 132.375 92.8404C132.162 93.3118 131.828 93.7185 131.407 94.0195L130.705 94.419C131.127 94.1187 131.463 93.7126 131.679 93.2415C131.894 92.7703 131.983 92.2505 131.935 91.7345C131.843 89.8575 131.174 88.0548 130.018 86.5734" fill="#DEBE34"/>
<path d="M131.934 91.7345C131.942 91.8835 131.942 92.0329 131.934 92.1819C131.952 92.751 131.773 93.3089 131.426 93.7605C131.08 94.2121 130.587 94.5296 130.033 94.6587C129.238 94.7499 128.437 94.5634 127.765 94.1313L122.493 91.0953C122.096 90.8523 121.722 90.5743 121.375 90.2646C121.199 90.1048 121.023 89.9289 120.864 89.7531C119.345 88.1589 118.45 86.0723 118.34 83.8731C118.34 81.2206 120.225 80.1499 122.525 81.4921L127.78 84.5281C128.333 84.8505 128.839 85.2484 129.282 85.7105C130.873 87.3263 131.816 89.4696 131.934 91.7345V91.7345Z" fill="#DEBE34"/>
<path d="M66.9521 50.158L96.6638 33.1407L101.6 50.3497L71.2172 67.7186L66.9521 50.158Z" fill="#177ABF"/>
<path d="M92.3834 26.0621L50.5474 1.4549C48.9104 0.501959 47.0502 0 45.1562 0C43.2622 0 41.402 0.501959 39.765 1.4549L17.4014 14.4936C13.6417 16.6825 10.6257 19.95 8.74358 23.8731L4.0791 33.62L69.6524 71.4896L104.54 51.5481L100.051 35.9211C98.8633 31.7678 96.1158 28.235 92.3834 26.0621V26.0621Z" fill="#FFE163"/>
<path d="M57.5116 45.0128L17.8002 21.5082C17.008 21.0413 16.1274 20.744 15.2144 20.635C14.3013 20.526 13.3756 20.6078 12.4958 20.8751C11.6159 21.1424 10.8012 21.5894 10.103 22.188C9.40477 22.7865 8.83829 23.5237 8.43948 24.3525L4.01465 33.588L69.588 71.4576L65.9459 56.4056C65.3693 54.0405 64.3262 51.8145 62.8778 49.8581C61.4295 47.9017 59.605 46.2544 57.5116 45.0128V45.0128Z" fill="#FFD93C"/>
<path opacity="0.8" d="M8.4873 32.198L11.5224 25.8065C11.7837 25.2578 12.196 24.795 12.7109 24.4724C13.2258 24.1497 13.822 23.9806 14.4296 23.9849C14.9915 23.9951 15.5415 24.1492 16.027 24.4324L55.7223 47.937C57.419 48.9497 58.8984 50.2888 60.0746 51.8768C61.2509 53.4648 62.1007 55.2702 62.5752 57.1887L64.3323 64.4431L8.4873 32.198Z" fill="white"/>
<path d="M127.75 86.6852V67.1433C127.721 66.7828 127.612 66.4333 127.43 66.1206V66.1206C127.24 65.7665 126.966 65.4647 126.632 65.2419V65.2419L104.667 51.4843L69.6524 71.4577L4.0791 33.588L90.0193 111.117C91.0241 110.941 91.9429 110.439 92.6332 109.688C93.3235 108.937 93.7466 107.979 93.8369 106.962V107.985L127.75 86.6852Z" fill="#FFE163"/>
<path opacity="0.8" d="M102.479 50.0302L70.6904 68.2299L67.4956 55.3032C67.4349 55.056 67.4567 54.7957 67.5576 54.562C67.6586 54.3283 67.8332 54.134 68.0549 54.0089L89.7315 41.6094V41.9131L102.479 50.0302Z" fill="white"/>
<path opacity="0.6" d="M102.478 50.0302L89.6992 41.913V41.6093L97.3189 37.2472C97.4723 37.1576 97.6443 37.1041 97.8215 37.0912C97.9988 37.0782 98.1767 37.106 98.3416 37.1723C98.5065 37.2386 98.6541 37.3416 98.7731 37.4737C98.8921 37.6057 98.9792 37.7634 99.028 37.9344L102.478 50.0302Z" fill="white"/>
<path d="M100.289 92.9649C101.104 92.4855 101.775 92.8691 101.775 93.8118V96.1766C101.753 96.6895 101.608 97.1896 101.353 97.6347C101.097 98.0797 100.738 98.4564 100.305 98.7332L96.6632 100.842C95.8326 101.322 95.1777 100.938 95.1777 99.9956V97.6308C95.1986 97.1137 95.3446 96.6093 95.6034 96.1612C95.8622 95.7131 96.2259 95.3347 96.6632 95.0582L100.289 92.9649Z" fill="white"/>
<path d="M125.018 79.8785C125.833 79.3991 126.504 79.7825 126.504 80.7252V83.09C126.482 83.6029 126.337 84.103 126.081 84.548C125.825 84.9931 125.466 85.37 125.034 85.6468L121.392 87.7559C120.577 88.2352 119.906 87.8517 119.906 86.909V84.5441C119.93 84.0298 120.077 83.5287 120.336 83.0836C120.594 82.6385 120.957 82.2625 121.392 81.9876L125.018 79.8785Z" fill="white"/>
<path d="M105.034 91.5748C105.354 91.399 105.593 91.5747 105.609 91.8942V95.2499C105.599 95.4448 105.543 95.6346 105.446 95.8039C105.349 95.9732 105.213 96.1173 105.05 96.2246C104.731 96.4164 104.491 96.2245 104.491 95.9049V92.5494C104.503 92.3567 104.558 92.1692 104.652 92.0006C104.746 91.8319 104.877 91.6864 105.034 91.5748V91.5748Z" fill="#1D3044"/>
<path d="M108.037 89.8332C108.357 89.6415 108.596 89.8331 108.612 90.1527V93.5082C108.601 93.7028 108.544 93.8922 108.447 94.0613C108.35 94.2304 108.215 94.3746 108.053 94.4828C107.75 94.6586 107.494 94.4829 107.494 94.1634V90.8079C107.503 90.6144 107.556 90.4255 107.651 90.2563C107.745 90.0871 107.877 89.9423 108.037 89.8332V89.8332Z" fill="#1D3044"/>
<path d="M111.04 88.0913C111.36 87.9155 111.599 88.0914 111.615 88.4109V91.7664C111.609 91.9622 111.555 92.1536 111.457 92.3235C111.36 92.4934 111.222 92.6367 111.056 92.7411C110.753 92.9169 110.497 92.7412 110.497 92.4216V89.0661C110.507 88.8729 110.561 88.6845 110.655 88.5155C110.749 88.3465 110.881 88.2012 111.04 88.0913Z" fill="#1D3044"/>
<path d="M114.044 86.3658C114.364 86.174 114.603 86.3657 114.619 86.6853V90.0409C114.609 90.2359 114.553 90.4256 114.456 90.5949C114.359 90.7642 114.223 90.9083 114.06 91.0156C113.757 91.1914 113.501 91.0155 113.501 90.6799V87.3404C113.51 87.1469 113.563 86.9582 113.657 86.789C113.752 86.6198 113.884 86.4748 114.044 86.3658Z" fill="#1D3044"/>
<path d="M117.047 84.624C117.366 84.4483 117.622 84.624 117.622 84.9435V88.299C117.616 88.4948 117.561 88.6862 117.464 88.8561C117.366 89.026 117.229 89.1695 117.063 89.2739C116.759 89.4496 116.504 89.2738 116.504 88.9542V85.5987C116.514 85.4055 116.568 85.2171 116.662 85.0481C116.756 84.8791 116.888 84.734 117.047 84.624V84.624Z" fill="#1D3044"/>
<path d="M93.8358 91.463V106.563V106.659C93.8142 107.731 93.4197 108.763 92.7201 109.577C92.0204 110.391 91.0596 110.935 90.0022 111.117C88.9375 111.314 87.8373 111.121 86.9032 110.573L7.4965 64.7145C6.42876 64.0941 5.54332 63.2034 4.92919 62.1318C4.31506 61.0603 3.99381 59.8459 3.99809 58.6107V33.588L88.6603 82.467C90.2392 83.377 91.5497 84.6883 92.4586 86.2682C93.3675 87.848 93.8426 89.6402 93.8358 91.463V91.463Z" fill="#FFD93C"/>
<path d="M128.787 85.9662L128.101 85.5668C128.325 85.4306 128.56 85.313 128.803 85.2153L129.49 85.6308C129.246 85.7193 129.01 85.8317 128.787 85.9662" fill="#DEBE34"/>
<path d="M96.0892 104.853L95.4023 104.454L128.101 85.5668L128.788 85.9663L96.0892 104.853Z" fill="#DEBE34"/>
<path d="M93.1335 114.744L92.4465 114.344C92.0259 114.043 91.6923 113.637 91.4791 113.165C91.266 112.694 91.1808 112.175 91.2324 111.66C91.3468 109.219 92.4206 106.922 94.2198 105.268L94.9065 105.668C93.1172 107.328 92.0456 109.621 91.9194 112.059C91.871 112.574 91.9577 113.092 92.1706 113.563C92.3835 114.034 92.7153 114.441 93.1335 114.744" fill="#DEBE34"/>
<path d="M94.9065 105.716L94.2197 105.316C94.5744 104.985 94.9656 104.696 95.3858 104.454L96.0886 104.853C95.661 105.092 95.2641 105.381 94.9065 105.716Z" fill="#DEBE34"/>
<path d="M131.934 91.7345C131.943 91.8836 131.943 92.033 131.934 92.182C131.433 93.101 130.791 93.9366 130.033 94.6588C129.664 94.9994 129.263 95.3043 128.835 95.5695L96.1207 114.44C93.8205 115.783 91.9515 114.712 91.9355 112.059C92.0116 110.614 92.4291 109.207 93.1539 107.955C93.8786 106.702 94.8898 105.639 96.1047 104.853L121.376 90.2646L128.803 85.9663L129.283 85.7105C130.874 87.3263 131.817 89.4696 131.934 91.7345V91.7345Z" fill="#FFD93C"/>
<path d="M83.7881 102.025L84.4909 101.625C84.9209 101.413 85.3989 101.315 85.8779 101.343C86.3568 101.371 86.8203 101.524 87.2226 101.785L86.5356 102.185C86.1286 101.928 85.6631 101.778 85.1825 101.75C84.702 101.722 84.2221 101.817 83.7881 102.025" fill="#DEBE34"/>
<path d="M86.5352 102.185L87.2221 101.785L87.4616 101.913L86.7588 102.312L86.5352 102.185Z" fill="#DEBE34"/>
<path d="M86.7754 102.312L87.4623 101.913L92.7177 104.949L92.0308 105.348L86.7754 102.312Z" fill="#DEBE34"/>
<path d="M92.0312 105.348L92.7182 104.949C93.5915 105.476 94.3516 106.171 94.9546 106.994L94.2676 107.41C93.6656 106.582 92.9055 105.881 92.0312 105.348" fill="#DEBE34"/>
<path d="M94.2676 107.41L94.9545 106.994C96.1238 108.468 96.7949 110.275 96.8714 112.155C96.923 112.67 96.838 113.189 96.6249 113.661C96.4117 114.132 96.0779 114.539 95.6573 114.84L94.9705 115.239C95.3911 114.938 95.7248 114.531 95.9379 114.06C96.1511 113.589 96.2362 113.07 96.1846 112.555C96.1026 110.681 95.4317 108.88 94.2676 107.41" fill="#DEBE34"/>
<path d="M92.0307 105.348C93.2408 106.138 94.2478 107.202 94.9695 108.455C95.6911 109.707 96.1073 111.112 96.1841 112.555C96.1841 115.207 94.2992 116.278 91.9989 114.952L86.7434 111.9C85.5285 111.114 84.5173 110.051 83.7925 108.798C83.0678 107.545 82.6503 106.139 82.5742 104.693C82.5742 102.057 84.4591 100.986 86.7594 102.312L92.0307 105.348Z" fill="#FFD93C"/>
<path d="M1.47461 54.1047L2.16158 53.7053C2.59563 53.4971 3.07524 53.4025 3.55579 53.4304C4.03635 53.4584 4.50206 53.6079 4.90906 53.865L4.2061 54.2645C3.80209 54.0073 3.33926 53.8577 2.86122 53.8297C2.38318 53.8017 1.90583 53.8965 1.47461 54.1047" fill="#DEBE34"/>
<path d="M4.22168 54.2645L4.92464 53.8651L5.1483 53.9928L4.46133 54.3923L4.22168 54.2645Z" fill="#DEBE34"/>
<path d="M4.46191 54.3924L5.1488 53.9929L10.4202 57.0288L9.71736 57.4283L4.46191 54.3924Z" fill="#DEBE34"/>
<path d="M9.7168 57.4283L10.4036 57.0288C11.2826 57.5611 12.048 58.2616 12.656 59.0902L11.969 59.4896C11.361 58.661 10.5958 57.9605 9.7168 57.4283" fill="#DEBE34"/>
<path d="M11.9688 59.4896L12.6557 59.0901C13.8132 60.5645 14.4831 62.3627 14.5725 64.2352C14.6224 64.7514 14.535 65.2717 14.319 65.7432C14.103 66.2146 13.7662 66.6204 13.3427 66.9196L12.6557 67.319C13.0787 67.0203 13.4143 66.614 13.6278 66.1421C13.8412 65.6701 13.9247 65.1498 13.8698 64.6347C13.7945 62.762 13.1291 60.9612 11.9688 59.4896" fill="#DEBE34"/>
<path d="M9.71706 57.4283C10.9272 58.2181 11.934 59.2822 12.6556 60.5344C13.3773 61.7865 13.7934 63.1915 13.8703 64.6348C13.8703 67.2872 11.9853 68.3578 9.68508 67.0316L4.42957 63.9956C3.21942 63.2058 2.21265 62.1417 1.49099 60.8895C0.769334 59.6374 0.353192 58.2325 0.276367 56.7892C0.276367 54.1367 2.14532 53.0661 4.46155 54.3924L9.71706 57.4283Z" fill="#FFD93C"/>
<path d="M15.2285 47.9206L15.4522 47.7926C15.6065 47.7242 15.7761 47.697 15.9441 47.7138C16.1122 47.7306 16.2728 47.7909 16.4106 47.8886L16.1869 48.0163C16.0492 47.9187 15.8885 47.8586 15.7205 47.8418C15.5525 47.825 15.3829 47.8521 15.2285 47.9206V47.9206Z" fill="#D4B432"/>
<path d="M15.2285 47.9211L15.4522 47.7931C15.5857 47.716 15.7373 47.6755 15.8915 47.6755C16.0457 47.6755 16.1973 47.716 16.3308 47.7931L16.1072 47.9211C15.9722 47.8484 15.8212 47.8103 15.6678 47.8103C15.5145 47.8103 15.3635 47.8484 15.2285 47.9211" fill="#D4B432"/>
<path d="M16.1074 47.9848L16.3311 47.8571L16.1074 47.9848Z" fill="#D4B432"/>
<path d="M16.1865 48.0168L16.4102 47.889L18.1034 48.8637L17.8798 48.9915L16.1865 48.0168Z" fill="#D4B432"/>
<path d="M19.046 52.0435L18.8223 52.1712C18.9576 52.075 19.0647 51.9442 19.1321 51.7925C19.1996 51.6407 19.2249 51.4735 19.2057 51.3085C19.1806 50.8457 19.0476 50.395 18.8174 49.9927C18.5872 49.5904 18.2662 49.2475 17.8799 48.9915L18.0876 48.8637C18.4786 49.1161 18.8041 49.4577 19.0374 49.8605C19.2706 50.2633 19.405 50.7157 19.4293 51.1806C19.4486 51.3456 19.4232 51.5127 19.3558 51.6645C19.2884 51.8163 19.1813 51.9472 19.046 52.0435V52.0435Z" fill="#D4B432"/>
<path d="M17.8799 48.9915L18.0876 48.8637C18.3721 49.0331 18.6215 49.2555 18.8223 49.5189L18.5986 49.6627C18.4044 49.3948 18.1604 49.1669 17.8799 48.9915" fill="#D4B432"/>
<path d="M18.5986 49.6627L18.8223 49.5189C19.1775 49.9801 19.3887 50.536 19.4293 51.1168C19.4486 51.2818 19.4232 51.4489 19.3558 51.6007C19.2884 51.7525 19.1813 51.8833 19.046 51.9795L18.8223 52.1075C18.9576 52.0112 19.0647 51.8803 19.1321 51.7285C19.1996 51.5767 19.2249 51.4095 19.2057 51.2445C19.1709 50.6625 18.9591 50.105 18.5986 49.6467" fill="#D4B432"/>
<path d="M17.8798 48.9914C18.2661 49.2475 18.5871 49.5903 18.8174 49.9926C19.0476 50.3949 19.1805 50.8456 19.2056 51.3085C19.2056 52.1553 18.5986 52.5068 17.8638 52.0754L16.1705 51.1007C15.7815 50.8475 15.4584 50.5054 15.2279 50.1025C14.9973 49.6996 14.866 49.2474 14.8447 48.7837C14.8447 47.9368 15.4357 47.5853 16.1865 48.0168L17.8798 48.9914Z" fill="#D4B432"/>
<path d="M39.3652 60.9271L39.5889 60.7993C39.7433 60.7309 39.9128 60.7037 40.0809 60.7205C40.2489 60.7373 40.4095 60.7976 40.5473 60.8953L40.3236 61.0231C40.1859 60.9254 40.0252 60.8651 39.8572 60.8483C39.6892 60.8315 39.5196 60.8586 39.3652 60.9271V60.9271Z" fill="#D4B432"/>
<path d="M39.3652 60.9276L39.5889 60.7998C39.7234 60.7257 39.8746 60.6869 40.0282 60.6869C40.1818 60.6869 40.333 60.7257 40.4675 60.7998L40.2439 60.9436C40.1089 60.8708 39.9579 60.8328 39.8046 60.8328C39.6512 60.8328 39.5002 60.8708 39.3652 60.9436" fill="#D4B432"/>
<path d="M40.2441 60.9915L40.4678 60.8478L40.2441 60.9755" fill="#D4B432"/>
<path d="M40.3232 61.0235L40.5469 60.8957L42.2401 61.8704L42.0165 61.9982L40.3232 61.0235Z" fill="#D4B432"/>
<path d="M43.1827 65.0502L42.959 65.1779C43.0944 65.0817 43.2014 64.9507 43.2689 64.7989C43.3363 64.6471 43.3616 64.48 43.3424 64.315C43.3173 63.8522 43.1843 63.4017 42.9541 62.9994C42.7239 62.5971 42.4029 62.2542 42.0166 61.9982L42.2403 61.8704C42.6266 62.1264 42.9476 62.4693 43.1778 62.8716C43.408 63.2739 43.541 63.7244 43.566 64.1873C43.582 64.3519 43.5552 64.518 43.488 64.6692C43.4209 64.8204 43.3156 64.9517 43.1827 65.0502V65.0502Z" fill="#D4B432"/>
<path d="M42.0166 61.9982L42.2403 61.8704C42.5167 62.0446 42.76 62.2662 42.959 62.5254L42.7353 62.6534C42.5363 62.3942 42.293 62.1723 42.0166 61.9982" fill="#D4B432"/>
<path d="M42.7354 62.6534L42.959 62.5254C43.3142 62.9866 43.5254 63.5425 43.566 64.1233C43.582 64.288 43.5552 64.4541 43.488 64.6053C43.4209 64.7565 43.3156 64.8877 43.1827 64.9862L42.959 65.114C43.0944 65.0177 43.2014 64.887 43.2689 64.7352C43.3363 64.5834 43.3616 64.4162 43.3424 64.2512C43.3018 63.6704 43.0906 63.1146 42.7354 62.6534" fill="#D4B432"/>
<path d="M42.0165 61.9981C42.4029 62.2541 42.7239 62.597 42.9541 62.9993C43.1843 63.4016 43.3173 63.8521 43.3423 64.3149C43.3423 65.1618 42.7354 65.5135 42.0006 65.0821L40.3074 64.1074C39.9211 63.8514 39.5999 63.5085 39.3697 63.1062C39.1395 62.7039 39.0065 62.2532 38.9814 61.7904C38.9814 60.9435 39.5884 60.592 40.3232 61.0234L42.0165 61.9981Z" fill="#D4B432"/>
<path d="M16.1711 71.2819L23.0879 67.2712C22.4657 67.7105 21.9719 68.3078 21.6574 69.0015C21.343 69.6953 21.2192 70.4604 21.2988 71.2179C21.4084 73.3503 22.0213 75.4263 23.0875 77.2761C24.1537 79.1258 25.6428 80.6966 27.4328 81.8598L20.5161 85.8705C18.7262 84.7073 17.2371 83.1365 16.1709 81.2867C15.1047 79.437 14.4916 77.3609 14.382 75.2286C14.304 74.4712 14.4286 73.7066 14.7429 73.0132C15.0573 72.3197 15.5501 71.7223 16.1711 71.2819" fill="#2E373D"/>
<path d="M18.6309 75.5001L25.5318 71.4897C25.2595 71.6814 25.0431 71.9425 24.9055 72.2459C24.7679 72.5493 24.7138 72.884 24.7489 73.2153C24.7995 74.1508 25.0705 75.0611 25.5396 75.8719C26.0088 76.6827 26.6629 77.3713 27.4486 77.8811L20.532 81.8916C19.7466 81.3852 19.0922 80.6998 18.623 79.8915C18.1537 79.0833 17.8827 78.1753 17.8322 77.2419C17.7976 76.9067 17.8534 76.5683 17.9939 76.262C18.1344 75.9557 18.3544 75.6925 18.6309 75.5001" fill="#C3C3C3"/>
<path d="M18.6309 75.5001L25.5318 71.4897C25.2595 71.6814 25.0431 71.9425 24.9055 72.2459C24.7679 72.5493 24.7138 72.884 24.7489 73.2153C24.7995 74.1508 25.0705 75.0611 25.5396 75.8719C26.0088 76.6827 26.6629 77.3713 27.4486 77.8811L20.532 81.8916C19.7466 81.3852 19.0922 80.6998 18.623 79.8915C18.1537 79.0833 17.8827 78.1753 17.8322 77.2419C17.7976 76.9067 17.8534 76.5683 17.9939 76.262C18.1344 75.9557 18.3544 75.6925 18.6309 75.5001" fill="#C3C3C3"/>
<path d="M20.5322 81.8916L27.4489 77.8811C27.7237 78.078 28.0454 78.1992 28.3818 78.2328C28.7181 78.2665 29.0573 78.2114 29.3657 78.0729L22.449 82.0835C22.1414 82.2253 21.8015 82.2823 21.4645 82.2486C21.1275 82.2148 20.8057 82.0915 20.5322 81.8916Z" fill="#C3C3C3"/>
<path d="M16.1711 71.2819L23.0879 67.2712C22.4657 67.7105 21.9719 68.3078 21.6574 69.0015C21.343 69.6953 21.2192 70.4604 21.2988 71.2179C21.4084 73.3503 22.0213 75.4263 23.0875 77.2761C24.1537 79.1258 25.6428 80.6966 27.4328 81.8598L20.5161 85.8705C18.7262 84.7073 17.2371 83.1365 16.1709 81.2867C15.1047 79.437 14.4916 77.3609 14.382 75.2286C14.304 74.4712 14.4286 73.7066 14.7429 73.0132C15.0573 72.3197 15.5501 71.7223 16.1711 71.2819" fill="#2E373D"/>
<path d="M18.6309 75.5001L25.5317 71.4897C25.841 71.3431 26.1841 71.2835 26.5247 71.3172C26.8652 71.351 27.1901 71.477 27.4645 71.6814L20.5477 75.6921C20.2742 75.4922 19.9524 75.3688 19.6154 75.3351C19.2784 75.3014 18.9385 75.3584 18.6309 75.5001Z" fill="#2E373D"/>
<path d="M20.5479 75.692L27.4647 71.6814C28.2472 72.1896 28.8981 72.8758 29.3646 73.684C29.831 74.4921 30.0995 75.3991 30.1482 76.331C30.1813 76.6644 30.1265 77.0007 29.9891 77.3063C29.8518 77.6119 29.6367 77.8762 29.3655 78.0728L22.4489 82.0835C22.7188 81.8894 22.9332 81.628 23.0705 81.3251C23.2078 81.0223 23.2633 80.6887 23.2316 80.3577C23.1866 79.4227 22.9198 78.512 22.4531 77.7007C21.9865 76.8893 21.3333 76.2008 20.5479 75.692" fill="#2E373D"/>
<path d="M20.6436 71.7132L27.5442 67.6867C29.3372 68.8481 30.8294 70.4181 31.8985 72.2679C32.9675 74.1177 33.583 76.1946 33.6944 78.3284C33.7686 79.0893 33.6406 79.8564 33.3237 80.5522C33.0068 81.2479 32.5121 81.8477 31.8893 82.2911L24.9884 86.3017C25.6094 85.8613 26.1022 85.2639 26.4166 84.5704C26.7309 83.877 26.8555 83.1124 26.7775 82.355C26.6679 80.2227 26.055 78.1466 24.9888 76.2969C23.9226 74.4472 22.4335 72.8764 20.6436 71.7132" fill="#C3C3C3"/>
<path d="M20.6436 71.7131C22.4335 72.8763 23.9227 74.4471 24.9888 76.2968C26.055 78.1466 26.6679 80.2226 26.7775 82.355C26.7775 86.2698 23.9981 87.8358 20.5956 85.8704C18.8056 84.7072 17.3165 83.1364 16.2503 81.2867C15.1841 79.437 14.5712 77.3609 14.4616 75.2285C14.3818 71.3297 17.1612 69.7477 20.6436 71.7131ZM20.6436 81.8915C22.1292 82.7544 23.3431 82.0673 23.3431 80.2937C23.2981 79.3587 23.0313 78.448 22.5647 77.6367C22.098 76.8253 21.445 76.1368 20.6596 75.628C19.174 74.7652 17.96 75.4522 17.9441 77.2259C17.9945 78.1592 18.2655 79.0672 18.7348 79.8755C19.204 80.6837 19.8582 81.3693 20.6436 81.8757" fill="#B8B8B8"/>
<path d="M20.5475 75.6921C21.333 76.2009 21.9862 76.8894 22.4528 77.7007C22.9195 78.512 23.1863 79.4228 23.2312 80.3577C23.2312 82.0674 22.0173 82.7545 20.5317 81.9556C19.7463 81.4492 19.092 80.7638 18.6227 79.9555C18.1535 79.1472 17.8825 78.2391 17.832 77.3057C17.848 75.596 19.046 74.8292 20.5475 75.6921Z" fill="#2B343A"/>
<path d="M16.1709 71.2818L23.0878 67.2712C23.7883 66.9448 24.5632 66.8112 25.3326 66.8842C26.1019 66.9572 26.8379 67.2343 27.4646 67.6866L20.5638 71.7131C19.9368 71.2552 19.1988 70.9738 18.4262 70.898C17.6537 70.8221 16.8749 70.9547 16.1709 71.2818Z" fill="#C3C3C3"/>
<path d="M14.3652 68.166L21.2821 64.1554C22.2749 63.6923 23.3738 63.5044 24.464 63.6112C25.5543 63.718 26.5959 64.1156 27.48 64.7626L20.5632 68.7732C19.6762 68.1325 18.6353 67.7387 17.5464 67.632C16.4575 67.5253 15.3596 67.7096 14.3652 68.166" fill="#1B2024"/>
<path d="M20.6436 68.7731L27.5602 64.7625C30.0894 66.4078 32.1947 68.6273 33.7047 71.24C35.2147 73.8527 36.0868 76.785 36.2502 79.7985C36.3538 80.8716 36.1738 81.953 35.728 82.9345C35.2822 83.9161 34.5865 84.7632 33.7104 85.391L26.7935 89.4177C27.672 88.7921 28.3698 87.9453 28.8158 86.9632C29.2618 85.981 29.4403 84.8985 29.3333 83.8252C29.1724 80.8089 28.3017 77.8734 26.7916 75.2577C25.2815 72.642 23.1748 70.4201 20.6436 68.7731" fill="#1B2024"/>
<path d="M20.6438 68.7732C23.1751 70.4201 25.2817 72.642 26.7918 75.2577C28.3019 77.8734 29.1727 80.8089 29.3335 83.8252C29.3335 89.3538 25.404 91.5908 20.5958 88.8105C18.0645 87.1636 15.9581 84.9417 14.448 82.326C12.9379 79.7103 12.0669 76.7748 11.906 73.7585C11.8421 68.2299 15.7557 66.0089 20.6438 68.7732ZM20.6438 85.8705C24.0462 87.8359 26.8097 86.2699 26.8257 82.3551C26.7161 80.2227 26.1032 78.1467 25.037 76.2969C23.9708 74.4472 22.4817 72.8764 20.6917 71.7132C17.2893 69.7478 14.5098 71.3298 14.5098 75.2286C14.6194 77.361 15.2323 79.4371 16.2985 81.2868C17.3647 83.1365 18.8538 84.7073 20.6438 85.8705" fill="#2B343A"/>
<path d="M59.1249 95.266L66.0418 91.2393C65.4203 91.6838 64.9263 92.2837 64.6096 92.9792C64.2928 93.6746 64.1642 94.4412 64.2367 95.202C64.3544 97.3321 64.9724 99.4045 66.041 101.251C67.1096 103.097 68.5985 104.665 70.3867 105.828L63.47 109.854C61.6806 108.689 60.1912 107.118 59.1226 105.269C58.054 103.42 57.4363 101.345 57.3199 99.2126C57.2486 98.4543 57.3778 97.6903 57.6946 96.9976C58.0114 96.3049 58.5047 95.7079 59.1249 95.266" fill="#2E373D"/>
<path d="M61.5688 99.5641L68.4854 95.5374C68.213 95.7329 67.9972 95.997 67.8597 96.3028C67.7222 96.6087 67.6681 96.9455 67.7027 97.2791C67.7514 98.211 68.02 99.1182 68.4864 99.9263C68.9528 100.734 69.604 101.421 70.3864 101.929L63.4698 105.956C62.6879 105.443 62.0375 104.754 61.5713 103.943C61.1051 103.132 60.8361 102.224 60.7861 101.29C60.7543 100.959 60.8098 100.625 60.9471 100.322C61.0845 100.02 61.2988 99.7582 61.5688 99.5641" fill="#C3C3C3"/>
<path d="M61.5688 99.5641L68.4854 95.5374C68.213 95.7329 67.9972 95.997 67.8597 96.3028C67.7222 96.6087 67.6681 96.9455 67.7027 97.2791C67.7514 98.211 68.02 99.1182 68.4864 99.9263C68.9528 100.734 69.604 101.421 70.3864 101.929L63.4698 105.956C62.6879 105.443 62.0375 104.754 61.5713 103.943C61.1051 103.132 60.8361 102.224 60.7861 101.29C60.7543 100.959 60.8098 100.625 60.9471 100.322C61.0845 100.02 61.2988 99.7582 61.5688 99.5641" fill="#C3C3C3"/>
<path d="M63.4697 105.956L70.3864 101.929C70.663 102.129 70.9876 102.252 71.3271 102.285C71.6665 102.319 72.0088 102.262 72.3192 102.121L65.4025 106.147C65.0921 106.289 64.7497 106.346 64.4102 106.312C64.0707 106.278 63.7463 106.155 63.4697 105.956" fill="#C3C3C3"/>
<path d="M59.1249 95.266L66.0418 91.2393C65.4203 91.6838 64.9263 92.2837 64.6096 92.9792C64.2928 93.6746 64.1642 94.4412 64.2367 95.202C64.3544 97.3321 64.9724 99.4045 66.041 101.251C67.1096 103.097 68.5985 104.665 70.3867 105.828L63.47 109.854C61.6806 108.689 60.1912 107.118 59.1226 105.269C58.054 103.42 57.4363 101.345 57.3199 99.2126C57.2486 98.4543 57.3778 97.6903 57.6946 96.9976C58.0114 96.3049 58.5047 95.7079 59.1249 95.266" fill="#2E373D"/>
<path d="M61.5684 99.5642L68.485 95.5375C68.7934 95.399 69.1328 95.3439 69.4692 95.3776C69.8055 95.4112 70.1272 95.5324 70.402 95.7292L63.5011 99.7559C63.2246 99.5562 62.9002 99.4332 62.5607 99.3995C62.2212 99.3659 61.8788 99.4226 61.5684 99.5642" fill="#2E373D"/>
<path d="M63.501 99.6759L70.4019 95.6494C71.1876 96.1593 71.8417 96.8476 72.3109 97.6585C72.78 98.4693 73.0508 99.3796 73.1014 100.315C73.1365 100.646 73.0824 100.981 72.9448 101.284C72.8072 101.588 72.591 101.849 72.3187 102.041L65.402 106.067C65.6744 105.872 65.8903 105.608 66.0277 105.302C66.1652 104.996 66.2194 104.659 66.1847 104.326C66.1335 103.394 65.8639 102.488 65.3977 101.68C64.9315 100.873 64.2816 100.186 63.501 99.6759Z" fill="#2E373D"/>
<path d="M63.501 95.6972L70.4178 91.6707C72.2072 92.836 73.6967 94.4068 74.7653 96.2558C75.8338 98.1049 76.4514 100.18 76.5678 102.312C76.6391 103.071 76.5098 103.835 76.193 104.527C75.8762 105.22 75.383 105.817 74.7627 106.259L67.8461 110.286C68.4676 109.841 68.9615 109.241 69.2783 108.546C69.5951 107.85 69.7236 107.084 69.6511 106.323C69.5335 104.193 68.9152 102.121 67.8466 100.274C66.7781 98.428 65.2891 96.8599 63.501 95.6972" fill="#C3C3C3"/>
<path d="M63.5013 95.6971C65.2894 96.8598 66.7783 98.4279 67.8469 100.274C68.9155 102.12 69.5338 104.193 69.6514 106.323C69.6514 110.238 66.8719 111.82 63.4695 109.854C61.6801 108.689 60.1906 107.118 59.1221 105.269C58.0535 103.42 57.4358 101.345 57.3193 99.2125C57.3832 95.2978 60.0988 93.7317 63.5013 95.6971ZM63.5013 105.876C65.0028 106.738 66.217 106.051 66.217 104.278C66.1657 103.346 65.896 102.44 65.4298 101.633C64.9636 100.825 64.3139 100.138 63.5332 99.628C62.0317 98.7652 60.8177 99.4522 60.8177 101.226C60.8678 102.16 61.1368 103.068 61.603 103.879C62.0692 104.69 62.7194 105.379 63.5013 105.892" fill="#B8B8B8"/>
<path d="M63.5016 99.6758C64.2823 100.186 64.9321 100.873 65.3983 101.68C65.8646 102.488 66.1341 103.394 66.1853 104.326C66.1853 106.051 64.9714 106.738 63.4698 105.924C62.688 105.411 62.0376 104.722 61.5714 103.911C61.1052 103.1 60.8362 102.192 60.7861 101.258C60.7861 99.5641 62.0001 98.813 63.5016 99.6758Z" fill="#2B343A"/>
<path d="M59.124 95.2659L66.0409 91.2392C66.742 90.9118 67.5183 90.7791 68.2884 90.855C69.0585 90.9309 69.794 91.2126 70.4177 91.6707L63.5009 95.6971C62.8771 95.2391 62.1416 94.9573 61.3715 94.8814C60.6015 94.8055 59.8252 94.9384 59.124 95.2659" fill="#C3C3C3"/>
<path d="M57.3838 92.15L64.3005 88.1393C65.2923 87.6756 66.3902 87.4859 67.4801 87.5899C68.5699 87.6938 69.612 88.0877 70.4984 88.7305L63.5817 92.7572C61.1537 91.3671 58.9652 91.1593 57.3838 92.15" fill="#2E373D"/>
<path d="M63.5176 92.7572L70.4344 88.7305C72.9628 90.3792 75.066 92.6018 76.5733 95.2174C78.0805 97.833 78.9491 100.768 79.1082 103.783C79.2185 104.856 79.0415 105.94 78.5952 106.923C78.1489 107.905 77.4494 108.752 76.5684 109.375L69.6517 113.402C70.5327 112.778 71.232 111.932 71.6783 110.949C72.1246 109.967 72.3018 108.883 72.1915 107.809C72.0325 104.794 71.1639 101.86 69.6566 99.244C68.1493 96.6285 66.0459 94.4059 63.5176 92.7572" fill="#2E373D"/>
<path d="M63.517 92.7572C66.0454 94.4059 68.1488 96.6285 69.6561 99.2441C71.1633 101.86 72.0319 104.794 72.191 107.809C72.191 113.338 68.2774 115.559 63.4533 112.779C60.927 111.131 58.8249 108.911 57.3177 106.299C55.8106 103.686 54.9409 100.755 54.7793 97.7426C54.7953 92.2139 58.7089 89.9769 63.517 92.7572ZM63.517 109.854C66.9195 111.82 69.683 110.238 69.699 106.323C69.5813 104.193 68.9632 102.121 67.8947 100.274C66.8261 98.4281 65.3372 96.8599 63.549 95.6972C60.1465 93.7319 57.3831 95.2979 57.3671 99.2127C57.4835 101.345 58.101 103.42 59.1696 105.269C60.2382 107.118 61.7277 108.689 63.517 109.854" fill="#2B343A"/>
<path d="M34.9082 47.4576V68.7731C37.5917 72.7203 38.6449 77.5529 37.8474 82.2593" stroke="#D4B432" stroke-miterlimit="10"/>
</svg>
