<svg width="231" height="144" viewBox="0 0 231 144" fill="none" xmlns="http://www.w3.org/2000/svg">
<path d="M140.971 130.85L129.661 137.417L139.213 142.929L0 62.5406L11.3096 55.9574L0 62.5406L11.3735 69.1079L22.6831 62.5246L140.971 130.85Z" fill="white"/>
<path d="M101.323 16.8256L90.0135 23.3928L22.6831 62.5246L11.3735 69.1079L0 62.5406L11.3096 55.9574L89.9496 10.2583L101.323 16.8256Z" fill="white"/>
<path d="M219.611 85.1345L208.317 91.7017L90.0137 23.3928L101.323 16.8256L219.611 85.1345Z" fill="white"/>
<path d="M231 91.7177L141.051 144L139.214 142.929L129.661 137.417L140.971 130.85L208.317 91.7017L219.611 85.1345L231 91.7177Z" fill="white"/>
<path d="M89.1184 32.6285L88.4316 32.229C88.6544 32.0944 88.8897 31.9821 89.1344 31.8935L89.8374 32.293L89.1184 32.6285Z" fill="#9DAFBB"/>
<path d="M56.4363 51.5153L55.7334 51.1159L88.4482 32.229L89.135 32.6445L56.4363 51.5153Z" fill="#DEBE34"/>
<path d="M53.4809 61.4061L52.7939 61.0066C52.3709 60.7079 52.0355 60.3016 51.8221 59.8297C51.6086 59.3578 51.5249 58.8374 51.5799 58.3223C51.6883 55.8831 52.7565 53.5857 54.5512 51.9308L55.254 52.3303C54.3603 53.1468 53.6364 54.1314 53.1239 55.2282C52.6113 56.325 52.32 57.5123 52.2669 58.7218C52.2119 59.2368 52.2954 59.7572 52.5088 60.2292C52.7223 60.7011 53.0579 61.1074 53.4809 61.4061" fill="#DEBE34"/>
<path d="M55.2535 52.3941L54.5508 51.9946C54.9111 51.6589 55.3076 51.3642 55.7328 51.1159L56.4196 51.5154C56.003 51.7693 55.6124 52.0635 55.2535 52.3941Z" fill="#DEBE34"/>
<path d="M92.2652 38.4127C92.2732 38.5618 92.2732 38.7112 92.2652 38.8602C91.7784 39.7798 91.1412 40.6116 90.3802 41.321C90.0165 41.6758 89.6084 41.9818 89.1661 42.2317L56.4674 61.1186C54.1672 62.4608 52.2822 61.3902 52.2822 58.7218C52.3591 57.2785 52.7752 55.8736 53.4969 54.6214C54.2185 53.3692 55.2253 52.3051 56.4354 51.5154L81.7064 36.9268L89.1501 32.6285L89.6294 32.3887C91.2221 34.0018 92.1611 36.1479 92.2652 38.4127V38.4127Z" fill="#FFD93C"/>
<path d="M170.538 81.2038L171.225 80.8043C171.659 80.5955 172.14 80.5021 172.622 80.5328C173.103 80.5636 173.568 80.7176 173.973 80.9801L173.286 81.3796C172.88 81.1199 172.415 80.9675 171.934 80.9368C171.454 80.906 170.973 80.998 170.538 81.2038" fill="#0A3654"/>
<path d="M173.285 81.3795L173.972 80.98L174.196 81.1078L173.509 81.5072L173.285 81.3795Z" fill="#9DAFBB"/>
<path d="M173.525 81.5073L174.212 81.1078L179.468 84.1438L178.781 84.5433L173.525 81.5073Z" fill="#DEBE34"/>
<path d="M178.766 84.5432L179.468 84.1437C180.342 84.6702 181.102 85.3656 181.705 86.1891L181.018 86.5885C180.405 85.7687 179.64 85.0743 178.766 84.5432Z" fill="#DEBE34"/>
<path d="M181.018 86.5885L181.705 86.1891C182.869 87.6657 183.539 89.4712 183.621 91.3501C183.673 91.8649 183.588 92.3842 183.375 92.8556C183.162 93.3269 182.828 93.7336 182.407 94.0346L181.705 94.4341C182.127 94.1338 182.463 93.7277 182.679 93.2566C182.894 92.7854 182.983 92.2656 182.935 91.7496C182.843 89.8726 182.174 88.0699 181.018 86.5885" fill="#DEBE34"/>
<path d="M182.934 91.7496C182.942 91.8986 182.942 92.048 182.934 92.197C182.952 92.7661 182.773 93.324 182.426 93.7756C182.08 94.2272 181.587 94.5447 181.033 94.6738C180.238 94.765 179.437 94.5786 178.765 94.1464L173.493 91.1104C173.096 90.8674 172.722 90.5895 172.375 90.2797C172.199 90.1199 172.023 89.944 171.864 89.7682C170.345 88.174 169.45 86.0874 169.34 83.8882C169.34 81.2357 171.225 80.165 173.525 81.5072L178.78 84.5432C179.333 84.8656 179.839 85.2635 180.282 85.7256C181.873 87.3414 182.816 89.4847 182.934 91.7496V91.7496Z" fill="#DEBE34"/>
<path d="M117.952 50.1731L147.664 33.1558L152.6 50.3648L122.217 67.7337L117.952 50.1731Z" fill="#177ABF"/>
<path d="M143.383 26.0772L101.547 1.47C99.9104 0.517065 98.0502 0.0151062 96.1562 0.0151062C94.2622 0.0151062 92.402 0.517065 90.765 1.47L68.4014 14.5087C64.6417 16.6976 61.6257 19.9651 59.7436 23.8882L55.0791 33.6351L120.652 71.5048L155.54 51.5632L151.051 35.9362C149.863 31.7829 147.116 28.2501 143.383 26.0772V26.0772Z" fill="#FFE163"/>
<path d="M108.512 45.0279L68.8002 21.5233C68.008 21.0564 67.1274 20.7591 66.2144 20.6501C65.3013 20.5411 64.3756 20.6229 63.4958 20.8902C62.6159 21.1575 61.8012 21.6046 61.103 22.2031C60.4048 22.8016 59.8383 23.5388 59.4395 24.3676L55.0146 33.6031L120.588 71.4728L116.946 56.4208C116.369 54.0556 115.326 51.8296 113.878 49.8732C112.429 47.9168 110.605 46.2695 108.512 45.0279V45.0279Z" fill="#FFD93C"/>
<path opacity="0.8" d="M59.4873 32.2131L62.5224 25.8216C62.7837 25.2729 63.196 24.8101 63.7109 24.4875C64.2258 24.1648 64.822 23.9957 65.4296 24C65.9915 24.0103 66.5415 24.1643 67.027 24.4475L106.722 47.9521C108.419 48.9648 109.898 50.3039 111.075 51.8919C112.251 53.4799 113.101 55.2853 113.575 57.2038L115.332 64.4582L59.4873 32.2131Z" fill="white"/>
<path d="M178.75 86.7003V67.1584C178.721 66.7979 178.612 66.4484 178.43 66.1357V66.1357C178.24 65.7816 177.966 65.4799 177.632 65.257V65.257L155.667 51.4994L120.652 71.4728L55.0791 33.6031L141.019 111.132C142.024 110.956 142.943 110.454 143.633 109.703C144.324 108.952 144.747 107.994 144.837 106.977V108L178.75 86.7003Z" fill="#FFE163"/>
<path opacity="0.8" d="M153.479 50.0453L121.69 68.245L118.496 55.3183C118.435 55.0711 118.457 54.8108 118.558 54.5771C118.659 54.3434 118.833 54.1491 119.055 54.024L140.731 41.6245V41.9282L153.479 50.0453Z" fill="white"/>
<path opacity="0.6" d="M153.478 50.0453L140.699 41.9282V41.6245L148.319 37.2623C148.472 37.1727 148.644 37.1193 148.822 37.1063C148.999 37.0933 149.177 37.1211 149.342 37.1874C149.507 37.2537 149.654 37.3567 149.773 37.4888C149.892 37.6208 149.979 37.7785 150.028 37.9495L153.478 50.0453Z" fill="white"/>
<path d="M151.289 92.98C152.104 92.5007 152.775 92.8842 152.775 93.8269V96.1917C152.753 96.7046 152.608 97.2047 152.353 97.6498C152.097 98.0948 151.738 98.4716 151.305 98.7483L147.663 100.858C146.833 101.337 146.178 100.953 146.178 100.011V97.6459C146.199 97.1288 146.345 96.6245 146.603 96.1763C146.862 95.7282 147.226 95.3498 147.663 95.0733L151.289 92.98Z" fill="white"/>
<path d="M176.018 79.8936C176.833 79.4142 177.504 79.7976 177.504 80.7403V83.1051C177.482 83.618 177.337 84.1181 177.081 84.5632C176.825 85.0082 176.466 85.3851 176.034 85.6619L172.392 87.771C171.577 88.2503 170.906 87.8668 170.906 86.9241V84.5593C170.93 84.0449 171.077 83.5438 171.336 83.0987C171.594 82.6536 171.957 82.2776 172.392 82.0027L176.018 79.8936Z" fill="white"/>
<path d="M156.034 91.5899C156.354 91.4141 156.593 91.5898 156.609 91.9094V95.265C156.599 95.4599 156.543 95.6497 156.446 95.819C156.349 95.9883 156.213 96.1324 156.05 96.2397C155.731 96.4315 155.491 96.2396 155.491 95.92V92.5645C155.503 92.3718 155.558 92.1843 155.652 92.0157C155.746 91.847 155.877 91.7015 156.034 91.5899V91.5899Z" fill="#1D3044"/>
<path d="M159.037 89.8483C159.357 89.6566 159.596 89.8482 159.612 90.1678V93.5233C159.601 93.7179 159.544 93.9073 159.447 94.0764C159.35 94.2456 159.215 94.3897 159.053 94.498C158.75 94.6737 158.494 94.498 158.494 94.1785V90.823C158.503 90.6295 158.556 90.4406 158.651 90.2714C158.745 90.1022 158.877 89.9574 159.037 89.8483V89.8483Z" fill="#1D3044"/>
<path d="M162.04 88.1064C162.36 87.9306 162.599 88.1065 162.615 88.4261V91.7815C162.609 91.9774 162.555 92.1687 162.457 92.3386C162.36 92.5085 162.222 92.6518 162.056 92.7562C161.753 92.932 161.497 92.7563 161.497 92.4367V89.0812C161.507 88.888 161.561 88.6996 161.655 88.5306C161.749 88.3616 161.881 88.2163 162.04 88.1064Z" fill="#1D3044"/>
<path d="M165.044 86.3809C165.364 86.1891 165.603 86.3808 165.619 86.7004V90.056C165.609 90.251 165.553 90.4407 165.456 90.61C165.359 90.7793 165.223 90.9234 165.06 91.0307C164.757 91.2065 164.501 91.0306 164.501 90.695V87.3555C164.51 87.162 164.563 86.9733 164.657 86.8041C164.752 86.6349 164.884 86.4899 165.044 86.3809Z" fill="#1D3044"/>
<path d="M168.047 84.6391C168.366 84.4634 168.622 84.6391 168.622 84.9586V88.3141C168.616 88.5099 168.561 88.7013 168.464 88.8712C168.366 89.0411 168.229 89.1846 168.063 89.289C167.759 89.4648 167.504 89.2889 167.504 88.9693V85.6138C167.514 85.4206 167.568 85.2322 167.662 85.0632C167.756 84.8942 167.888 84.7491 168.047 84.6391V84.6391Z" fill="#1D3044"/>
<path d="M144.836 91.4781V106.578V106.674C144.814 107.747 144.42 108.779 143.72 109.592C143.02 110.406 142.06 110.95 141.002 111.132C139.938 111.329 138.837 111.136 137.903 110.589L58.4965 64.7296C57.4288 64.1092 56.5433 63.2185 55.9292 62.1469C55.3151 61.0754 54.9938 59.861 54.9981 58.6258V33.6031L139.66 82.4821C141.239 83.3921 142.55 84.7034 143.459 86.2833C144.368 87.8632 144.843 89.6553 144.836 91.4781V91.4781Z" fill="#FFD93C"/>
<path d="M179.787 85.9814L179.101 85.5819C179.325 85.4457 179.56 85.3281 179.803 85.2304L180.49 85.6459C180.246 85.7344 180.01 85.8468 179.787 85.9814" fill="#DEBE34"/>
<path d="M147.089 104.868L146.402 104.469L179.101 85.5819L179.788 85.9814L147.089 104.868Z" fill="#DEBE34"/>
<path d="M144.133 114.759L143.446 114.36C143.026 114.058 142.692 113.652 142.479 113.18C142.266 112.709 142.181 112.19 142.232 111.675C142.347 109.234 143.421 106.937 145.22 105.284L145.907 105.683C144.117 107.343 143.046 109.636 142.919 112.074C142.871 112.589 142.958 113.107 143.171 113.578C143.383 114.049 143.715 114.456 144.133 114.759" fill="#DEBE34"/>
<path d="M145.907 105.731L145.22 105.332C145.574 105.001 145.966 104.711 146.386 104.469L147.089 104.868C146.661 105.107 146.264 105.397 145.907 105.731Z" fill="#DEBE34"/>
<path d="M182.934 91.7496C182.943 91.8987 182.943 92.0481 182.934 92.1971C182.433 93.1161 181.791 93.9517 181.033 94.6739C180.664 95.0145 180.263 95.3194 179.835 95.5846L147.121 114.456C144.82 115.798 142.952 114.727 142.936 112.074C143.012 110.629 143.429 109.222 144.154 107.97C144.879 106.717 145.89 105.654 147.105 104.868L172.376 90.2797L179.803 85.9814L180.283 85.7256C181.874 87.3414 182.817 89.4847 182.934 91.7496V91.7496Z" fill="#FFD93C"/>
<path d="M134.788 102.04L135.491 101.641C135.921 101.428 136.399 101.331 136.878 101.359C137.357 101.387 137.82 101.539 138.223 101.8L137.536 102.2C137.129 101.943 136.663 101.793 136.183 101.765C135.702 101.737 135.222 101.832 134.788 102.04" fill="#DEBE34"/>
<path d="M137.535 102.2L138.222 101.8L138.462 101.928L137.759 102.328L137.535 102.2Z" fill="#DEBE34"/>
<path d="M137.775 102.328L138.462 101.928L143.718 104.964L143.031 105.364L137.775 102.328Z" fill="#DEBE34"/>
<path d="M143.031 105.364L143.718 104.964C144.591 105.491 145.352 106.186 145.955 107.009L145.268 107.425C144.666 106.597 143.906 105.896 143.031 105.364" fill="#DEBE34"/>
<path d="M145.268 107.425L145.955 107.009C147.124 108.483 147.795 110.29 147.871 112.17C147.923 112.685 147.838 113.204 147.625 113.676C147.412 114.147 147.078 114.554 146.657 114.855L145.971 115.254C146.391 114.953 146.725 114.546 146.938 114.075C147.151 113.604 147.236 113.085 147.185 112.57C147.103 110.696 146.432 108.895 145.268 107.425" fill="#DEBE34"/>
<path d="M143.031 105.364C144.241 106.153 145.248 107.218 145.969 108.47C146.691 109.722 147.107 111.127 147.184 112.57C147.184 115.222 145.299 116.293 142.999 114.967L137.743 111.915C136.529 111.129 135.517 110.066 134.793 108.813C134.068 107.56 133.65 106.154 133.574 104.708C133.574 102.072 135.459 101.001 137.759 102.328L143.031 105.364Z" fill="#FFD93C"/>
<path d="M52.4746 54.1198L53.1616 53.7204C53.5956 53.5122 54.0752 53.4176 54.5558 53.4455C55.0363 53.4735 55.5021 53.623 55.9091 53.8801L55.2061 54.2796C54.8021 54.0224 54.3393 53.8728 53.8612 53.8448C53.3832 53.8168 52.9058 53.9116 52.4746 54.1198" fill="#DEBE34"/>
<path d="M55.2217 54.2797L55.9246 53.8802L56.1483 54.0079L55.4613 54.4074L55.2217 54.2797Z" fill="#DEBE34"/>
<path d="M55.4619 54.4075L56.1488 54.008L61.4202 57.044L60.7174 57.4434L55.4619 54.4075Z" fill="#DEBE34"/>
<path d="M60.7168 57.4434L61.4036 57.0439C62.2826 57.5762 63.048 58.2767 63.656 59.1053L62.969 59.5047C62.361 58.6762 61.5958 57.9756 60.7168 57.4434" fill="#DEBE34"/>
<path d="M62.9688 59.5047L63.6557 59.1053C64.8132 60.5796 65.4831 62.3778 65.5725 64.2503C65.6224 64.7666 65.535 65.2868 65.319 65.7583C65.103 66.2297 64.7662 66.6355 64.3427 66.9347L63.6557 67.3341C64.0787 67.0354 64.4143 66.6291 64.6278 66.1572C64.8412 65.6852 64.9247 65.1649 64.8698 64.6498C64.7945 62.7771 64.1291 60.9763 62.9688 59.5047" fill="#DEBE34"/>
<path d="M60.7171 57.4435C61.9272 58.2332 62.934 59.2973 63.6556 60.5495C64.3773 61.8016 64.7934 63.2066 64.8703 64.6499C64.8703 67.3023 62.9853 68.3729 60.6851 67.0467L55.4296 64.0107C54.2194 63.2209 53.2126 62.1568 52.491 60.9047C51.7693 59.6525 51.3532 58.2476 51.2764 56.8043C51.2764 54.1518 53.1453 53.0812 55.4615 54.4075L60.7171 57.4435Z" fill="#FFD93C"/>
<path d="M66.2285 47.9357L66.4522 47.8077C66.6065 47.7392 66.7761 47.7121 66.9441 47.7289C67.1122 47.7457 67.2728 47.806 67.4106 47.9037L67.1869 48.0314C67.0492 47.9337 66.8885 47.8737 66.7205 47.8569C66.5525 47.84 66.3829 47.8672 66.2285 47.9357V47.9357Z" fill="#D4B432"/>
<path d="M66.2285 47.9362L66.4522 47.8082C66.5857 47.7311 66.7373 47.6906 66.8915 47.6906C67.0457 47.6906 67.1973 47.7311 67.3308 47.8082L67.1072 47.9362C66.9722 47.8635 66.8212 47.8254 66.6678 47.8254C66.5145 47.8254 66.3635 47.8635 66.2285 47.9362" fill="#D4B432"/>
<path d="M67.1074 48L67.3311 47.8722L67.1074 48Z" fill="#D4B432"/>
<path d="M67.1865 48.0319L67.4102 47.9041L69.1034 48.8788L68.8798 49.0066L67.1865 48.0319Z" fill="#D4B432"/>
<path d="M70.046 52.0586L69.8223 52.1863C69.9576 52.0901 70.0647 51.9594 70.1321 51.8076C70.1996 51.6558 70.2249 51.4886 70.2057 51.3236C70.1806 50.8608 70.0476 50.4101 69.8174 50.0078C69.5872 49.6055 69.2662 49.2626 68.8799 49.0066L69.0876 48.8788C69.4786 49.1312 69.8041 49.4728 70.0374 49.8756C70.2706 50.2784 70.405 50.7308 70.4293 51.1957C70.4486 51.3607 70.4232 51.5278 70.3558 51.6796C70.2884 51.8314 70.1813 51.9623 70.046 52.0586V52.0586Z" fill="#D4B432"/>
<path d="M68.8799 49.0066L69.0876 48.8788C69.3721 49.0482 69.6215 49.2706 69.8223 49.534L69.5986 49.6778C69.4044 49.4099 69.1604 49.182 68.8799 49.0066" fill="#D4B432"/>
<path d="M69.5986 49.6778L69.8223 49.534C70.1775 49.9952 70.3887 50.5511 70.4293 51.1319C70.4486 51.2969 70.4232 51.464 70.3558 51.6158C70.2884 51.7676 70.1813 51.8984 70.046 51.9946L69.8223 52.1226C69.9576 52.0263 70.0647 51.8954 70.1321 51.7436C70.1996 51.5918 70.2249 51.4246 70.2057 51.2597C70.1709 50.6776 69.9591 50.1201 69.5986 49.6618" fill="#D4B432"/>
<path d="M68.8798 49.0065C69.2661 49.2626 69.5871 49.6055 69.8174 50.0078C70.0476 50.41 70.1805 50.8607 70.2056 51.3236C70.2056 52.1704 69.5986 52.5219 68.8638 52.0905L67.1705 51.1158C66.7815 50.8627 66.4584 50.5205 66.2279 50.1176C65.9973 49.7147 65.866 49.2626 65.8447 48.7988C65.8447 47.9519 66.4357 47.6004 67.1865 48.0319L68.8798 49.0065Z" fill="#D4B432"/>
<path d="M90.3652 60.9422L90.5889 60.8144C90.7433 60.746 90.9128 60.7188 91.0809 60.7356C91.2489 60.7525 91.4095 60.8127 91.5473 60.9104L91.3236 61.0382C91.1859 60.9405 91.0252 60.8802 90.8572 60.8634C90.6892 60.8466 90.5196 60.8737 90.3652 60.9422V60.9422Z" fill="#D4B432"/>
<path d="M90.3652 60.9427L90.5889 60.8149C90.7234 60.7408 90.8746 60.702 91.0282 60.702C91.1818 60.702 91.333 60.7408 91.4675 60.8149L91.2439 60.9587C91.1089 60.8859 90.9579 60.8479 90.8046 60.8479C90.6512 60.8479 90.5002 60.8859 90.3652 60.9587" fill="#D4B432"/>
<path d="M91.2441 61.0066L91.4678 60.8629L91.2441 60.9906" fill="#D4B432"/>
<path d="M91.3232 61.0386L91.5469 60.9108L93.2401 61.8855L93.0165 62.0133L91.3232 61.0386Z" fill="#D4B432"/>
<path d="M94.1827 65.0653L93.959 65.193C94.0944 65.0968 94.2014 64.9658 94.2689 64.814C94.3363 64.6623 94.3616 64.4951 94.3424 64.3301C94.3173 63.8673 94.1843 63.4168 93.9541 63.0145C93.7239 62.6122 93.4029 62.2693 93.0166 62.0133L93.2403 61.8855C93.6266 62.1415 93.9476 62.4844 94.1778 62.8867C94.408 63.289 94.541 63.7395 94.566 64.2024C94.582 64.3671 94.5552 64.5331 94.488 64.6843C94.4209 64.8355 94.3156 64.9668 94.1827 65.0653V65.0653Z" fill="#D4B432"/>
<path d="M93.0166 62.0133L93.2403 61.8855C93.5167 62.0597 93.76 62.2814 93.959 62.5405L93.7353 62.6685C93.5363 62.4093 93.293 62.1874 93.0166 62.0133" fill="#D4B432"/>
<path d="M93.7354 62.6685L93.959 62.5405C94.3142 63.0017 94.5254 63.5576 94.566 64.1384C94.582 64.3031 94.5552 64.4692 94.488 64.6204C94.4209 64.7716 94.3156 64.9028 94.1827 65.0013L93.959 65.1291C94.0944 65.0328 94.2014 64.9021 94.2689 64.7503C94.3363 64.5985 94.3616 64.4313 94.3424 64.2664C94.3018 63.6856 94.0906 63.1297 93.7354 62.6685" fill="#D4B432"/>
<path d="M93.0165 62.0132C93.4029 62.2692 93.7239 62.6121 93.9541 63.0144C94.1843 63.4167 94.3173 63.8672 94.3423 64.33C94.3423 65.1769 93.7354 65.5286 93.0006 65.0972L91.3074 64.1225C90.9211 63.8665 90.5999 63.5236 90.3697 63.1213C90.1395 62.719 90.0065 62.2683 89.9814 61.8055C89.9814 60.9586 90.5884 60.6071 91.3232 61.0385L93.0165 62.0132Z" fill="#D4B432"/>
<path d="M67.1711 71.297L74.0879 67.2863C73.4657 67.7256 72.9719 68.3229 72.6574 69.0167C72.343 69.7104 72.2192 70.4755 72.2988 71.233C72.4084 73.3654 73.0213 75.4414 74.0875 77.2912C75.1537 79.1409 76.6428 80.7117 78.4328 81.8749L71.5161 85.8856C69.7262 84.7224 68.2371 83.1516 67.1709 81.3018C66.1047 79.4521 65.4916 77.376 65.382 75.2437C65.304 74.4863 65.4286 73.7218 65.7429 73.0283C66.0573 72.3348 66.5501 71.7374 67.1711 71.297" fill="#2E373D"/>
<path d="M69.6309 75.5152L76.5318 71.5048C76.2595 71.6965 76.0431 71.9576 75.9055 72.261C75.7679 72.5644 75.7138 72.8991 75.7489 73.2304C75.7995 74.1659 76.0705 75.0762 76.5396 75.887C77.0088 76.6978 77.6629 77.3864 78.4486 77.8962L71.532 81.9067C70.7466 81.4003 70.0922 80.7149 69.623 79.9066C69.1537 79.0984 68.8827 78.1904 68.8322 77.257C68.7976 76.9218 68.8534 76.5834 68.9939 76.2771C69.1344 75.9708 69.3544 75.7077 69.6309 75.5152" fill="#C3C3C3"/>
<path d="M69.6309 75.5152L76.5318 71.5048C76.2595 71.6965 76.0431 71.9576 75.9055 72.261C75.7679 72.5644 75.7138 72.8991 75.7489 73.2304C75.7995 74.1659 76.0705 75.0762 76.5396 75.887C77.0088 76.6978 77.6629 77.3864 78.4486 77.8962L71.532 81.9067C70.7466 81.4003 70.0922 80.7149 69.623 79.9066C69.1537 79.0984 68.8827 78.1904 68.8322 77.257C68.7976 76.9218 68.8534 76.5834 68.9939 76.2771C69.1344 75.9708 69.3544 75.7077 69.6309 75.5152" fill="#C3C3C3"/>
<path d="M71.5322 81.9067L78.4489 77.8962C78.7237 78.0931 79.0454 78.2143 79.3818 78.2479C79.7181 78.2816 80.0573 78.2265 80.3657 78.088L73.449 82.0987C73.1414 82.2404 72.8015 82.2974 72.4645 82.2637C72.1275 82.23 71.8057 82.1066 71.5322 81.9067Z" fill="#C3C3C3"/>
<path d="M67.1711 71.297L74.0879 67.2863C73.4657 67.7256 72.9719 68.3229 72.6574 69.0167C72.343 69.7104 72.2192 70.4755 72.2988 71.233C72.4084 73.3654 73.0213 75.4414 74.0875 77.2912C75.1537 79.1409 76.6428 80.7117 78.4328 81.8749L71.5161 85.8856C69.7262 84.7224 68.2371 83.1516 67.1709 81.3018C66.1047 79.4521 65.4916 77.376 65.382 75.2437C65.304 74.4863 65.4286 73.7218 65.7429 73.0283C66.0573 72.3348 66.5501 71.7374 67.1711 71.297" fill="#2E373D"/>
<path d="M69.6309 75.5153L76.5317 71.5048C76.841 71.3582 77.1841 71.2986 77.5247 71.3323C77.8652 71.3661 78.1901 71.4921 78.4645 71.6965L71.5477 75.7072C71.2742 75.5073 70.9524 75.3839 70.6154 75.3502C70.2784 75.3165 69.9385 75.3735 69.6309 75.5153Z" fill="#2E373D"/>
<path d="M71.5479 75.7071L78.4647 71.6965C79.2472 72.2047 79.8981 72.8909 80.3646 73.6991C80.831 74.5072 81.0995 75.4142 81.1482 76.3461C81.1813 76.6795 81.1265 77.0158 80.9891 77.3214C80.8518 77.627 80.6367 77.8913 80.3655 78.0879L73.4489 82.0986C73.7188 81.9045 73.9332 81.6431 74.0705 81.3403C74.2078 81.0374 74.2633 80.7038 74.2316 80.3728C74.1866 79.4378 73.9198 78.5271 73.4531 77.7158C72.9865 76.9045 72.3333 76.2159 71.5479 75.7071" fill="#2E373D"/>
<path d="M71.6436 71.7283L78.5442 67.7018C80.3372 68.8632 81.8294 70.4332 82.8985 72.283C83.9675 74.1328 84.583 76.2097 84.6944 78.3435C84.7686 79.1045 84.6406 79.8715 84.3237 80.5673C84.0068 81.263 83.5121 81.8628 82.8893 82.3062L75.9884 86.3168C76.6094 85.8764 77.1022 85.279 77.4166 84.5855C77.7309 83.8921 77.8555 83.1276 77.7775 82.3701C77.6679 80.2378 77.055 78.1617 75.9888 76.312C74.9226 74.4623 73.4335 72.8915 71.6436 71.7283" fill="#C3C3C3"/>
<path d="M71.6436 71.7282C73.4335 72.8914 74.9227 74.4622 75.9888 76.312C77.055 78.1617 77.6679 80.2377 77.7775 82.3701C77.7775 86.2849 74.9981 87.8509 71.5956 85.8855C69.8056 84.7223 68.3165 83.1515 67.2503 81.3018C66.1841 79.4521 65.5712 77.376 65.4616 75.2436C65.3818 71.3448 68.1612 69.7628 71.6436 71.7282ZM71.6436 81.9066C73.1292 82.7695 74.3431 82.0824 74.3431 80.3088C74.2981 79.3738 74.0313 78.4631 73.5647 77.6518C73.098 76.8404 72.445 76.1519 71.6596 75.6431C70.174 74.7803 68.96 75.4674 68.9441 77.241C68.9945 78.1743 69.2655 79.0823 69.7348 79.8906C70.204 80.6989 70.8582 81.3844 71.6436 81.8908" fill="#B8B8B8"/>
<path d="M71.5475 75.7072C72.333 76.216 72.9862 76.9045 73.4528 77.7158C73.9195 78.5272 74.1863 79.4379 74.2312 80.3728C74.2312 82.0825 73.0173 82.7696 71.5317 81.9707C70.7463 81.4643 70.092 80.7789 69.6227 79.9706C69.1535 79.1623 68.8825 78.2542 68.832 77.3208C68.848 75.6111 70.046 74.8443 71.5475 75.7072Z" fill="#2B343A"/>
<path d="M67.1709 71.2969L74.0878 67.2863C74.7883 66.9599 75.5632 66.8263 76.3326 66.8993C77.1019 66.9723 77.8379 67.2494 78.4646 67.7017L71.5638 71.7282C70.9368 71.2703 70.1988 70.9889 69.4262 70.9131C68.6537 70.8372 67.8749 70.9698 67.1709 71.2969Z" fill="#C3C3C3"/>
<path d="M65.3652 68.1811L72.2821 64.1705C73.2749 63.7074 74.3738 63.5195 75.464 63.6263C76.5543 63.7331 77.5959 64.1307 78.48 64.7777L71.5632 68.7883C70.6762 68.1476 69.6353 67.7538 68.5464 67.6471C67.4575 67.5404 66.3596 67.7247 65.3652 68.1811" fill="#1B2024"/>
<path d="M71.6436 68.7883L78.5602 64.7776C81.0894 66.423 83.1947 68.6424 84.7047 71.2551C86.2147 73.8678 87.0868 76.8001 87.2502 79.8136C87.3538 80.8867 87.1738 81.9681 86.728 82.9496C86.2822 83.9312 85.5865 84.7783 84.7104 85.4061L77.7935 89.4328C78.672 88.8072 79.3698 87.9604 79.8158 86.9783C80.2618 85.9961 80.4403 84.9137 80.3333 83.8403C80.1724 80.824 79.3017 77.8885 77.7916 75.2728C76.2815 72.6571 74.1748 70.4352 71.6436 68.7883" fill="#1B2024"/>
<path d="M71.6438 68.7883C74.1751 70.4352 76.2817 72.6571 77.7918 75.2728C79.3019 77.8885 80.1727 80.8241 80.3335 83.8403C80.3335 89.3689 76.404 91.6059 71.5958 88.8256C69.0645 87.1787 66.9581 84.9568 65.448 82.3411C63.9379 79.7254 63.0669 76.7899 62.906 73.7736C62.8421 68.245 66.7557 66.024 71.6438 68.7883ZM71.6438 85.8856C75.0462 87.851 77.8097 86.285 77.8257 82.3702C77.7161 80.2378 77.1032 78.1618 76.037 76.312C74.9708 74.4623 73.4817 72.8915 71.6917 71.7283C68.2893 69.7629 65.5098 71.3449 65.5098 75.2437C65.6194 77.3761 66.2323 79.4522 67.2985 81.3019C68.3647 83.1516 69.8538 84.7224 71.6438 85.8856" fill="#2B343A"/>
<path d="M110.125 95.2811L117.042 91.2544C116.42 91.6989 115.926 92.2988 115.61 92.9943C115.293 93.6897 115.164 94.4563 115.237 95.2171C115.354 97.3472 115.972 99.4196 117.041 101.266C118.11 103.112 119.599 104.68 121.387 105.843L114.47 109.869C112.681 108.704 111.191 107.133 110.123 105.284C109.054 103.435 108.436 101.36 108.32 99.2277C108.249 98.4694 108.378 97.7054 108.695 97.0127C109.011 96.32 109.505 95.723 110.125 95.2811" fill="#2E373D"/>
<path d="M112.569 99.5792L119.485 95.5526C119.213 95.748 118.997 96.0121 118.86 96.3179C118.722 96.6238 118.668 96.9606 118.703 97.2942C118.751 98.2261 119.02 99.1333 119.486 99.9414C119.953 100.75 120.604 101.436 121.386 101.944L114.47 105.971C113.688 105.458 113.037 104.769 112.571 103.958C112.105 103.148 111.836 102.239 111.786 101.305C111.754 100.974 111.81 100.64 111.947 100.338C112.084 100.035 112.299 99.7733 112.569 99.5792" fill="#C3C3C3"/>
<path d="M112.569 99.5792L119.485 95.5526C119.213 95.748 118.997 96.0121 118.86 96.3179C118.722 96.6238 118.668 96.9606 118.703 97.2942C118.751 98.2261 119.02 99.1333 119.486 99.9414C119.953 100.75 120.604 101.436 121.386 101.944L114.47 105.971C113.688 105.458 113.037 104.769 112.571 103.958C112.105 103.148 111.836 102.239 111.786 101.305C111.754 100.974 111.81 100.64 111.947 100.338C112.084 100.035 112.299 99.7733 112.569 99.5792" fill="#C3C3C3"/>
<path d="M114.47 105.971L121.386 101.944C121.663 102.144 121.988 102.267 122.327 102.3C122.667 102.334 123.009 102.277 123.319 102.136L116.403 106.162C116.092 106.304 115.75 106.361 115.41 106.327C115.071 106.293 114.746 106.17 114.47 105.971" fill="#C3C3C3"/>
<path d="M110.125 95.2811L117.042 91.2544C116.42 91.6989 115.926 92.2988 115.61 92.9943C115.293 93.6897 115.164 94.4563 115.237 95.2171C115.354 97.3472 115.972 99.4196 117.041 101.266C118.11 103.112 119.599 104.68 121.387 105.843L114.47 109.869C112.681 108.704 111.191 107.133 110.123 105.284C109.054 103.435 108.436 101.36 108.32 99.2277C108.249 98.4694 108.378 97.7054 108.695 97.0127C109.011 96.32 109.505 95.723 110.125 95.2811" fill="#2E373D"/>
<path d="M112.568 99.5793L119.485 95.5526C119.793 95.4141 120.133 95.359 120.469 95.3927C120.806 95.4263 121.127 95.5475 121.402 95.7443L114.501 99.771C114.225 99.5713 113.9 99.4483 113.561 99.4146C113.221 99.381 112.879 99.4378 112.568 99.5793" fill="#2E373D"/>
<path d="M114.501 99.691L121.402 95.6645C122.188 96.1744 122.842 96.8627 123.311 97.6736C123.78 98.4844 124.051 99.3947 124.101 100.33C124.136 100.661 124.082 100.996 123.945 101.3C123.807 101.603 123.591 101.864 123.319 102.056L116.402 106.082C116.674 105.887 116.89 105.623 117.028 105.317C117.165 105.011 117.219 104.674 117.185 104.341C117.133 103.41 116.864 102.503 116.398 101.696C115.931 100.888 115.282 100.201 114.501 99.691Z" fill="#2E373D"/>
<path d="M114.501 95.7123L121.418 91.6859C123.207 92.8511 124.697 94.4219 125.765 96.271C126.834 98.12 127.451 100.195 127.568 102.328C127.639 103.086 127.51 103.85 127.193 104.543C126.876 105.235 126.383 105.832 125.763 106.274L118.846 110.301C119.468 109.856 119.962 109.256 120.278 108.561C120.595 107.866 120.724 107.099 120.651 106.338C120.533 104.208 119.915 102.136 118.847 100.289C117.778 98.4432 116.289 96.875 114.501 95.7123" fill="#C3C3C3"/>
<path d="M114.501 95.7122C116.289 96.8749 117.778 98.4431 118.847 100.289C119.916 102.136 120.534 104.208 120.651 106.338C120.651 110.253 117.872 111.835 114.469 109.869C112.68 108.704 111.191 107.133 110.122 105.284C109.053 103.435 108.436 101.36 108.319 99.2277C108.383 95.3129 111.099 93.7468 114.501 95.7122ZM114.501 105.891C116.003 106.753 117.217 106.066 117.217 104.293C117.166 103.361 116.896 102.455 116.43 101.648C115.964 100.84 115.314 100.153 114.533 99.6431C113.032 98.7803 111.818 99.4674 111.818 101.241C111.868 102.175 112.137 103.084 112.603 103.894C113.069 104.705 113.719 105.394 114.501 105.907" fill="#B8B8B8"/>
<path d="M114.502 99.6909C115.282 100.201 115.932 100.888 116.398 101.695C116.865 102.503 117.134 103.409 117.185 104.341C117.185 106.066 115.971 106.754 114.47 105.939C113.688 105.426 113.038 104.737 112.571 103.926C112.105 103.116 111.836 102.207 111.786 101.273C111.786 99.5792 113 98.8281 114.502 99.6909Z" fill="#2B343A"/>
<path d="M110.124 95.281L117.041 91.2543C117.742 90.9269 118.518 90.7942 119.288 90.8701C120.058 90.946 120.794 91.2277 121.418 91.6858L114.501 95.7122C113.877 95.2542 113.142 94.9724 112.372 94.8965C111.601 94.8206 110.825 94.9535 110.124 95.281" fill="#C3C3C3"/>
<path d="M108.384 92.1651L115.3 88.1544C116.292 87.6908 117.39 87.501 118.48 87.605C119.57 87.7089 120.612 88.1028 121.498 88.7457L114.582 92.7723C112.154 91.3822 109.965 91.1744 108.384 92.1651" fill="#2E373D"/>
<path d="M114.518 92.7723L121.434 88.7456C123.963 90.3943 126.066 92.6169 127.573 95.2325C129.081 97.8481 129.949 100.783 130.108 103.798C130.219 104.871 130.041 105.955 129.595 106.938C129.149 107.921 128.449 108.767 127.568 109.39L120.652 113.417C121.533 112.794 122.232 111.947 122.678 110.964C123.125 109.982 123.302 108.898 123.192 107.824C123.032 104.809 122.164 101.875 120.657 99.2592C119.149 96.6436 117.046 94.421 114.518 92.7723" fill="#2E373D"/>
<path d="M114.517 92.7723C117.045 94.421 119.149 96.6436 120.656 99.2592C122.163 101.875 123.032 104.81 123.191 107.824C123.191 113.353 119.277 115.574 114.453 112.794C111.927 111.147 109.825 108.926 108.318 106.314C106.811 103.701 105.941 100.77 105.779 97.7577C105.795 92.229 109.709 89.992 114.517 92.7723ZM114.517 109.869C117.919 111.835 120.683 110.253 120.699 106.338C120.581 104.208 119.963 102.136 118.895 100.289C117.826 98.4432 116.337 96.875 114.549 95.7123C111.147 93.747 108.383 95.313 108.367 99.2278C108.484 101.36 109.101 103.435 110.17 105.284C111.238 107.133 112.728 108.704 114.517 109.869" fill="#2B343A"/>
<path d="M85.9082 47.4727V68.7882C88.5917 72.7354 89.6449 77.568 88.8474 82.2744" stroke="#D4B432" stroke-miterlimit="10"/>
</svg>
