<svg width="231" height="134" viewBox="0 0 231 134" fill="none" xmlns="http://www.w3.org/2000/svg">
<path d="M140.971 120.85L129.661 127.417L139.213 132.929L0 52.5406L11.3096 45.9574L0 52.5406L11.3735 59.1079L22.6831 52.5246L140.971 120.85Z" fill="white"/>
<path d="M101.323 6.82557L90.0135 13.3928L22.6831 52.5246L11.3735 59.1079L0 52.5406L11.3096 45.9574L89.9496 0.258331L101.323 6.82557Z" fill="white"/>
<path d="M219.611 75.1345L208.317 81.7017L90.0137 13.3928L101.323 6.82556L219.611 75.1345Z" fill="white"/>
<path d="M231 81.7177L141.051 134L139.214 132.929L129.661 127.417L140.971 120.85L208.317 81.7017L219.611 75.1345L231 81.7177Z" fill="white"/>
</svg>
