<svg width="40" height="107" viewBox="0 0 40 107" fill="none" xmlns="http://www.w3.org/2000/svg">
<path d="M17.3958 106.185L15.1435 104.875L14.9678 39.6977L17.2041 41.0079L17.3958 106.185Z" fill="#989898"/>
<path d="M17.2041 41.0079L14.9678 39.6977L18.6578 37.5725L20.9101 38.8668L17.2041 41.0079Z" fill="#A1A1A1"/>
<path d="M20.9101 38.8668L21.0858 104.044L17.3958 106.185L17.2041 41.0079L20.9101 38.8668Z" fill="#DEDEDE"/>
<path d="M21.4535 39.7616L18.083 37.7963H18.1788L21.5492 39.7616H21.4535Z" fill="#91322A"/>
<path d="M21.5492 39.7136L18.1787 37.7483C18.9934 37.2723 19.7729 36.7383 20.511 36.1504L23.8815 38.1158C23.1423 38.702 22.3628 39.2359 21.5492 39.7136" fill="#96332B"/>
<path d="M23.8812 38.0998L20.5107 36.1344C23.834 33.3744 26.493 29.901 28.2901 25.972L31.6606 27.9374C29.8574 31.8627 27.1994 35.3349 23.8812 38.0998" fill="#9B352D"/>
<path d="M31.6605 27.9374L28.29 25.972C28.7495 25.0067 29.1496 24.0142 29.4881 23L32.8586 24.9653C32.5201 25.9795 32.12 26.972 31.6605 27.9374" fill="#96332B"/>
<path d="M32.8588 24.9654L29.4883 23C29.7598 22.1851 29.9994 21.4021 30.191 20.5232L33.5775 22.4886C33.3844 23.3269 33.1445 24.1539 32.8588 24.9654" fill="#91322A"/>
<path d="M33.5779 22.4886L30.1914 20.5232C30.3747 19.7704 30.5134 19.0075 30.6067 18.2384L33.9932 20.2037C33.8974 20.9547 33.7536 21.7216 33.5779 22.4886Z" fill="#8C3029"/>
<path d="M33.9929 20.2037L30.6064 18.2384C30.7142 17.4708 30.7675 16.6965 30.7661 15.9214L34.1366 17.8867C34.1355 18.6612 34.0876 19.435 33.9929 20.2037" fill="#882E27"/>
<path d="M34.1374 17.8867L30.7669 15.9213V15.8256C30.7709 15.0174 30.7068 14.2102 30.5752 13.4128L33.9457 15.3781C34.0781 16.1755 34.1422 16.9827 34.1374 17.7909V17.8867Z" fill="#832D26"/>
<path d="M24.8558 25.5565L21.4854 23.6072L21.677 23.4314C22.3346 22.886 22.9245 22.2636 23.4341 21.5779C23.7464 21.134 24.019 20.6634 24.2488 20.1717L27.6193 22.1371C27.3983 22.6333 27.1252 23.1047 26.8046 23.5432C26.3006 24.2286 25.7161 24.851 25.0635 25.3968L24.8558 25.5565" fill="#A3A3A3"/>
<path d="M27.6029 22.1371L24.2324 20.1717C24.3602 19.8841 24.488 19.5804 24.5998 19.2608L27.9703 21.2264C27.8742 21.54 27.7513 21.8446 27.6029 22.1371" fill="#9E9E9E"/>
<path d="M24.8558 25.5566L21.4854 23.6072L21.677 23.4315C22.3346 22.886 22.9245 22.2637 23.4341 21.5779C23.7464 21.134 24.019 20.6635 24.2488 20.1718L27.6193 22.1371C27.3983 22.6333 27.1252 23.1047 26.8046 23.5432C26.3006 24.2287 25.7161 24.851 25.0635 25.3968L24.8558 25.5566" fill="#A3A3A3"/>
<path d="M27.9867 21.2264L24.6162 19.2608L27.9867 21.2264Z" fill="#9E9E9E"/>
<path d="M28.0023 21.1944L24.6318 19.229C24.6318 19.0053 24.7756 18.7816 24.8235 18.5419L28.194 20.5072C28.1473 20.7407 28.0832 20.9704 28.0023 21.1944Z" fill="#999999"/>
<path d="M28.1947 20.5072L24.8242 18.5419C24.8876 18.2678 24.9356 17.9904 24.9679 17.711L28.3544 19.6603C28.3544 19.9479 28.2586 20.2356 28.1947 20.5072Z" fill="#949494"/>
<path d="M28.3543 19.6603L24.9678 17.711C25.0194 17.3136 25.0462 16.9133 25.0477 16.5126L28.4182 18.4779C28.4429 18.8717 28.4429 19.2666 28.4182 19.6603" fill="#8F8F8F"/>
<path d="M28.4176 18.4779L25.0471 16.5126C25.0508 16.0951 25.0186 15.6781 24.9512 15.2662L28.3377 17.2317C28.3647 17.6467 28.3647 18.0629 28.3377 18.4779" fill="#8A8A8A"/>
<path d="M17.476 36.6458L14.1055 34.6804L17.2204 32.8748L20.6069 34.8402L17.476 36.6458Z" fill="#ACACAC"/>
<path d="M22.9545 26.8667L19.584 24.9014L22.9545 26.8667H22.8747Z" fill="#999999"/>
<path d="M23.0346 26.8189L19.6641 24.8534C20.2991 24.4804 20.9076 24.0641 21.4851 23.6072L24.8556 25.5566C24.2784 26.0188 23.6699 26.4406 23.0346 26.8189Z" fill="#9E9E9E"/>
<path d="M24.8558 25.5566L21.4854 23.6072L21.677 23.4315C22.3346 22.886 22.9245 22.2637 23.4341 21.5779C23.7464 21.134 24.019 20.6635 24.2488 20.1718L27.6193 22.1371C27.3983 22.6333 27.1252 23.1047 26.8046 23.5432C26.3006 24.2287 25.7161 24.851 25.0635 25.3968L24.8558 25.5566" fill="#A3A3A3"/>
<path d="M24.5369 22.3608L21.1504 20.3955C21.3323 20.1689 21.4877 19.9222 21.6137 19.6603L24.9842 21.6259C24.8637 21.8872 24.7136 22.1338 24.5369 22.3608" fill="black"/>
<path d="M24.9838 21.6259L21.6133 19.6603L21.7092 19.4368L25.0797 21.4021L24.9838 21.6259Z" fill="black"/>
<path d="M28.4186 18.4779L25.0481 16.5126C25.0517 16.0951 25.0196 15.6781 24.9521 15.2662L28.3386 17.2317C28.3657 17.6467 28.3657 18.0629 28.3386 18.4779" fill="#8A8A8A"/>
<path d="M28.3385 17.1677L24.952 15.2024C24.9034 14.8266 24.7842 14.4632 24.6006 14.1318C24.4351 13.8155 24.1866 13.5504 23.8818 13.3648L27.2523 15.3302C27.5603 15.5118 27.8097 15.7779 27.9711 16.0971C28.1603 16.4274 28.2849 16.7908 28.3385 17.1677" fill="#858585"/>
<path d="M20.5746 28.2409L17.2041 26.2756L19.5842 24.9014L22.9707 26.8668L20.5746 28.2409Z" fill="#ACACAC"/>
<path d="M20.6066 34.8402L17.2201 32.8748L17.2041 26.2756L20.5746 28.241L20.6066 34.8402Z" fill="#999999"/>
<path d="M23.0512 23.6391L19.6807 21.6737H19.6966L23.0672 23.6391H23.0512Z" fill="black"/>
<path d="M23.0671 23.6232L19.6807 21.6737C19.9388 21.517 20.1844 21.3408 20.4154 21.1464L23.7859 23.1118C23.5602 23.301 23.3199 23.4721 23.0671 23.6232" fill="black"/>
<path d="M23.8021 23.1438L20.4316 21.1784C20.7028 20.9603 20.9444 20.7079 21.1504 20.4275L24.5369 22.3928C24.3209 22.6699 24.0745 22.9218 23.8021 23.1438" fill="black"/>
<path d="M28.3385 17.1677L24.952 15.2024C24.9034 14.8266 24.7842 14.4632 24.6006 14.1318C24.4351 13.8155 24.1866 13.5504 23.8818 13.3648L27.2523 15.3302C27.5603 15.5118 27.8097 15.7779 27.9711 16.0971C28.1603 16.4274 28.2849 16.7908 28.3385 17.1677" fill="#858585"/>
<path d="M34.1364 17.8867L30.7659 15.9213V15.8256C30.7699 15.0174 30.7058 14.2102 30.5742 13.4128L33.9447 15.3781C34.0771 16.1755 34.1412 16.9827 34.1364 17.7909V17.8867Z" fill="#832D26"/>
<path d="M33.9923 15.3781L30.6218 13.4128C30.5003 12.2508 30.1219 11.1303 29.5141 10.1326C28.9062 9.13492 28.0842 8.28513 27.1074 7.6445L30.4781 9.60985C31.4549 10.2505 32.2769 11.1003 32.8847 12.0979C33.4926 13.0956 33.8708 14.2161 33.9923 15.3781" fill="#7E2B24"/>
<path d="M12.3962 40.7203L9.00977 38.7549C9.50791 39.0491 10.0459 39.2698 10.6072 39.4101L13.9777 41.3755C13.418 41.2304 12.8806 41.0099 12.3803 40.7203" fill="#7E2B24"/>
<path d="M14.0414 41.3115L10.6709 39.3462C11.307 39.5086 11.9641 39.5733 12.6197 39.5379L16.0062 41.5032C15.3453 41.5378 14.6831 41.4732 14.0414 41.3115Z" fill="#832D26"/>
<path d="M16.0066 41.5032L12.6201 39.5379C13.2231 39.5189 13.8225 39.4385 14.4092 39.2982L17.7957 41.2635C17.2088 41.4029 16.6095 41.4832 16.0066 41.5032Z" fill="#882E27"/>
<path d="M17.7957 41.2635L14.4092 39.2982C15.0273 39.1625 15.6316 38.97 16.2142 38.723L19.6167 40.7203C19.0324 40.9628 18.4285 41.1552 17.8116 41.2955" fill="#8C3029"/>
<path d="M19.6169 40.7203L16.2305 38.755C16.872 38.4849 17.4962 38.1753 18.0995 37.8281L21.47 39.7936C20.8738 40.1437 20.2547 40.4533 19.6169 40.7203Z" fill="#91322A"/>
<path d="M25.0795 21.4021L21.709 19.4368V19.2928L25.0795 21.2582V21.4021Z" fill="black"/>
<path d="M25.1273 21.2582L21.7568 19.2928C21.7568 19.2928 21.7569 19.1172 21.8368 19.0213L25.2073 20.9867C25.2143 21.0771 25.2143 21.1678 25.2073 21.2582" fill="black"/>
<path d="M25.2074 20.9867L21.8369 19.0213V18.7177L25.2234 20.667C25.2324 20.7733 25.2324 20.8804 25.2234 20.9867" fill="black"/>
<path d="M25.2712 20.667L21.8848 18.7176C21.8933 18.5686 21.8933 18.4192 21.8848 18.2702L25.2553 20.2357C25.2639 20.3794 25.2639 20.5233 25.2553 20.667" fill="black"/>
<path d="M25.2877 20.2357L21.917 18.2702C21.9261 18.1265 21.9261 17.9826 21.917 17.8389L25.2877 19.7883C25.3042 19.937 25.3042 20.0871 25.2877 20.2357V20.2357Z" fill="black"/>
<path d="M25.2557 19.7723L21.8852 17.8229C21.8639 17.6443 21.798 17.4739 21.6935 17.3275C21.6152 17.2302 21.5237 17.1441 21.4219 17.0718L24.7924 19.0373C24.9029 19.1045 25.0004 19.1909 25.08 19.2928C25.1723 19.4381 25.2322 19.6017 25.2557 19.7723" fill="black"/>
<path d="M24.5209 18.9414L21.1504 16.992L24.5209 18.9574" fill="#8A8A8A"/>
<path d="M24.5844 18.9574L21.2139 16.992H21.4215L24.792 18.9574H24.5844Z" fill="#858585"/>
<path d="M20.575 25.0772L17.1885 23.1118L19.6804 21.6737L23.0509 23.6391L20.575 25.0772Z" fill="black"/>
<path d="M23.7855 19.0373L20.415 17.0718H20.6067L23.9932 19.0373H23.7855" fill="#949494"/>
<path d="M23.9929 18.9733L20.6064 17.008H20.8941L24.2805 18.9573H23.9929" fill="#8F8F8F"/>
<path d="M24.281 18.9254L20.8945 16.976C20.9789 16.9596 21.0656 16.9596 21.15 16.976L24.5205 18.9254H24.281Z" fill="#8A8A8A"/>
<path d="M23.0349 19.3568L19.6484 17.3915L20.1117 17.1837L23.4822 19.1331C23.3285 19.198 23.1791 19.2728 23.0349 19.3568" fill="#999999"/>
<path d="M23.4818 19.1331L20.1113 17.1837L20.4147 17.0718L23.7852 19.0373L23.4818 19.1331Z" fill="#949494"/>
<path d="M20.575 25.0772L17.1885 23.1118V18.8295L20.559 20.7949L20.575 25.0772Z" fill="#999999"/>
<path d="M20.559 20.7949L17.1885 18.8295L19.6644 17.4074L23.035 19.3568L20.559 20.7949Z" fill="#ACACAC"/>
<path d="M24.5201 18.9413C24.7422 18.9885 24.9405 19.113 25.0794 19.2928C25.2409 19.5735 25.3133 19.8968 25.287 20.2196C25.2931 20.6234 25.2226 21.0246 25.0794 21.4021C24.9467 21.7467 24.7635 22.0697 24.5361 22.3607C24.3189 22.6421 24.0666 22.8944 23.7854 23.1117C23.5584 23.3112 23.3123 23.488 23.0506 23.6391L20.5586 25.077V20.7949L23.0346 19.3567C23.2745 19.2272 23.5258 19.1203 23.7854 19.0372C24.0194 18.9481 24.2711 18.9152 24.5201 18.9413Z" fill="#EEEEEE"/>
<path d="M22.8109 16.2888L19.4404 14.3235C19.951 14.0246 20.4853 13.7681 21.0378 13.5565L24.4083 15.5059C23.8586 15.7301 23.3249 15.9916 22.8109 16.2888" fill="black"/>
<path d="M24.4086 15.5059L21.0381 13.5566C21.2241 13.4682 21.4163 13.3934 21.6131 13.3328L22.0285 13.2211L25.399 15.1864L24.9996 15.2982L24.4086 15.5059Z" fill="black"/>
<path d="M25.4144 15.1544L22.0439 13.1891C22.2679 13.1281 22.4986 13.0957 22.7307 13.0931L26.1172 15.0585C25.8798 15.0599 25.6436 15.0922 25.4144 15.1544" fill="black"/>
<path d="M26.1169 15.1544L22.7305 13.1891C22.9529 13.1563 23.179 13.1563 23.4014 13.1891L26.7719 15.1544C26.5548 15.1221 26.3341 15.1221 26.1169 15.1544" fill="black"/>
<path d="M26.7728 15.1544L23.4023 13.1891C23.5683 13.2363 23.7289 13.3006 23.8816 13.3808L27.2521 15.3462C27.1007 15.2632 26.9397 15.1988 26.7728 15.1544V15.1544Z" fill="black"/>
<path d="M27.9708 16.0972C28.3173 16.818 28.4714 17.6163 28.4181 18.4142C28.4437 19.3699 28.2976 20.3224 27.9868 21.2265C27.7096 22.0531 27.3112 22.8338 26.8047 23.5433C26.3007 24.2288 25.7162 24.8511 25.0636 25.3969C24.3984 25.9389 23.6935 26.4301 22.9549 26.8668L20.5748 28.241V34.8402L17.46 36.6458V19.4369L22.8912 16.2411C23.5739 15.8374 24.2966 15.5054 25.0476 15.2505C25.6077 15.0374 26.2154 14.982 26.8047 15.0905C27.0608 15.1629 27.298 15.2905 27.4995 15.4644C27.7009 15.6384 27.8618 15.8544 27.9708 16.0972V16.0972ZM25.0796 21.4022C25.2229 21.0248 25.2933 20.6236 25.2873 20.2198C25.3135 19.897 25.2411 19.5737 25.0796 19.2929C24.9407 19.1132 24.7425 18.9887 24.5203 18.9415C24.2713 18.9154 24.0196 18.9483 23.7856 19.0374C23.526 19.1205 23.2747 19.2274 23.0349 19.3569L20.5588 20.795V25.0772L23.0509 23.6393C23.3126 23.4882 23.5586 23.3114 23.7856 23.1119C24.0668 22.8946 24.3191 22.6422 24.5363 22.3609C24.7637 22.0699 24.9469 21.7469 25.0796 21.4022" fill="black"/>
<path d="M17.4761 36.6457L14.1055 34.6804L14.0576 17.4713L17.4281 19.4367L17.4761 36.6457Z" fill="black"/>
<path d="M17.4281 19.4367L14.0576 17.4713L19.4888 14.3235L22.8753 16.2889L17.4281 19.4367Z" fill="black"/>
<path d="M21.3734 10.5045L18.0029 8.53918C18.5959 8.18769 19.2155 7.88326 19.856 7.62848L23.2265 9.57783C22.5902 9.84808 21.9713 10.1575 21.3734 10.5045" fill="#999999"/>
<path d="M23.2269 9.57785L19.8564 7.6285C20.4423 7.38589 21.0457 7.18825 21.6615 7.03729L25.032 9.00264C24.4192 9.15761 23.8164 9.34968 23.2269 9.57785" fill="#949494"/>
<path d="M25.0316 9.00264L21.6611 7.0373C22.2478 6.89694 22.8473 6.8166 23.4502 6.79758L26.8207 8.76292C26.2178 8.78292 25.6185 8.86325 25.0316 9.00264" fill="#8F8F8F"/>
<path d="M26.8207 8.763L23.4502 6.79765C24.1053 6.77816 24.7602 6.84259 25.399 6.98938L28.7695 8.95473C28.132 8.80017 27.4761 8.73564 26.8207 8.763" fill="#8A8A8A"/>
<path d="M28.7689 8.95467L25.3984 6.98932C25.9575 7.13623 26.4946 7.35657 26.9958 7.6445L30.3663 9.60985C29.8651 9.32192 29.328 9.10158 28.7689 8.95467" fill="#858585"/>
<path d="M21.3572 4.43275L17.9707 2.4674C18.8198 1.97836 19.7003 1.5459 20.6065 1.17303L23.9769 3.13838C23.0775 3.51461 22.2025 3.94698 21.3572 4.43275Z" fill="#91322A"/>
<path d="M23.9769 3.1384L20.6064 1.17306C21.4305 0.831359 22.2796 0.553545 23.1463 0.342133L26.5327 2.30748C25.6588 2.51148 24.8038 2.78947 23.9769 3.1384" fill="#8C3029"/>
<path d="M26.533 2.37146L23.1465 0.406108C23.9816 0.220029 24.8317 0.107808 25.6865 0.0706177L29.057 2.03597C28.2067 2.06423 27.3611 2.17657 26.533 2.37146" fill="#882E27"/>
<path d="M29.057 1.97205L25.6865 0.00670316C26.6104 -0.0266547 27.5345 0.0645891 28.434 0.278216L31.8205 2.24376C30.9157 2.02947 29.9862 1.93803 29.057 1.97205" fill="#832D26"/>
<path d="M31.8201 2.24368L28.4336 0.278137C29.2593 0.472253 30.051 0.79023 30.7817 1.22102L34.1522 3.18637C33.4258 2.75835 32.6398 2.44069 31.8201 2.24368" fill="#7E2B24"/>
<path d="M12.3958 40.7203L9.00932 38.755C8.03298 38.1177 7.211 37.2707 6.60308 36.2757C5.99516 35.2806 5.61668 34.1625 5.49512 33.0027L8.86561 34.952C8.98671 36.116 9.36663 37.238 9.97747 38.2361C10.5883 39.2342 11.4145 40.0831 12.3958 40.7203Z" fill="#858585"/>
<path d="M8.86606 34.8881L5.49557 32.9387C5.364 32.1413 5.29989 31.3341 5.30389 30.5259V30.4301L8.67438 32.3955V32.4913C8.66951 33.2942 8.73363 34.0961 8.86606 34.8881" fill="#8A8A8A"/>
<path d="M8.6742 32.3955L5.30371 30.4301C5.30434 29.6556 5.35229 28.8817 5.44742 28.1131L8.8339 30.0784C8.73355 30.8468 8.68024 31.6206 8.6742 32.3955" fill="#8F8F8F"/>
<path d="M8.83374 30.0784L5.44727 28.1131C5.54693 27.3396 5.68557 26.5718 5.86261 25.8123L9.24908 27.7776C9.06436 28.5355 8.92565 29.3038 8.83374 30.0784" fill="#949494"/>
<path d="M9.24879 27.7776L5.8623 25.8123C6.05754 24.9744 6.29742 24.1476 6.58106 23.3355L9.95155 25.3008C9.67999 26.1157 9.44047 26.8988 9.24879 27.7776Z" fill="#999999"/>
<path d="M10.0316 25.3008L6.66113 23.3355C7.00249 22.3276 7.40253 21.3406 7.85918 20.3795L11.2297 22.3448C10.773 23.3059 10.373 24.2929 10.0316 25.3008" fill="#9E9E9E"/>
<path d="M11.1498 22.3448L7.7793 20.3795C9.57308 16.4485 12.2325 12.9743 15.5586 10.217L18.9451 12.1824C15.616 14.9407 12.9515 18.4143 11.1498 22.3448Z" fill="#A3A3A3"/>
<path d="M18.9451 12.1824L15.5586 10.217C16.3021 9.62895 17.087 9.09495 17.9069 8.61917L21.2774 10.5685C20.4641 11.0466 19.6847 11.5805 18.9451 12.1664" fill="#9E9E9E"/>
<path d="M21.2133 10.5525L17.8428 8.60318H17.9385L21.3092 10.5685H21.2133" fill="#999999"/>
<path d="M21.3737 10.5046C28.4022 6.44601 34.1529 9.68978 34.1529 17.791C34.1529 25.8922 28.4982 35.7031 21.4696 39.7617C14.4411 43.8203 8.69043 40.5605 8.69043 32.4913C8.92066 28.0855 10.1898 23.7967 12.3942 19.9754C14.5985 16.1541 17.6755 12.9087 21.3737 10.5046V10.5046ZM27.9869 21.2264C28.2978 20.3224 28.4439 19.3698 28.4183 18.4142C28.4716 17.6162 28.3174 16.8179 27.971 16.0971C27.853 15.8598 27.6847 15.651 27.4778 15.4855C27.2709 15.3199 27.0303 15.2014 26.7729 15.1385C26.1836 15.0299 25.5759 15.0851 25.0158 15.2982C24.2648 15.5532 23.5421 15.8852 22.8594 16.2889L17.4282 19.4846V36.6937L20.543 34.8881V28.2889L22.9231 26.9148C23.6617 26.4781 24.3666 25.9866 25.0318 25.4446C25.6844 24.8989 26.2689 24.2767 26.7729 23.5913C27.2794 22.8818 27.6778 22.1008 27.955 21.2742" fill="#EEEEEE"/>
<path d="M8.65808 47.1118L5.2716 45.1465C3.88803 44.2489 2.72347 43.0521 1.86367 41.6445C1.00388 40.2369 0.470795 38.6544 0.303711 37.0134L3.6742 38.9627C3.84416 40.607 4.37994 42.1923 5.24235 43.6024C6.10477 45.0126 7.27193 46.2118 8.65808 47.1118" fill="#7E2B24"/>
<path d="M3.64219 38.9307L0.2717 36.9814C0.0879674 35.8563 -0.00292887 34.7179 7.19297e-05 33.5779V33.434L3.37056 35.3995V35.5433C3.36786 36.678 3.45876 37.8109 3.64219 38.9307" fill="#832D26"/>
<path d="M3.40174 35.3995L0.03125 33.434C0.0332167 32.3654 0.102583 31.298 0.23892 30.2382L3.6254 32.2038C3.48046 33.2897 3.40574 34.3837 3.40174 35.4793" fill="#882E27"/>
<path d="M3.64234 32.1238L0.255859 30.1584C0.399625 29.0879 0.591306 28.0013 0.84689 26.9627L4.21738 28.9281C3.96884 29.9823 3.7769 31.049 3.64234 32.1238" fill="#8C3029"/>
<path d="M4.20057 28.8641L0.830078 26.8987C1.10631 25.716 1.4422 24.5482 1.83645 23.3995L5.20694 25.3648C4.81269 26.5135 4.4768 27.6814 4.20057 28.8641" fill="#91322A"/>
<path d="M5.23963 25.3648L1.86914 23.3995C2.35896 21.975 2.92407 20.5775 3.56228 19.2131L6.93297 21.1784C6.29476 22.5429 5.72945 23.9403 5.23963 25.3648" fill="#96332B"/>
<path d="M6.83729 21.1784L3.4668 19.2131C6.01417 13.6521 9.78153 8.73675 14.4889 4.83224L17.8594 6.79759C13.152 10.7021 9.38466 15.6174 6.83729 21.1784" fill="#9B352D"/>
<path d="M17.9232 6.7976L14.5527 4.83225C15.5917 3.99032 16.6917 3.22649 17.8435 2.54721L21.214 4.51256C20.0622 5.19184 18.9622 5.95567 17.9232 6.7976" fill="#96332B"/>
<path d="M21.2133 4.51255L17.8428 2.54721H17.9705L21.357 4.51255H21.2133Z" fill="#91322A"/>
<path d="M21.3572 4.43276C31.293 -1.30359 39.3759 3.31417 39.4079 14.7389C39.4398 26.1637 31.4209 40.0811 21.4691 45.8174C11.5173 51.5538 3.43439 46.968 3.40244 35.5432C3.37049 24.1185 11.4054 10.1691 21.3572 4.43276ZM21.4531 39.7616C28.4817 35.703 34.2322 25.8602 34.1364 17.7909C34.0405 9.72168 28.4017 6.44596 21.3572 10.5045C17.656 12.9069 14.5759 16.1514 12.3687 19.9728C10.1615 23.7942 8.88995 28.084 8.65795 32.4912C8.65795 40.5605 14.4086 43.8202 21.4371 39.7616" fill="#E24E41"/>
</svg>
