<svg width="1920" height="299" viewBox="0 0 1920 299" fill="none" xmlns="http://www.w3.org/2000/svg">
<rect y="0.461655" width="1920" height="298" fill="#474747"/>
<path d="M301.305 82.8567V83.8617H305.34C305.16 86.6517 303.885 89.0817 300.795 90.8067L301.515 91.6917C305.34 89.5317 306.555 86.3217 306.555 82.8567H301.305ZM311.025 81.1167V86.5317H309.195V81.4767H308.04V93.8967H309.195V87.5367H311.025V94.5717H312.21V81.1167H311.025ZM325.634 81.1317H324.404V90.9567H325.634V81.1317ZM316.109 85.3617C316.109 84.0567 317.099 83.1267 318.404 83.1267C319.739 83.1267 320.729 84.0567 320.729 85.3617C320.729 86.6967 319.739 87.6267 318.404 87.6267C317.099 87.6267 316.109 86.6967 316.109 85.3617ZM321.929 85.3617C321.929 83.4267 320.414 82.0617 318.404 82.0617C316.409 82.0617 314.909 83.4267 314.909 85.3617C314.909 87.3117 316.409 88.6917 318.404 88.6917C320.414 88.6917 321.929 87.3117 321.929 85.3617ZM318.209 93.2667V89.9517H316.979V94.2717H326.039V93.2667H318.209ZM335.578 84.6117V85.6167H338.233V89.1417H339.478V81.1317H338.233V84.6117H335.578ZM336.328 87.6717C334.378 86.9817 333.058 85.2867 333.058 83.5617V83.0967H336.013V82.1067H328.828V83.0967H331.828V83.5617C331.828 85.4967 330.448 87.3117 328.438 88.0467L329.083 89.0217C330.658 88.4217 331.903 87.1617 332.473 85.6017C333.058 86.9817 334.213 88.0917 335.713 88.6317L336.328 87.6717ZM335.038 93.6117C333.013 93.6117 331.783 93.0417 331.783 92.0667C331.783 91.0917 333.013 90.5067 335.038 90.5067C337.063 90.5067 338.293 91.0917 338.293 92.0667C338.293 93.0417 337.063 93.6117 335.038 93.6117ZM335.038 89.5617C332.278 89.5617 330.553 90.4767 330.553 92.0667C330.553 93.6567 332.278 94.5717 335.038 94.5717C337.798 94.5717 339.523 93.6567 339.523 92.0667C339.523 90.4767 337.798 89.5617 335.038 89.5617ZM344.846 85.4817H351.716V87.9567H344.846V85.4817ZM348.896 91.8417V88.9467H352.916V82.0767H351.716V84.4767H344.846V82.0767H343.631V88.9467H347.651V91.8417H342.191V92.8467H354.386V91.8417H348.896ZM360.64 84.4317H363.625V83.4417H360.64V81.3567H359.41V83.4417H356.38V84.4317H359.425V85.4667C359.425 87.7917 357.985 90.0867 356.005 91.0317L356.695 91.9767C358.225 91.2267 359.47 89.6667 360.04 87.7917C360.64 89.5617 361.885 91.0167 363.415 91.7217L364.09 90.7767C362.11 89.8917 360.64 87.7017 360.64 85.4667V84.4317ZM365.845 81.1017V86.5167H362.935V87.5217H365.845V94.6017H367.075V81.1017H365.845ZM371.799 87.1617H376.764V82.3617H370.524V83.3667H375.519V86.1717H370.569V91.3317H371.679C373.989 91.3317 376.029 91.2417 378.459 90.8367L378.339 89.8317C375.984 90.2067 374.004 90.3117 371.799 90.3117V87.1617ZM379.599 81.1017V94.5867H380.829V81.1017H379.599ZM389.168 87.1767H385.358V84.9567H389.168V87.1767ZM390.368 81.9717H389.168V83.9967H385.358V81.9717H384.143V88.1667H390.368V81.9717ZM389.753 93.5967C387.743 93.5967 386.543 93.0267 386.543 92.0667C386.543 91.1067 387.743 90.5517 389.753 90.5517C391.733 90.5517 392.948 91.1067 392.948 92.0667C392.948 93.0267 391.733 93.5967 389.753 93.5967ZM389.753 89.5617C387.008 89.5617 385.313 90.4767 385.313 92.0667C385.313 93.6567 387.008 94.5717 389.753 94.5717C392.483 94.5717 394.178 93.6567 394.178 92.0667C394.178 90.4767 392.483 89.5617 389.753 89.5617ZM394.028 84.5067V81.1167H392.798V89.2167H394.028V85.5267H396.023V84.5067H394.028ZM405.697 87.6417C403.702 87.0567 402.262 85.5417 402.262 83.8467V83.6817H405.307V82.6917H402.277V81.0267H401.047V82.6917H397.987V83.6817H401.047V83.8467C401.047 85.6467 399.637 87.2817 397.642 87.9267L398.227 88.8717C399.847 88.3617 401.092 87.2367 401.677 85.7817C402.307 87.1017 403.552 88.1217 405.127 88.6017L405.697 87.6417ZM400.927 90.7617H407.227V93.4017H400.927V90.7617ZM399.727 94.3917H408.427V89.7867H399.727V94.3917ZM407.197 81.1167V89.0967H408.427V81.1167H407.197ZM438.772 97.6467H439.732V80.8917H438.772V97.6467ZM470.266 85.1067C470.266 83.8617 471.256 82.9617 472.561 82.9617C473.881 82.9617 474.841 83.8617 474.841 85.1067C474.841 86.3667 473.881 87.2667 472.561 87.2667C471.256 87.2667 470.266 86.3667 470.266 85.1067ZM478.726 84.0567V86.1567H475.831C475.951 85.8267 476.011 85.4817 476.011 85.1067C476.011 84.7167 475.951 84.3717 475.846 84.0567H478.726ZM478.726 87.1617V89.0817H479.971V81.1167H478.726V83.0517H475.276C474.661 82.3617 473.701 81.9267 472.561 81.9267C470.566 81.9267 469.096 83.2317 469.096 85.1067C469.096 86.9967 470.566 88.3167 472.561 88.3167C473.701 88.3167 474.661 87.8817 475.276 87.1617H478.726ZM475.516 93.5817C473.491 93.5817 472.261 92.9817 472.261 91.9767C472.261 90.9567 473.491 90.3567 475.516 90.3567C477.571 90.3567 478.801 90.9567 478.801 91.9767C478.801 92.9817 477.571 93.5817 475.516 93.5817ZM475.516 89.3967C472.756 89.3967 471.046 90.3417 471.046 91.9767C471.046 93.6117 472.756 94.5567 475.516 94.5567C478.291 94.5567 480.016 93.6117 480.016 91.9767C480.016 90.3417 478.291 89.3967 475.516 89.3967ZM490.455 87.4467C488.52 86.7867 487.2 85.1067 487.2 83.2917V81.8067H485.97V83.1867C485.97 85.2417 484.665 87.0717 482.625 87.8067L483.27 88.7817C484.845 88.1817 486.045 86.9517 486.6 85.3767C487.2 86.7567 488.355 87.8667 489.81 88.4067L490.455 87.4467ZM488.85 93.5967C486.855 93.5967 485.64 93.0417 485.64 92.1117C485.64 91.1667 486.855 90.6117 488.85 90.6117C490.83 90.6117 492.045 91.1667 492.045 92.1117C492.045 93.0417 490.83 93.5967 488.85 93.5967ZM488.85 89.6517C486.105 89.6517 484.41 90.5367 484.41 92.1117C484.41 93.6717 486.105 94.5567 488.85 94.5567C491.58 94.5567 493.275 93.6717 493.275 92.1117C493.275 90.5367 491.58 89.6517 488.85 89.6517ZM493.125 84.5967V81.1317H491.895V89.2767H493.125V85.6167H495.12V84.5967H493.125ZM503.668 84.6117V85.6167H506.323V89.1417H507.568V81.1317H506.323V84.6117H503.668ZM504.418 87.6717C502.468 86.9817 501.148 85.2867 501.148 83.5617V83.0967H504.103V82.1067H496.918V83.0967H499.918V83.5617C499.918 85.4967 498.538 87.3117 496.528 88.0467L497.173 89.0217C498.748 88.4217 499.993 87.1617 500.563 85.6017C501.148 86.9817 502.303 88.0917 503.803 88.6317L504.418 87.6717ZM503.128 93.6117C501.103 93.6117 499.873 93.0417 499.873 92.0667C499.873 91.0917 501.103 90.5067 503.128 90.5067C505.153 90.5067 506.383 91.0917 506.383 92.0667C506.383 93.0417 505.153 93.6117 503.128 93.6117ZM503.128 89.5617C500.368 89.5617 498.643 90.4767 498.643 92.0667C498.643 93.6567 500.368 94.5717 503.128 94.5717C505.888 94.5717 507.613 93.6567 507.613 92.0667C507.613 90.4767 505.888 89.5617 503.128 89.5617ZM512.937 85.4817H519.807V87.9567H512.937V85.4817ZM516.987 91.8417V88.9467H521.007V82.0767H519.807V84.4767H512.937V82.0767H511.722V88.9467H515.742V91.8417H510.282V92.8467H522.477V91.8417H516.987ZM528.731 84.4317H531.716V83.4417H528.731V81.3567H527.501V83.4417H524.471V84.4317H527.516V85.4667C527.516 87.7917 526.076 90.0867 524.096 91.0317L524.786 91.9767C526.316 91.2267 527.561 89.6667 528.131 87.7917C528.731 89.5617 529.976 91.0167 531.506 91.7217L532.181 90.7767C530.201 89.8917 528.731 87.7017 528.731 85.4667V84.4317ZM533.936 81.1017V86.5167H531.026V87.5217H533.936V94.6017H535.166V81.1017H533.936ZM539.89 87.1617H544.855V82.3617H538.615V83.3667H543.61V86.1717H538.66V91.3317H539.77C542.08 91.3317 544.12 91.2417 546.55 90.8367L546.43 89.8317C544.075 90.2067 542.095 90.3117 539.89 90.3117V87.1617ZM547.69 81.1017V94.5867H548.92V81.1017H547.69ZM552.474 82.5717V83.5617H557.529C557.274 86.7567 555.474 89.3367 551.859 91.0617L552.519 92.0667C556.989 89.8767 558.774 86.4567 558.774 82.5717H552.474ZM561.489 81.1167V94.5717H562.719V81.1167H561.489ZM566.273 82.5717V83.5617H571.328C571.073 86.7567 569.273 89.3367 565.658 91.0617L566.318 92.0667C570.788 89.8767 572.573 86.4567 572.573 82.5717H566.273ZM575.288 81.1167V94.5717H576.518V81.1167H575.288ZM585.351 82.4517C587.421 82.4517 588.771 83.0967 588.771 84.1617C588.771 85.2117 587.421 85.8567 585.351 85.8567C583.296 85.8567 581.931 85.2117 581.931 84.1617C581.931 83.0967 583.296 82.4517 585.351 82.4517ZM585.351 86.8617C588.201 86.8617 590.061 85.8267 590.061 84.1617C590.061 82.4967 588.201 81.4617 585.351 81.4617C582.501 81.4617 580.641 82.4967 580.641 84.1617C580.641 85.8267 582.501 86.8617 585.351 86.8617ZM582.051 90.3417H580.821V94.2717H590.121V93.2517H582.051V90.3417ZM579.261 87.9417V88.9467H584.841V91.6617H586.086V88.9467H591.456V87.9417H579.261ZM594.455 85.1067C594.455 83.8617 595.445 82.9617 596.75 82.9617C598.07 82.9617 599.03 83.8617 599.03 85.1067C599.03 86.3667 598.07 87.2667 596.75 87.2667C595.445 87.2667 594.455 86.3667 594.455 85.1067ZM602.915 84.0567V86.1567H600.02C600.14 85.8267 600.2 85.4817 600.2 85.1067C600.2 84.7167 600.14 84.3717 600.035 84.0567H602.915ZM602.915 87.1617V89.0817H604.16V81.1167H602.915V83.0517H599.465C598.85 82.3617 597.89 81.9267 596.75 81.9267C594.755 81.9267 593.285 83.2317 593.285 85.1067C593.285 86.9967 594.755 88.3167 596.75 88.3167C597.89 88.3167 598.85 87.8817 599.465 87.1617H602.915ZM599.705 93.5817C597.68 93.5817 596.45 92.9817 596.45 91.9767C596.45 90.9567 597.68 90.3567 599.705 90.3567C601.76 90.3567 602.99 90.9567 602.99 91.9767C602.99 92.9817 601.76 93.5817 599.705 93.5817ZM599.705 89.3967C596.945 89.3967 595.235 90.3417 595.235 91.9767C595.235 93.6117 596.945 94.5567 599.705 94.5567C602.48 94.5567 604.205 93.6117 604.205 91.9767C604.205 90.3417 602.48 89.3967 599.705 89.3967ZM612.454 87.1767H608.644V84.9567H612.454V87.1767ZM613.654 81.9717H612.454V83.9967H608.644V81.9717H607.429V88.1667H613.654V81.9717ZM613.039 93.5967C611.029 93.5967 609.829 93.0267 609.829 92.0667C609.829 91.1067 611.029 90.5517 613.039 90.5517C615.019 90.5517 616.234 91.1067 616.234 92.0667C616.234 93.0267 615.019 93.5967 613.039 93.5967ZM613.039 89.5617C610.294 89.5617 608.599 90.4767 608.599 92.0667C608.599 93.6567 610.294 94.5717 613.039 94.5717C615.769 94.5717 617.464 93.6567 617.464 92.0667C617.464 90.4767 615.769 89.5617 613.039 89.5617ZM617.314 84.5067V81.1167H616.084V89.2167H617.314V85.5267H619.309V84.5067H617.314ZM628.983 87.6417C626.988 87.0567 625.548 85.5417 625.548 83.8467V83.6817H628.593V82.6917H625.563V81.0267H624.333V82.6917H621.273V83.6817H624.333V83.8467C624.333 85.6467 622.923 87.2817 620.928 87.9267L621.513 88.8717C623.133 88.3617 624.378 87.2367 624.963 85.7817C625.593 87.1017 626.838 88.1217 628.413 88.6017L628.983 87.6417ZM624.213 90.7617H630.513V93.4017H624.213V90.7617ZM623.013 94.3917H631.713V89.7867H623.013V94.3917ZM630.483 81.1167V89.0967H631.713V81.1167H630.483ZM662.058 97.6467H663.018V80.8917H662.058V97.6467ZM694.542 85.5267C694.542 83.9817 696.117 82.9767 698.262 82.9767C700.407 82.9767 701.967 83.9817 701.967 85.5267C701.967 87.0717 700.407 88.0767 698.262 88.0767C696.117 88.0767 694.542 87.0717 694.542 85.5267ZM698.877 91.8267V89.0217C701.382 88.8417 703.137 87.5067 703.137 85.5267C703.137 83.3817 701.097 82.0017 698.262 82.0017C695.412 82.0017 693.357 83.3817 693.357 85.5267C693.357 87.5067 695.127 88.8417 697.632 89.0217V91.8267H692.157V92.8467H704.382V91.8267H698.877ZM713.081 87.5217V88.3317H715.751V89.0367H716.981V81.1317H715.751V87.5217H713.081ZM710.276 82.2417C711.596 82.2417 712.436 82.6917 712.436 83.4117C712.436 84.1017 711.596 84.5667 710.276 84.5667C708.971 84.5667 708.116 84.1017 708.116 83.4117C708.116 82.6917 708.971 82.2417 710.276 82.2417ZM710.276 85.4067C712.271 85.4067 713.591 84.6417 713.591 83.4117C713.591 82.1517 712.271 81.3867 710.276 81.3867C708.281 81.3867 706.961 82.1517 706.961 83.4117C706.961 84.6417 708.281 85.4067 710.276 85.4067ZM709.586 89.0817H710.816V87.0117C712.121 86.9367 713.456 86.8317 714.761 86.6517L714.686 85.8417C711.806 86.1717 708.521 86.1867 705.926 86.1867L706.076 87.1167C707.156 87.1167 708.341 87.1017 709.586 87.0717V89.0817ZM709.211 93.5067V92.3367H716.981V89.5317H707.966V90.4167H715.781V91.4967H707.996V94.4217H717.446V93.5067H709.211ZM730.555 87.5667H722.53V83.3667H730.42V82.3467H721.315V88.5717H730.555V87.5667ZM719.755 91.7367V92.7567H731.965V91.7367H719.755ZM745.178 87.6867C742.823 87.2667 740.258 85.2867 740.258 83.0517V82.0167H738.968V83.0517C738.968 85.2867 736.418 87.2667 734.063 87.6867L734.573 88.7067C736.643 88.2717 738.743 86.8767 739.613 84.9567C740.483 86.8767 742.598 88.2717 744.653 88.7067L745.178 87.6867ZM740.228 91.8117V88.5417H738.998V91.8117H733.568V92.8167H745.778V91.8117H740.228ZM747.877 82.8567V83.8617H751.912C751.732 86.6517 750.457 89.0817 747.367 90.8067L748.087 91.6917C751.912 89.5317 753.127 86.3217 753.127 82.8567H747.877ZM757.597 81.1167V86.5317H755.767V81.4767H754.612V93.8967H755.767V87.5367H757.597V94.5717H758.782V81.1167H757.597ZM788.752 97.6467H789.712V80.8917H788.752V97.6467ZM821.236 85.5267C821.236 83.9817 822.811 82.9767 824.956 82.9767C827.101 82.9767 828.661 83.9817 828.661 85.5267C828.661 87.0717 827.101 88.0767 824.956 88.0767C822.811 88.0767 821.236 87.0717 821.236 85.5267ZM825.571 91.8267V89.0217C828.076 88.8417 829.831 87.5067 829.831 85.5267C829.831 83.3817 827.791 82.0017 824.956 82.0017C822.106 82.0017 820.051 83.3817 820.051 85.5267C820.051 87.5067 821.821 88.8417 824.326 89.0217V91.8267H818.851V92.8467H831.076V91.8267H825.571ZM837.435 82.2867H836.22V84.7017C836.22 87.2517 834.585 89.8317 832.605 90.7767L833.355 91.7817C834.93 90.9717 836.22 89.2917 836.835 87.2667C837.48 89.1867 838.77 90.7767 840.3 91.5267L841.035 90.5367C839.04 89.6367 837.435 87.1617 837.435 84.7017V82.2867ZM842.445 81.1167V94.6017H843.675V81.1167H842.445ZM857.249 85.1667H849.329V81.6117H848.099V86.1717H857.249V85.1667ZM849.239 90.3117H848.009V94.2417H857.324V93.2367H849.239V90.3117ZM846.449 87.9717V88.9617H858.644V87.9717H846.449ZM874.657 81.1167H873.427V87.9867H874.657V81.1167ZM864.517 81.7767V82.7817H869.302C869.107 84.9267 867.202 86.5317 863.842 87.2667L864.292 88.2567C868.252 87.3567 870.637 85.1967 870.637 81.7767H864.517ZM867.202 93.4617V91.9017H874.657V88.6317H865.942V89.6067H873.427V90.9867H865.972V94.4367H875.107V93.4617H867.202ZM303.96 181.657C305.91 181.657 307.485 180.487 307.485 178.522C307.485 177.022 306.45 176.032 305.16 175.732V175.672C306.315 175.237 307.11 174.352 307.11 173.017C307.11 171.277 305.76 170.257 303.915 170.257C302.64 170.257 301.665 170.812 300.84 171.577L301.575 172.447C302.19 171.817 302.97 171.382 303.855 171.382C304.995 171.382 305.715 172.072 305.715 173.122C305.715 174.307 304.935 175.222 302.67 175.222V176.272C305.205 176.272 306.09 177.157 306.09 178.462C306.09 179.737 305.16 180.517 303.855 180.517C302.61 180.517 301.77 179.932 301.125 179.257L300.435 180.157C301.155 180.937 302.235 181.657 303.96 181.657ZM312.235 181.657C314.095 181.657 315.835 180.292 315.835 177.877C315.835 175.462 314.35 174.382 312.52 174.382C311.86 174.382 311.38 174.547 310.885 174.817L311.155 171.637H315.31V170.452H309.955L309.61 175.612L310.345 176.062C310.975 175.642 311.44 175.417 312.175 175.417C313.555 175.417 314.455 176.347 314.455 177.922C314.455 179.527 313.405 180.517 312.115 180.517C310.84 180.517 310.045 179.932 309.415 179.302L308.74 180.202C309.475 180.937 310.525 181.657 312.235 181.657ZM320.811 181.657C322.896 181.657 324.231 179.752 324.231 175.927C324.231 172.117 322.896 170.257 320.811 170.257C318.711 170.257 317.376 172.102 317.376 175.927C317.376 179.752 318.711 181.657 320.811 181.657ZM320.811 180.562C319.551 180.562 318.711 179.167 318.711 175.927C318.711 172.717 319.551 171.352 320.811 171.352C322.056 171.352 322.896 172.717 322.896 175.927C322.896 179.167 322.056 180.562 320.811 180.562ZM327.931 181.462H329.356C329.521 177.157 330.001 174.592 332.581 171.292V170.452H325.696V171.637H331.021C328.876 174.637 328.111 177.292 327.931 181.462ZM337.241 181.657C339.191 181.657 340.766 180.487 340.766 178.522C340.766 177.022 339.731 176.032 338.441 175.732V175.672C339.596 175.237 340.391 174.352 340.391 173.017C340.391 171.277 339.041 170.257 337.196 170.257C335.921 170.257 334.946 170.812 334.121 171.577L334.856 172.447C335.471 171.817 336.251 171.382 337.136 171.382C338.276 171.382 338.996 172.072 338.996 173.122C338.996 174.307 338.216 175.222 335.951 175.222V176.272C338.486 176.272 339.371 177.157 339.371 178.462C339.371 179.737 338.441 180.517 337.136 180.517C335.891 180.517 335.051 179.932 334.406 179.257L333.716 180.157C334.436 180.937 335.516 181.657 337.241 181.657ZM347.446 171.757H351.241V170.752H346.231V179.257H347.116C349.126 179.257 350.491 179.197 352.096 178.852L351.991 177.832C350.521 178.147 349.246 178.222 347.446 178.237V171.757ZM355.996 169.117V174.517H354.091V169.417H352.936V181.897H354.091V175.522H355.996V182.572H357.181V169.117H355.996ZM366.69 172.837V173.842H369.39V178.987H370.635V169.132H369.39V172.837H366.69ZM367.485 176.002C365.535 175.312 364.215 173.632 364.215 171.877V171.217H367.17V170.212H359.985V171.217H362.985V171.892C362.985 173.797 361.59 175.582 359.595 176.302L360.24 177.262C361.815 176.692 363.045 175.447 363.63 173.917C364.215 175.297 365.37 176.422 366.87 176.962L367.485 176.002ZM363.27 181.267V178.117H362.025V182.272H371.01V181.267H363.27ZM380.399 174.337C380.744 172.747 380.744 171.532 380.744 170.677V169.957H374.084V170.947H379.544C379.544 171.757 379.514 172.807 379.199 174.232L380.399 174.337ZM381.689 175.177C380.309 175.342 378.794 175.447 377.324 175.507V172.882H376.109V175.537C375.104 175.567 374.114 175.567 373.259 175.567L373.394 176.587C375.809 176.587 378.989 176.512 381.779 176.077L381.689 175.177ZM379.484 181.567C377.489 181.567 376.259 181.027 376.259 180.097C376.259 179.182 377.489 178.642 379.484 178.642C381.479 178.642 382.709 179.182 382.709 180.097C382.709 181.027 381.479 181.567 379.484 181.567ZM379.484 177.682C376.724 177.682 375.014 178.567 375.014 180.097C375.014 181.657 376.724 182.542 379.484 182.542C382.244 182.542 383.954 181.657 383.954 180.097C383.954 178.567 382.244 177.682 379.484 177.682ZM383.819 172.792V169.102H382.589V177.502H383.819V173.812H385.724V172.792H383.819ZM389.233 178.792H396.988V182.587H398.233V177.787H389.233V178.792ZM394.123 174.112C394.213 173.797 394.273 173.467 394.273 173.092C394.273 172.732 394.213 172.402 394.123 172.087H396.988V174.112H394.123ZM390.808 175.297C389.503 175.297 388.528 174.382 388.528 173.092C388.528 171.832 389.503 170.917 390.808 170.917C392.128 170.917 393.103 171.832 393.103 173.092C393.103 174.382 392.128 175.297 390.808 175.297ZM396.988 169.132V171.097H393.598C392.968 170.332 391.978 169.867 390.808 169.867C388.828 169.867 387.358 171.202 387.358 173.092C387.358 174.997 388.828 176.347 390.808 176.347C391.978 176.347 392.953 175.882 393.583 175.117H396.988V177.052H398.233V169.117L396.988 169.132ZM405.716 170.287H404.501V172.702C404.501 175.252 402.866 177.832 400.886 178.777L401.636 179.782C403.211 178.972 404.501 177.292 405.116 175.267C405.761 177.187 407.051 178.777 408.581 179.527L409.316 178.537C407.321 177.637 405.716 175.162 405.716 172.702V170.287ZM410.726 169.117V182.602H411.956V169.117H410.726ZM419.225 174.607C421.43 174.337 423.455 173.347 424.19 171.862C424.94 173.347 426.95 174.337 429.155 174.607L429.59 173.632C427.235 173.362 425.09 172.207 424.985 170.722H429.17V169.732H419.225V170.722H423.395C423.29 172.207 421.145 173.362 418.79 173.632L419.225 174.607ZM427.535 180.187C427.535 181.087 426.275 181.612 424.175 181.612C422.06 181.612 420.815 181.087 420.815 180.187C420.815 179.287 422.06 178.777 424.175 178.777C426.275 178.777 427.535 179.287 427.535 180.187ZM430.265 176.407V175.417H418.1V176.407H423.56V177.847C421.055 177.967 419.57 178.792 419.57 180.187C419.57 181.717 421.31 182.557 424.19 182.557C427.055 182.557 428.78 181.717 428.78 180.187C428.78 178.792 427.31 177.967 424.805 177.847V176.407H430.265ZM444.079 175.777H442.084C442.459 173.842 442.459 172.417 442.459 171.157V169.987H433.429V170.977H441.259V171.157C441.259 172.417 441.259 173.842 440.839 175.777H431.914V176.782H437.344V182.587H438.589V176.782H444.079V175.777ZM453.567 170.287H452.352V172.702C452.352 175.147 450.822 177.727 448.887 178.717L449.622 179.707C451.137 178.897 452.382 177.217 452.967 175.252C453.582 177.097 454.797 178.672 456.222 179.437L456.987 178.462C455.097 177.517 453.567 175.072 453.567 172.702V170.287ZM461.622 174.577H459.402V169.132H458.172V182.572H459.402V175.597H461.622V174.577ZM470.036 172.612V173.617H472.691V177.142H473.936V169.132H472.691V172.612H470.036ZM470.786 175.672C468.836 174.982 467.516 173.287 467.516 171.562V171.097H470.471V170.107H463.286V171.097H466.286V171.562C466.286 173.497 464.906 175.312 462.896 176.047L463.541 177.022C465.116 176.422 466.361 175.162 466.931 173.602C467.516 174.982 468.671 176.092 470.171 176.632L470.786 175.672ZM469.496 181.612C467.471 181.612 466.241 181.042 466.241 180.067C466.241 179.092 467.471 178.507 469.496 178.507C471.521 178.507 472.751 179.092 472.751 180.067C472.751 181.042 471.521 181.612 469.496 181.612ZM469.496 177.562C466.736 177.562 465.011 178.477 465.011 180.067C465.011 181.657 466.736 182.572 469.496 182.572C472.256 182.572 473.981 181.657 473.981 180.067C473.981 178.477 472.256 177.562 469.496 177.562ZM486.054 170.947C486.054 171.997 486.054 172.987 485.694 174.367L486.894 174.502C487.269 173.122 487.269 172.027 487.269 170.947V169.807H478.104V170.797H486.054V170.947ZM482.679 181.597C480.579 181.597 479.229 181.027 479.229 180.097C479.229 179.137 480.579 178.567 482.679 178.567C484.794 178.567 486.144 179.137 486.144 180.097C486.144 181.027 484.794 181.597 482.679 181.597ZM482.679 177.622C479.814 177.622 477.999 178.537 477.999 180.097C477.999 181.627 479.814 182.557 482.679 182.557C485.544 182.557 487.374 181.627 487.374 180.097C487.374 178.537 485.544 177.622 482.679 177.622ZM482.874 175.387V172.807H481.644V175.387H476.679V176.377H488.784V175.387H482.874ZM497.498 177.067V177.982H500.228V179.362H501.458V169.117H500.228V177.067H497.498ZM494.753 170.572C496.028 170.572 496.898 171.142 496.898 171.997C496.898 172.867 496.028 173.437 494.753 173.437C493.478 173.437 492.608 172.867 492.608 171.997C492.608 171.142 493.478 170.572 494.753 170.572ZM494.753 174.352C496.718 174.352 498.068 173.437 498.068 171.997C498.068 170.587 496.718 169.657 494.753 169.657C492.788 169.657 491.438 170.587 491.438 171.997C491.438 173.437 492.788 174.352 494.753 174.352ZM494.273 178.882H495.503V176.227C496.718 176.152 497.963 176.017 499.148 175.837L499.043 174.952C496.193 175.312 492.863 175.342 490.373 175.342L490.538 176.362C491.648 176.362 492.938 176.347 494.273 176.287V178.882ZM493.523 181.267V178.357H492.293V182.272H501.803V181.267H493.523ZM510.952 179.902V177.367H515.257V176.377H506.977V174.202H514.942V170.107H505.732V171.112H513.742V173.212H505.762V177.367H509.707V179.902H504.232V180.907H516.457V179.902H510.952ZM523.575 181.462H525C525.165 177.157 525.645 174.592 528.225 171.292V170.452H521.34V171.637H526.665C524.52 174.637 523.755 177.292 523.575 181.462ZM533.096 181.657C535.181 181.657 536.516 179.752 536.516 175.927C536.516 172.117 535.181 170.257 533.096 170.257C530.996 170.257 529.661 172.102 529.661 175.927C529.661 179.752 530.996 181.657 533.096 181.657ZM533.096 180.562C531.836 180.562 530.996 179.167 530.996 175.927C530.996 172.717 531.836 171.352 533.096 171.352C534.341 171.352 535.181 172.717 535.181 175.927C535.181 179.167 534.341 180.562 533.096 180.562ZM544.186 184.417L545.041 184.012C543.736 181.882 543.121 179.347 543.121 176.797C543.121 174.247 543.736 171.727 545.041 169.582L544.186 169.192C542.806 171.427 541.981 173.857 541.981 176.797C541.981 179.752 542.806 182.167 544.186 184.417ZM550.979 170.287H549.764V172.702C549.764 175.147 548.234 177.727 546.299 178.717L547.034 179.707C548.549 178.897 549.794 177.217 550.379 175.252C550.994 177.097 552.209 178.672 553.634 179.437L554.399 178.462C552.509 177.517 550.979 175.072 550.979 172.702V170.287ZM559.034 174.577H556.814V169.132H555.584V182.572H556.814V175.597H559.034V174.577ZM567.448 172.612V173.617H570.103V177.142H571.348V169.132H570.103V172.612H567.448ZM568.198 175.672C566.248 174.982 564.928 173.287 564.928 171.562V171.097H567.883V170.107H560.698V171.097H563.698V171.562C563.698 173.497 562.318 175.312 560.308 176.047L560.953 177.022C562.528 176.422 563.773 175.162 564.343 173.602C564.928 174.982 566.083 176.092 567.583 176.632L568.198 175.672ZM566.908 181.612C564.883 181.612 563.653 181.042 563.653 180.067C563.653 179.092 564.883 178.507 566.908 178.507C568.933 178.507 570.163 179.092 570.163 180.067C570.163 181.042 568.933 181.612 566.908 181.612ZM566.908 177.562C564.148 177.562 562.423 178.477 562.423 180.067C562.423 181.657 564.148 182.572 566.908 182.572C569.668 182.572 571.393 181.657 571.393 180.067C571.393 178.477 569.668 177.562 566.908 177.562ZM580.152 181.612C578.022 181.612 576.777 181.087 576.777 180.142C576.777 179.197 578.022 178.672 580.152 178.672C582.252 178.672 583.497 179.197 583.497 180.142C583.497 181.087 582.252 181.612 580.152 181.612ZM580.152 177.712C577.272 177.712 575.532 178.582 575.532 180.142C575.532 181.702 577.272 182.572 580.152 182.572C583.002 182.572 584.742 181.702 584.742 180.142C584.742 178.582 583.002 177.712 580.152 177.712ZM580.767 175.762V174.202H584.817V173.212H576.822V170.722H584.727V169.732H575.592V174.202H579.537V175.762H574.062V176.752H586.242V175.762H580.767ZM588.55 184.417C589.945 182.167 590.77 179.752 590.77 176.797C590.77 173.857 589.945 171.427 588.55 169.192L587.71 169.582C589 171.727 589.63 174.247 589.63 176.797C589.63 179.347 589 181.882 587.71 184.012L588.55 184.417ZM597.978 171.757H601.773V170.752H596.763V179.257H597.648C599.658 179.257 601.023 179.197 602.628 178.852L602.523 177.832C601.053 178.147 599.778 178.222 597.978 178.237V171.757ZM606.528 169.117V174.517H604.623V169.417H603.468V181.897H604.623V175.522H606.528V182.572H607.713V169.117H606.528ZM617.222 172.837V173.842H619.922V178.987H621.167V169.132H619.922V172.837H617.222ZM618.017 176.002C616.067 175.312 614.747 173.632 614.747 171.877V171.217H617.702V170.212H610.517V171.217H613.517V171.892C613.517 173.797 612.122 175.582 610.127 176.302L610.772 177.262C612.347 176.692 613.577 175.447 614.162 173.917C614.747 175.297 615.902 176.422 617.402 176.962L618.017 176.002ZM613.802 181.267V178.117H612.557V182.272H621.542V181.267H613.802ZM626.251 173.527C626.251 171.982 627.826 170.977 629.971 170.977C632.116 170.977 633.676 171.982 633.676 173.527C633.676 175.072 632.116 176.077 629.971 176.077C627.826 176.077 626.251 175.072 626.251 173.527ZM630.586 179.827V177.022C633.091 176.842 634.846 175.507 634.846 173.527C634.846 171.382 632.806 170.002 629.971 170.002C627.121 170.002 625.066 171.382 625.066 173.527C625.066 175.507 626.836 176.842 629.341 177.022V179.827H623.866V180.847H636.091V179.827H630.586ZM644.79 175.522V176.332H647.46V177.037H648.69V169.132H647.46V175.522H644.79ZM641.985 170.242C643.305 170.242 644.145 170.692 644.145 171.412C644.145 172.102 643.305 172.567 641.985 172.567C640.68 172.567 639.825 172.102 639.825 171.412C639.825 170.692 640.68 170.242 641.985 170.242ZM641.985 173.407C643.98 173.407 645.3 172.642 645.3 171.412C645.3 170.152 643.98 169.387 641.985 169.387C639.99 169.387 638.67 170.152 638.67 171.412C638.67 172.642 639.99 173.407 641.985 173.407ZM641.295 177.082H642.525V175.012C643.83 174.937 645.165 174.832 646.47 174.652L646.395 173.842C643.515 174.172 640.23 174.187 637.635 174.187L637.785 175.117C638.865 175.117 640.05 175.102 641.295 175.072V177.082ZM640.92 181.507V180.337H648.69V177.532H639.675V178.417H647.49V179.497H639.705V182.422H649.155V181.507H640.92ZM662.264 175.567H654.239V171.367H662.129V170.347H653.024V176.572H662.264V175.567ZM651.464 179.737V180.757H663.674V179.737H651.464ZM668.067 184.417L668.922 184.012C667.617 181.882 667.002 179.347 667.002 176.797C667.002 174.247 667.617 171.727 668.922 169.582L668.067 169.192C666.687 171.427 665.862 173.857 665.862 176.797C665.862 179.752 666.687 182.167 668.067 184.417ZM673.511 181.657C675.461 181.657 677.036 180.487 677.036 178.522C677.036 177.022 676.001 176.032 674.711 175.732V175.672C675.866 175.237 676.661 174.352 676.661 173.017C676.661 171.277 675.311 170.257 673.466 170.257C672.191 170.257 671.216 170.812 670.391 171.577L671.126 172.447C671.741 171.817 672.521 171.382 673.406 171.382C674.546 171.382 675.266 172.072 675.266 173.122C675.266 174.307 674.486 175.222 672.221 175.222V176.272C674.756 176.272 675.641 177.157 675.641 178.462C675.641 179.737 674.711 180.517 673.406 180.517C672.161 180.517 671.321 179.932 670.676 179.257L669.986 180.157C670.706 180.937 671.786 181.657 673.511 181.657ZM682.041 181.657C684.126 181.657 685.461 179.752 685.461 175.927C685.461 172.117 684.126 170.257 682.041 170.257C679.941 170.257 678.606 172.102 678.606 175.927C678.606 179.752 679.941 181.657 682.041 181.657ZM682.041 180.562C680.781 180.562 679.941 179.167 679.941 175.927C679.941 172.717 680.781 171.352 682.041 171.352C683.286 171.352 684.126 172.717 684.126 175.927C684.126 179.167 683.286 180.562 682.041 180.562ZM690.106 181.657C691.966 181.657 693.706 180.292 693.706 177.877C693.706 175.462 692.221 174.382 690.391 174.382C689.731 174.382 689.251 174.547 688.756 174.817L689.026 171.637H693.181V170.452H687.826L687.481 175.612L688.216 176.062C688.846 175.642 689.311 175.417 690.046 175.417C691.426 175.417 692.326 176.347 692.326 177.922C692.326 179.527 691.276 180.517 689.986 180.517C688.711 180.517 687.916 179.932 687.286 179.302L686.611 180.202C687.346 180.937 688.396 181.657 690.106 181.657ZM695.202 177.787H699.042V176.737H695.202V177.787ZM703.897 181.657C705.967 181.657 707.347 180.412 707.347 178.807C707.347 177.307 706.447 176.482 705.487 175.927V175.852C706.147 175.342 706.957 174.352 706.957 173.197C706.957 171.502 705.817 170.302 703.942 170.302C702.232 170.302 700.927 171.412 700.927 173.092C700.927 174.247 701.602 175.072 702.412 175.627V175.702C701.407 176.242 700.387 177.262 700.387 178.732C700.387 180.427 701.872 181.657 703.897 181.657ZM704.647 175.492C703.357 174.982 702.172 174.412 702.172 173.092C702.172 172.027 702.907 171.307 703.927 171.307C705.112 171.307 705.787 172.192 705.787 173.272C705.787 174.082 705.397 174.832 704.647 175.492ZM703.927 180.637C702.607 180.637 701.632 179.782 701.632 178.612C701.632 177.562 702.247 176.692 703.132 176.122C704.692 176.752 706.042 177.307 706.042 178.777C706.042 179.872 705.187 180.637 703.927 180.637ZM708.692 181.462H715.607V180.277H712.562C712.007 180.277 711.332 180.337 710.762 180.382C713.342 177.937 715.067 175.702 715.067 173.512C715.067 171.547 713.837 170.257 711.872 170.257C710.477 170.257 709.532 170.902 708.632 171.877L709.427 172.657C710.027 171.937 710.807 171.382 711.707 171.382C713.072 171.382 713.732 172.297 713.732 173.557C713.732 175.447 712.142 177.637 708.692 180.652V181.462ZM717.043 177.787H720.883V176.737H717.043V177.787ZM722.873 181.462H728.903V180.322H726.698V170.452H725.648C725.048 170.812 724.343 171.067 723.368 171.247V172.117H725.318V180.322H722.873V181.462ZM730.533 181.462H737.448V180.277H734.403C733.848 180.277 733.173 180.337 732.603 180.382C735.183 177.937 736.908 175.702 736.908 173.512C736.908 171.547 735.678 170.257 733.713 170.257C732.318 170.257 731.373 170.902 730.473 171.877L731.268 172.657C731.868 171.937 732.648 171.382 733.548 171.382C734.913 171.382 735.573 172.297 735.573 173.557C735.573 175.447 733.983 177.637 730.533 180.652V181.462ZM738.853 181.462H745.768V180.277H742.723C742.168 180.277 741.493 180.337 740.923 180.382C743.503 177.937 745.228 175.702 745.228 173.512C745.228 171.547 743.998 170.257 742.033 170.257C740.638 170.257 739.693 170.902 738.793 171.877L739.588 172.657C740.188 171.937 740.968 171.382 741.868 171.382C743.233 171.382 743.893 172.297 743.893 173.557C743.893 175.447 742.303 177.637 738.853 180.652V181.462ZM748.464 173.827C748.464 172.327 749.274 171.337 750.324 171.337C751.734 171.337 752.574 172.537 752.724 174.802C752.019 175.837 751.179 176.272 750.429 176.272C749.124 176.272 748.464 175.312 748.464 173.827ZM750.024 181.657C752.094 181.657 754.014 179.947 754.014 175.492C754.014 171.997 752.439 170.257 750.324 170.257C748.614 170.257 747.174 171.697 747.174 173.827C747.174 176.107 748.374 177.292 750.204 177.292C751.119 177.292 752.064 176.767 752.739 175.942C752.634 179.347 751.404 180.517 749.979 180.517C749.274 180.517 748.599 180.202 748.149 179.677L747.384 180.532C747.999 181.177 748.839 181.657 750.024 181.657ZM756.559 177.337L759.064 173.587C759.379 173.047 759.679 172.507 759.949 171.967H760.009C759.979 172.537 759.934 173.422 759.934 173.962V177.337H756.559ZM759.934 181.462H761.224V178.432H762.679V177.337H761.224V170.452H759.709L755.134 177.532V178.432H759.934V181.462ZM772.353 171.757H776.148V170.752H771.138V179.257H772.023C774.033 179.257 775.398 179.197 777.003 178.852L776.898 177.832C775.428 178.147 774.153 178.222 772.353 178.237V171.757ZM780.903 169.117V174.517H778.998V169.417H777.843V181.897H778.998V175.522H780.903V182.572H782.088V169.117H780.903ZM789.062 176.737H791.987V179.932H789.062V176.737ZM788.852 171.352H792.197V175.747H788.852V171.352ZM793.217 179.932V176.737H795.497V175.747H793.427V171.352H795.512V170.362H785.537V171.352H787.622V175.747H785.567V176.737H787.832V179.932H784.442V180.937H796.652V179.932H793.217ZM802.786 171.517H805.771V170.497H798.496V171.517H801.571V173.227C801.571 175.507 799.951 178.057 798.031 179.017L798.751 179.992C800.266 179.212 801.571 177.502 802.186 175.537C802.801 177.337 804.061 178.912 805.561 179.662L806.266 178.672C804.316 177.757 802.786 175.372 802.786 173.227V171.517ZM810.826 174.547H808.606V169.132H807.376V182.572H808.606V175.582H810.826V174.547ZM816.699 175.612C817.239 175.612 817.689 175.177 817.689 174.577C817.689 173.947 817.239 173.512 816.699 173.512C816.159 173.512 815.709 173.947 815.709 174.577C815.709 175.177 816.159 175.612 816.699 175.612ZM816.699 181.657C817.239 181.657 817.689 181.237 817.689 180.622C817.689 179.992 817.239 179.557 816.699 179.557C816.159 179.557 815.709 179.992 815.709 180.622C815.709 181.237 816.159 181.657 816.699 181.657ZM823.794 169.972V170.977H828.669C828.429 173.257 826.374 175.027 823.089 175.882L823.584 176.857C827.514 175.807 829.989 173.407 829.989 169.972H823.794ZM826.479 178.342H832.764V181.387H826.479V178.342ZM825.279 182.377H833.979V177.367H825.279V182.377ZM832.749 169.117V176.722H833.979V169.117H832.749ZM840.712 171.712H843.157V170.707H836.917V171.712H839.527V172.762C839.527 175.492 838.522 177.787 836.602 178.867L837.352 179.797C838.747 178.987 839.692 177.532 840.142 175.702C840.622 177.292 841.552 178.597 842.872 179.332L843.592 178.387C841.687 177.397 840.712 175.222 840.712 172.762V171.712ZM847.027 169.102V174.547H845.257V169.417H844.102V181.912H845.257V175.567H847.027V182.572H848.212V169.102H847.027ZM858.096 170.497H855.006V168.997H853.776V170.497H850.566V171.487H858.096V170.497ZM852.486 174.742C852.486 173.812 853.266 173.182 854.376 173.182C855.486 173.182 856.266 173.812 856.266 174.742C856.266 175.687 855.486 176.302 854.376 176.302C853.266 176.302 852.486 175.687 852.486 174.742ZM857.421 174.742C857.421 173.242 856.146 172.222 854.376 172.222C852.606 172.222 851.331 173.242 851.331 174.742C851.331 176.242 852.606 177.262 854.376 177.262C856.146 177.262 857.421 176.242 857.421 174.742ZM852.636 179.422H860.376V182.572H861.621V178.432H852.636V179.422ZM860.376 169.132V172.417H858.096V173.422H860.376V174.952H858.081V175.942H860.376V177.667H861.621V169.132H860.376ZM865.025 184.417C866.42 182.167 867.245 179.752 867.245 176.797C867.245 173.857 866.42 171.427 865.025 169.192L864.185 169.582C865.475 171.727 866.105 174.247 866.105 176.797C866.105 179.347 865.475 181.882 864.185 184.012L865.025 184.417ZM875.758 181.462H877.153V171.637H880.483V170.452H872.428V171.637H875.758V181.462ZM882.442 181.462H888.952V180.277H883.837V176.272H888.007V175.087H883.837V171.637H888.787V170.452H882.442V181.462ZM891.261 181.462H897.456V180.277H892.656V170.452H891.261V181.462ZM905.43 181.657C907.515 181.657 908.85 179.752 908.85 175.927C908.85 172.117 907.515 170.257 905.43 170.257C903.33 170.257 901.995 172.102 901.995 175.927C901.995 179.752 903.33 181.657 905.43 181.657ZM905.43 180.562C904.17 180.562 903.33 179.167 903.33 175.927C903.33 172.717 904.17 171.352 905.43 171.352C906.675 171.352 907.515 172.717 907.515 175.927C907.515 179.167 906.675 180.562 905.43 180.562ZM911.305 177.337L913.81 173.587C914.125 173.047 914.425 172.507 914.695 171.967H914.755C914.725 172.537 914.68 173.422 914.68 173.962V177.337H911.305ZM914.68 181.462H915.97V178.432H917.425V177.337H915.97V170.452H914.455L909.88 177.532V178.432H914.68V181.462ZM918.56 181.462H925.475V180.277H922.43C921.875 180.277 921.2 180.337 920.63 180.382C923.21 177.937 924.935 175.702 924.935 173.512C924.935 171.547 923.705 170.257 921.74 170.257C920.345 170.257 919.4 170.902 918.5 171.877L919.295 172.657C919.895 171.937 920.675 171.382 921.575 171.382C922.94 171.382 923.6 172.297 923.6 173.557C923.6 175.447 922.01 177.637 918.56 180.652V181.462ZM926.911 177.787H930.751V176.737H926.911V177.787ZM935.336 181.657C937.196 181.657 938.936 180.292 938.936 177.877C938.936 175.462 937.451 174.382 935.621 174.382C934.961 174.382 934.481 174.547 933.986 174.817L934.256 171.637H938.411V170.452H933.056L932.711 175.612L933.446 176.062C934.076 175.642 934.541 175.417 935.276 175.417C936.656 175.417 937.556 176.347 937.556 177.922C937.556 179.527 936.506 180.517 935.216 180.517C933.941 180.517 933.146 179.932 932.516 179.302L931.841 180.202C932.576 180.937 933.626 181.657 935.336 181.657ZM943.926 181.657C945.996 181.657 947.376 180.412 947.376 178.807C947.376 177.307 946.476 176.482 945.516 175.927V175.852C946.176 175.342 946.986 174.352 946.986 173.197C946.986 171.502 945.846 170.302 943.971 170.302C942.261 170.302 940.956 171.412 940.956 173.092C940.956 174.247 941.631 175.072 942.441 175.627V175.702C941.436 176.242 940.416 177.262 940.416 178.732C940.416 180.427 941.901 181.657 943.926 181.657ZM944.676 175.492C943.386 174.982 942.201 174.412 942.201 173.092C942.201 172.027 942.936 171.307 943.956 171.307C945.141 171.307 945.816 172.192 945.816 173.272C945.816 174.082 945.426 174.832 944.676 175.492ZM943.956 180.637C942.636 180.637 941.661 179.782 941.661 178.612C941.661 177.562 942.276 176.692 943.161 176.122C944.721 176.752 946.071 177.307 946.071 178.777C946.071 179.872 945.216 180.637 943.956 180.637ZM952.232 181.657C954.317 181.657 955.652 179.752 955.652 175.927C955.652 172.117 954.317 170.257 952.232 170.257C950.132 170.257 948.797 172.102 948.797 175.927C948.797 179.752 950.132 181.657 952.232 181.657ZM952.232 180.562C950.972 180.562 950.132 179.167 950.132 175.927C950.132 172.717 950.972 171.352 952.232 171.352C953.477 171.352 954.317 172.717 954.317 175.927C954.317 179.167 953.477 180.562 952.232 180.562ZM957.072 177.787H960.912V176.737H957.072V177.787ZM963.307 177.337L965.812 173.587C966.127 173.047 966.427 172.507 966.697 171.967H966.757C966.727 172.537 966.682 173.422 966.682 173.962V177.337H963.307ZM966.682 181.462H967.972V178.432H969.427V177.337H967.972V170.452H966.457L961.882 177.532V178.432H966.682V181.462ZM974.087 181.657C976.157 181.657 977.537 180.412 977.537 178.807C977.537 177.307 976.637 176.482 975.677 175.927V175.852C976.337 175.342 977.147 174.352 977.147 173.197C977.147 171.502 976.007 170.302 974.132 170.302C972.422 170.302 971.117 171.412 971.117 173.092C971.117 174.247 971.792 175.072 972.602 175.627V175.702C971.597 176.242 970.577 177.262 970.577 178.732C970.577 180.427 972.062 181.657 974.087 181.657ZM974.837 175.492C973.547 174.982 972.362 174.412 972.362 173.092C972.362 172.027 973.097 171.307 974.117 171.307C975.302 171.307 975.977 172.192 975.977 173.272C975.977 174.082 975.587 174.832 974.837 175.492ZM974.117 180.637C972.797 180.637 971.822 179.782 971.822 178.612C971.822 177.562 972.437 176.692 973.322 176.122C974.882 176.752 976.232 177.307 976.232 178.777C976.232 179.872 975.377 180.637 974.117 180.637ZM978.883 181.462H985.798V180.277H982.753C982.198 180.277 981.523 180.337 980.953 180.382C983.533 177.937 985.258 175.702 985.258 173.512C985.258 171.547 984.028 170.257 982.063 170.257C980.668 170.257 979.723 170.902 978.823 171.877L979.618 172.657C980.218 171.937 980.998 171.382 981.898 171.382C983.263 171.382 983.923 172.297 983.923 173.557C983.923 175.447 982.333 177.637 978.883 180.652V181.462ZM990.713 181.657C992.798 181.657 994.133 179.752 994.133 175.927C994.133 172.117 992.798 170.257 990.713 170.257C988.613 170.257 987.278 172.102 987.278 175.927C987.278 179.752 988.613 181.657 990.713 181.657ZM990.713 180.562C989.453 180.562 988.613 179.167 988.613 175.927C988.613 172.717 989.453 171.352 990.713 171.352C991.958 171.352 992.798 172.717 992.798 175.927C992.798 179.167 991.958 180.562 990.713 180.562ZM999.718 181.462H1001.11V176.527H1005.31V175.357H1001.11V171.637H1006.06V170.452H999.718V181.462ZM1009.27 175.312C1009.66 174.067 1010.02 172.882 1010.36 171.592H1010.42C1010.78 172.867 1011.13 174.067 1011.53 175.312L1012.06 176.992H1008.73L1009.27 175.312ZM1005.91 181.462H1007.32L1008.38 178.102H1012.4L1013.45 181.462H1014.92L1011.19 170.452H1009.64L1005.91 181.462ZM1015.29 181.462H1016.74L1018.33 178.492C1018.62 177.937 1018.9 177.382 1019.22 176.722H1019.28C1019.64 177.382 1019.94 177.937 1020.22 178.492L1021.84 181.462H1023.37L1020.16 175.852L1023.16 170.452H1021.71L1020.24 173.272C1019.97 173.782 1019.76 174.247 1019.46 174.877H1019.4C1019.04 174.247 1018.81 173.782 1018.53 173.272L1017.03 170.452H1015.5L1018.5 175.777L1015.29 181.462ZM1031.16 181.657C1033.24 181.657 1034.58 179.752 1034.58 175.927C1034.58 172.117 1033.24 170.257 1031.16 170.257C1029.06 170.257 1027.72 172.102 1027.72 175.927C1027.72 179.752 1029.06 181.657 1031.16 181.657ZM1031.16 180.562C1029.9 180.562 1029.06 179.167 1029.06 175.927C1029.06 172.717 1029.9 171.352 1031.16 171.352C1032.4 171.352 1033.24 172.717 1033.24 175.927C1033.24 179.167 1032.4 180.562 1031.16 180.562ZM1037.03 177.337L1039.54 173.587C1039.85 173.047 1040.15 172.507 1040.42 171.967H1040.48C1040.45 172.537 1040.41 173.422 1040.41 173.962V177.337H1037.03ZM1040.41 181.462H1041.7V178.432H1043.15V177.337H1041.7V170.452H1040.18L1035.61 177.532V178.432H1040.41V181.462ZM1044.29 181.462H1051.2V180.277H1048.16C1047.6 180.277 1046.93 180.337 1046.36 180.382C1048.94 177.937 1050.66 175.702 1050.66 173.512C1050.66 171.547 1049.43 170.257 1047.47 170.257C1046.07 170.257 1045.13 170.902 1044.23 171.877L1045.02 172.657C1045.62 171.937 1046.4 171.382 1047.3 171.382C1048.67 171.382 1049.33 172.297 1049.33 173.557C1049.33 175.447 1047.74 177.637 1044.29 180.652V181.462ZM1052.64 177.787H1056.48V176.737H1052.64V177.787ZM1061.06 181.657C1062.92 181.657 1064.66 180.292 1064.66 177.877C1064.66 175.462 1063.18 174.382 1061.35 174.382C1060.69 174.382 1060.21 174.547 1059.71 174.817L1059.98 171.637H1064.14V170.452H1058.78L1058.44 175.612L1059.17 176.062C1059.8 175.642 1060.27 175.417 1061 175.417C1062.38 175.417 1063.28 176.347 1063.28 177.922C1063.28 179.527 1062.23 180.517 1060.94 180.517C1059.67 180.517 1058.87 179.932 1058.24 179.302L1057.57 180.202C1058.3 180.937 1059.35 181.657 1061.06 181.657ZM1069.65 181.657C1071.72 181.657 1073.1 180.412 1073.1 178.807C1073.1 177.307 1072.2 176.482 1071.24 175.927V175.852C1071.9 175.342 1072.71 174.352 1072.71 173.197C1072.71 171.502 1071.57 170.302 1069.7 170.302C1067.99 170.302 1066.68 171.412 1066.68 173.092C1066.68 174.247 1067.36 175.072 1068.17 175.627V175.702C1067.16 176.242 1066.14 177.262 1066.14 178.732C1066.14 180.427 1067.63 181.657 1069.65 181.657ZM1070.4 175.492C1069.11 174.982 1067.93 174.412 1067.93 173.092C1067.93 172.027 1068.66 171.307 1069.68 171.307C1070.87 171.307 1071.54 172.192 1071.54 173.272C1071.54 174.082 1071.15 174.832 1070.4 175.492ZM1069.68 180.637C1068.36 180.637 1067.39 179.782 1067.39 178.612C1067.39 177.562 1068 176.692 1068.89 176.122C1070.45 176.752 1071.8 177.307 1071.8 178.777C1071.8 179.872 1070.94 180.637 1069.68 180.637ZM1077.96 181.657C1080.04 181.657 1081.38 179.752 1081.38 175.927C1081.38 172.117 1080.04 170.257 1077.96 170.257C1075.86 170.257 1074.52 172.102 1074.52 175.927C1074.52 179.752 1075.86 181.657 1077.96 181.657ZM1077.96 180.562C1076.7 180.562 1075.86 179.167 1075.86 175.927C1075.86 172.717 1076.7 171.352 1077.96 171.352C1079.2 171.352 1080.04 172.717 1080.04 175.927C1080.04 179.167 1079.2 180.562 1077.96 180.562ZM1082.8 177.787H1086.64V176.737H1082.8V177.787ZM1089.03 177.337L1091.54 173.587C1091.85 173.047 1092.15 172.507 1092.42 171.967H1092.48C1092.45 172.537 1092.41 173.422 1092.41 173.962V177.337H1089.03ZM1092.41 181.462H1093.7V178.432H1095.15V177.337H1093.7V170.452H1092.18L1087.61 177.532V178.432H1092.41V181.462ZM1098.6 181.462H1100.02C1100.19 177.157 1100.67 174.592 1103.25 171.292V170.452H1096.36V171.637H1101.69C1099.54 174.637 1098.78 177.292 1098.6 181.462ZM1105.27 181.462H1111.3V180.322H1109.1V170.452H1108.05C1107.45 170.812 1106.74 171.067 1105.77 171.247V172.117H1107.72V180.322H1105.27V181.462ZM1113.59 181.462H1119.62V180.322H1117.42V170.452H1116.37C1115.77 170.812 1115.06 171.067 1114.09 171.247V172.117H1116.04V180.322H1113.59V181.462ZM305.655 203.657C307.08 203.657 308.16 203.087 309.03 202.082L308.265 201.212C307.56 201.977 306.765 202.442 305.715 202.442C303.615 202.442 302.295 200.702 302.295 197.927C302.295 195.182 303.675 193.472 305.76 193.472C306.705 193.472 307.44 193.907 308.01 194.522L308.76 193.622C308.13 192.917 307.08 192.257 305.745 192.257C302.955 192.257 300.87 194.417 300.87 197.972C300.87 201.542 302.925 203.657 305.655 203.657ZM314.11 203.657C316.105 203.657 317.89 202.097 317.89 199.397C317.89 196.682 316.105 195.107 314.11 195.107C312.115 195.107 310.33 196.682 310.33 199.397C310.33 202.097 312.115 203.657 314.11 203.657ZM314.11 202.517C312.7 202.517 311.755 201.272 311.755 199.397C311.755 197.522 312.7 196.247 314.11 196.247C315.52 196.247 316.48 197.522 316.48 199.397C316.48 201.272 315.52 202.517 314.11 202.517ZM320.042 206.897H321.407V204.137L321.377 202.712C322.112 203.312 322.892 203.657 323.627 203.657C325.502 203.657 327.167 202.052 327.167 199.262C327.167 196.757 326.027 195.107 323.927 195.107C322.982 195.107 322.067 195.647 321.332 196.247H321.287L321.167 195.317H320.042V206.897ZM323.402 202.517C322.862 202.517 322.142 202.292 321.407 201.662V197.387C322.202 196.652 322.907 196.262 323.597 196.262C325.142 196.262 325.742 197.477 325.742 199.277C325.742 201.302 324.752 202.517 323.402 202.517ZM329.42 206.972C331.04 206.972 331.895 205.742 332.45 204.137L335.525 195.317H334.19L332.735 199.847C332.51 200.567 332.27 201.392 332.045 202.127H331.97C331.715 201.392 331.43 200.552 331.19 199.847L329.525 195.317H328.1L331.37 203.477L331.19 204.092C330.86 205.097 330.275 205.847 329.345 205.847C329.135 205.847 328.895 205.772 328.73 205.712L328.46 206.807C328.715 206.912 329.03 206.972 329.42 206.972ZM337.108 203.462H338.473V198.227C339.013 196.832 339.853 196.352 340.528 196.352C340.858 196.352 341.053 196.382 341.323 196.487L341.578 195.287C341.323 195.152 341.068 195.107 340.708 195.107C339.793 195.107 338.968 195.767 338.398 196.802H338.353L338.233 195.317H337.108V203.462ZM342.923 203.462H344.288V195.317H342.923V203.462ZM343.613 193.637C344.153 193.637 344.528 193.277 344.528 192.722C344.528 192.197 344.153 191.837 343.613 191.837C343.073 191.837 342.698 192.197 342.698 192.722C342.698 193.277 343.073 193.637 343.613 193.637ZM349.799 207.212C352.319 207.212 353.924 205.907 353.924 204.392C353.924 203.057 352.964 202.457 351.074 202.457H349.484C348.389 202.457 348.059 202.097 348.059 201.572C348.059 201.122 348.284 200.852 348.584 200.597C348.944 200.777 349.394 200.882 349.799 200.882C351.449 200.882 352.769 199.787 352.769 198.047C352.769 197.342 352.499 196.742 352.109 196.367H353.774V195.317H350.939C350.654 195.212 350.249 195.107 349.799 195.107C348.149 195.107 346.739 196.232 346.739 198.017C346.739 198.992 347.264 199.772 347.804 200.207V200.267C347.384 200.567 346.889 201.107 346.889 201.782C346.889 202.427 347.204 202.862 347.639 203.117V203.177C346.874 203.672 346.439 204.332 346.439 205.022C346.439 206.432 347.804 207.212 349.799 207.212ZM349.799 199.952C348.854 199.952 348.059 199.202 348.059 198.017C348.059 196.817 348.839 196.112 349.799 196.112C350.759 196.112 351.539 196.832 351.539 198.017C351.539 199.202 350.729 199.952 349.799 199.952ZM349.994 206.282C348.524 206.282 347.639 205.712 347.639 204.842C347.639 204.362 347.879 203.882 348.464 203.462C348.824 203.552 349.214 203.597 349.514 203.597H350.924C352.004 203.597 352.589 203.852 352.589 204.602C352.589 205.457 351.554 206.282 349.994 206.282ZM355.506 203.462H356.871V197.552C357.696 196.727 358.266 196.307 359.106 196.307C360.186 196.307 360.651 196.952 360.651 198.482V203.462H362.016V198.302C362.016 196.217 361.236 195.107 359.526 195.107C358.416 195.107 357.576 195.722 356.826 196.472L356.871 194.792V191.522H355.506V203.462ZM367.182 203.657C367.677 203.657 368.217 203.507 368.682 203.357L368.412 202.337C368.142 202.442 367.767 202.547 367.482 202.547C366.537 202.547 366.222 201.977 366.222 200.972V196.427H368.427V195.317H366.222V193.022H365.082L364.917 195.317L363.642 195.392V196.427H364.857V200.942C364.857 202.562 365.442 203.657 367.182 203.657ZM375.831 206.417L376.686 206.012C375.381 203.882 374.766 201.347 374.766 198.797C374.766 196.247 375.381 193.727 376.686 191.582L375.831 191.192C374.451 193.427 373.626 195.857 373.626 198.797C373.626 201.752 374.451 204.167 375.831 206.417ZM381.904 203.657C382.879 203.657 383.809 203.282 384.544 202.622L383.944 201.707C383.434 202.172 382.774 202.517 382.024 202.517C380.524 202.517 379.504 201.272 379.504 199.397C379.504 197.522 380.584 196.247 382.069 196.247C382.714 196.247 383.209 196.547 383.689 196.967L384.394 196.067C383.809 195.557 383.074 195.107 382.009 195.107C379.924 195.107 378.079 196.682 378.079 199.397C378.079 202.097 379.744 203.657 381.904 203.657ZM386.431 206.417C387.826 204.167 388.651 201.752 388.651 198.797C388.651 195.857 387.826 193.427 386.431 191.192L385.591 191.582C386.881 193.727 387.511 196.247 387.511 198.797C387.511 201.347 386.881 203.882 385.591 206.012L386.431 206.417ZM394.029 203.462H400.944V202.277H397.899C397.344 202.277 396.669 202.337 396.099 202.382C398.679 199.937 400.404 197.702 400.404 195.512C400.404 193.547 399.174 192.257 397.209 192.257C395.814 192.257 394.869 192.902 393.969 193.877L394.764 194.657C395.364 193.937 396.144 193.382 397.044 193.382C398.409 193.382 399.069 194.297 399.069 195.557C399.069 197.447 397.479 199.637 394.029 202.652V203.462ZM405.859 203.657C407.944 203.657 409.279 201.752 409.279 197.927C409.279 194.117 407.944 192.257 405.859 192.257C403.759 192.257 402.424 194.102 402.424 197.927C402.424 201.752 403.759 203.657 405.859 203.657ZM405.859 202.562C404.599 202.562 403.759 201.167 403.759 197.927C403.759 194.717 404.599 193.352 405.859 193.352C407.104 193.352 407.944 194.717 407.944 197.927C407.944 201.167 407.104 202.562 405.859 202.562ZM411.33 203.462H417.36V202.322H415.155V192.452H414.105C413.505 192.812 412.8 193.067 411.825 193.247V194.117H413.775V202.322H411.33V203.462ZM422.515 203.657C424.585 203.657 425.965 202.412 425.965 200.807C425.965 199.307 425.065 198.482 424.105 197.927V197.852C424.765 197.342 425.575 196.352 425.575 195.197C425.575 193.502 424.435 192.302 422.56 192.302C420.85 192.302 419.545 193.412 419.545 195.092C419.545 196.247 420.22 197.072 421.03 197.627V197.702C420.025 198.242 419.005 199.262 419.005 200.732C419.005 202.427 420.49 203.657 422.515 203.657ZM423.265 197.492C421.975 196.982 420.79 196.412 420.79 195.092C420.79 194.027 421.525 193.307 422.545 193.307C423.73 193.307 424.405 194.192 424.405 195.272C424.405 196.082 424.015 196.832 423.265 197.492ZM422.545 202.637C421.225 202.637 420.25 201.782 420.25 200.612C420.25 199.562 420.865 198.692 421.75 198.122C423.31 198.752 424.66 199.307 424.66 200.777C424.66 201.872 423.805 202.637 422.545 202.637ZM431.505 203.462H434.325C437.64 203.462 439.455 201.407 439.455 197.927C439.455 194.432 437.64 192.452 434.265 192.452H431.505V203.462ZM432.9 202.322V193.592H434.145C436.74 193.592 438.015 195.137 438.015 197.927C438.015 200.702 436.74 202.322 434.145 202.322H432.9ZM443.558 203.657C444.563 203.657 445.478 203.132 446.258 202.487H446.303L446.423 203.462H447.548V198.452C447.548 196.442 446.708 195.107 444.728 195.107C443.423 195.107 442.268 195.692 441.518 196.172L442.058 197.117C442.703 196.682 443.558 196.247 444.503 196.247C445.838 196.247 446.183 197.252 446.183 198.302C442.718 198.692 441.173 199.577 441.173 201.347C441.173 202.817 442.193 203.657 443.558 203.657ZM443.948 202.562C443.138 202.562 442.508 202.187 442.508 201.257C442.508 200.207 443.438 199.532 446.183 199.202V201.482C445.388 202.187 444.743 202.562 443.948 202.562ZM453.435 203.657C454.545 203.657 455.415 203.282 456.135 202.817L455.64 201.917C455.04 202.322 454.395 202.562 453.6 202.562C452.055 202.562 450.99 201.452 450.9 199.712H456.39C456.42 199.517 456.45 199.232 456.45 198.932C456.45 196.607 455.28 195.107 453.21 195.107C451.32 195.107 449.535 196.757 449.535 199.397C449.535 202.082 451.275 203.657 453.435 203.657ZM450.885 198.722C451.05 197.132 452.07 196.202 453.225 196.202C454.5 196.202 455.25 197.087 455.25 198.722H450.885ZM457.615 207.107C459.22 207.107 459.835 206.057 459.835 204.392V195.317H458.47V204.392C458.47 205.382 458.275 205.997 457.465 205.997C457.165 205.997 456.895 205.922 456.685 205.847L456.415 206.897C456.7 207.002 457.12 207.107 457.615 207.107ZM459.145 193.637C459.67 193.637 460.045 193.277 460.045 192.722C460.045 192.197 459.67 191.837 459.145 191.837C458.605 191.837 458.23 192.197 458.23 192.722C458.23 193.277 458.605 193.637 459.145 193.637ZM465.886 203.657C466.996 203.657 467.866 203.282 468.586 202.817L468.091 201.917C467.491 202.322 466.846 202.562 466.051 202.562C464.506 202.562 463.441 201.452 463.351 199.712H468.841C468.871 199.517 468.901 199.232 468.901 198.932C468.901 196.607 467.731 195.107 465.661 195.107C463.771 195.107 461.986 196.757 461.986 199.397C461.986 202.082 463.726 203.657 465.886 203.657ZM463.336 198.722C463.501 197.132 464.521 196.202 465.676 196.202C466.951 196.202 467.701 197.087 467.701 198.722H463.336ZM474.071 203.657C476.066 203.657 477.851 202.097 477.851 199.397C477.851 196.682 476.066 195.107 474.071 195.107C472.076 195.107 470.291 196.682 470.291 199.397C470.291 202.097 472.076 203.657 474.071 203.657ZM474.071 202.517C472.661 202.517 471.716 201.272 471.716 199.397C471.716 197.522 472.661 196.247 474.071 196.247C475.481 196.247 476.441 197.522 476.441 199.397C476.441 201.272 475.481 202.517 474.071 202.517ZM480.003 203.462H481.368V197.552C482.193 196.727 482.763 196.307 483.603 196.307C484.683 196.307 485.148 196.952 485.148 198.482V203.462H486.513V198.302C486.513 196.217 485.733 195.107 484.023 195.107C482.913 195.107 482.073 195.722 481.293 196.487H481.248L481.128 195.317H480.003V203.462ZM496.712 203.657C499.472 203.657 501.407 201.452 501.407 197.927C501.407 194.402 499.472 192.257 496.712 192.257C493.952 192.257 492.017 194.402 492.017 197.927C492.017 201.452 493.952 203.657 496.712 203.657ZM496.712 202.442C494.732 202.442 493.442 200.672 493.442 197.927C493.442 195.167 494.732 193.472 496.712 193.472C498.677 193.472 499.982 195.167 499.982 197.927C499.982 200.672 498.677 202.442 496.712 202.442ZM502.97 199.787H506.81V198.737H502.97V199.787ZM510.034 203.462H511.684L513.319 196.832C513.499 195.962 513.694 195.167 513.874 194.327H513.934C514.114 195.167 514.279 195.962 514.474 196.832L516.139 203.462H517.804L520.084 192.452H518.749L517.594 198.452C517.384 199.622 517.174 200.807 516.964 202.007H516.889C516.634 200.807 516.379 199.622 516.109 198.452L514.579 192.452H513.304L511.789 198.452C511.519 199.637 511.249 200.822 510.994 202.007H510.934C510.724 200.822 510.499 199.637 510.289 198.452L509.134 192.452H507.709L510.034 203.462ZM525.951 203.657C528.711 203.657 530.646 201.452 530.646 197.927C530.646 194.402 528.711 192.257 525.951 192.257C523.191 192.257 521.256 194.402 521.256 197.927C521.256 201.452 523.191 203.657 525.951 203.657ZM525.951 202.442C523.971 202.442 522.681 200.672 522.681 197.927C522.681 195.167 523.971 193.472 525.951 193.472C527.916 193.472 529.221 195.167 529.221 197.927C529.221 200.672 527.916 202.442 525.951 202.442ZM533.019 203.462H534.414V198.797H536.394L539.064 203.462H540.639L537.819 198.647C539.319 198.287 540.309 197.267 540.309 195.557C540.309 193.262 538.704 192.452 536.469 192.452H533.019V203.462ZM534.414 197.672V193.592H536.259C537.984 193.592 538.929 194.102 538.929 195.557C538.929 196.982 537.984 197.672 536.259 197.672H534.414ZM542.555 203.462H548.75V202.277H543.95V192.452H542.555V203.462ZM550.699 203.462H553.519C556.834 203.462 558.649 201.407 558.649 197.927C558.649 194.432 556.834 192.452 553.459 192.452H550.699V203.462ZM552.094 202.322V193.592H553.339C555.934 193.592 557.209 195.137 557.209 197.927C557.209 200.702 555.934 202.322 553.339 202.322H552.094ZM561.582 203.657C562.122 203.657 562.572 203.237 562.572 202.622C562.572 201.992 562.122 201.557 561.582 201.557C561.042 201.557 560.592 201.992 560.592 202.622C560.592 203.237 561.042 203.657 561.582 203.657ZM570.431 197.312C570.821 196.067 571.181 194.882 571.526 193.592H571.586C571.946 194.867 572.291 196.067 572.696 197.312L573.221 198.992H569.891L570.431 197.312ZM567.071 203.462H568.481L569.546 200.102H573.566L574.616 203.462H576.086L572.351 192.452H570.806L567.071 203.462ZM578.958 203.657C579.333 203.657 579.558 203.612 579.753 203.537L579.558 202.487C579.408 202.517 579.348 202.517 579.273 202.517C579.063 202.517 578.883 202.352 578.883 201.932V191.522H577.518V201.842C577.518 202.997 577.938 203.657 578.958 203.657ZM583.235 203.657C583.61 203.657 583.835 203.612 584.03 203.537L583.835 202.487C583.685 202.517 583.625 202.517 583.55 202.517C583.34 202.517 583.16 202.352 583.16 201.932V191.522H581.795V201.842C581.795 202.997 582.215 203.657 583.235 203.657ZM589.427 203.462H590.792V198.227C591.332 196.832 592.172 196.352 592.847 196.352C593.177 196.352 593.372 196.382 593.642 196.487L593.897 195.287C593.642 195.152 593.387 195.107 593.027 195.107C592.112 195.107 591.287 195.767 590.717 196.802H590.672L590.552 195.317H589.427V203.462ZM595.242 203.462H596.607V195.317H595.242V203.462ZM595.932 193.637C596.472 193.637 596.847 193.277 596.847 192.722C596.847 192.197 596.472 191.837 595.932 191.837C595.392 191.837 595.017 192.197 595.017 192.722C595.017 193.277 595.392 193.637 595.932 193.637ZM602.118 207.212C604.638 207.212 606.243 205.907 606.243 204.392C606.243 203.057 605.283 202.457 603.393 202.457H601.803C600.708 202.457 600.378 202.097 600.378 201.572C600.378 201.122 600.603 200.852 600.903 200.597C601.263 200.777 601.713 200.882 602.118 200.882C603.768 200.882 605.088 199.787 605.088 198.047C605.088 197.342 604.818 196.742 604.428 196.367H606.093V195.317H603.258C602.973 195.212 602.568 195.107 602.118 195.107C600.468 195.107 599.058 196.232 599.058 198.017C599.058 198.992 599.583 199.772 600.123 200.207V200.267C599.703 200.567 599.208 201.107 599.208 201.782C599.208 202.427 599.523 202.862 599.958 203.117V203.177C599.193 203.672 598.758 204.332 598.758 205.022C598.758 206.432 600.123 207.212 602.118 207.212ZM602.118 199.952C601.173 199.952 600.378 199.202 600.378 198.017C600.378 196.817 601.158 196.112 602.118 196.112C603.078 196.112 603.858 196.832 603.858 198.017C603.858 199.202 603.048 199.952 602.118 199.952ZM602.313 206.282C600.843 206.282 599.958 205.712 599.958 204.842C599.958 204.362 600.198 203.882 600.783 203.462C601.143 203.552 601.533 203.597 601.833 203.597H603.243C604.323 203.597 604.908 203.852 604.908 204.602C604.908 205.457 603.873 206.282 602.313 206.282ZM607.825 203.462H609.19V197.552C610.015 196.727 610.585 196.307 611.425 196.307C612.505 196.307 612.97 196.952 612.97 198.482V203.462H614.335V198.302C614.335 196.217 613.555 195.107 611.845 195.107C610.735 195.107 609.895 195.722 609.145 196.472L609.19 194.792V191.522H607.825V203.462ZM619.502 203.657C619.997 203.657 620.537 203.507 621.002 203.357L620.732 202.337C620.462 202.442 620.087 202.547 619.802 202.547C618.857 202.547 618.542 201.977 618.542 200.972V196.427H620.747V195.317H618.542V193.022H617.402L617.237 195.317L615.962 195.392V196.427H617.177V200.942C617.177 202.562 617.762 203.657 619.502 203.657ZM625.945 203.462H627.31V198.227C627.85 196.832 628.69 196.352 629.365 196.352C629.695 196.352 629.89 196.382 630.16 196.487L630.415 195.287C630.16 195.152 629.905 195.107 629.545 195.107C628.63 195.107 627.805 195.767 627.235 196.802H627.19L627.07 195.317H625.945V203.462ZM634.885 203.657C635.995 203.657 636.865 203.282 637.585 202.817L637.09 201.917C636.49 202.322 635.845 202.562 635.05 202.562C633.505 202.562 632.44 201.452 632.35 199.712H637.84C637.87 199.517 637.9 199.232 637.9 198.932C637.9 196.607 636.73 195.107 634.66 195.107C632.77 195.107 630.985 196.757 630.985 199.397C630.985 202.082 632.725 203.657 634.885 203.657ZM632.335 198.722C632.5 197.132 633.52 196.202 634.675 196.202C635.95 196.202 636.7 197.087 636.7 198.722H632.335ZM642.035 203.657C643.955 203.657 645.005 202.562 645.005 201.242C645.005 199.697 643.7 199.217 642.515 198.767C641.6 198.422 640.76 198.137 640.76 197.357C640.76 196.727 641.24 196.187 642.275 196.187C642.995 196.187 643.565 196.487 644.12 196.907L644.78 196.022C644.15 195.527 643.265 195.107 642.26 195.107C640.49 195.107 639.44 196.127 639.44 197.417C639.44 198.797 640.685 199.352 641.825 199.772C642.725 200.117 643.685 200.477 643.685 201.317C643.685 202.022 643.16 202.592 642.08 202.592C641.105 202.592 640.37 202.202 639.665 201.632L638.99 202.532C639.77 203.177 640.88 203.657 642.035 203.657ZM650.207 203.657C651.317 203.657 652.187 203.282 652.907 202.817L652.412 201.917C651.812 202.322 651.167 202.562 650.372 202.562C648.827 202.562 647.762 201.452 647.672 199.712H653.162C653.192 199.517 653.222 199.232 653.222 198.932C653.222 196.607 652.052 195.107 649.982 195.107C648.092 195.107 646.307 196.757 646.307 199.397C646.307 202.082 648.047 203.657 650.207 203.657ZM647.657 198.722C647.822 197.132 648.842 196.202 649.997 196.202C651.272 196.202 652.022 197.087 652.022 198.722H647.657ZM655.228 203.462H656.593V198.227C657.133 196.832 657.973 196.352 658.648 196.352C658.978 196.352 659.173 196.382 659.443 196.487L659.698 195.287C659.443 195.152 659.188 195.107 658.828 195.107C657.913 195.107 657.088 195.767 656.518 196.802H656.473L656.353 195.317H655.228V203.462ZM663.238 203.462H664.828L667.723 195.317H666.373L664.828 199.952C664.588 200.747 664.333 201.587 664.078 202.352H664.018C663.763 201.587 663.508 200.747 663.253 199.952L661.723 195.317H660.298L663.238 203.462ZM672.531 203.657C673.641 203.657 674.511 203.282 675.231 202.817L674.736 201.917C674.136 202.322 673.491 202.562 672.696 202.562C671.151 202.562 670.086 201.452 669.996 199.712H675.486C675.516 199.517 675.546 199.232 675.546 198.932C675.546 196.607 674.376 195.107 672.306 195.107C670.416 195.107 668.631 196.757 668.631 199.397C668.631 202.082 670.371 203.657 672.531 203.657ZM669.981 198.722C670.146 197.132 671.166 196.202 672.321 196.202C673.596 196.202 674.346 197.087 674.346 198.722H669.981ZM680.327 203.657C681.302 203.657 682.157 203.132 682.802 202.502H682.847L682.967 203.462H684.077V191.522H682.727V194.657L682.787 196.067C682.067 195.467 681.452 195.107 680.492 195.107C678.632 195.107 676.967 196.757 676.967 199.397C676.967 202.112 678.287 203.657 680.327 203.657ZM680.627 202.517C679.187 202.517 678.377 201.347 678.377 199.382C678.377 197.522 679.412 196.262 680.732 196.262C681.407 196.262 682.022 196.502 682.727 197.117V201.392C682.037 202.142 681.377 202.517 680.627 202.517ZM687.559 203.657C688.099 203.657 688.549 203.237 688.549 202.622C688.549 201.992 688.099 201.557 687.559 201.557C687.019 201.557 686.569 201.992 686.569 202.622C686.569 203.237 687.019 203.657 687.559 203.657Z" fill="#F9F9F9"/>
<circle cx="973.5" cy="90.9617" r="25.5" fill="#474747"/>
<circle cx="1040.5" cy="90.9617" r="25.5" fill="#474747"/>
<circle cx="1107.5" cy="90.9617" r="25.5" fill="#474747"/>
<g clip-path="url(#clip0)">
<path d="M1046.25 79.4664L1043.27 79.4617C1039.92 79.4617 1037.75 81.6833 1037.75 85.122V87.7318H1034.75C1034.49 87.7318 1034.28 87.9419 1034.28 88.201V91.9823C1034.28 92.2414 1034.49 92.4513 1034.75 92.4513H1037.75V101.993C1037.75 102.252 1037.96 102.462 1038.22 102.462H1042.13C1042.39 102.462 1042.6 102.252 1042.6 101.993V92.4513H1046.11C1046.37 92.4513 1046.58 92.2414 1046.58 91.9823L1046.58 88.201C1046.58 88.0766 1046.53 87.9574 1046.44 87.8694C1046.35 87.7813 1046.23 87.7318 1046.11 87.7318H1042.6V85.5194C1042.6 84.4561 1042.85 83.9163 1044.24 83.9163L1046.25 83.9156C1046.51 83.9156 1046.72 83.7055 1046.72 83.4466V79.9354C1046.72 79.6768 1046.51 79.4669 1046.25 79.4664Z" fill="white"/>
</g>
<g clip-path="url(#clip1)">
<path d="M976.86 82.4617V91.0391L971.162 82.4617H965V99.4617H971.14V90.8842L976.84 99.4617H983V82.4617H976.86Z" fill="white"/>
</g>
<g clip-path="url(#clip2)">
<path d="M1096 86.7497V95.1754C1096.02 95.2348 1096.03 95.2957 1096.04 95.3576C1096.06 95.635 1096.08 95.9128 1096.09 96.1906C1096.12 96.9708 1096.29 97.72 1096.54 98.4514C1096.91 99.499 1097.54 100.351 1098.37 101.031C1099.34 101.822 1100.49 102.189 1101.69 102.315C1102.45 102.394 1103.22 102.387 1103.99 102.414C1104.26 102.423 1104.53 102.414 1104.8 102.417C1104.86 102.426 1104.93 102.441 1104.99 102.463H1109.01C1109.05 102.441 1109.09 102.426 1109.14 102.417C1109.87 102.4 1110.6 102.398 1111.33 102.366C1111.83 102.344 1112.32 102.29 1112.81 102.229C1113.5 102.146 1114.16 101.913 1114.77 101.584C1115.43 101.233 1116.02 100.746 1116.49 100.153C1116.91 99.62 1117.25 99.0155 1117.48 98.3654C1117.83 97.3657 1117.95 96.3254 1117.96 95.2683C1117.96 95.1762 1117.98 95.0848 1118 94.9951V86.8881C1117.99 86.8581 1117.96 86.828 1117.96 86.7971C1117.94 86.4587 1117.94 86.1194 1117.91 85.7823C1117.87 85.3724 1117.86 84.958 1117.77 84.5599C1117.48 83.2578 1116.95 82.0969 1115.97 81.1896C1115.4 80.6504 1114.72 80.2358 1114 79.9699C1113.03 79.6215 1112.03 79.5113 1111.01 79.5113C1110.93 79.5039 1110.84 79.4887 1110.75 79.4657H1103.25C1103.2 79.4865 1103.16 79.5018 1103.12 79.5113C1102.5 79.5568 1101.88 79.5869 1101.27 79.6538C1100.62 79.7249 1100 79.9312 1099.41 80.2186C1098.7 80.5688 1098.06 81.0721 1097.54 81.6956C1097.16 82.1566 1096.84 82.6806 1096.62 83.2469C1096.2 84.3003 1096.04 85.4098 1096.04 86.5479C1096.04 86.6166 1096.02 86.6842 1096 86.7497ZM1110.69 81.5576C1110.69 81.5649 1110.69 81.5722 1110.69 81.579C1111.15 81.6173 1111.61 81.6564 1112.07 81.6938C1112.73 81.7417 1113.38 81.9415 1113.96 82.279C1114.59 82.6473 1115.1 83.2077 1115.42 83.8854C1115.71 84.4961 1115.84 85.1638 1115.9 85.8393C1115.95 86.5065 1115.99 87.1783 1115.99 87.8478C1115.98 90.099 1115.96 92.3498 1115.95 94.6011C1115.94 95.3603 1115.92 96.1155 1115.78 96.8642C1115.62 97.689 1115.29 98.4209 1114.73 99.0203C1114.23 99.5473 1113.61 99.8611 1112.93 100.054C1112.1 100.29 1111.24 100.306 1110.39 100.313C1108 100.332 1105.61 100.29 1103.22 100.282C1102.55 100.282 1101.89 100.244 1101.24 100.096C1100.27 99.8702 1099.45 99.3883 1098.86 98.5129C1098.38 97.7879 1098.16 96.9644 1098.1 96.105C1098.04 95.2182 1098.02 94.3288 1098.01 93.4365C1098 92.6094 1098 91.7819 1098.01 90.9548C1098.03 89.3216 1098.06 87.6882 1098.1 86.0547C1098.11 85.353 1098.26 84.6608 1098.53 84.0179C1098.87 83.1845 1099.45 82.5805 1100.21 82.1679C1100.8 81.8436 1101.46 81.707 1102.12 81.6537C1102.82 81.5972 1103.52 81.5626 1104.22 81.5603C1106.38 81.549 1108.53 81.5562 1110.69 81.5562V81.5576Z" fill="white"/>
<path fill-rule="evenodd" clip-rule="evenodd" d="M1101.33 90.9357C1101.31 94.1794 1103.84 96.9963 1107.25 96.8565C1110.14 96.7376 1112.74 94.2714 1112.67 90.7913C1112.6 87.6451 1110.2 84.994 1106.91 85.0309C1103.85 85.0655 1101.34 87.6142 1101.33 90.9357ZM1110.62 90.9439C1110.65 93.0581 1108.98 94.7697 1106.99 94.7514C1104.92 94.7314 1103.35 93.0727 1103.35 90.9421C1103.34 88.8858 1104.88 87.2726 1106.79 87.1555C1108.98 87.0216 1110.69 88.9454 1110.62 90.9439Z" fill="white"/>
<path fill-rule="evenodd" clip-rule="evenodd" d="M1111.54 97.0678C1111.45 97.7742 1112.16 98.5079 1112.92 98.4683C1113.56 98.4346 1114.23 97.8339 1114.21 97.025C1114.19 96.3418 1113.6 95.65 1112.84 95.6691C1112.18 95.6851 1111.48 96.2899 1111.54 97.0678Z" fill="white"/>
</g>
<path d="M1544.4 165.709C1545.96 165.708 1547.49 166.137 1548.79 166.944C1550.08 167.75 1551.1 168.897 1551.7 170.239C1552.29 171.581 1552.45 173.059 1552.15 174.484C1551.84 175.909 1551.09 177.219 1549.99 178.247C1548.89 179.275 1547.48 179.976 1545.95 180.26C1544.42 180.544 1542.83 180.398 1541.39 179.843C1539.94 179.287 1538.71 178.345 1537.84 177.137C1536.98 175.929 1536.51 174.508 1536.51 173.055C1536.51 171.109 1537.35 169.242 1538.82 167.865C1540.3 166.488 1542.31 165.713 1544.4 165.709ZM1544.4 156.649C1540.91 156.647 1537.5 157.608 1534.6 159.41C1531.7 161.212 1529.44 163.774 1528.11 166.772C1526.77 169.77 1526.42 173.069 1527.1 176.252C1527.78 179.435 1529.46 182.359 1531.92 184.654C1534.39 186.949 1537.53 188.512 1540.95 189.146C1544.37 189.78 1547.91 189.455 1551.14 188.213C1554.36 186.972 1557.11 184.869 1559.05 182.171C1560.99 179.473 1562.02 176.3 1562.02 173.055C1562.02 170.901 1561.57 168.768 1560.68 166.777C1559.8 164.787 1558.5 162.978 1556.86 161.454C1555.22 159.931 1553.28 158.722 1551.14 157.898C1549 157.073 1546.71 156.649 1544.4 156.649Z" fill="white"/>
<path d="M1566.61 84.6037C1558.76 84.6037 1551.09 86.7701 1544.56 90.829C1538.03 94.8879 1532.94 100.657 1529.94 107.407C1526.94 114.156 1526.15 121.584 1527.68 128.749C1529.21 135.915 1532.99 142.496 1538.54 147.662C1544.09 152.828 1551.17 156.347 1558.87 157.772C1566.57 159.197 1574.55 158.466 1581.8 155.67C1589.05 152.874 1595.25 148.139 1599.61 142.065C1603.97 135.99 1606.3 128.849 1606.3 121.543C1606.3 111.746 1602.12 102.35 1594.68 95.4229C1587.23 88.4955 1577.14 84.6037 1566.61 84.6037ZM1585.97 119.87C1585.86 120.03 1585.74 120.184 1585.62 120.337L1585.26 120.797C1585.15 120.957 1585.03 121.111 1584.91 121.264L1584.58 121.703C1584.47 121.863 1584.35 122.017 1584.23 122.17L1583.88 122.63C1583.77 122.79 1583.65 122.944 1583.53 123.097L1583.18 123.557C1583.06 123.724 1582.94 123.884 1582.82 124.045L1582.7 124.184L1582.67 124.233C1582.67 124.289 1582.58 124.337 1582.54 124.393C1582.43 124.554 1582.31 124.707 1582.19 124.86L1581.84 125.32C1581.73 125.481 1581.61 125.634 1581.49 125.787L1581.14 126.247C1581.03 126.407 1580.91 126.561 1580.79 126.714L1580.44 127.174C1580.33 127.334 1580.21 127.488 1580.09 127.641L1579.74 128.101C1579.62 128.261 1579.5 128.415 1579.39 128.568C1579.27 128.721 1579.15 128.875 1579.04 129.028C1578.93 129.181 1578.81 129.342 1578.69 129.495C1578.57 129.648 1578.46 129.802 1578.34 129.955C1578.22 130.108 1578.1 130.269 1577.98 130.422C1577.86 130.575 1577.75 130.729 1577.64 130.882C1577.53 131.035 1577.41 131.196 1577.29 131.349C1577.17 131.502 1577.06 131.663 1576.94 131.816L1576.58 132.276C1576.47 132.436 1576.36 132.59 1576.24 132.743L1575.89 133.203C1575.78 133.363 1575.66 133.516 1575.54 133.67L1575.18 134.13C1575.08 134.29 1574.96 134.443 1574.84 134.597L1574.49 135.057C1574.38 135.217 1574.26 135.37 1574.14 135.524L1573.78 135.984C1573.68 136.144 1573.56 136.297 1573.44 136.451C1573.32 136.604 1573.21 136.757 1573.09 136.911C1572.97 137.064 1572.85 137.224 1572.74 137.378C1572.62 137.531 1572.5 137.684 1572.38 137.838C1572.26 137.991 1572.16 138.151 1572.04 138.305C1571.92 138.458 1571.81 138.618 1571.69 138.765C1571.57 138.911 1571.45 139.078 1571.33 139.232C1571.21 139.385 1571.1 139.545 1570.98 139.692C1570.86 139.838 1570.76 140.005 1570.64 140.159C1570.52 140.312 1570.41 140.472 1570.29 140.625L1569.93 141.085C1569.82 141.246 1569.7 141.399 1569.58 141.552C1569.46 141.706 1569.36 141.859 1569.24 142.012C1569.12 142.166 1569.01 142.326 1568.89 142.479L1568.53 142.939C1568.42 143.1 1568.3 143.253 1568.18 143.406C1568.06 143.56 1567.96 143.713 1567.84 143.866C1567.72 144.02 1567.61 144.18 1567.49 144.333C1567.37 144.487 1567.25 144.64 1567.13 144.793C1567.01 144.947 1566.91 145.107 1566.78 145.26C1566.65 145.414 1566.56 145.567 1566.44 145.72C1566.32 145.874 1566.2 146.034 1566.08 146.187C1565.97 146.341 1565.85 146.501 1565.73 146.647C1565.61 146.794 1565.51 146.961 1565.38 147.114C1565.27 147.273 1565.16 147.427 1565.04 147.574C1563.88 149.243 1562.18 150.519 1560.18 151.212C1558.18 151.905 1556 151.977 1553.95 151.419C1551.91 150.861 1550.11 149.701 1548.83 148.114C1547.55 146.526 1546.86 144.596 1546.85 142.612C1546.85 141.879 1546.95 141.148 1547.15 140.437C1547.18 140.252 1547.22 140.068 1547.27 139.887C1547.27 139.699 1547.35 139.517 1547.39 139.336C1547.44 139.155 1547.48 138.967 1547.52 138.786C1547.56 138.604 1547.6 138.416 1547.65 138.235C1547.69 138.054 1547.73 137.866 1547.77 137.684C1547.82 137.503 1547.86 137.315 1547.9 137.134C1547.95 136.953 1547.98 136.764 1548.03 136.576C1548.07 136.388 1548.11 136.214 1548.16 136.026C1548.2 135.837 1548.24 135.663 1548.28 135.475C1548.33 135.287 1548.37 135.106 1548.41 134.924C1548.46 134.743 1548.49 134.555 1548.54 134.374C1548.58 134.193 1548.61 134.004 1548.67 133.823C1548.72 133.642 1548.74 133.454 1548.79 133.273C1548.85 133.091 1548.87 132.903 1548.92 132.722C1548.95 132.536 1548.99 132.352 1549.05 132.171C1549.05 131.983 1549.12 131.802 1549.17 131.621C1549.21 131.44 1549.25 131.251 1549.29 131.07C1549.34 130.889 1549.38 130.701 1549.42 130.52C1549.47 130.338 1549.5 130.15 1549.55 129.969C1549.59 129.788 1549.63 129.6 1549.68 129.418C1549.72 129.237 1549.76 129.049 1549.8 128.868C1549.85 128.687 1549.89 128.498 1549.93 128.31C1549.98 128.122 1550.01 127.948 1550.06 127.76C1550.1 127.571 1550.14 127.397 1550.19 127.209C1550.23 127.021 1550.27 126.847 1550.31 126.658C1550.36 126.47 1550.4 126.289 1550.44 126.108C1550.49 125.927 1550.52 125.738 1550.57 125.557C1550.61 125.376 1550.64 125.188 1550.7 125.007C1550.75 124.825 1550.77 124.637 1550.82 124.456C1550.87 124.275 1550.9 124.087 1550.94 123.905C1550.99 123.724 1551.02 123.536 1551.07 123.355C1551.11 123.174 1551.15 122.985 1551.2 122.804C1551.24 122.623 1551.28 122.435 1551.32 122.254C1551.37 122.072 1551.41 121.884 1551.45 121.703C1551.5 121.522 1551.53 121.334 1551.58 121.152C1551.62 120.971 1551.66 120.783 1551.71 120.602C1551.75 120.421 1551.79 120.232 1551.83 120.044C1551.88 119.856 1551.92 119.682 1551.96 119.494C1552.01 119.305 1552.04 119.131 1552.09 118.943C1552.13 118.755 1552.17 118.581 1552.22 118.392C1552.26 118.204 1552.3 118.023 1552.34 117.842C1552.39 117.661 1552.43 117.472 1552.47 117.291C1552.52 117.11 1552.55 116.922 1552.6 116.741C1552.64 116.559 1552.67 116.371 1552.72 116.19C1552.76 116.009 1552.8 115.821 1552.84 115.639C1552.89 115.458 1552.93 115.27 1552.97 115.089C1553.02 114.908 1553.05 114.719 1553.1 114.538C1553.14 114.357 1553.18 114.169 1553.23 113.988C1553.27 113.806 1553.31 113.618 1553.35 113.437C1553.4 113.256 1553.44 113.068 1553.48 112.886C1553.53 112.705 1553.55 112.566 1553.59 112.406C1553.62 112.245 1553.68 111.952 1553.74 111.709C1553.79 111.465 1553.82 111.339 1553.86 111.158C1553.91 110.977 1553.95 110.789 1553.99 110.607C1554.04 110.426 1554.07 110.238 1554.12 110.057C1554.16 109.876 1554.2 109.687 1554.24 109.506C1554.29 109.325 1554.33 109.137 1554.37 108.956C1554.42 108.774 1554.45 108.586 1554.5 108.405C1554.54 108.224 1554.58 108.036 1554.63 107.854C1554.67 107.673 1554.71 107.485 1554.75 107.304C1555.25 104.926 1556.31 102.683 1557.86 100.738C1559.41 98.7932 1561.41 97.1968 1563.71 96.0663C1566.02 94.9358 1568.56 94.2999 1571.16 94.2054C1573.76 94.111 1576.35 94.5604 1578.74 95.5205C1581.13 96.4807 1583.26 97.9272 1584.96 99.7535C1586.67 101.58 1587.92 103.74 1588.61 106.074C1589.31 108.408 1589.43 110.857 1588.97 113.241C1588.51 115.625 1587.49 117.883 1585.97 119.849V119.87Z" fill="white"/>
<defs>
<clipPath id="clip0">
<rect width="23" height="23" fill="white" transform="translate(1029 79.4617)"/>
</clipPath>
<clipPath id="clip1">
<rect width="18" height="17" fill="white" transform="translate(965 82.4617)"/>
</clipPath>
<clipPath id="clip2">
<rect width="22" height="23" fill="white" transform="matrix(1 0 0 -1 1096 102.462)"/>
</clipPath>
</defs>
</svg>
