<svg width="44" height="61" viewBox="0 0 44 61" fill="none" xmlns="http://www.w3.org/2000/svg">
<path d="M9.54837 46.9149C10.3937 46.9141 11.2204 47.1596 11.9237 47.6205C12.627 48.0813 13.1753 48.7368 13.4994 49.5038C13.8235 50.2709 13.9087 51.1152 13.7442 51.9299C13.5798 52.7446 13.1731 53.493 12.5756 54.0806C11.9781 54.6681 11.2167 55.0684 10.3876 55.2307C9.55853 55.393 8.69909 55.3101 7.91798 54.9925C7.13687 54.6748 6.46922 54.1367 5.99947 53.4462C5.52972 52.7557 5.27897 51.9438 5.27897 51.1133C5.28004 50.0008 5.73007 48.9341 6.53038 48.1471C7.3307 47.3601 8.41601 46.917 9.54837 46.9149ZM9.54837 41.7366C7.66051 41.7358 5.81481 42.285 4.24473 43.3149C2.67464 44.3447 1.45068 45.8089 0.727677 47.5222C0.0046708 49.2355 -0.184907 51.121 0.182904 52.9401C0.550714 54.7593 1.4594 56.4304 2.79403 57.7422C4.12866 59.0539 5.82929 59.9474 7.68081 60.3095C9.53233 60.6716 11.4516 60.4862 13.1958 59.7766C14.94 59.067 16.4309 57.8652 17.4798 56.3231C18.5287 54.781 19.0886 52.968 19.0886 51.1133C19.0891 49.8821 18.8427 48.6629 18.3635 47.5253C17.8843 46.3877 17.1817 45.3539 16.2958 44.4832C15.4098 43.6124 14.3579 42.9217 13.2002 42.4504C12.0424 41.9791 10.8015 41.7366 9.54837 41.7366Z" fill="#FF79C3"/>
<path d="M21.5738 0.561035C17.3237 0.561035 13.1691 1.79921 9.63525 4.11897C6.10143 6.43874 3.34715 9.73591 1.72071 13.5935C0.0942676 17.4512 -0.331278 21.696 0.497874 25.7912C1.32703 29.8864 3.37364 33.6482 6.3789 36.6006C9.38418 39.5531 13.2131 41.5638 17.3816 42.3784C21.55 43.193 25.8707 42.7749 29.7973 41.177C33.7238 39.5792 37.0799 36.8732 39.4412 33.4015C41.8024 29.9297 43.0627 25.848 43.0627 21.6725C43.0627 16.0734 40.7987 10.7036 36.7688 6.74446C32.7388 2.78528 27.273 0.561035 21.5738 0.561035ZM32.0547 20.7166C31.9939 20.8082 31.929 20.8958 31.8642 20.9834L31.6736 21.2463C31.6128 21.338 31.5479 21.4256 31.483 21.5132L31.3046 21.7642C31.2438 21.8558 31.179 21.9434 31.1141 22.0311L30.9235 22.2939C30.8627 22.3856 30.7978 22.4732 30.733 22.5608L30.5464 22.8237C30.4816 22.9193 30.4167 23.0109 30.3478 23.1026L30.2869 23.1822L30.2667 23.2101C30.2667 23.242 30.2221 23.2698 30.1978 23.3017C30.1369 23.3933 30.0721 23.481 30.0072 23.5686L29.8207 23.8315C29.7599 23.9231 29.695 24.0107 29.6301 24.0984L29.4396 24.3613C29.3788 24.4529 29.3139 24.5405 29.249 24.6282L29.0625 24.8911C29.0017 24.9827 28.9368 25.0703 28.8719 25.1579L28.6814 25.4208C28.6206 25.5125 28.5557 25.6001 28.4908 25.6877C28.4259 25.7754 28.3651 25.863 28.3043 25.9506C28.2435 26.0383 28.1786 26.1299 28.1137 26.2175C28.0489 26.3051 27.988 26.3928 27.9232 26.4804C27.8583 26.568 27.7975 26.6597 27.7326 26.7473C27.6677 26.8349 27.6069 26.9226 27.5461 27.0102C27.4853 27.0978 27.4204 27.1894 27.3556 27.2771C27.2907 27.3647 27.2299 27.4563 27.165 27.5439L26.9744 27.8068C26.9136 27.8985 26.8528 27.9861 26.7879 28.0737L26.5974 28.3366C26.5365 28.4282 26.4717 28.5159 26.4068 28.6035L26.2162 28.8664C26.1595 28.958 26.0946 29.0456 26.0297 29.1333L25.8392 29.3962C25.7784 29.4878 25.7135 29.5754 25.6486 29.6631L25.458 29.926C25.4013 30.0176 25.3364 30.1052 25.2715 30.1928C25.2067 30.2805 25.1459 30.3681 25.081 30.4557C25.0161 30.5434 24.9553 30.635 24.8904 30.7226C24.8255 30.8102 24.7647 30.8979 24.6999 30.9855C24.635 31.0731 24.5782 31.1648 24.5133 31.2524C24.4485 31.34 24.3877 31.4316 24.3228 31.5153C24.2579 31.5989 24.1971 31.6945 24.1322 31.7822C24.0673 31.8698 24.0065 31.9614 23.9417 32.0451C23.8768 32.1287 23.82 32.2243 23.7552 32.312C23.6903 32.3996 23.6294 32.4912 23.5646 32.5788L23.374 32.8417C23.3132 32.9333 23.2483 33.021 23.1835 33.1086C23.1186 33.1963 23.0618 33.2839 22.997 33.3715C22.9321 33.4592 22.8713 33.5508 22.8064 33.6384L22.6158 33.9013C22.555 33.9929 22.4901 34.0805 22.4253 34.1682C22.3604 34.2558 22.3036 34.3434 22.2388 34.4311C22.1739 34.5187 22.1131 34.6103 22.0482 34.698C21.9833 34.7856 21.9225 34.8732 21.8576 34.9609C21.7928 35.0485 21.736 35.1401 21.6671 35.2277C21.5981 35.3154 21.5455 35.403 21.4806 35.4906C21.4157 35.5783 21.3549 35.6699 21.29 35.7575C21.2251 35.8451 21.1643 35.9368 21.0995 36.0204C21.0346 36.1041 20.9778 36.1997 20.9089 36.2873C20.8514 36.378 20.7892 36.4658 20.7224 36.5502C20.0975 37.5037 19.1752 38.233 18.0936 38.6291C17.0119 39.0251 15.8288 39.0667 14.7211 38.7476C13.6133 38.4284 12.6405 37.7657 11.9478 36.8585C11.2551 35.9512 10.8799 34.8482 10.8781 33.7141C10.8787 33.295 10.9318 32.8776 11.0362 32.4713C11.0529 32.3652 11.0759 32.2601 11.1051 32.1566C11.1051 32.0491 11.1457 31.9455 11.17 31.8419C11.1943 31.7384 11.2146 31.6308 11.2389 31.5272C11.2632 31.4237 11.2835 31.3161 11.3078 31.2126C11.3322 31.109 11.3524 31.0014 11.3767 30.8979C11.4011 30.7943 11.4214 30.6868 11.4457 30.5832C11.47 30.4796 11.4903 30.3721 11.5146 30.2645C11.5389 30.157 11.5592 30.0574 11.5835 29.9499C11.6079 29.8423 11.6282 29.7427 11.6525 29.6352C11.6768 29.5276 11.6971 29.4241 11.7214 29.3205C11.7457 29.2169 11.766 29.1094 11.7903 29.0058C11.8146 28.9022 11.8309 28.7947 11.8592 28.6911C11.8876 28.5876 11.8998 28.48 11.9282 28.3765C11.9566 28.2729 11.9687 28.1653 11.9971 28.0618C12.0138 27.9556 12.0368 27.8506 12.066 27.7471C12.066 27.6395 12.1066 27.536 12.1309 27.4324C12.1552 27.3288 12.1755 27.2213 12.1998 27.1177C12.2242 27.0142 12.2444 26.9066 12.2687 26.803C12.2931 26.6995 12.3133 26.5919 12.3377 26.4884C12.362 26.3848 12.3823 26.2773 12.4066 26.1737C12.4309 26.0701 12.4512 25.9626 12.4755 25.859C12.4999 25.7554 12.5201 25.6479 12.5444 25.5403C12.5688 25.4328 12.5891 25.3332 12.6134 25.2257C12.6377 25.1181 12.658 25.0185 12.6823 24.911C12.7066 24.8034 12.7269 24.7038 12.7512 24.5963C12.7756 24.4887 12.7958 24.3852 12.8202 24.2816C12.8445 24.1781 12.8648 24.0705 12.8891 23.9669C12.9134 23.8634 12.9296 23.7558 12.958 23.6522C12.9864 23.5487 12.9986 23.4411 13.0269 23.3376C13.0553 23.234 13.0675 23.1265 13.0918 23.0229C13.1161 22.9193 13.1364 22.8118 13.1607 22.7082C13.1851 22.6046 13.2053 22.4971 13.2297 22.3935C13.254 22.29 13.2743 22.1824 13.2986 22.0788C13.3229 21.9753 13.3432 21.8677 13.3675 21.7642C13.3919 21.6606 13.4121 21.553 13.4364 21.4495C13.4608 21.3459 13.481 21.2384 13.5054 21.1348C13.5297 21.0312 13.55 20.9237 13.5743 20.8161C13.5986 20.7086 13.6189 20.609 13.6432 20.5015C13.6676 20.3939 13.6878 20.2943 13.7121 20.1868C13.7365 20.0792 13.7568 19.9796 13.7811 19.8721C13.8054 19.7645 13.8257 19.661 13.85 19.5574C13.8743 19.4538 13.8946 19.3463 13.9189 19.2427C13.9433 19.1392 13.9635 19.0316 13.9878 18.9281C14.0122 18.8245 14.0284 18.7169 14.0527 18.6134C14.0771 18.5098 14.0973 18.4023 14.1217 18.2987C14.146 18.1951 14.1662 18.0876 14.1906 17.984C14.2149 17.8804 14.2352 17.7729 14.2595 17.6693C14.2838 17.5658 14.3041 17.4582 14.3284 17.3546C14.3528 17.2511 14.373 17.1435 14.3974 17.04C14.4217 16.9364 14.4419 16.8289 14.4663 16.7253C14.4906 16.6217 14.5028 16.5421 14.523 16.4504C14.5433 16.3588 14.5758 16.1915 14.6041 16.0521C14.6325 15.9127 14.6487 15.841 14.6731 15.7374C14.6974 15.6339 14.7177 15.5263 14.742 15.4227C14.7663 15.3192 14.7866 15.2116 14.8109 15.1081C14.8353 15.0045 14.8555 14.897 14.8798 14.7934C14.9042 14.6898 14.9244 14.5823 14.9488 14.4787C14.9731 14.3751 14.9934 14.2676 15.0177 14.164C15.042 14.0605 15.0623 13.9529 15.0866 13.8493C15.111 13.7458 15.1312 13.6382 15.1555 13.5347C15.424 12.1759 15.9992 10.8937 16.8388 9.78218C17.6784 8.6707 18.7609 7.75832 20.0068 7.1122C21.2527 6.46608 22.6303 6.10265 24.038 6.04867C25.4458 5.99468 26.848 6.25153 28.1413 6.80028C29.4347 7.34903 30.5864 8.17573 31.5116 9.21953C32.4368 10.2633 33.1119 11.4977 33.4874 12.8317C33.8629 14.1657 33.9291 15.5655 33.6811 16.928C33.4332 18.2905 32.8774 19.581 32.0547 20.7046V20.7166Z" fill="#FF79C3"/>
</svg>
