<svg width="356" height="1601" viewBox="0 0 356 1601" fill="none" xmlns="http://www.w3.org/2000/svg">
<path d="M6.304 28H10.552L15.976 10.216H12.376L10.072 18.88C9.52 20.848 9.136 22.624 8.56 24.616H8.44C7.888 22.624 7.504 20.848 6.952 18.88L4.6 10.216H0.88L6.304 28ZM17.7319 28H21.2599V14.56H17.7319V28ZM19.5079 12.4C20.7079 12.4 21.5479 11.632 21.5479 10.456C21.5479 9.304 20.7079 8.536 19.5079 8.536C18.2839 8.536 17.4439 9.304 17.4439 10.456C17.4439 11.632 18.2839 12.4 19.5079 12.4ZM28.861 28.336C32.365 28.336 34.213 26.44 34.213 24.088C34.213 21.592 32.245 20.704 30.469 20.032C29.053 19.504 27.805 19.144 27.805 18.16C27.805 17.392 28.381 16.864 29.605 16.864C30.589 16.864 31.525 17.32 32.485 18.016L34.069 15.88C32.965 15.04 31.453 14.224 29.509 14.224C26.437 14.224 24.493 15.928 24.493 18.328C24.493 20.584 26.389 21.616 28.093 22.264C29.509 22.816 30.901 23.272 30.901 24.28C30.901 25.12 30.301 25.696 28.957 25.696C27.709 25.696 26.557 25.168 25.357 24.232L23.749 26.44C25.093 27.544 27.061 28.336 28.861 28.336ZM40.9118 28.336C42.7358 28.336 44.0318 27.448 45.1838 26.08H45.2798L45.5438 28H48.4238V14.56H44.8958V23.632C43.9838 24.832 43.2638 25.312 42.1598 25.312C40.8638 25.312 40.2878 24.568 40.2878 22.504V14.56H36.7598V22.96C36.7598 26.32 38.0078 28.336 40.9118 28.336ZM55.4971 28.336C57.0331 28.336 58.3771 27.568 59.5531 26.56H59.6491L59.8891 28H62.7691V20.152C62.7691 16.264 61.0171 14.224 57.6091 14.224C55.4971 14.224 53.5771 15.016 51.9931 16L53.2651 18.328C54.5131 17.608 55.7131 17.056 56.9611 17.056C58.6171 17.056 59.1931 18.064 59.2651 19.384C53.8411 19.96 51.5131 21.472 51.5131 24.352C51.5131 26.632 53.0971 28.336 55.4971 28.336ZM56.6491 25.576C55.6171 25.576 54.8731 25.12 54.8731 24.064C54.8731 22.864 55.9771 21.952 59.2651 21.544V24.256C58.4011 25.096 57.6571 25.576 56.6491 25.576ZM69.6768 28.336C70.5168 28.336 71.0928 28.192 71.5008 28.024L71.0688 25.408C70.8288 25.456 70.7328 25.456 70.5888 25.456C70.2528 25.456 69.8928 25.192 69.8928 24.376V8.848H66.3648V24.232C66.3648 26.728 67.2288 28.336 69.6768 28.336Z" fill="#009B32"/>
<path d="M6.184 219H9.376V211.584C9.376 209.904 9.088 207.432 8.92 205.752H9.016L10.432 209.928L13.192 217.392H15.232L17.968 209.928L19.408 205.752H19.528C19.336 207.432 19.072 209.904 19.072 211.584V219H22.312V201.216H18.376L15.424 209.544C15.04 210.648 14.728 211.824 14.344 212.952H14.224C13.864 211.824 13.528 210.648 13.144 209.544L10.12 201.216H6.184V219ZM29.6924 219.336C31.2284 219.336 32.5724 218.568 33.7484 217.56H33.8444L34.0844 219H36.9644V211.152C36.9644 207.264 35.2124 205.224 31.8044 205.224C29.6924 205.224 27.7724 206.016 26.1884 207L27.4604 209.328C28.7084 208.608 29.9084 208.056 31.1564 208.056C32.8124 208.056 33.3884 209.064 33.4604 210.384C28.0364 210.96 25.7084 212.472 25.7084 215.352C25.7084 217.632 27.2924 219.336 29.6924 219.336ZM30.8444 216.576C29.8124 216.576 29.0684 216.12 29.0684 215.064C29.0684 213.864 30.1724 212.952 33.4604 212.544V215.256C32.5964 216.096 31.8524 216.576 30.8444 216.576ZM40.5601 219H44.0881V209.76C45.0721 208.776 45.7681 208.248 46.8721 208.248C48.1921 208.248 48.7681 208.968 48.7681 211.056V219H52.2961V210.624C52.2961 207.24 51.0481 205.224 48.1441 205.224C46.3201 205.224 44.9521 206.184 43.7761 207.336H43.7041L43.4401 205.56H40.5601V219ZM59.2471 219.336C60.7831 219.336 62.1271 218.568 63.3031 217.56H63.3991L63.6391 219H66.5191V211.152C66.5191 207.264 64.7671 205.224 61.3591 205.224C59.2471 205.224 57.3271 206.016 55.7431 207L57.0151 209.328C58.2631 208.608 59.4631 208.056 60.7111 208.056C62.3671 208.056 62.9431 209.064 63.0151 210.384C57.5911 210.96 55.2631 212.472 55.2631 215.352C55.2631 217.632 56.8471 219.336 59.2471 219.336ZM60.3991 216.576C59.3671 216.576 58.6231 216.12 58.6231 215.064C58.6231 213.864 59.7271 212.952 63.0151 212.544V215.256C62.1511 216.096 61.4071 216.576 60.3991 216.576ZM74.8428 224.832C79.3308 224.832 82.1628 222.768 82.1628 220.056C82.1628 217.704 80.3868 216.696 77.1468 216.696H74.8668C73.2828 216.696 72.7548 216.312 72.7548 215.592C72.7548 215.04 72.9708 214.752 73.3308 214.44C73.9068 214.632 74.5308 214.752 75.0588 214.752C77.9388 214.752 80.2428 213.216 80.2428 210.192C80.2428 209.352 79.9788 208.608 79.6428 208.152H81.9228V205.56H77.0748C76.5228 205.368 75.8028 205.224 75.0588 205.224C72.2028 205.224 69.6348 206.928 69.6348 210.072C69.6348 211.656 70.4988 212.928 71.4348 213.6V213.696C70.6188 214.272 69.9228 215.208 69.9228 216.216C69.9228 217.32 70.4508 218.016 71.1468 218.472V218.592C69.9228 219.288 69.2268 220.248 69.2268 221.376C69.2268 223.752 71.6748 224.832 74.8428 224.832ZM75.0588 212.568C73.8828 212.568 72.9468 211.68 72.9468 210.072C72.9468 208.512 73.8588 207.624 75.0588 207.624C76.2588 207.624 77.1708 208.512 77.1708 210.072C77.1708 211.68 76.2348 212.568 75.0588 212.568ZM75.3708 222.6C73.4268 222.6 72.1788 221.952 72.1788 220.824C72.1788 220.272 72.4428 219.744 73.0428 219.264C73.5228 219.384 74.0988 219.456 74.9148 219.456H76.5468C77.9868 219.456 78.7788 219.696 78.7788 220.656C78.7788 221.712 77.3868 222.6 75.3708 222.6ZM89.8458 219.336C91.5018 219.336 93.2058 218.76 94.5258 217.848L93.3258 215.688C92.3658 216.288 91.4058 216.624 90.3018 216.624C88.3098 216.624 86.8698 215.472 86.5818 213.264H94.8618C94.9578 212.952 95.0298 212.304 95.0298 211.632C95.0298 207.936 93.1098 205.224 89.4138 205.224C86.2218 205.224 83.1498 207.936 83.1498 212.28C83.1498 216.72 86.0778 219.336 89.8458 219.336ZM86.5338 210.912C86.7978 208.968 88.0458 207.96 89.4618 207.96C91.1898 207.96 92.0058 209.112 92.0058 210.912H86.5338Z" fill="#009B32"/>
<path d="M6.184 539H17.344V536.024H9.736V531.272H15.976V528.296H9.736V524.192H17.08V521.216H6.184V539ZM23.4044 539H27.4844L31.9724 525.56H28.5884L26.6204 532.256C26.2604 533.576 25.9004 534.968 25.5404 536.336H25.4204C25.0604 534.968 24.7004 533.576 24.3404 532.256L22.3724 525.56H18.8204L23.4044 539ZM39.877 539.336C41.533 539.336 43.237 538.76 44.557 537.848L43.357 535.688C42.397 536.288 41.437 536.624 40.333 536.624C38.341 536.624 36.901 535.472 36.613 533.264H44.893C44.989 532.952 45.061 532.304 45.061 531.632C45.061 527.936 43.141 525.224 39.445 525.224C36.253 525.224 33.181 527.936 33.181 532.28C33.181 536.72 36.109 539.336 39.877 539.336ZM36.565 530.912C36.829 528.968 38.077 527.96 39.493 527.96C41.221 527.96 42.037 529.112 42.037 530.912H36.565ZM47.9663 539H51.4943V529.76C52.4783 528.776 53.1743 528.248 54.2783 528.248C55.5983 528.248 56.1743 528.968 56.1743 531.056V539H59.7023V530.624C59.7023 527.24 58.4543 525.224 55.5503 525.224C53.7263 525.224 52.3583 526.184 51.1823 527.336H51.1103L50.8463 525.56H47.9663V539ZM68.2613 539.336C69.4373 539.336 70.3733 539.072 71.0933 538.832L70.5173 536.264C70.1573 536.408 69.6293 536.552 69.1973 536.552C67.9973 536.552 67.3733 535.832 67.3733 534.296V528.344H70.6853V525.56H67.3733V521.936H64.4453L64.0373 525.56L61.9493 525.728V528.344H63.8453V534.296C63.8453 537.296 65.0693 539.336 68.2613 539.336Z" fill="#009B32"/>
<path d="M9.712 1068H13.264V1053.19H18.304V1050.22H4.72V1053.19H9.712V1068ZM20.896 1068H24.424V1058.76C25.408 1057.78 26.104 1057.25 27.208 1057.25C28.528 1057.25 29.104 1057.97 29.104 1060.06V1068H32.632V1059.62C32.632 1056.24 31.384 1054.22 28.48 1054.22C26.656 1054.22 25.336 1055.18 24.256 1056.19L24.424 1053.67V1048.85H20.896V1068ZM42.1036 1068.34C43.7596 1068.34 45.4636 1067.76 46.7836 1066.85L45.5836 1064.69C44.6236 1065.29 43.6636 1065.62 42.5596 1065.62C40.5676 1065.62 39.1276 1064.47 38.8396 1062.26H47.1196C47.2156 1061.95 47.2876 1061.3 47.2876 1060.63C47.2876 1056.94 45.3676 1054.22 41.6716 1054.22C38.4796 1054.22 35.4076 1056.94 35.4076 1061.28C35.4076 1065.72 38.3356 1068.34 42.1036 1068.34ZM38.7916 1059.91C39.0556 1057.97 40.3036 1056.96 41.7196 1056.96C43.4476 1056.96 44.2636 1058.11 44.2636 1059.91H38.7916ZM50.1929 1068H53.7209V1058.76C54.6569 1057.75 55.5209 1057.25 56.2889 1057.25C57.5609 1057.25 58.1849 1057.97 58.1849 1060.06V1068H61.6889V1058.76C62.6489 1057.75 63.5129 1057.25 64.2809 1057.25C65.5529 1057.25 66.1529 1057.97 66.1529 1060.06V1068H69.6809V1059.62C69.6809 1056.24 68.3609 1054.22 65.5049 1054.22C63.7529 1054.22 62.4569 1055.28 61.2329 1056.58C60.5849 1055.09 59.4569 1054.22 57.5369 1054.22C55.7849 1054.22 54.5369 1055.18 53.4089 1056.36H53.3369L53.0729 1054.56H50.1929V1068ZM79.1817 1068.34C80.8377 1068.34 82.5417 1067.76 83.8617 1066.85L82.6617 1064.69C81.7017 1065.29 80.7417 1065.62 79.6377 1065.62C77.6457 1065.62 76.2057 1064.47 75.9177 1062.26H84.1977C84.2937 1061.95 84.3657 1061.3 84.3657 1060.63C84.3657 1056.94 82.4457 1054.22 78.7497 1054.22C75.5577 1054.22 72.4857 1056.94 72.4857 1061.28C72.4857 1065.72 75.4137 1068.34 79.1817 1068.34ZM75.8697 1059.91C76.1337 1057.97 77.3817 1056.96 78.7977 1056.96C80.5257 1056.96 81.3417 1058.11 81.3417 1059.91H75.8697Z" fill="#009B32"/>
<path d="M6.184 1522H9.544V1514.87C9.544 1512.83 9.28 1510.6 9.112 1508.68H9.232L11.032 1512.5L16.168 1522H19.768V1504.22H16.408V1511.32C16.408 1513.34 16.696 1515.69 16.864 1517.54H16.744L14.968 1513.7L9.808 1504.22H6.184V1522ZM29.4886 1522.34C32.8486 1522.34 35.9446 1519.74 35.9446 1515.28C35.9446 1510.82 32.8486 1508.22 29.4886 1508.22C26.1286 1508.22 23.0326 1510.82 23.0326 1515.28C23.0326 1519.74 26.1286 1522.34 29.4886 1522.34ZM29.4886 1519.46C27.6646 1519.46 26.6326 1517.82 26.6326 1515.28C26.6326 1512.76 27.6646 1511.1 29.4886 1511.1C31.3126 1511.1 32.3446 1512.76 32.3446 1515.28C32.3446 1517.82 31.3126 1519.46 29.4886 1519.46ZM43.1363 1522.34C44.3123 1522.34 45.2483 1522.07 45.9683 1521.83L45.3923 1519.26C45.0323 1519.41 44.5043 1519.55 44.0723 1519.55C42.8723 1519.55 42.2483 1518.83 42.2483 1517.3V1511.34H45.5603V1508.56H42.2483V1504.94H39.3203L38.9123 1508.56L36.8243 1508.73V1511.34H38.7203V1517.3C38.7203 1520.3 39.9443 1522.34 43.1363 1522.34ZM48.2944 1522H51.8224V1508.56H48.2944V1522ZM50.0704 1506.4C51.2704 1506.4 52.1104 1505.63 52.1104 1504.46C52.1104 1503.3 51.2704 1502.54 50.0704 1502.54C48.8464 1502.54 48.0064 1503.3 48.0064 1504.46C48.0064 1505.63 48.8464 1506.4 50.0704 1506.4ZM61.2955 1522.34C62.7835 1522.34 64.4155 1521.83 65.7115 1520.7L64.2955 1518.38C63.5515 1519 62.6395 1519.46 61.6795 1519.46C59.7595 1519.46 58.3435 1517.82 58.3435 1515.28C58.3435 1512.76 59.7355 1511.1 61.7995 1511.1C62.5435 1511.1 63.1675 1511.42 63.8395 1511.99L65.5195 1509.71C64.5355 1508.87 63.2635 1508.22 61.6075 1508.22C57.9595 1508.22 54.7435 1510.82 54.7435 1515.28C54.7435 1519.74 57.5755 1522.34 61.2955 1522.34ZM73.3692 1522.34C75.0252 1522.34 76.7292 1521.76 78.0492 1520.85L76.8492 1518.69C75.8892 1519.29 74.9292 1519.62 73.8252 1519.62C71.8332 1519.62 70.3932 1518.47 70.1052 1516.26H78.3852C78.4812 1515.95 78.5532 1515.3 78.5532 1514.63C78.5532 1510.94 76.6332 1508.22 72.9372 1508.22C69.7452 1508.22 66.6732 1510.94 66.6732 1515.28C66.6732 1519.72 69.6012 1522.34 73.3692 1522.34ZM70.0572 1513.91C70.3212 1511.97 71.5692 1510.96 72.9852 1510.96C74.7132 1510.96 75.5292 1512.11 75.5292 1513.91H70.0572Z" fill="#009B32"/>
<path d="M7.798 257.478C7.798 255.624 9.688 254.418 12.262 254.418C14.836 254.418 16.708 255.624 16.708 257.478C16.708 259.332 14.836 260.538 12.262 260.538C9.688 260.538 7.798 259.332 7.798 257.478ZM13 265.038V261.672C16.006 261.456 18.112 259.854 18.112 257.478C18.112 254.904 15.664 253.248 12.262 253.248C8.842 253.248 6.376 254.904 6.376 257.478C6.376 259.854 8.5 261.456 11.506 261.672V265.038H4.936V266.262H19.606V265.038H13ZM30.0446 259.872V260.844H33.2486V261.69H34.7246V252.204H33.2486V259.872H30.0446ZM26.6786 253.536C28.2626 253.536 29.2706 254.076 29.2706 254.94C29.2706 255.768 28.2626 256.326 26.6786 256.326C25.1126 256.326 24.0866 255.768 24.0866 254.94C24.0866 254.076 25.1126 253.536 26.6786 253.536ZM26.6786 257.334C29.0726 257.334 30.6566 256.416 30.6566 254.94C30.6566 253.428 29.0726 252.51 26.6786 252.51C24.2846 252.51 22.7006 253.428 22.7006 254.94C22.7006 256.416 24.2846 257.334 26.6786 257.334ZM25.8506 261.744H27.3266V259.26C28.8926 259.17 30.4946 259.044 32.0606 258.828L31.9706 257.856C28.5146 258.252 24.5726 258.27 21.4586 258.27L21.6386 259.386C22.9346 259.386 24.3566 259.368 25.8506 259.332V261.744ZM25.4006 267.054V265.65H34.7246V262.284H23.9066V263.346H33.2846V264.642H23.9426V268.152H35.2826V267.054H25.4006ZM51.0132 259.926H41.3832V254.886H50.8512V253.662H39.9252V261.132H51.0132V259.926ZM38.0532 264.93V266.154H52.7052V264.93H38.0532ZM65.9452 253.788C68.4292 253.788 70.0492 254.562 70.0492 255.84C70.0492 257.1 68.4292 257.874 65.9452 257.874C63.4792 257.874 61.8412 257.1 61.8412 255.84C61.8412 254.562 63.4792 253.788 65.9452 253.788ZM65.9452 259.08C69.3652 259.08 71.5972 257.838 71.5972 255.84C71.5972 253.842 69.3652 252.6 65.9452 252.6C62.5252 252.6 60.2932 253.842 60.2932 255.84C60.2932 257.838 62.5252 259.08 65.9452 259.08ZM61.9852 263.256H60.5092V267.972H71.6692V266.748H61.9852V263.256ZM58.6372 260.376V261.582H65.3332V264.84H66.8272V261.582H73.2712V260.376H58.6372ZM76.8698 256.974C76.8698 255.48 78.0578 254.4 79.6238 254.4C81.2078 254.4 82.3598 255.48 82.3598 256.974C82.3598 258.486 81.2078 259.566 79.6238 259.566C78.0578 259.566 76.8698 258.486 76.8698 256.974ZM87.0218 255.714V258.234H83.5478C83.6918 257.838 83.7638 257.424 83.7638 256.974C83.7638 256.506 83.6918 256.092 83.5658 255.714H87.0218ZM87.0218 259.44V261.744H88.5158V252.186H87.0218V254.508H82.8818C82.1438 253.68 80.9918 253.158 79.6238 253.158C77.2298 253.158 75.4658 254.724 75.4658 256.974C75.4658 259.242 77.2298 260.826 79.6238 260.826C80.9918 260.826 82.1438 260.304 82.8818 259.44H87.0218ZM83.1698 267.144C80.7398 267.144 79.2638 266.424 79.2638 265.218C79.2638 263.994 80.7398 263.274 83.1698 263.274C85.6358 263.274 87.1118 263.994 87.1118 265.218C87.1118 266.424 85.6358 267.144 83.1698 267.144ZM83.1698 262.122C79.8578 262.122 77.8058 263.256 77.8058 265.218C77.8058 267.18 79.8578 268.314 83.1698 268.314C86.4998 268.314 88.5698 267.18 88.5698 265.218C88.5698 263.256 86.4998 262.122 83.1698 262.122ZM97.4964 253.59H96.0384V256.488C96.0384 259.548 94.0764 262.644 91.7004 263.778L92.6004 264.984C94.4904 264.012 96.0384 261.996 96.7764 259.566C97.5504 261.87 99.0984 263.778 100.934 264.678L101.816 263.49C99.4224 262.41 97.4964 259.44 97.4964 256.488V253.59ZM103.508 252.186V268.368H104.984V252.186H103.508ZM109.015 253.446V254.652H114.955C114.649 257.496 112.165 259.782 108.367 260.97L108.961 262.14C113.605 260.682 116.539 257.622 116.539 253.446H109.015ZM112.273 262.788H110.797V267.972H121.561V266.766H112.273V262.788ZM120.859 257.1V252.204H119.383V263.994H120.859V258.324H123.235V257.1H120.859ZM132.18 253.572C134.826 253.572 136.338 254.184 136.338 255.264C136.338 256.344 134.826 256.956 132.18 256.956C129.534 256.956 128.022 256.344 128.022 255.264C128.022 254.184 129.534 253.572 132.18 253.572ZM132.18 258.054C135.726 258.054 137.85 257.082 137.85 255.264C137.85 253.446 135.726 252.456 132.18 252.456C128.634 252.456 126.51 253.446 126.51 255.264C126.51 257.082 128.634 258.054 132.18 258.054ZM128.13 265.362H137.616V261.726H126.636V262.842H136.158V264.282H126.69V268.152H138.102V267H128.13V265.362ZM124.872 259.152V260.34H139.488V259.152H124.872ZM147.22 256.344C147.22 254.958 148.372 253.95 149.938 253.95C151.522 253.95 152.674 254.958 152.674 256.344C152.674 257.766 151.522 258.756 149.938 258.756C148.372 258.756 147.22 257.766 147.22 256.344ZM154.114 256.344C154.114 254.238 152.368 252.762 149.938 252.762C147.526 252.762 145.78 254.238 145.78 256.344C145.78 258.486 147.526 259.962 149.938 259.962C152.368 259.962 154.114 258.486 154.114 256.344ZM149.236 265.128H158.002V261.168H147.742V262.338H156.544V264.03H147.796V268.116H158.596V266.928H149.236V265.128ZM158.002 255.66V252.186H156.526V260.412H158.002V256.884H160.396V255.66H158.002ZM164.444 259.44H170.402V253.68H162.914V254.886H168.908V258.252H162.968V264.444H164.3C167.072 264.444 169.52 264.336 172.436 263.85L172.292 262.644C169.466 263.094 167.09 263.22 164.444 263.22V259.44ZM173.804 252.168V268.35H175.28V252.168H173.804ZM186.583 260.502V257.262H190.417V260.502H186.583ZM185.125 263.076H180.679V254.94H185.125V263.076ZM190.417 252.186V256.056H186.583V253.77H179.239V264.246H186.583V261.708H190.417V268.368H191.893V252.186H190.417ZM210.587 255.588C210.587 257.586 210.587 259.71 210.029 262.59L211.487 262.77C212.063 259.746 212.063 257.64 212.063 255.588V253.806H200.687V255.012H210.587V255.588ZM208.211 264.858V259.512H206.753V264.858H204.215V259.512H202.757V264.858H199.175V266.064H213.773V264.858H208.211ZM223.023 267.198C220.431 267.198 218.973 266.694 218.973 265.722C218.973 264.768 220.431 264.246 223.023 264.246C225.633 264.246 227.073 264.768 227.073 265.722C227.073 266.694 225.633 267.198 223.023 267.198ZM223.023 263.148C219.513 263.148 217.497 264.048 217.497 265.722C217.497 267.414 219.513 268.314 223.023 268.314C226.533 268.314 228.549 267.414 228.549 265.722C228.549 264.048 226.533 263.148 223.023 263.148ZM223.761 260.736V259.152H228.621V258H219.117V256.416H228.099V255.3H219.117V253.806H228.531V252.654H217.641V259.152H222.285V260.736H215.715V261.924H230.331V260.736H223.761ZM244.939 256.38V257.586H248.125V261.816H249.619V252.204H248.125V256.38H244.939ZM245.839 260.052C243.499 259.224 241.915 257.19 241.915 255.12V254.562H245.461V253.374H236.839V254.562H240.439V255.12C240.439 257.442 238.783 259.62 236.371 260.502L237.145 261.672C239.035 260.952 240.529 259.44 241.213 257.568C241.915 259.224 243.301 260.556 245.101 261.204L245.839 260.052ZM244.291 267.18C241.861 267.18 240.385 266.496 240.385 265.326C240.385 264.156 241.861 263.454 244.291 263.454C246.721 263.454 248.197 264.156 248.197 265.326C248.197 266.496 246.721 267.18 244.291 267.18ZM244.291 262.32C240.979 262.32 238.909 263.418 238.909 265.326C238.909 267.234 240.979 268.332 244.291 268.332C247.603 268.332 249.673 267.234 249.673 265.326C249.673 263.418 247.603 262.32 244.291 262.32ZM256.062 257.424H264.306V260.394H256.062V257.424ZM260.922 265.056V261.582H265.746V253.338H264.306V256.218H256.062V253.338H254.604V261.582H259.428V265.056H252.876V266.262H267.51V265.056H260.922ZM271.54 253.752H270.082V264.246H271.36C273.826 264.246 276.292 264.066 279.046 263.508L278.866 262.284C276.256 262.806 273.862 263.004 271.54 263.004V253.752ZM284.446 258.63H281.854V252.186H280.378V268.332H281.854V259.854H284.446V258.63ZM11.902 287.006C11.992 286.43 12.046 285.836 12.046 285.152C12.046 284.468 11.992 283.874 11.902 283.298H14.098V287.006H11.902ZM8.59 289.418C7.312 289.418 6.484 287.78 6.484 285.152C6.484 282.542 7.312 280.904 8.59 280.904C9.886 280.904 10.696 282.542 10.696 285.152C10.696 287.78 9.886 289.418 8.59 289.418ZM14.098 282.092H11.596C11.038 280.472 9.994 279.536 8.59 279.536C6.502 279.536 5.152 281.696 5.152 285.152C5.152 288.626 6.502 290.786 8.59 290.786C9.994 290.786 11.02 289.85 11.596 288.23H14.098V293.54H15.502V278.546H14.098V282.092ZM17.266 278.186V294.332H18.67V278.186H17.266ZM23.2586 282.974C23.2586 281.444 24.4106 280.4 26.0306 280.4C27.6326 280.4 28.8026 281.444 28.8026 282.974C28.8026 284.486 27.6326 285.548 26.0306 285.548C24.4106 285.548 23.2586 284.486 23.2586 282.974ZM30.2426 282.974C30.2426 280.706 28.4606 279.158 26.0306 279.158C23.5826 279.158 21.8186 280.706 21.8186 282.974C21.8186 285.224 23.5826 286.79 26.0306 286.79C28.4606 286.79 30.2426 285.224 30.2426 282.974ZM23.5466 289.742H32.5646V294.332H34.0406V288.536H23.5466V289.742ZM36.3806 281.876V280.652H34.0406V278.204H32.5646V287.78H34.0406V285.314H36.3806V284.108H34.0406V281.876H36.3806ZM47.8206 279.59H46.3626V282.488C46.3626 285.548 44.4006 288.644 42.0246 289.778L42.9246 290.984C44.8146 290.012 46.3626 287.996 47.1006 285.566C47.8746 287.87 49.4226 289.778 51.2586 290.678L52.1406 289.49C49.7466 288.41 47.8206 285.44 47.8206 282.488V279.59ZM53.8326 278.186V294.368H55.3086V278.186H53.8326ZM72.5692 286.304C69.7432 285.764 66.6832 283.316 66.6832 280.562V279.32H65.1352V280.562C65.1352 283.316 62.0932 285.746 59.2672 286.304L59.9332 287.528C62.3632 286.952 64.8832 285.224 65.9092 282.866C66.9352 285.242 69.4552 286.97 71.9032 287.528L72.5692 286.304ZM58.6552 290.948V292.172H73.2892V290.948H58.6552ZM84.3038 287.744H85.7078V278.456H84.3038V282.254H82.1618V283.442H84.3038V287.744ZM82.7918 285.314C81.1178 285.656 79.6598 285.746 77.3738 285.746V283.568H81.4238V282.416H77.3738V280.418H82.0538V279.23H75.9518V286.934H76.9778C79.5518 286.934 81.0818 286.862 82.9178 286.502L82.7918 285.314ZM79.6778 289.85H87.3998V292.928H79.6778V289.85ZM78.2378 294.116H88.8398V288.68H78.2378V294.116ZM87.4178 278.186V287.906H88.8398V278.186H87.4178ZM99.0624 279.572C101.708 279.572 103.22 280.184 103.22 281.264C103.22 282.344 101.708 282.956 99.0624 282.956C96.4164 282.956 94.9044 282.344 94.9044 281.264C94.9044 280.184 96.4164 279.572 99.0624 279.572ZM99.0624 284.054C102.608 284.054 104.732 283.082 104.732 281.264C104.732 279.446 102.608 278.456 99.0624 278.456C95.5164 278.456 93.3924 279.446 93.3924 281.264C93.3924 283.082 95.5164 284.054 99.0624 284.054ZM95.0124 291.362H104.498V287.726H93.5184V288.842H103.04V290.282H93.5724V294.152H104.984V293H95.0124V291.362ZM91.7544 285.152V286.34H106.37V285.152H91.7544ZM114.462 279.752H113.004V290.246H114.282C116.748 290.246 119.214 290.066 121.968 289.508L121.788 288.284C119.178 288.806 116.784 289.004 114.462 289.004V279.752ZM127.368 284.63H124.776V278.186H123.3V294.332H124.776V285.854H127.368V284.63ZM130.571 282.416C130.571 280.958 131.723 279.95 133.325 279.95C134.909 279.95 136.061 280.958 136.061 282.416C136.061 283.856 134.909 284.882 133.325 284.882C131.723 284.882 130.571 283.856 130.571 282.416ZM140.723 281.3V283.46H137.321C137.411 283.136 137.465 282.776 137.465 282.416C137.465 282.02 137.411 281.642 137.303 281.3H140.723ZM140.723 284.63V286.466H142.199V278.186H140.723V280.13H136.655C135.917 279.266 134.729 278.744 133.325 278.744C130.913 278.744 129.167 280.238 129.167 282.416C129.167 284.558 130.913 286.07 133.325 286.07C134.765 286.088 135.953 285.53 136.709 284.63H140.723ZM133.289 292.946V291.182H142.199V287.294H131.795V288.464H140.741V290.066H131.831V294.116H142.811V292.946H133.289ZM150.208 289.508C148.75 289.508 147.688 288.464 147.688 287.024C147.688 285.566 148.75 284.522 150.208 284.522C151.684 284.522 152.746 285.566 152.746 287.024C152.746 288.464 151.684 289.508 150.208 289.508ZM150.208 283.298C147.94 283.298 146.302 284.846 146.302 287.024C146.302 289.22 147.94 290.732 150.208 290.732C152.512 290.732 154.15 289.22 154.15 287.024C154.15 284.846 152.512 283.298 150.208 283.298ZM150.928 278.384H149.452V280.778H145.384V281.966H154.906V280.778H150.928V278.384ZM160.558 284.828H157.912V278.204H156.436V294.332H157.912V286.07H160.558V284.828ZM170.186 286.898C170.294 286.34 170.366 285.728 170.366 285.062C170.366 284.324 170.276 283.64 170.132 283.01H173.858V286.898H170.186ZM166.352 289.382C164.804 289.382 163.724 287.69 163.724 285.062C163.724 282.452 164.804 280.76 166.352 280.76C167.882 280.76 168.98 282.452 168.98 285.062C168.98 287.69 167.882 289.382 166.352 289.382ZM173.858 278.186V281.804H169.718C169.034 280.292 167.846 279.428 166.352 279.428C163.994 279.428 162.32 281.624 162.32 285.062C162.32 288.5 163.994 290.696 166.352 290.696C167.9 290.696 169.16 289.742 169.826 288.104H173.858V294.368H175.334V278.186H173.858ZM194.352 278.186V294.368H195.828V278.186H194.352ZM187.314 279.428C184.92 279.428 183.21 281.624 183.21 285.062C183.21 288.5 184.92 290.696 187.314 290.696C189.708 290.696 191.418 288.5 191.418 285.062C191.418 281.624 189.708 279.428 187.314 279.428ZM187.314 280.76C188.88 280.76 189.996 282.452 189.996 285.062C189.996 287.69 188.88 289.382 187.314 289.382C185.73 289.382 184.614 287.69 184.614 285.062C184.614 282.452 185.73 280.76 187.314 280.76ZM206.465 293.18C203.927 293.18 202.433 292.55 202.433 291.452C202.433 290.354 203.927 289.724 206.465 289.724C208.985 289.724 210.497 290.354 210.497 291.452C210.497 292.55 208.985 293.18 206.465 293.18ZM206.465 288.572C203.009 288.572 200.939 289.598 200.939 291.452C200.939 293.306 203.009 294.314 206.465 294.314C209.939 294.314 211.991 293.306 211.991 291.452C211.991 289.598 209.939 288.572 206.465 288.572ZM204.233 284.288C204.899 284.396 205.655 284.468 206.465 284.468C207.293 284.468 208.049 284.396 208.715 284.288V286.178H204.233V284.288ZM202.307 281.48C202.307 280.31 203.891 279.626 206.465 279.626C209.039 279.626 210.623 280.31 210.623 281.48C210.623 282.632 209.039 283.334 206.465 283.334C203.891 283.334 202.307 282.632 202.307 281.48ZM210.173 286.178V283.892C211.415 283.388 212.135 282.56 212.135 281.48C212.135 279.59 209.975 278.474 206.465 278.474C202.973 278.474 200.795 279.59 200.795 281.48C200.795 282.578 201.497 283.388 202.775 283.91V286.178H199.157V287.366H213.773V286.178H210.173ZM221.169 281.066H224.751V279.842H216.021V281.066H219.711V283.118C219.711 285.854 217.767 288.914 215.463 290.066L216.327 291.236C218.145 290.3 219.711 288.248 220.449 285.89C221.187 288.05 222.699 289.94 224.499 290.84L225.345 289.652C223.005 288.554 221.169 285.692 221.169 283.118V281.066ZM230.817 284.702H228.153V278.204H226.677V294.332H228.153V285.944H230.817V284.702ZM233.156 279.914V281.138H239.078C238.736 284.954 236.522 288.05 232.4 290.12L233.21 291.272C238.43 288.662 240.536 284.504 240.536 279.914H233.156ZM247.304 284.738H244.712V278.186H243.236V294.332H244.712V285.962H247.304V284.738ZM262.974 282.884C260.67 282.398 259.068 281.048 259.068 279.392V278.582H257.538V279.392C257.538 281.12 255.954 282.578 253.614 283.118L254.262 284.252C256.188 283.766 257.646 282.686 258.312 281.264C259.014 282.596 260.472 283.586 262.326 284.018L262.974 282.884ZM257.718 288.734H259.194V286.322C260.652 286.25 262.128 286.106 263.568 285.872L263.46 284.792C259.932 285.26 255.936 285.26 252.912 285.26L253.092 286.484C254.478 286.484 256.08 286.484 257.718 286.412V288.734ZM264.558 292.928H256.89V291.146H264.558V292.928ZM264.558 289.994H256.89V288.266H255.414V294.116H266.016V288.266H264.558V289.994ZM264.54 278.204V287.474H266.016V278.204H264.54ZM278.38 284.792H275.59C276.13 283.352 276.364 281.822 276.364 280.238H270.136V281.444H274.906C274.636 284.828 272.908 287.726 269.452 289.796L270.316 290.858C272.548 289.526 274.096 287.852 275.068 285.98H278.38V293.522H279.784V278.618H278.38V284.792ZM281.746 278.186V294.332H283.15V278.186H281.746ZM292.862 283.478C292.862 281.624 294.752 280.418 297.326 280.418C299.9 280.418 301.772 281.624 301.772 283.478C301.772 285.332 299.9 286.538 297.326 286.538C294.752 286.538 292.862 285.332 292.862 283.478ZM298.064 291.038V287.672C301.07 287.456 303.176 285.854 303.176 283.478C303.176 280.904 300.728 279.248 297.326 279.248C293.906 279.248 291.44 280.904 291.44 283.478C291.44 285.854 293.564 287.456 296.57 287.672V291.038H290V292.262H304.67V291.038H298.064ZM315.109 285.872V286.844H318.313V287.69H319.789V278.204H318.313V285.872H315.109ZM311.743 279.536C313.327 279.536 314.335 280.076 314.335 280.94C314.335 281.768 313.327 282.326 311.743 282.326C310.177 282.326 309.151 281.768 309.151 280.94C309.151 280.076 310.177 279.536 311.743 279.536ZM311.743 283.334C314.137 283.334 315.721 282.416 315.721 280.94C315.721 279.428 314.137 278.51 311.743 278.51C309.349 278.51 307.765 279.428 307.765 280.94C307.765 282.416 309.349 283.334 311.743 283.334ZM310.915 287.744H312.391V285.26C313.957 285.17 315.559 285.044 317.125 284.828L317.035 283.856C313.579 284.252 309.637 284.27 306.523 284.27L306.703 285.386C307.999 285.386 309.421 285.368 310.915 285.332V287.744ZM310.465 293.054V291.65H319.789V288.284H308.971V289.346H318.349V290.642H309.007V294.152H320.347V293.054H310.465ZM336.078 285.926H326.448V280.886H335.916V279.662H324.99V287.132H336.078V285.926ZM323.118 290.93V292.154H337.77V290.93H323.118ZM350.998 281.012H341.566V284.468H352.744V283.406H343.024V282.02H352.456V278.654H341.53V279.698H350.998V281.012ZM342.934 291.56H352.51V288.122H341.44V289.184H351.052V290.534H341.476V294.116H353.014V293.054H342.934V291.56ZM339.694 285.692V286.808H354.328V285.692H339.694ZM16.69 304.186V320.368H18.166V304.186H16.69ZM9.652 305.428C7.258 305.428 5.548 307.624 5.548 311.062C5.548 314.5 7.258 316.696 9.652 316.696C12.046 316.696 13.756 314.5 13.756 311.062C13.756 307.624 12.046 305.428 9.652 305.428ZM9.652 306.76C11.218 306.76 12.334 308.452 12.334 311.062C12.334 313.69 11.218 315.382 9.652 315.382C8.068 315.382 6.952 313.69 6.952 311.062C6.952 308.452 8.068 306.76 9.652 306.76ZM28.8026 319.18C26.2646 319.18 24.7706 318.55 24.7706 317.452C24.7706 316.354 26.2646 315.724 28.8026 315.724C31.3226 315.724 32.8346 316.354 32.8346 317.452C32.8346 318.55 31.3226 319.18 28.8026 319.18ZM28.8026 314.572C25.3466 314.572 23.2766 315.598 23.2766 317.452C23.2766 319.306 25.3466 320.314 28.8026 320.314C32.2766 320.314 34.3286 319.306 34.3286 317.452C34.3286 315.598 32.2766 314.572 28.8026 314.572ZM26.5706 310.288C27.2366 310.396 27.9926 310.468 28.8026 310.468C29.6306 310.468 30.3866 310.396 31.0526 310.288V312.178H26.5706V310.288ZM24.6446 307.48C24.6446 306.31 26.2286 305.626 28.8026 305.626C31.3766 305.626 32.9606 306.31 32.9606 307.48C32.9606 308.632 31.3766 309.334 28.8026 309.334C26.2286 309.334 24.6446 308.632 24.6446 307.48ZM32.5106 312.178V309.892C33.7526 309.388 34.4726 308.56 34.4726 307.48C34.4726 305.59 32.3126 304.474 28.8026 304.474C25.3106 304.474 23.1326 305.59 23.1326 307.48C23.1326 308.578 23.8346 309.388 25.1126 309.91V312.178H21.4946V313.366H36.1106V312.178H32.5106ZM47.6472 305.662H43.6152V304.024H42.1392V305.662H38.1252V306.796H47.6472V305.662ZM40.4292 310.162C40.4292 309.19 41.3832 308.614 42.8772 308.614C44.3712 308.614 45.3432 309.19 45.3432 310.162C45.3432 311.116 44.3712 311.71 42.8772 311.71C41.3832 311.71 40.4292 311.116 40.4292 310.162ZM46.7472 310.162C46.7472 308.524 45.2172 307.516 42.8772 307.516C40.5552 307.516 39.0252 308.524 39.0252 310.162C39.0252 311.8 40.5552 312.808 42.8772 312.808C45.2172 312.808 46.7472 311.8 46.7472 310.162ZM41.8332 317.47H50.5992V313.888H40.3392V314.986H49.1412V316.39H40.3932V320.152H51.1932V319.018H41.8332V317.47ZM50.5992 308.02V304.132H49.1232V313.06H50.5992V309.244H52.9932V308.02H50.5992ZM72.5512 310.342C69.6172 309.91 66.7372 307.912 66.7372 305.662V304.762H65.1892V305.662C65.1892 307.966 62.3452 309.91 59.4112 310.342L60.0052 311.53C62.5252 311.098 64.9552 309.712 65.9632 307.75C67.0072 309.694 69.4372 311.098 71.9392 311.53L72.5512 310.342ZM73.2532 313.276H58.6732V314.5H65.1892V320.35H66.6652V314.5H73.2712L73.2532 313.276ZM92.4872 304.204H91.0112V313.42H92.4872V304.204ZM83.8112 306.364C85.4132 306.364 86.6012 307.426 86.6012 308.902C86.6012 310.396 85.4132 311.44 83.8112 311.44C82.2092 311.44 81.0572 310.396 81.0572 308.902C81.0572 307.426 82.2092 306.364 83.8112 306.364ZM83.8112 312.664C86.2592 312.664 88.0412 311.134 88.0412 308.902C88.0412 306.67 86.2592 305.14 83.8112 305.14C81.3812 305.14 79.6172 306.67 79.6172 308.902C79.6172 311.134 81.3812 312.664 83.8112 312.664ZM90.6872 314.122H89.2472V314.986C89.2472 316.246 88.4732 317.866 86.9252 318.82C85.4312 317.938 84.6932 316.408 84.6932 314.986V314.122H83.2712V314.986C83.2712 316.534 82.0652 318.28 80.0312 319L80.7692 320.116C82.2812 319.54 83.3792 318.424 83.9552 317.128C84.4412 318.478 85.4132 319.648 86.9612 320.26C88.4552 319.612 89.4452 318.388 89.9492 317.074C90.4892 318.424 91.6052 319.54 93.1892 320.116L93.9272 319C91.8752 318.316 90.6872 316.66 90.6872 314.986V314.122ZM103.844 317.074V312.934H108.758V311.746H99.1278V306.688H108.596V305.482H97.6518V312.934H102.35V317.074H95.7798V318.298H110.45V317.074H103.844ZM113.976 316.714H123.732V320.188H125.208V315.508H113.976V316.714ZM120.42 313.06V311.368H125.46V310.216H115.686V308.524H125.118V304.6H114.192V305.752H123.66V307.426H114.228V311.368H118.926V313.06H112.338V314.266H126.99V313.06H120.42ZM142.516 305.842H138.484V304.024H137.008V305.842H132.994V307.03H142.516V305.842ZM135.298 310.612C135.298 309.568 136.27 308.902 137.746 308.902C139.222 308.902 140.212 309.568 140.212 310.612C140.212 311.674 139.222 312.322 137.746 312.322C136.27 312.322 135.298 311.674 135.298 310.612ZM141.616 310.612C141.616 308.902 140.05 307.804 137.746 307.804C135.442 307.804 133.894 308.902 133.894 310.612C133.894 312.34 135.442 313.438 137.746 313.438C140.05 313.438 141.616 312.34 141.616 310.612ZM144.01 318.928H136.774V317.146H144.01V318.928ZM144.01 315.994H136.774V314.284H135.316V320.116H145.468V314.284H144.01V315.994ZM147.862 308.29H145.468V304.186H143.992V313.564H145.468V309.532H147.862V308.29ZM151.983 305.752H150.507V316.156H151.839C154.413 316.156 156.951 315.976 159.759 315.4L159.597 314.14C156.915 314.68 154.413 314.896 151.983 314.896V305.752ZM161.253 304.186V320.314H162.729V304.186H161.253ZM168.218 306.958H174.248V305.734H166.742V316.336H168.02C171.062 316.336 173.186 316.228 175.652 315.76L175.49 314.536C173.15 314.95 171.08 315.076 168.218 315.076V306.958ZM181.142 310.558H178.478V304.186H177.002V320.368H178.478V311.782H181.142V310.558ZM184.164 319.234C184.812 319.234 185.352 318.73 185.352 317.992C185.352 317.236 184.812 316.714 184.164 316.714C183.516 316.714 182.976 317.236 182.976 317.992C182.976 318.73 183.516 319.234 184.164 319.234Z" fill="black"/>
<path d="M7.798 577.478C7.798 575.624 9.688 574.418 12.262 574.418C14.836 574.418 16.708 575.624 16.708 577.478C16.708 579.332 14.836 580.538 12.262 580.538C9.688 580.538 7.798 579.332 7.798 577.478ZM13 585.038V581.672C16.006 581.456 18.112 579.854 18.112 577.478C18.112 574.904 15.664 573.248 12.262 573.248C8.842 573.248 6.376 574.904 6.376 577.478C6.376 579.854 8.5 581.456 11.506 581.672V585.038H4.936V586.262H19.606V585.038H13ZM30.0446 579.872V580.844H33.2486V581.69H34.7246V572.204H33.2486V579.872H30.0446ZM26.6786 573.536C28.2626 573.536 29.2706 574.076 29.2706 574.94C29.2706 575.768 28.2626 576.326 26.6786 576.326C25.1126 576.326 24.0866 575.768 24.0866 574.94C24.0866 574.076 25.1126 573.536 26.6786 573.536ZM26.6786 577.334C29.0726 577.334 30.6566 576.416 30.6566 574.94C30.6566 573.428 29.0726 572.51 26.6786 572.51C24.2846 572.51 22.7006 573.428 22.7006 574.94C22.7006 576.416 24.2846 577.334 26.6786 577.334ZM25.8506 581.744H27.3266V579.26C28.8926 579.17 30.4946 579.044 32.0606 578.828L31.9706 577.856C28.5146 578.252 24.5726 578.27 21.4586 578.27L21.6386 579.386C22.9346 579.386 24.3566 579.368 25.8506 579.332V581.744ZM25.4006 587.054V585.65H34.7246V582.284H23.9066V583.346H33.2846V584.642H23.9426V588.152H35.2826V587.054H25.4006ZM51.0132 579.926H41.3832V574.886H50.8512V573.662H39.9252V581.132H51.0132V579.926ZM38.0532 584.93V586.154H52.7052V584.93H38.0532ZM59.8678 573.374C57.3658 573.374 55.5478 574.904 55.5478 577.172C55.5478 579.422 57.3658 580.97 59.8678 580.97C62.3878 580.97 64.1878 579.422 64.1878 577.172C64.1878 574.904 62.3878 573.374 59.8678 573.374ZM59.8678 574.634C61.5418 574.634 62.7478 575.66 62.7478 577.172C62.7478 578.666 61.5418 579.71 59.8678 579.71C58.2118 579.71 56.9878 578.666 56.9878 577.172C56.9878 575.66 58.2118 574.634 59.8678 574.634ZM66.3118 572.186V588.368H67.7878V572.186H66.3118ZM54.9178 584.822C57.8338 584.822 61.7398 584.786 65.3758 584.12L65.2498 583.022C61.7218 583.562 57.6718 583.58 54.7378 583.58L54.9178 584.822ZM76.1678 573.932V575.12H82.2338C81.9278 578.954 79.7678 582.05 75.4298 584.12L76.2218 585.326C81.5858 582.698 83.7278 578.594 83.7278 573.932H76.1678ZM86.9858 572.186V588.332H88.4618V572.186H86.9858ZM95.1204 583.508H93.6444V587.972H104.75V586.766H95.1204V583.508ZM95.1564 576.02H103.004V578.09H95.1564V576.02ZM99.8184 581.006V579.278H104.462V572.816H103.004V574.868H95.1564V572.816H93.6984V579.278H98.3424V581.006H91.7544V582.212H106.37V581.006H99.8184ZM119.646 573.788C122.13 573.788 123.75 574.562 123.75 575.84C123.75 577.1 122.13 577.874 119.646 577.874C117.18 577.874 115.542 577.1 115.542 575.84C115.542 574.562 117.18 573.788 119.646 573.788ZM119.646 579.08C123.066 579.08 125.298 577.838 125.298 575.84C125.298 573.842 123.066 572.6 119.646 572.6C116.226 572.6 113.994 573.842 113.994 575.84C113.994 577.838 116.226 579.08 119.646 579.08ZM115.686 583.256H114.21V587.972H125.37V586.748H115.686V583.256ZM112.338 580.376V581.582H119.034V584.84H120.528V581.582H126.972V580.376H112.338ZM130.571 576.974C130.571 575.48 131.759 574.4 133.325 574.4C134.909 574.4 136.061 575.48 136.061 576.974C136.061 578.486 134.909 579.566 133.325 579.566C131.759 579.566 130.571 578.486 130.571 576.974ZM140.723 575.714V578.234H137.249C137.393 577.838 137.465 577.424 137.465 576.974C137.465 576.506 137.393 576.092 137.267 575.714H140.723ZM140.723 579.44V581.744H142.217V572.186H140.723V574.508H136.583C135.845 573.68 134.693 573.158 133.325 573.158C130.931 573.158 129.167 574.724 129.167 576.974C129.167 579.242 130.931 580.826 133.325 580.826C134.693 580.826 135.845 580.304 136.583 579.44H140.723ZM136.871 587.144C134.441 587.144 132.965 586.424 132.965 585.218C132.965 583.994 134.441 583.274 136.871 583.274C139.337 583.274 140.813 583.994 140.813 585.218C140.813 586.424 139.337 587.144 136.871 587.144ZM136.871 582.122C133.559 582.122 131.507 583.256 131.507 585.218C131.507 587.18 133.559 588.314 136.871 588.314C140.201 588.314 142.271 587.18 142.271 585.218C142.271 583.256 140.201 582.122 136.871 582.122ZM151.245 577.298C151.245 575.714 152.433 574.598 154.017 574.598C155.601 574.598 156.789 575.714 156.789 577.298C156.789 578.882 155.601 579.998 154.017 579.998C152.433 579.998 151.245 578.882 151.245 577.298ZM158.229 577.298C158.229 574.958 156.429 573.32 154.017 573.32C151.605 573.32 149.805 574.958 149.805 577.298C149.805 579.638 151.605 581.276 154.017 581.276C156.429 581.276 158.229 579.638 158.229 577.298ZM153.459 582.86H151.983V587.972H162.747V586.766H153.459V582.86ZM162.027 577.1V572.186H160.551V584.066H162.027V578.324H164.403V577.1H162.027ZM168.326 574.148H166.85V584.138H167.876C169.622 584.138 171.476 584.048 173.654 583.634L173.51 582.356C171.584 582.734 169.874 582.842 168.326 582.86V574.148ZM178.334 572.186V578.756H176.048V572.546H174.662V587.504H176.048V579.98H178.334V588.314H179.756V572.186H178.334ZM184.596 577.028C184.596 575.516 185.784 574.472 187.44 574.472C189.078 574.472 190.266 575.516 190.266 577.028C190.266 578.558 189.078 579.566 187.44 579.566C185.784 579.566 184.596 578.558 184.596 577.028ZM188.178 580.772C190.248 580.502 191.706 579.044 191.706 577.028C191.706 574.76 189.906 573.23 187.44 573.23C184.938 573.23 183.156 574.76 183.156 577.028C183.156 579.044 184.596 580.52 186.702 580.772V583.562C185.19 583.598 183.714 583.616 182.436 583.616L182.634 584.858C185.478 584.858 189.24 584.804 192.66 584.228L192.534 583.148C191.148 583.346 189.654 583.436 188.178 583.508V580.772ZM197.592 578.846H195.036V572.168H193.56V588.332H195.036V580.088H197.592V578.846ZM216.448 572.204H214.972V584.012H216.448V572.204ZM213.064 580.538C210.688 579.746 209.014 577.784 209.014 575.606V574.724H212.668V573.536H203.812V574.724H207.502V575.606C207.502 577.91 205.864 580.016 203.416 580.862L204.19 582.014C206.098 581.33 207.592 579.872 208.276 578.036C209.014 579.728 210.49 581.06 212.344 581.708L213.064 580.538ZM207.538 586.766V582.896H206.062V587.972H216.934V586.766H207.538ZM229.911 577.784H231.963V582.41H233.385V572.186H231.963V576.578H229.911V572.492H228.507V581.816H229.911V577.784ZM227.859 574.112H224.511V572.312H223.053V574.112H219.669V575.282H227.877L227.859 574.112ZM221.667 578.882C221.667 577.892 222.513 577.226 223.791 577.226C225.051 577.226 225.915 577.892 225.915 578.882C225.915 579.89 225.051 580.556 223.791 580.556C222.513 580.556 221.667 579.89 221.667 578.882ZM227.229 578.882C227.229 577.226 225.825 576.128 223.791 576.128C221.757 576.128 220.335 577.226 220.335 578.882C220.335 580.574 221.757 581.654 223.791 581.654C225.825 581.654 227.229 580.574 227.229 578.882ZM228.075 587.18C225.609 587.18 224.133 586.568 224.133 585.506C224.133 584.426 225.609 583.814 228.075 583.814C230.523 583.814 231.999 584.426 231.999 585.506C231.999 586.568 230.523 587.18 228.075 587.18ZM228.075 582.68C224.709 582.68 222.675 583.688 222.675 585.506C222.675 587.306 224.709 588.314 228.075 588.314C231.441 588.314 233.475 587.306 233.475 585.506C233.475 583.688 231.441 582.68 228.075 582.68ZM241.051 583.508C239.593 583.508 238.531 582.464 238.531 581.024C238.531 579.566 239.593 578.522 241.051 578.522C242.527 578.522 243.589 579.566 243.589 581.024C243.589 582.464 242.527 583.508 241.051 583.508ZM241.051 577.298C238.783 577.298 237.145 578.846 237.145 581.024C237.145 583.22 238.783 584.732 241.051 584.732C243.355 584.732 244.993 583.22 244.993 581.024C244.993 578.846 243.355 577.298 241.051 577.298ZM241.771 572.384H240.295V574.778H236.227V575.966H245.749V574.778H241.771V572.384ZM251.401 578.828H248.755V572.204H247.279V588.332H248.755V580.07H251.401V578.828ZM265.818 577.046H256.314V572.78H254.838V578.252H265.818V577.046ZM256.206 583.22H254.73V587.936H265.908V586.73H256.206V583.22ZM252.858 580.412V581.6H267.492V580.412H252.858ZM283.612 577.784H285.664V582.41H287.086V572.186H285.664V576.578H283.612V572.492H282.208V581.816H283.612V577.784ZM281.56 574.112H278.212V572.312H276.754V574.112H273.37V575.282H281.578L281.56 574.112ZM275.368 578.882C275.368 577.892 276.214 577.226 277.492 577.226C278.752 577.226 279.616 577.892 279.616 578.882C279.616 579.89 278.752 580.556 277.492 580.556C276.214 580.556 275.368 579.89 275.368 578.882ZM280.93 578.882C280.93 577.226 279.526 576.128 277.492 576.128C275.458 576.128 274.036 577.226 274.036 578.882C274.036 580.574 275.458 581.654 277.492 581.654C279.526 581.654 280.93 580.574 280.93 578.882ZM281.776 587.18C279.31 587.18 277.834 586.568 277.834 585.506C277.834 584.426 279.31 583.814 281.776 583.814C284.224 583.814 285.7 584.426 285.7 585.506C285.7 586.568 284.224 587.18 281.776 587.18ZM281.776 582.68C278.41 582.68 276.376 583.688 276.376 585.506C276.376 587.306 278.41 588.314 281.776 588.314C285.142 588.314 287.176 587.306 287.176 585.506C287.176 583.688 285.142 582.68 281.776 582.68ZM295.436 573.59H293.978V576.488C293.978 579.422 292.142 582.518 289.82 583.706L290.702 584.894C292.52 583.922 294.014 581.906 294.716 579.548C295.454 581.762 296.912 583.652 298.622 584.57L299.54 583.4C297.272 582.266 295.436 579.332 295.436 576.488V573.59ZM305.102 578.738H302.438V572.204H300.962V588.332H302.438V579.962H305.102V578.738ZM317.881 575.012H308.449V578.468H319.627V577.406H309.907V576.02H319.339V572.654H308.413V573.698H317.881V575.012ZM309.817 585.56H319.393V582.122H308.323V583.184H317.935V584.534H308.359V588.116H319.897V587.054H309.817V585.56ZM306.577 579.692V580.808H321.211V579.692H306.577ZM14.53 600.166H10.498V598.186H9.022V600.166H5.008V601.354H14.53V600.166ZM7.312 605.242C7.312 604.126 8.302 603.406 9.76 603.406C11.218 603.406 12.226 604.126 12.226 605.242C12.226 606.376 11.218 607.096 9.76 607.096C8.302 607.096 7.312 606.376 7.312 605.242ZM13.63 605.242C13.63 603.442 12.046 602.254 9.76 602.254C7.474 602.254 5.908 603.442 5.908 605.242C5.908 607.06 7.474 608.248 9.76 608.248C12.046 608.248 13.63 607.06 13.63 605.242ZM8.914 609.346H7.438V613.972H18.202V612.766H8.914V609.346ZM17.482 603.514V598.186H16.006V610.3H17.482V604.756H19.858V603.514H17.482ZM38.48 603.1H28.994V598.798H27.536V604.27H38.48V603.1ZM28.868 609.256H27.392V613.972H38.588V612.766H28.868V609.256ZM25.538 606.178V607.366H32.216V610.678H33.692V607.366H40.136V606.178H25.538ZM45.7506 609.418C44.4546 609.418 43.6446 607.78 43.6446 605.134C43.6446 602.542 44.4546 600.904 45.7506 600.904C47.0106 600.904 47.8386 602.542 47.8386 605.134C47.8386 607.78 47.0106 609.418 45.7506 609.418ZM51.2046 604.468H49.1706C48.9906 601.426 47.6946 599.536 45.7506 599.536C43.6446 599.536 42.2946 601.696 42.2946 605.134C42.2946 608.626 43.6446 610.786 45.7506 610.786C47.7306 610.786 49.0446 608.842 49.1706 605.674H51.2046V613.54H52.6086V598.546H51.2046V604.468ZM54.4086 598.186V614.332H55.8126V598.186H54.4086ZM72.2746 599.662H68.3866V598.078H66.9106V599.662H63.0046V600.778H72.2746V599.662ZM65.2726 603.766C65.2726 602.92 66.1906 602.398 67.6486 602.398C69.0706 602.398 70.0066 602.92 70.0066 603.766C70.0066 604.612 69.0706 605.152 67.6486 605.152C66.1906 605.152 65.2726 604.612 65.2726 603.766ZM72.7606 606.862C71.3566 607.078 69.8626 607.186 68.3866 607.258V606.142C70.2406 605.944 71.4106 605.08 71.4106 603.766C71.4106 602.29 69.8986 601.372 67.6486 601.372C65.3626 601.372 63.8686 602.29 63.8686 603.766C63.8686 605.098 65.0386 605.962 66.9106 606.142V607.312C65.3626 607.366 63.8866 607.366 62.6086 607.366L62.7706 608.554C65.5966 608.536 69.4126 608.518 72.8686 607.924L72.7606 606.862ZM64.5706 611.002H73.7146V614.332H75.1906V609.832H64.5706V611.002ZM77.5486 603.082H75.1906V598.204H73.7146V609.022H75.1906V604.306H77.5486V603.082ZM92.4872 598.204H91.0112V609.994H92.4872V598.204ZM81.0572 603.28C81.0572 601.714 82.2452 600.598 83.8112 600.598C85.4132 600.598 86.6012 601.714 86.6012 603.28C86.6012 604.882 85.4132 605.998 83.8112 605.998C82.2452 605.998 81.0572 604.882 81.0572 603.28ZM88.0412 603.28C88.0412 600.958 86.2232 599.32 83.8112 599.32C81.4172 599.32 79.6172 600.958 79.6172 603.28C79.6172 605.62 81.4172 607.276 83.8112 607.276C86.2232 607.276 88.0412 605.62 88.0412 603.28ZM83.5772 612.766V608.788H82.1012V613.972H92.9732V612.766H83.5772ZM105.374 599.662H101.342V598.024H99.8658V599.662H95.8518V600.796H105.374V599.662ZM98.1558 604.162C98.1558 603.19 99.1098 602.614 100.604 602.614C102.098 602.614 103.07 603.19 103.07 604.162C103.07 605.116 102.098 605.71 100.604 605.71C99.1098 605.71 98.1558 605.116 98.1558 604.162ZM104.474 604.162C104.474 602.524 102.944 601.516 100.604 601.516C98.2818 601.516 96.7518 602.524 96.7518 604.162C96.7518 605.8 98.2818 606.808 100.604 606.808C102.944 606.808 104.474 605.8 104.474 604.162ZM99.5598 611.47H108.326V607.888H98.0658V608.986H106.868V610.39H98.1198V614.152H108.92V613.018H99.5598V611.47ZM108.326 602.02V598.132H106.85V607.06H108.326V603.244H110.72V602.02H108.326ZM130.278 604.342C127.344 603.91 124.464 601.912 124.464 599.662V598.762H122.916V599.662C122.916 601.966 120.072 603.91 117.138 604.342L117.732 605.53C120.252 605.098 122.682 603.712 123.69 601.75C124.734 603.694 127.164 605.098 129.666 605.53L130.278 604.342ZM130.98 607.276H116.4V608.5H122.916V614.35H124.392V608.5H130.998L130.98 607.276ZM150.214 598.204H148.738V607.42H150.214V598.204ZM141.538 600.364C143.14 600.364 144.328 601.426 144.328 602.902C144.328 604.396 143.14 605.44 141.538 605.44C139.936 605.44 138.784 604.396 138.784 602.902C138.784 601.426 139.936 600.364 141.538 600.364ZM141.538 606.664C143.986 606.664 145.768 605.134 145.768 602.902C145.768 600.67 143.986 599.14 141.538 599.14C139.108 599.14 137.344 600.67 137.344 602.902C137.344 605.134 139.108 606.664 141.538 606.664ZM148.414 608.122H146.974V608.986C146.974 610.246 146.2 611.866 144.652 612.82C143.158 611.938 142.42 610.408 142.42 608.986V608.122H140.998V608.986C140.998 610.534 139.792 612.28 137.758 613L138.496 614.116C140.008 613.54 141.106 612.424 141.682 611.128C142.168 612.478 143.14 613.648 144.688 614.26C146.182 613.612 147.172 612.388 147.676 611.074C148.216 612.424 149.332 613.54 150.916 614.116L151.654 613C149.602 612.316 148.414 610.66 148.414 608.986V608.122ZM161.57 611.074V606.934H166.484V605.746H156.854V600.688H166.322V599.482H155.378V606.934H160.076V611.074H153.506V612.298H168.176V611.074H161.57ZM171.703 610.714H181.459V614.188H182.935V609.508H171.703V610.714ZM178.147 607.06V605.368H183.187V604.216H173.413V602.524H182.845V598.6H171.919V599.752H181.387V601.426H171.955V605.368H176.653V607.06H170.065V608.266H184.717V607.06H178.147ZM200.243 599.842H196.211V598.024H194.735V599.842H190.721V601.03H200.243V599.842ZM193.025 604.612C193.025 603.568 193.997 602.902 195.473 602.902C196.949 602.902 197.939 603.568 197.939 604.612C197.939 605.674 196.949 606.322 195.473 606.322C193.997 606.322 193.025 605.674 193.025 604.612ZM199.343 604.612C199.343 602.902 197.777 601.804 195.473 601.804C193.169 601.804 191.621 602.902 191.621 604.612C191.621 606.34 193.169 607.438 195.473 607.438C197.777 607.438 199.343 606.34 199.343 604.612ZM201.737 612.928H194.501V611.146H201.737V612.928ZM201.737 609.994H194.501V608.284H193.043V614.116H203.195V608.284H201.737V609.994ZM205.589 602.29H203.195V598.186H201.719V607.564H203.195V603.532H205.589V602.29ZM209.709 599.752H208.233V610.156H209.565C212.139 610.156 214.677 609.976 217.485 609.4L217.323 608.14C214.641 608.68 212.139 608.896 209.709 608.896V599.752ZM218.979 598.186V614.314H220.455V598.186H218.979ZM225.944 600.958H231.974V599.734H224.468V610.336H225.746C228.788 610.336 230.912 610.228 233.378 609.76L233.216 608.536C230.876 608.95 228.806 609.076 225.944 609.076V600.958ZM238.868 604.558H236.204V598.186H234.728V614.368H236.204V605.782H238.868V604.558ZM241.891 613.234C242.539 613.234 243.079 612.73 243.079 611.992C243.079 611.236 242.539 610.714 241.891 610.714C241.243 610.714 240.703 611.236 240.703 611.992C240.703 612.73 241.243 613.234 241.891 613.234Z" fill="black"/>
<path d="M7.798 1106.48C7.798 1104.62 9.688 1103.42 12.262 1103.42C14.836 1103.42 16.708 1104.62 16.708 1106.48C16.708 1108.33 14.836 1109.54 12.262 1109.54C9.688 1109.54 7.798 1108.33 7.798 1106.48ZM13 1114.04V1110.67C16.006 1110.46 18.112 1108.85 18.112 1106.48C18.112 1103.9 15.664 1102.25 12.262 1102.25C8.842 1102.25 6.376 1103.9 6.376 1106.48C6.376 1108.85 8.5 1110.46 11.506 1110.67V1114.04H4.936V1115.26H19.606V1114.04H13ZM30.0446 1108.87V1109.84H33.2486V1110.69H34.7246V1101.2H33.2486V1108.87H30.0446ZM26.6786 1102.54C28.2626 1102.54 29.2706 1103.08 29.2706 1103.94C29.2706 1104.77 28.2626 1105.33 26.6786 1105.33C25.1126 1105.33 24.0866 1104.77 24.0866 1103.94C24.0866 1103.08 25.1126 1102.54 26.6786 1102.54ZM26.6786 1106.33C29.0726 1106.33 30.6566 1105.42 30.6566 1103.94C30.6566 1102.43 29.0726 1101.51 26.6786 1101.51C24.2846 1101.51 22.7006 1102.43 22.7006 1103.94C22.7006 1105.42 24.2846 1106.33 26.6786 1106.33ZM25.8506 1110.74H27.3266V1108.26C28.8926 1108.17 30.4946 1108.04 32.0606 1107.83L31.9706 1106.86C28.5146 1107.25 24.5726 1107.27 21.4586 1107.27L21.6386 1108.39C22.9346 1108.39 24.3566 1108.37 25.8506 1108.33V1110.74ZM25.4006 1116.05V1114.65H34.7246V1111.28H23.9066V1112.35H33.2846V1113.64H23.9426V1117.15H35.2826V1116.05H25.4006ZM51.0132 1108.93H41.3832V1103.89H50.8512V1102.66H39.9252V1110.13H51.0132V1108.93ZM38.0532 1113.93V1115.15H52.7052V1113.93H38.0532ZM59.8678 1102.37C57.3658 1102.37 55.5478 1103.9 55.5478 1106.17C55.5478 1108.42 57.3658 1109.97 59.8678 1109.97C62.3878 1109.97 64.1878 1108.42 64.1878 1106.17C64.1878 1103.9 62.3878 1102.37 59.8678 1102.37ZM59.8678 1103.63C61.5418 1103.63 62.7478 1104.66 62.7478 1106.17C62.7478 1107.67 61.5418 1108.71 59.8678 1108.71C58.2118 1108.71 56.9878 1107.67 56.9878 1106.17C56.9878 1104.66 58.2118 1103.63 59.8678 1103.63ZM66.3118 1101.19V1117.37H67.7878V1101.19H66.3118ZM54.9178 1113.82C57.8338 1113.82 61.7398 1113.79 65.3758 1113.12L65.2498 1112.02C61.7218 1112.56 57.6718 1112.58 54.7378 1112.58L54.9178 1113.82ZM77.2478 1104.35H81.8018V1103.15H75.7898V1113.35H76.8518C79.2638 1113.35 80.9018 1113.28 82.8278 1112.87L82.7018 1111.64C80.9378 1112.02 79.4078 1112.11 77.2478 1112.13V1104.35ZM87.5078 1101.19V1107.67H85.2218V1101.55H83.8358V1116.52H85.2218V1108.87H87.5078V1117.33H88.9298V1101.19H87.5078ZM97.2984 1110.33H100.808V1114.16H97.2984V1110.33ZM97.0464 1103.87H101.06V1109.14H97.0464V1103.87ZM102.284 1114.16V1110.33H105.02V1109.14H102.536V1103.87H105.038V1102.68H93.0684V1103.87H95.5704V1109.14H93.1044V1110.33H95.8224V1114.16H91.7544V1115.37H106.406V1114.16H102.284ZM114.372 1108.66H118.206V1107.49H114.372V1104.32H118.962V1103.11H112.95V1113.44H113.994C116.532 1113.44 118.044 1113.39 119.88 1113.03L119.754 1111.82C118.044 1112.17 116.64 1112.24 114.372 1112.24V1108.66ZM121.41 1107.31H119.088V1108.51H121.41V1116.5H122.796V1101.58H121.41V1107.31ZM124.65 1101.17V1117.31H126.054V1101.17H124.65ZM131.003 1103.99H135.521V1112.04H131.003V1103.99ZM129.563 1113.23H136.961V1102.81H129.563V1113.23ZM143.999 1107.63H141.335V1101.2H139.859V1117.33H141.335V1108.87H143.999V1107.63ZM148.858 1104.12H151.504V1111.97C150.622 1112 149.722 1112.04 148.858 1112.06V1104.12ZM152.944 1104.12H154.672V1102.93H145.69V1104.12H147.418V1112.08C146.662 1112.09 145.942 1112.09 145.276 1112.09L145.456 1113.34C148.3 1113.34 152.134 1113.28 155.518 1112.74L155.41 1111.64C154.618 1111.75 153.79 1111.82 152.944 1111.88V1104.12ZM160.558 1107.65H157.894V1101.2H156.418V1117.33H157.894V1108.87H160.558V1107.65ZM163.364 1107.74L163.58 1108.96L173.318 1108.42C173.228 1109.66 173.048 1111 172.688 1112.54L174.146 1112.69C174.848 1109.38 174.848 1107.2 174.848 1104.8V1102.82H163.778V1104.03H173.408V1104.8C173.408 1105.63 173.408 1106.46 173.372 1107.31L163.364 1107.74ZM162.05 1113.88V1115.08H176.648V1113.88H162.05ZM191.461 1105.43H182.011V1102.91H191.299V1101.73H180.535V1106.62H191.461V1105.43ZM181.831 1114.33H191.317V1110.53H180.337V1111.68H189.859V1113.23H180.391V1117.13H191.803V1115.98H181.831V1114.33ZM178.591 1107.92V1109.12H193.207V1107.92H178.591ZM200.387 1102.37C197.885 1102.37 196.067 1103.9 196.067 1106.17C196.067 1108.42 197.885 1109.97 200.387 1109.97C202.907 1109.97 204.707 1108.42 204.707 1106.17C204.707 1103.9 202.907 1102.37 200.387 1102.37ZM200.387 1103.63C202.061 1103.63 203.267 1104.66 203.267 1106.17C203.267 1107.67 202.061 1108.71 200.387 1108.71C198.731 1108.71 197.507 1107.67 197.507 1106.17C197.507 1104.66 198.731 1103.63 200.387 1103.63ZM206.831 1101.19V1117.37H208.307V1101.19H206.831ZM195.437 1113.82C198.353 1113.82 202.259 1113.79 205.895 1113.12L205.769 1112.02C202.241 1112.56 198.191 1112.58 195.257 1112.58L195.437 1113.82ZM224.355 1105.38V1106.59H227.541V1110.82H229.035V1101.2H227.541V1105.38H224.355ZM225.255 1109.05C222.915 1108.22 221.331 1106.19 221.331 1104.12V1103.56H224.877V1102.37H216.255V1103.56H219.855V1104.12C219.855 1106.44 218.199 1108.62 215.787 1109.5L216.561 1110.67C218.451 1109.95 219.945 1108.44 220.629 1106.57C221.331 1108.22 222.717 1109.56 224.517 1110.2L225.255 1109.05ZM223.707 1116.18C221.277 1116.18 219.801 1115.5 219.801 1114.33C219.801 1113.16 221.277 1112.45 223.707 1112.45C226.137 1112.45 227.613 1113.16 227.613 1114.33C227.613 1115.5 226.137 1116.18 223.707 1116.18ZM223.707 1111.32C220.395 1111.32 218.325 1112.42 218.325 1114.33C218.325 1116.23 220.395 1117.33 223.707 1117.33C227.019 1117.33 229.089 1116.23 229.089 1114.33C229.089 1112.42 227.019 1111.32 223.707 1111.32ZM235.478 1106.42H243.722V1109.39H235.478V1106.42ZM240.338 1114.06V1110.58H245.162V1102.34H243.722V1105.22H235.478V1102.34H234.02V1110.58H238.844V1114.06H232.292V1115.26H246.926V1114.06H240.338ZM260.154 1104.01H250.722V1107.47H261.9V1106.41H252.18V1105.02H261.612V1101.65H250.686V1102.7H260.154V1104.01ZM252.09 1114.56H261.666V1111.12H250.596V1112.18H260.208V1113.53H250.632V1117.12H262.17V1116.05H252.09V1114.56ZM248.85 1108.69V1109.81H263.484V1108.69H248.85ZM279.532 1105.88C277.228 1105.4 275.626 1104.05 275.626 1102.39V1101.58H274.096V1102.39C274.096 1104.12 272.512 1105.58 270.172 1106.12L270.82 1107.25C272.746 1106.77 274.204 1105.69 274.87 1104.26C275.572 1105.6 277.03 1106.59 278.884 1107.02L279.532 1105.88ZM274.276 1111.73H275.752V1109.32C277.21 1109.25 278.686 1109.11 280.126 1108.87L280.018 1107.79C276.49 1108.26 272.494 1108.26 269.47 1108.26L269.65 1109.48C271.036 1109.48 272.638 1109.48 274.276 1109.41V1111.73ZM281.116 1115.93H273.448V1114.15H281.116V1115.93ZM281.116 1112.99H273.448V1111.27H271.972V1117.12H282.574V1111.27H281.116V1112.99ZM281.098 1101.2V1110.47H282.574V1101.2H281.098ZM294.939 1107.79H292.149C292.689 1106.35 292.923 1104.82 292.923 1103.24H286.695V1104.44H291.465C291.195 1107.83 289.467 1110.73 286.011 1112.8L286.875 1113.86C289.107 1112.53 290.655 1110.85 291.627 1108.98H294.939V1116.52H296.343V1101.62H294.939V1107.79ZM298.305 1101.19V1117.33H299.709V1101.19H298.305ZM14.548 1128.66H10.66V1127.08H9.184V1128.66H5.278V1129.78H14.548V1128.66ZM7.546 1132.77C7.546 1131.92 8.464 1131.4 9.922 1131.4C11.344 1131.4 12.28 1131.92 12.28 1132.77C12.28 1133.61 11.344 1134.15 9.922 1134.15C8.464 1134.15 7.546 1133.61 7.546 1132.77ZM15.034 1135.86C13.63 1136.08 12.136 1136.19 10.66 1136.26V1135.14C12.514 1134.94 13.684 1134.08 13.684 1132.77C13.684 1131.29 12.172 1130.37 9.922 1130.37C7.636 1130.37 6.142 1131.29 6.142 1132.77C6.142 1134.1 7.312 1134.96 9.184 1135.14V1136.31C7.636 1136.37 6.16 1136.37 4.882 1136.37L5.044 1137.55C7.87 1137.54 11.686 1137.52 15.142 1136.92L15.034 1135.86ZM6.844 1140H15.988V1143.33H17.464V1138.83H6.844V1140ZM19.822 1132.08H17.464V1127.2H15.988V1138.02H17.464V1133.31H19.822V1132.08ZM34.7606 1127.2H33.2846V1138.99H34.7606V1127.2ZM23.3306 1132.28C23.3306 1130.71 24.5186 1129.6 26.0846 1129.6C27.6866 1129.6 28.8746 1130.71 28.8746 1132.28C28.8746 1133.88 27.6866 1135 26.0846 1135C24.5186 1135 23.3306 1133.88 23.3306 1132.28ZM30.3146 1132.28C30.3146 1129.96 28.4966 1128.32 26.0846 1128.32C23.6906 1128.32 21.8906 1129.96 21.8906 1132.28C21.8906 1134.62 23.6906 1136.28 26.0846 1136.28C28.4966 1136.28 30.3146 1134.62 30.3146 1132.28ZM25.8506 1141.77V1137.79H24.3746V1142.97H35.2466V1141.77H25.8506ZM47.6472 1128.66H43.6152V1127.02H42.1392V1128.66H38.1252V1129.8H47.6472V1128.66ZM40.4292 1133.16C40.4292 1132.19 41.3832 1131.61 42.8772 1131.61C44.3712 1131.61 45.3432 1132.19 45.3432 1133.16C45.3432 1134.12 44.3712 1134.71 42.8772 1134.71C41.3832 1134.71 40.4292 1134.12 40.4292 1133.16ZM46.7472 1133.16C46.7472 1131.52 45.2172 1130.52 42.8772 1130.52C40.5552 1130.52 39.0252 1131.52 39.0252 1133.16C39.0252 1134.8 40.5552 1135.81 42.8772 1135.81C45.2172 1135.81 46.7472 1134.8 46.7472 1133.16ZM41.8332 1140.47H50.5992V1136.89H40.3392V1137.99H49.1412V1139.39H40.3932V1143.15H51.1932V1142.02H41.8332V1140.47ZM50.5992 1131.02V1127.13H49.1232V1136.06H50.5992V1132.24H52.9932V1131.02H50.5992ZM72.5512 1133.34C69.6172 1132.91 66.7372 1130.91 66.7372 1128.66V1127.76H65.1892V1128.66C65.1892 1130.97 62.3452 1132.91 59.4112 1133.34L60.0052 1134.53C62.5252 1134.1 64.9552 1132.71 65.9632 1130.75C67.0072 1132.69 69.4372 1134.1 71.9392 1134.53L72.5512 1133.34ZM73.2532 1136.28H58.6732V1137.5H65.1892V1143.35H66.6652V1137.5H73.2712L73.2532 1136.28ZM92.4872 1127.2H91.0112V1136.42H92.4872V1127.2ZM83.8112 1129.36C85.4132 1129.36 86.6012 1130.43 86.6012 1131.9C86.6012 1133.4 85.4132 1134.44 83.8112 1134.44C82.2092 1134.44 81.0572 1133.4 81.0572 1131.9C81.0572 1130.43 82.2092 1129.36 83.8112 1129.36ZM83.8112 1135.66C86.2592 1135.66 88.0412 1134.13 88.0412 1131.9C88.0412 1129.67 86.2592 1128.14 83.8112 1128.14C81.3812 1128.14 79.6172 1129.67 79.6172 1131.9C79.6172 1134.13 81.3812 1135.66 83.8112 1135.66ZM90.6872 1137.12H89.2472V1137.99C89.2472 1139.25 88.4732 1140.87 86.9252 1141.82C85.4312 1140.94 84.6932 1139.41 84.6932 1137.99V1137.12H83.2712V1137.99C83.2712 1139.53 82.0652 1141.28 80.0312 1142L80.7692 1143.12C82.2812 1142.54 83.3792 1141.42 83.9552 1140.13C84.4412 1141.48 85.4132 1142.65 86.9612 1143.26C88.4552 1142.61 89.4452 1141.39 89.9492 1140.07C90.4892 1141.42 91.6052 1142.54 93.1892 1143.12L93.9272 1142C91.8752 1141.32 90.6872 1139.66 90.6872 1137.99V1137.12ZM103.844 1140.07V1135.93H108.758V1134.75H99.1278V1129.69H108.596V1128.48H97.6518V1135.93H102.35V1140.07H95.7798V1141.3H110.45V1140.07H103.844ZM113.976 1139.71H123.732V1143.19H125.208V1138.51H113.976V1139.71ZM120.42 1136.06V1134.37H125.46V1133.22H115.686V1131.52H125.118V1127.6H114.192V1128.75H123.66V1130.43H114.228V1134.37H118.926V1136.06H112.338V1137.27H126.99V1136.06H120.42ZM142.516 1128.84H138.484V1127.02H137.008V1128.84H132.994V1130.03H142.516V1128.84ZM135.298 1133.61C135.298 1132.57 136.27 1131.9 137.746 1131.9C139.222 1131.9 140.212 1132.57 140.212 1133.61C140.212 1134.67 139.222 1135.32 137.746 1135.32C136.27 1135.32 135.298 1134.67 135.298 1133.61ZM141.616 1133.61C141.616 1131.9 140.05 1130.8 137.746 1130.8C135.442 1130.8 133.894 1131.9 133.894 1133.61C133.894 1135.34 135.442 1136.44 137.746 1136.44C140.05 1136.44 141.616 1135.34 141.616 1133.61ZM144.01 1141.93H136.774V1140.15H144.01V1141.93ZM144.01 1138.99H136.774V1137.28H135.316V1143.12H145.468V1137.28H144.01V1138.99ZM147.862 1131.29H145.468V1127.19H143.992V1136.56H145.468V1132.53H147.862V1131.29ZM151.983 1128.75H150.507V1139.16H151.839C154.413 1139.16 156.951 1138.98 159.759 1138.4L159.597 1137.14C156.915 1137.68 154.413 1137.9 151.983 1137.9V1128.75ZM161.253 1127.19V1143.31H162.729V1127.19H161.253ZM168.218 1129.96H174.248V1128.73H166.742V1139.34H168.02C171.062 1139.34 173.186 1139.23 175.652 1138.76L175.49 1137.54C173.15 1137.95 171.08 1138.08 168.218 1138.08V1129.96ZM181.142 1133.56H178.478V1127.19H177.002V1143.37H178.478V1134.78H181.142V1133.56ZM184.164 1142.23C184.812 1142.23 185.352 1141.73 185.352 1140.99C185.352 1140.24 184.812 1139.71 184.164 1139.71C183.516 1139.71 182.976 1140.24 182.976 1140.99C182.976 1141.73 183.516 1142.23 184.164 1142.23Z" fill="black"/>
<path d="M7.798 1560.48C7.798 1558.62 9.688 1557.42 12.262 1557.42C14.836 1557.42 16.708 1558.62 16.708 1560.48C16.708 1562.33 14.836 1563.54 12.262 1563.54C9.688 1563.54 7.798 1562.33 7.798 1560.48ZM13 1568.04V1564.67C16.006 1564.46 18.112 1562.85 18.112 1560.48C18.112 1557.9 15.664 1556.25 12.262 1556.25C8.842 1556.25 6.376 1557.9 6.376 1560.48C6.376 1562.85 8.5 1564.46 11.506 1564.67V1568.04H4.936V1569.26H19.606V1568.04H13ZM30.0446 1562.87V1563.84H33.2486V1564.69H34.7246V1555.2H33.2486V1562.87H30.0446ZM26.6786 1556.54C28.2626 1556.54 29.2706 1557.08 29.2706 1557.94C29.2706 1558.77 28.2626 1559.33 26.6786 1559.33C25.1126 1559.33 24.0866 1558.77 24.0866 1557.94C24.0866 1557.08 25.1126 1556.54 26.6786 1556.54ZM26.6786 1560.33C29.0726 1560.33 30.6566 1559.42 30.6566 1557.94C30.6566 1556.43 29.0726 1555.51 26.6786 1555.51C24.2846 1555.51 22.7006 1556.43 22.7006 1557.94C22.7006 1559.42 24.2846 1560.33 26.6786 1560.33ZM25.8506 1564.74H27.3266V1562.26C28.8926 1562.17 30.4946 1562.04 32.0606 1561.83L31.9706 1560.86C28.5146 1561.25 24.5726 1561.27 21.4586 1561.27L21.6386 1562.39C22.9346 1562.39 24.3566 1562.37 25.8506 1562.33V1564.74ZM25.4006 1570.05V1568.65H34.7246V1565.28H23.9066V1566.35H33.2846V1567.64H23.9426V1571.15H35.2826V1570.05H25.4006ZM51.0132 1562.93H41.3832V1557.89H50.8512V1556.66H39.9252V1564.13H51.0132V1562.93ZM38.0532 1567.93V1569.15H52.7052V1567.93H38.0532ZM59.8678 1556.37C57.3658 1556.37 55.5478 1557.9 55.5478 1560.17C55.5478 1562.42 57.3658 1563.97 59.8678 1563.97C62.3878 1563.97 64.1878 1562.42 64.1878 1560.17C64.1878 1557.9 62.3878 1556.37 59.8678 1556.37ZM59.8678 1557.63C61.5418 1557.63 62.7478 1558.66 62.7478 1560.17C62.7478 1561.67 61.5418 1562.71 59.8678 1562.71C58.2118 1562.71 56.9878 1561.67 56.9878 1560.17C56.9878 1558.66 58.2118 1557.63 59.8678 1557.63ZM66.3118 1555.19V1571.37H67.7878V1555.19H66.3118ZM54.9178 1567.82C57.8338 1567.82 61.7398 1567.79 65.3758 1567.12L65.2498 1566.02C61.7218 1566.56 57.6718 1566.58 54.7378 1566.58L54.9178 1567.82ZM80.0378 1556.7H78.6158V1559.78C78.6158 1562.57 77.2658 1565.45 75.0338 1566.74L75.9698 1567.86C77.5538 1566.89 78.7418 1565.07 79.3178 1562.96C79.8938 1564.89 81.0098 1566.54 82.5398 1567.44L83.4218 1566.27C81.2798 1565.09 80.0378 1562.35 80.0378 1559.72V1556.7ZM87.5258 1555.19V1561.68H85.3838V1555.55H83.9798V1570.52H85.3838V1562.89H87.5258V1571.33H88.9298V1555.19H87.5258ZM99.8184 1568.13V1565.09H104.984V1563.9H95.0484V1561.29H104.606V1556.37H93.5544V1557.58H103.166V1560.1H93.5904V1565.09H98.3244V1568.13H91.7544V1569.33H106.424V1568.13H99.8184ZM115.621 1556.79C118.105 1556.79 119.725 1557.56 119.725 1558.84C119.725 1560.1 118.105 1560.87 115.621 1560.87C113.155 1560.87 111.517 1560.1 111.517 1558.84C111.517 1557.56 113.155 1556.79 115.621 1556.79ZM115.621 1562.08C119.041 1562.08 121.273 1560.84 121.273 1558.84C121.273 1556.84 119.041 1555.6 115.621 1555.6C112.201 1555.6 109.969 1556.84 109.969 1558.84C109.969 1560.84 112.201 1562.08 115.621 1562.08ZM111.661 1566.26H110.185V1570.97H121.345V1569.75H111.661V1566.26ZM108.313 1563.38V1564.58H115.009V1567.84H116.503V1564.58H122.947V1563.38H108.313ZM142.847 1563.07C140.021 1562.57 136.943 1560.19 136.943 1557.51V1556.27H135.395V1557.51C135.395 1560.19 132.335 1562.57 129.509 1563.07L130.121 1564.29C132.605 1563.77 135.125 1562.1 136.169 1559.79C137.213 1562.1 139.751 1563.77 142.217 1564.29L142.847 1563.07ZM136.907 1568.02V1564.1H135.431V1568.02H128.915V1569.23H143.567V1568.02H136.907ZM155.212 1562.78C152.818 1561.95 151.162 1559.85 151.162 1557.53V1555.94H149.686V1557.53C149.686 1559.94 148.048 1562.19 145.618 1563.07L146.374 1564.24C148.264 1563.52 149.74 1562.03 150.442 1560.12C151.162 1561.9 152.62 1563.29 154.474 1563.95L155.212 1562.78ZM147.922 1566.92H157.246V1571.35H158.722V1565.73H147.922V1566.92ZM157.246 1555.2V1564.91H158.722V1555.2H157.246ZM170.456 1564.24C170.906 1561.23 170.906 1559.13 170.906 1557.83V1556.95H162.752V1558.16H169.466C169.466 1559.45 169.43 1561.41 168.98 1564.1L170.456 1564.24ZM166.748 1561.56H165.29V1566.53C164.084 1566.56 162.896 1566.58 161.87 1566.58L162.032 1567.8C164.894 1567.8 168.692 1567.73 172.04 1567.19L171.95 1566.11C170.312 1566.31 168.512 1566.42 166.748 1566.49V1561.56ZM176.99 1561.94H174.416V1555.19H172.94V1571.33H174.416V1563.18H176.99V1561.94ZM194.352 1555.19V1571.37H195.828V1555.19H194.352ZM187.314 1556.43C184.92 1556.43 183.21 1558.62 183.21 1562.06C183.21 1565.5 184.92 1567.7 187.314 1567.7C189.708 1567.7 191.418 1565.5 191.418 1562.06C191.418 1558.62 189.708 1556.43 187.314 1556.43ZM187.314 1557.76C188.88 1557.76 189.996 1559.45 189.996 1562.06C189.996 1564.69 188.88 1566.38 187.314 1566.38C185.73 1566.38 184.614 1564.69 184.614 1562.06C184.614 1559.45 185.73 1557.76 187.314 1557.76ZM206.465 1570.18C203.927 1570.18 202.433 1569.55 202.433 1568.45C202.433 1567.35 203.927 1566.72 206.465 1566.72C208.985 1566.72 210.497 1567.35 210.497 1568.45C210.497 1569.55 208.985 1570.18 206.465 1570.18ZM206.465 1565.57C203.009 1565.57 200.939 1566.6 200.939 1568.45C200.939 1570.31 203.009 1571.31 206.465 1571.31C209.939 1571.31 211.991 1570.31 211.991 1568.45C211.991 1566.6 209.939 1565.57 206.465 1565.57ZM204.233 1561.29C204.899 1561.4 205.655 1561.47 206.465 1561.47C207.293 1561.47 208.049 1561.4 208.715 1561.29V1563.18H204.233V1561.29ZM202.307 1558.48C202.307 1557.31 203.891 1556.63 206.465 1556.63C209.039 1556.63 210.623 1557.31 210.623 1558.48C210.623 1559.63 209.039 1560.33 206.465 1560.33C203.891 1560.33 202.307 1559.63 202.307 1558.48ZM210.173 1563.18V1560.89C211.415 1560.39 212.135 1559.56 212.135 1558.48C212.135 1556.59 209.975 1555.47 206.465 1555.47C202.973 1555.47 200.795 1556.59 200.795 1558.48C200.795 1559.58 201.497 1560.39 202.775 1560.91V1563.18H199.157V1564.37H213.773V1563.18H210.173ZM221.169 1558.07H224.751V1556.84H216.021V1558.07H219.711V1560.12C219.711 1562.85 217.767 1565.91 215.463 1567.07L216.327 1568.24C218.145 1567.3 219.711 1565.25 220.449 1562.89C221.187 1565.05 222.699 1566.94 224.499 1567.84L225.345 1566.65C223.005 1565.55 221.169 1562.69 221.169 1560.12V1558.07ZM230.817 1561.7H228.153V1555.2H226.677V1571.33H228.153V1562.94H230.817V1561.7ZM248.125 1567.19H249.619V1555.2H248.125V1558.26H245.425V1559.45H248.125V1561.34H245.425V1562.55H248.125V1567.19ZM239.827 1557.69H242.257V1563.41C241.447 1563.45 240.619 1563.48 239.827 1563.5V1557.69ZM245.803 1563.12C245.137 1563.2 244.417 1563.27 243.697 1563.32V1557.69H245.299V1556.5H236.803V1557.69H238.405V1563.52C237.685 1563.54 236.983 1563.54 236.371 1563.54L236.533 1564.76C239.143 1564.76 242.797 1564.71 245.893 1564.22L245.803 1563.12ZM240.745 1569.77V1566.22H239.269V1570.97H250.033V1569.77H240.745ZM258.114 1556.37C255.612 1556.37 253.794 1557.9 253.794 1560.17C253.794 1562.42 255.612 1563.97 258.114 1563.97C260.634 1563.97 262.434 1562.42 262.434 1560.17C262.434 1557.9 260.634 1556.37 258.114 1556.37ZM258.114 1557.63C259.788 1557.63 260.994 1558.66 260.994 1560.17C260.994 1561.67 259.788 1562.71 258.114 1562.71C256.458 1562.71 255.234 1561.67 255.234 1560.17C255.234 1558.66 256.458 1557.63 258.114 1557.63ZM264.558 1555.19V1571.37H266.034V1555.19H264.558ZM253.164 1567.82C256.08 1567.82 259.986 1567.79 263.622 1567.12L263.496 1566.02C259.968 1566.56 255.918 1566.58 252.984 1566.58L253.164 1567.82ZM280.738 1558.01H271.306V1561.47H282.484V1560.41H272.764V1559.02H282.196V1555.65H271.27V1556.7H280.738V1558.01ZM272.674 1568.56H282.25V1565.12H271.18V1566.18H280.792V1567.53H271.216V1571.12H282.754V1570.05H272.674V1568.56ZM269.434 1562.69V1563.81H284.068V1562.69H269.434ZM295.31 1557.17C296.876 1557.17 297.992 1558.01 297.992 1559.27C297.992 1560.53 296.876 1561.38 295.31 1561.38C293.726 1561.38 292.61 1560.53 292.61 1559.27C292.61 1558.01 293.726 1557.17 295.31 1557.17ZM295.31 1562.58C297.704 1562.58 299.414 1561.23 299.414 1559.27C299.414 1557.29 297.704 1555.94 295.31 1555.94C292.898 1555.94 291.188 1557.29 291.188 1559.27C291.188 1561.23 292.898 1562.58 295.31 1562.58ZM300.62 1563.38C297.074 1563.92 292.988 1563.95 289.982 1563.95L290.18 1565.19C291.512 1565.19 293.042 1565.18 294.644 1565.1V1570.83H296.12V1565.01C297.65 1564.92 299.216 1564.74 300.746 1564.47L300.62 1563.38ZM301.79 1555.2V1571.35H303.266V1555.2H301.79ZM316.153 1557.17H312.121V1555.19H310.645V1557.17H306.631V1558.35H316.153V1557.17ZM308.935 1562.24C308.935 1561.13 309.925 1560.41 311.383 1560.41C312.841 1560.41 313.849 1561.13 313.849 1562.24C313.849 1563.38 312.841 1564.1 311.383 1564.1C309.925 1564.1 308.935 1563.38 308.935 1562.24ZM315.253 1562.24C315.253 1560.44 313.669 1559.25 311.383 1559.25C309.097 1559.25 307.531 1560.44 307.531 1562.24C307.531 1564.06 309.097 1565.25 311.383 1565.25C313.669 1565.25 315.253 1564.06 315.253 1562.24ZM310.537 1566.35H309.061V1570.97H319.825V1569.77H310.537V1566.35ZM319.105 1560.51V1555.19H317.629V1567.3H319.105V1561.76H321.481V1560.51H319.105ZM10.606 1582.57H9.13V1585.47C9.13 1588.46 7.294 1591.57 4.954 1592.74L5.854 1593.91C7.672 1592.94 9.166 1590.91 9.868 1588.51C10.606 1590.78 12.082 1592.71 13.918 1593.62L14.782 1592.45C12.442 1591.34 10.606 1588.4 10.606 1585.47V1582.57ZM16.78 1581.19V1586.66H13.036V1587.86H16.78V1597.35H18.256V1581.19H16.78ZM33.2486 1581.19V1597.35H34.7246V1581.19H33.2486ZM22.4306 1582.55V1593.44H30.0266V1582.55H28.5686V1586.82H23.8886V1582.55H22.4306ZM23.8886 1587.99H28.5686V1592.24H23.8886V1587.99ZM51.9852 1589.3C49.1592 1588.76 46.0992 1586.32 46.0992 1583.56V1582.32H44.5512V1583.56C44.5512 1586.32 41.5092 1588.75 38.6832 1589.3L39.3492 1590.53C41.7792 1589.95 44.2992 1588.22 45.3252 1585.87C46.3512 1588.24 48.8712 1589.97 51.3192 1590.53L51.9852 1589.3ZM38.0712 1593.95V1595.17H52.7052V1593.95H38.0712ZM67.2772 1585.38V1586.59H70.4632V1590.82H71.9572V1581.2H70.4632V1585.38H67.2772ZM68.1772 1589.05C65.8372 1588.22 64.2532 1586.19 64.2532 1584.12V1583.56H67.7992V1582.37H59.1772V1583.56H62.7772V1584.12C62.7772 1586.44 61.1212 1588.62 58.7092 1589.5L59.4832 1590.67C61.3732 1589.95 62.8672 1588.44 63.5512 1586.57C64.2532 1588.22 65.6392 1589.56 67.4392 1590.2L68.1772 1589.05ZM66.6292 1596.18C64.1992 1596.18 62.7232 1595.5 62.7232 1594.33C62.7232 1593.16 64.1992 1592.45 66.6292 1592.45C69.0592 1592.45 70.5352 1593.16 70.5352 1594.33C70.5352 1595.5 69.0592 1596.18 66.6292 1596.18ZM66.6292 1591.32C63.3172 1591.32 61.2472 1592.42 61.2472 1594.33C61.2472 1596.23 63.3172 1597.33 66.6292 1597.33C69.9412 1597.33 72.0112 1596.23 72.0112 1594.33C72.0112 1592.42 69.9412 1591.32 66.6292 1591.32ZM78.3998 1586.42H86.6438V1589.39H78.3998V1586.42ZM83.2598 1594.06V1590.58H88.0838V1582.34H86.6438V1585.22H78.3998V1582.34H76.9418V1590.58H81.7658V1594.06H75.2138V1595.26H89.8478V1594.06H83.2598ZM103.076 1584.01H93.6444V1587.47H104.822V1586.41H95.1024V1585.02H104.534V1581.65H93.6084V1582.7H103.076V1584.01ZM95.0124 1594.56H104.588V1591.12H93.5184V1592.18H103.13V1593.53H93.5544V1597.12H105.092V1596.05H95.0124V1594.56ZM91.7724 1588.69V1589.81H106.406V1588.69H91.7724ZM121.95 1582.66H118.062V1581.08H116.586V1582.66H112.68V1583.78H121.95V1582.66ZM114.948 1586.77C114.948 1585.92 115.866 1585.4 117.324 1585.4C118.746 1585.4 119.682 1585.92 119.682 1586.77C119.682 1587.61 118.746 1588.15 117.324 1588.15C115.866 1588.15 114.948 1587.61 114.948 1586.77ZM122.436 1589.86C121.032 1590.08 119.538 1590.19 118.062 1590.26V1589.14C119.916 1588.94 121.086 1588.08 121.086 1586.77C121.086 1585.29 119.574 1584.37 117.324 1584.37C115.038 1584.37 113.544 1585.29 113.544 1586.77C113.544 1588.1 114.714 1588.96 116.586 1589.14V1590.31C115.038 1590.37 113.562 1590.37 112.284 1590.37L112.446 1591.55C115.272 1591.54 119.088 1591.52 122.544 1590.92L122.436 1589.86ZM114.246 1594H123.39V1597.33H124.866V1592.83H114.246V1594ZM127.224 1586.08H124.866V1581.2H123.39V1592.02H124.866V1587.31H127.224V1586.08ZM142.163 1581.2H140.687V1592.99H142.163V1581.2ZM130.733 1586.28C130.733 1584.71 131.921 1583.6 133.487 1583.6C135.089 1583.6 136.277 1584.71 136.277 1586.28C136.277 1587.88 135.089 1589 133.487 1589C131.921 1589 130.733 1587.88 130.733 1586.28ZM137.717 1586.28C137.717 1583.96 135.899 1582.32 133.487 1582.32C131.093 1582.32 129.293 1583.96 129.293 1586.28C129.293 1588.62 131.093 1590.28 133.487 1590.28C135.899 1590.28 137.717 1588.62 137.717 1586.28ZM133.253 1595.77V1591.79H131.777V1596.97H142.649V1595.77H133.253ZM155.05 1582.66H151.018V1581.02H149.542V1582.66H145.528V1583.8H155.05V1582.66ZM147.832 1587.16C147.832 1586.19 148.786 1585.61 150.28 1585.61C151.774 1585.61 152.746 1586.19 152.746 1587.16C152.746 1588.12 151.774 1588.71 150.28 1588.71C148.786 1588.71 147.832 1588.12 147.832 1587.16ZM154.15 1587.16C154.15 1585.52 152.62 1584.52 150.28 1584.52C147.958 1584.52 146.428 1585.52 146.428 1587.16C146.428 1588.8 147.958 1589.81 150.28 1589.81C152.62 1589.81 154.15 1588.8 154.15 1587.16ZM149.236 1594.47H158.002V1590.89H147.742V1591.99H156.544V1593.39H147.796V1597.15H158.596V1596.02H149.236V1594.47ZM158.002 1585.02V1581.13H156.526V1590.06H158.002V1586.24H160.396V1585.02H158.002ZM179.954 1587.34C177.02 1586.91 174.14 1584.91 174.14 1582.66V1581.76H172.592V1582.66C172.592 1584.97 169.748 1586.91 166.814 1587.34L167.408 1588.53C169.928 1588.1 172.358 1586.71 173.366 1584.75C174.41 1586.69 176.84 1588.1 179.342 1588.53L179.954 1587.34ZM180.656 1590.28H166.076V1591.5H172.592V1597.35H174.068V1591.5H180.674L180.656 1590.28ZM199.89 1581.2H198.414V1590.42H199.89V1581.2ZM191.214 1583.36C192.816 1583.36 194.004 1584.43 194.004 1585.9C194.004 1587.4 192.816 1588.44 191.214 1588.44C189.612 1588.44 188.46 1587.4 188.46 1585.9C188.46 1584.43 189.612 1583.36 191.214 1583.36ZM191.214 1589.66C193.662 1589.66 195.444 1588.13 195.444 1585.9C195.444 1583.67 193.662 1582.14 191.214 1582.14C188.784 1582.14 187.02 1583.67 187.02 1585.9C187.02 1588.13 188.784 1589.66 191.214 1589.66ZM198.09 1591.12H196.65V1591.99C196.65 1593.25 195.876 1594.87 194.328 1595.82C192.834 1594.94 192.096 1593.41 192.096 1591.99V1591.12H190.674V1591.99C190.674 1593.53 189.468 1595.28 187.434 1596L188.172 1597.12C189.684 1596.54 190.782 1595.42 191.358 1594.13C191.844 1595.48 192.816 1596.65 194.364 1597.26C195.857 1596.61 196.848 1595.39 197.352 1594.07C197.892 1595.42 199.008 1596.54 200.592 1597.12L201.33 1596C199.278 1595.32 198.09 1593.66 198.09 1591.99V1591.12ZM211.246 1594.07V1589.93H216.16V1588.75H206.53V1583.69H215.998V1582.48H205.054V1589.93H209.752V1594.07H203.182V1595.3H217.852V1594.07H211.246ZM221.379 1593.71H231.135V1597.19H232.611V1592.51H221.379V1593.71ZM227.823 1590.06V1588.37H232.863V1587.22H223.089V1585.52H232.521V1581.6H221.595V1582.75H231.063V1584.43H221.631V1588.37H226.329V1590.06H219.741V1591.27H234.393V1590.06H227.823ZM249.919 1582.84H245.887V1581.02H244.411V1582.84H240.397V1584.03H249.919V1582.84ZM242.701 1587.61C242.701 1586.57 243.673 1585.9 245.149 1585.9C246.625 1585.9 247.615 1586.57 247.615 1587.61C247.615 1588.67 246.625 1589.32 245.149 1589.32C243.673 1589.32 242.701 1588.67 242.701 1587.61ZM249.019 1587.61C249.019 1585.9 247.453 1584.8 245.149 1584.8C242.845 1584.8 241.297 1585.9 241.297 1587.61C241.297 1589.34 242.845 1590.44 245.149 1590.44C247.453 1590.44 249.019 1589.34 249.019 1587.61ZM251.413 1595.93H244.177V1594.15H251.413V1595.93ZM251.413 1592.99H244.177V1591.28H242.719V1597.12H252.871V1591.28H251.413V1592.99ZM255.265 1585.29H252.871V1581.19H251.395V1590.56H252.871V1586.53H255.265V1585.29ZM259.385 1582.75H257.909V1593.16H259.241C261.815 1593.16 264.353 1592.98 267.161 1592.4L266.999 1591.14C264.317 1591.68 261.815 1591.9 259.385 1591.9V1582.75ZM268.655 1581.19V1597.31H270.131V1581.19H268.655ZM275.62 1583.96H281.65V1582.73H274.144V1593.34H275.422C278.464 1593.34 280.588 1593.23 283.054 1592.76L282.892 1591.54C280.552 1591.95 278.482 1592.08 275.62 1592.08V1583.96ZM288.544 1587.56H285.88V1581.19H284.404V1597.37H285.88V1588.78H288.544V1587.56ZM291.566 1596.23C292.214 1596.23 292.754 1595.73 292.754 1594.99C292.754 1594.24 292.214 1593.71 291.566 1593.71C290.918 1593.71 290.378 1594.24 290.378 1594.99C290.378 1595.73 290.918 1596.23 291.566 1596.23Z" fill="black"/>
</svg>
