<svg width="562" height="515" viewBox="0 0 562 515" fill="none" xmlns="http://www.w3.org/2000/svg">
<path d="M19.65 58.7C29.8 58.7 36.7 51.4 36.7 39.2C36.7 27.05 29.8 20.1 19.65 20.1C9.5 20.1 2.6 27 2.6 39.2C2.6 51.4 9.5 58.7 19.65 58.7ZM19.65 51C14.75 51 11.75 46.4 11.75 39.2C11.75 32 14.75 27.75 19.65 27.75C24.55 27.75 27.6 32 27.6 39.2C27.6 46.4 24.55 51 19.65 51ZM46.3566 44.5H52.1066L53.4066 27.6L53.7066 19.65H44.7566L45.0566 27.6L46.3566 44.5ZM49.2066 58.7C52.3066 58.7 54.5066 56.25 54.5066 53.15C54.5066 50.05 52.3066 47.65 49.2066 47.65C46.1566 47.65 43.9566 50.05 43.9566 53.15C43.9566 56.25 46.1566 58.7 49.2066 58.7ZM66.6797 58H77.7297L80.9797 41.8C81.5297 38.95 81.9797 35.95 82.4797 33.15H82.6797C83.0297 35.95 83.5297 38.95 84.1297 41.8L87.4797 58H98.7297L105.18 20.75H96.7297L94.2797 37.75C93.8297 41.6 93.3297 45.55 92.8797 49.55H92.6297C91.8797 45.55 91.2297 41.55 90.4797 37.75L86.6297 20.75H79.0797L75.2797 37.75C74.5297 41.6 73.7797 45.55 73.0797 49.55H72.8797C72.3797 45.55 71.8797 41.65 71.3797 37.75L69.0297 20.75H59.9297L66.6797 58ZM121.858 58.7C129.058 58.7 135.758 53.2 135.758 43.75C135.758 34.35 129.058 28.85 121.858 28.85C114.608 28.85 107.908 34.35 107.908 43.75C107.908 53.2 114.608 58.7 121.858 58.7ZM121.858 51.5C118.508 51.5 117.008 48.5 117.008 43.75C117.008 39.05 118.508 36.05 121.858 36.05C125.158 36.05 126.658 39.05 126.658 43.75C126.658 48.5 125.158 51.5 121.858 51.5ZM141.344 58H150.244V41.75C151.694 38 154.244 36.65 156.344 36.65C157.594 36.65 158.444 36.85 159.494 37.1L160.944 29.45C160.144 29.1 159.194 28.85 157.494 28.85C154.644 28.85 151.494 30.7 149.394 34.5H149.244L148.594 29.55H141.344V58ZM172.638 58.7C174.638 58.7 176.088 58.35 177.038 57.95L175.988 51.4C175.488 51.5 175.288 51.5 174.988 51.5C174.288 51.5 173.438 50.95 173.438 49.05V18.05H164.538V48.75C164.538 54.7 166.538 58.7 172.638 58.7ZM191.339 58.7C194.039 58.7 196.789 57.25 198.789 55.25H198.989L199.639 58H206.889V18.05H197.989V27.55L198.289 31.8C196.439 30 194.589 28.85 191.439 28.85C185.539 28.85 179.689 34.45 179.689 43.75C179.689 53.05 184.239 58.7 191.339 58.7ZM193.689 51.4C190.639 51.4 188.839 49.1 188.839 43.65C188.839 38.4 191.089 36.1 193.539 36.1C195.039 36.1 196.639 36.55 197.989 37.8V49C196.739 50.85 195.389 51.4 193.689 51.4Z" fill="black"/>
<path d="M7.2 105.26C10.2 105.26 12.48 103.66 12.48 98.94V90.32H10.7V99C10.7 102.54 9.16 103.64 7.2 103.64C5.3 103.64 3.8 102.54 3.8 99V90.32H1.94V98.94C1.94 103.66 4.22 105.26 7.2 105.26ZM16.4141 105H18.2741V90.32H16.4141V105ZM27.4734 105.26C30.4734 105.26 32.7534 103.66 32.7534 98.94V90.32H30.9734V99C30.9734 102.54 29.4334 103.64 27.4734 103.64C25.5734 103.64 24.0734 102.54 24.0734 99V90.32H22.2134V98.94C22.2134 103.66 24.4934 105.26 27.4734 105.26ZM34.8127 105H36.7527L38.8727 101.04C39.2527 100.3 39.6327 99.56 40.0527 98.68H40.1327C40.6127 99.56 41.0127 100.3 41.3927 101.04L43.5527 105H45.5927L41.3127 97.52L45.3127 90.32H43.3727L41.4127 94.08C41.0527 94.76 40.7727 95.38 40.3727 96.22H40.2927C39.8127 95.38 39.5127 94.76 39.1327 94.08L37.1327 90.32H35.0927L39.0927 97.42L34.8127 105ZM54.0302 105H56.2302L58.4102 96.16C58.6502 95 58.9102 93.94 59.1502 92.82H59.2302C59.4702 93.94 59.6902 95 59.9502 96.16L62.1702 105H64.3902L67.4302 90.32H65.6502L64.1102 98.32C63.8302 99.88 63.5502 101.46 63.2702 103.06H63.1702C62.8302 101.46 62.4902 99.88 62.1302 98.32L60.0902 90.32H58.3902L56.3702 98.32C56.0102 99.9 55.6502 101.48 55.3102 103.06H55.2302C54.9502 101.48 54.6502 99.9 54.3702 98.32L52.8302 90.32H50.9302L54.0302 105ZM74.1888 105.26C75.6688 105.26 76.8288 104.76 77.7888 104.14L77.1288 102.94C76.3288 103.48 75.4688 103.8 74.4088 103.8C72.3488 103.8 70.9288 102.32 70.8088 100H78.1288C78.1688 99.74 78.2088 99.36 78.2088 98.96C78.2088 95.86 76.6488 93.86 73.8888 93.86C71.3688 93.86 68.9888 96.06 68.9888 99.58C68.9888 103.16 71.3088 105.26 74.1888 105.26ZM70.7888 98.68C71.0088 96.56 72.3688 95.32 73.9088 95.32C75.6088 95.32 76.6088 96.5 76.6088 98.68H70.7888ZM85.663 105.26C88.163 105.26 90.383 103.12 90.383 99.38C90.383 96.06 88.863 93.86 86.043 93.86C84.843 93.86 83.623 94.54 82.643 95.4L82.703 93.44V89.08H80.883V105H82.343L82.503 103.88H82.583C83.523 104.74 84.663 105.26 85.663 105.26ZM85.363 103.74C84.643 103.74 83.663 103.44 82.703 102.6V96.9C83.743 95.92 84.703 95.4 85.623 95.4C87.683 95.4 88.483 97.02 88.483 99.42C88.483 102.12 87.163 103.74 85.363 103.74ZM96.0863 105.26C98.6463 105.26 100.046 103.8 100.046 102.04C100.046 99.98 98.3063 99.34 96.7263 98.74C95.5063 98.28 94.3863 97.9 94.3863 96.86C94.3863 96.02 95.0263 95.3 96.4062 95.3C97.3663 95.3 98.1263 95.7 98.8663 96.26L99.7463 95.08C98.9063 94.42 97.7263 93.86 96.3863 93.86C94.0263 93.86 92.6263 95.22 92.6263 96.94C92.6263 98.78 94.2863 99.52 95.8063 100.08C97.0063 100.54 98.2863 101.02 98.2863 102.14C98.2863 103.08 97.5863 103.84 96.1463 103.84C94.8463 103.84 93.8663 103.32 92.9263 102.56L92.0263 103.76C93.0663 104.62 94.5463 105.26 96.0863 105.26ZM102.602 105H104.422V94.14H102.602V105ZM103.522 91.9C104.242 91.9 104.742 91.42 104.742 90.68C104.742 89.98 104.242 89.5 103.522 89.5C102.802 89.5 102.302 89.98 102.302 90.68C102.302 91.42 102.802 91.9 103.522 91.9ZM111.53 105.26C112.19 105.26 112.91 105.06 113.53 104.86L113.17 103.5C112.81 103.64 112.31 103.78 111.93 103.78C110.67 103.78 110.25 103.02 110.25 101.68V95.62H113.19V94.14H110.25V91.08H108.73L108.51 94.14L106.81 94.24V95.62H108.43V101.64C108.43 103.8 109.21 105.26 111.53 105.26ZM119.736 105.26C121.216 105.26 122.376 104.76 123.336 104.14L122.676 102.94C121.876 103.48 121.016 103.8 119.956 103.8C117.896 103.8 116.476 102.32 116.356 100H123.676C123.716 99.74 123.756 99.36 123.756 98.96C123.756 95.86 122.196 93.86 119.436 93.86C116.916 93.86 114.536 96.06 114.536 99.58C114.536 103.16 116.856 105.26 119.736 105.26ZM116.336 98.68C116.556 96.56 117.916 95.32 119.456 95.32C121.156 95.32 122.156 96.5 122.156 98.68H116.336ZM131.063 105H134.823C139.243 105 141.663 102.26 141.663 97.62C141.663 92.96 139.243 90.32 134.743 90.32H131.063V105ZM132.923 103.48V91.84H134.583C138.043 91.84 139.743 93.9 139.743 97.62C139.743 101.32 138.043 103.48 134.583 103.48H132.923ZM149.013 105.26C150.493 105.26 151.653 104.76 152.613 104.14L151.953 102.94C151.153 103.48 150.293 103.8 149.233 103.8C147.173 103.8 145.753 102.32 145.633 100H152.953C152.993 99.74 153.033 99.36 153.033 98.96C153.033 95.86 151.473 93.86 148.713 93.86C146.193 93.86 143.813 96.06 143.813 99.58C143.813 103.16 146.133 105.26 149.013 105.26ZM145.613 98.68C145.833 96.56 147.193 95.32 148.733 95.32C150.433 95.32 151.433 96.5 151.433 98.68H145.613ZM158.547 105.26C161.107 105.26 162.507 103.8 162.507 102.04C162.507 99.98 160.767 99.34 159.187 98.74C157.967 98.28 156.847 97.9 156.847 96.86C156.847 96.02 157.487 95.3 158.867 95.3C159.827 95.3 160.587 95.7 161.327 96.26L162.207 95.08C161.367 94.42 160.187 93.86 158.847 93.86C156.487 93.86 155.087 95.22 155.087 96.94C155.087 98.78 156.747 99.52 158.267 100.08C159.467 100.54 160.747 101.02 160.747 102.14C160.747 103.08 160.047 103.84 158.607 103.84C157.307 103.84 156.327 103.32 155.387 102.56L154.487 103.76C155.527 104.62 157.007 105.26 158.547 105.26ZM165.063 105H166.883V94.14H165.063V105ZM165.983 91.9C166.703 91.9 167.203 91.42 167.203 90.68C167.203 89.98 166.703 89.5 165.983 89.5C165.263 89.5 164.763 89.98 164.763 90.68C164.763 91.42 165.263 91.9 165.983 91.9ZM174.23 110C177.59 110 179.73 108.26 179.73 106.24C179.73 104.46 178.45 103.66 175.93 103.66H173.81C172.35 103.66 171.91 103.18 171.91 102.48C171.91 101.88 172.21 101.52 172.61 101.18C173.09 101.42 173.69 101.56 174.23 101.56C176.43 101.56 178.19 100.1 178.19 97.78C178.19 96.84 177.83 96.04 177.31 95.54H179.53V94.14H175.75C175.37 94 174.83 93.86 174.23 93.86C172.03 93.86 170.15 95.36 170.15 97.74C170.15 99.04 170.85 100.08 171.57 100.66V100.74C171.01 101.14 170.35 101.86 170.35 102.76C170.35 103.62 170.77 104.2 171.35 104.54V104.62C170.33 105.28 169.75 106.16 169.75 107.08C169.75 108.96 171.57 110 174.23 110ZM174.23 100.32C172.97 100.32 171.91 99.32 171.91 97.74C171.91 96.14 172.95 95.2 174.23 95.2C175.51 95.2 176.55 96.16 176.55 97.74C176.55 99.32 175.47 100.32 174.23 100.32ZM174.49 108.76C172.53 108.76 171.35 108 171.35 106.84C171.35 106.2 171.67 105.56 172.45 105C172.93 105.12 173.45 105.18 173.85 105.18H175.73C177.17 105.18 177.95 105.52 177.95 106.52C177.95 107.66 176.57 108.76 174.49 108.76ZM181.84 105H183.66V97.12C184.76 96.02 185.52 95.46 186.64 95.46C188.08 95.46 188.7 96.32 188.7 98.36V105H190.52V98.12C190.52 95.34 189.48 93.86 187.2 93.86C185.72 93.86 184.6 94.68 183.56 95.7H183.5L183.34 94.14H181.84V105Z" fill="black"/>
<path d="M5.064 216.304C5.064 213.832 7.584 212.224 11.016 212.224C14.448 212.224 16.944 213.832 16.944 216.304C16.944 218.776 14.448 220.384 11.016 220.384C7.584 220.384 5.064 218.776 5.064 216.304ZM12 226.384V221.896C16.008 221.608 18.816 219.472 18.816 216.304C18.816 212.872 15.552 210.664 11.016 210.664C6.456 210.664 3.168 212.872 3.168 216.304C3.168 219.472 6 221.608 10.008 221.896V226.384H1.248V228.016H20.808V226.384H12ZM25.1981 223.696H26.7101L26.9981 213.52L27.0701 211.024H24.8381L24.9101 213.52L25.1981 223.696ZM25.9421 229.312C26.8301 229.312 27.5261 228.64 27.5261 227.656C27.5261 226.648 26.8301 225.952 25.9421 225.952C25.0781 225.952 24.3581 226.648 24.3581 227.656C24.3581 228.64 25.0781 229.312 25.9421 229.312ZM42.4839 219.496V220.792H46.7559V221.92H48.7239V209.272H46.7559V219.496H42.4839ZM37.9959 211.048C40.1079 211.048 41.4519 211.768 41.4519 212.92C41.4519 214.024 40.1079 214.768 37.9959 214.768C35.9079 214.768 34.5399 214.024 34.5399 212.92C34.5399 211.768 35.9079 211.048 37.9959 211.048ZM37.9959 216.112C41.1879 216.112 43.2999 214.888 43.2999 212.92C43.2999 210.904 41.1879 209.68 37.9959 209.68C34.8039 209.68 32.6919 210.904 32.6919 212.92C32.6919 214.888 34.8039 216.112 37.9959 216.112ZM36.8919 221.992H38.8599V218.68C40.9479 218.56 43.0839 218.392 45.1719 218.104L45.0519 216.808C40.4439 217.336 35.1879 217.36 31.0359 217.36L31.2759 218.848C33.0039 218.848 34.8999 218.824 36.8919 218.776V221.992ZM36.2919 229.072V227.2H48.7239V222.712H34.2999V224.128H46.8039V225.856H34.3479V230.536H49.4679V229.072H36.2919ZM70.4421 219.568H57.6021V212.848H70.2261V211.216H55.6581V221.176H70.4421V219.568ZM53.1621 226.24V227.872H72.6981V226.24H53.1621ZM92.5202 215.728H79.8482V210.04H77.8802V217.336H92.5202V215.728ZM79.7042 223.96H77.7362V230.248H92.6402V228.64H79.7042V223.96ZM75.2402 220.216V221.8H94.7522V220.216H75.2402ZM112.454 229.24C109.046 229.24 107.054 228.4 107.054 226.888C107.054 225.376 109.046 224.536 112.454 224.536C115.814 224.536 117.806 225.376 117.806 226.888C117.806 228.4 115.814 229.24 112.454 229.24ZM112.454 223C107.846 223 105.062 224.392 105.062 226.888C105.062 229.384 107.846 230.776 112.454 230.776C117.014 230.776 119.798 229.384 119.798 226.888C119.798 224.392 117.014 223 112.454 223ZM113.438 219.88V217.384H119.918V215.8H107.126V211.816H119.774V210.232H105.158V217.384H111.47V219.88H102.71V221.464H122.198V219.88H113.438ZM139.788 214.96H129.228V211.528H139.788V214.96ZM141.732 209.968H127.308V216.52H141.732V209.968ZM144.252 219.904V218.32H124.764V219.904H133.524V222.016H127.116V223.504H139.812V225.424H127.188V230.536H142.404V229H129.108V226.864H141.756V222.016H135.492V219.904H144.252ZM158.146 221.968V223.432H162.514V225.64H164.482V209.248H162.514V221.968H158.146ZM153.754 211.576C155.794 211.576 157.186 212.488 157.186 213.856C157.186 215.248 155.794 216.16 153.754 216.16C151.714 216.16 150.322 215.248 150.322 213.856C150.322 212.488 151.714 211.576 153.754 211.576ZM153.754 217.624C156.898 217.624 159.058 216.16 159.058 213.856C159.058 211.6 156.898 210.112 153.754 210.112C150.61 210.112 148.45 211.6 148.45 213.856C148.45 216.16 150.61 217.624 153.754 217.624ZM152.986 224.872H154.954V220.624C156.898 220.504 158.89 220.288 160.786 220L160.618 218.584C156.058 219.16 150.73 219.208 146.746 219.208L147.01 220.84C148.786 220.84 150.85 220.816 152.986 220.72V224.872ZM151.786 228.688V224.032H149.818V230.296H165.034V228.688H151.786ZM169.472 233.56C171.632 232.648 172.976 230.848 172.976 228.544C172.976 226.936 172.28 225.952 171.128 225.952C170.24 225.952 169.472 226.552 169.472 227.488C169.472 228.496 170.24 229.024 171.08 229.024C171.176 229.024 171.248 229.024 171.344 229C171.344 230.416 170.456 231.592 168.944 232.264L169.472 233.56ZM193.975 211.864H188.551V209.272H186.583V211.864H181.111V213.424H193.975V211.864ZM184.351 218.68C184.351 217.192 185.647 216.208 187.567 216.208C189.487 216.208 190.783 217.192 190.783 218.68C190.783 220.168 189.487 221.128 187.567 221.128C185.647 221.128 184.351 220.168 184.351 218.68ZM188.551 222.616C191.023 222.304 192.655 220.816 192.655 218.68C192.655 216.256 190.567 214.696 187.567 214.696C184.567 214.696 182.479 216.256 182.479 218.68C182.479 220.816 184.111 222.304 186.583 222.616V224.968C184.495 225.04 182.479 225.04 180.751 225.04L181.015 226.696C184.783 226.696 189.847 226.648 194.455 225.832L194.335 224.368C192.487 224.656 190.495 224.8 188.551 224.896V222.616ZM200.935 218.392H197.575V209.248H195.607V230.776H197.575V220.048H200.935V218.392ZM214.349 221.968V223.432H218.717V225.64H220.685V209.248H218.717V221.968H214.349ZM209.957 211.576C211.997 211.576 213.389 212.488 213.389 213.856C213.389 215.248 211.997 216.16 209.957 216.16C207.917 216.16 206.525 215.248 206.525 213.856C206.525 212.488 207.917 211.576 209.957 211.576ZM209.957 217.624C213.101 217.624 215.261 216.16 215.261 213.856C215.261 211.6 213.101 210.112 209.957 210.112C206.813 210.112 204.653 211.6 204.653 213.856C204.653 216.16 206.813 217.624 209.957 217.624ZM209.189 224.872H211.157V220.624C213.101 220.504 215.093 220.288 216.989 220L216.821 218.584C212.261 219.16 206.933 219.208 202.949 219.208L203.213 220.84C204.989 220.84 207.053 220.816 209.189 220.72V224.872ZM207.989 228.688V224.032H206.021V230.296H221.237V228.688H207.989ZM225.675 233.56C227.835 232.648 229.179 230.848 229.179 228.544C229.179 226.936 228.483 225.952 227.331 225.952C226.443 225.952 225.675 226.552 225.675 227.488C225.675 228.496 226.443 229.024 227.283 229.024C227.379 229.024 227.451 229.024 227.547 229C227.547 230.416 226.659 231.592 225.147 232.264L225.675 233.56ZM241.61 226.624H254.234V221.656H239.594V223.192H252.266V225.184H239.642V230.488H254.954V228.952H241.61V226.624ZM247.922 218.248V215.92H254.426V214.336H241.754V209.56H239.81V215.92H245.978V218.248H237.194V219.856H256.706V218.248H247.922ZM274.92 209.248V230.824H276.888V209.248H274.92ZM265.536 210.904C262.344 210.904 260.064 213.832 260.064 218.416C260.064 223 262.344 225.928 265.536 225.928C268.728 225.928 271.008 223 271.008 218.416C271.008 213.832 268.728 210.904 265.536 210.904ZM265.536 212.68C267.624 212.68 269.112 214.936 269.112 218.416C269.112 221.92 267.624 224.176 265.536 224.176C263.424 224.176 261.936 221.92 261.936 218.416C261.936 214.936 263.424 212.68 265.536 212.68ZM291.094 229.24C287.686 229.24 285.694 228.4 285.694 226.888C285.694 225.376 287.686 224.536 291.094 224.536C294.454 224.536 296.446 225.376 296.446 226.888C296.446 228.4 294.454 229.24 291.094 229.24ZM291.094 223C286.486 223 283.702 224.392 283.702 226.888C283.702 229.384 286.486 230.776 291.094 230.776C295.654 230.776 298.438 229.384 298.438 226.888C298.438 224.392 295.654 223 291.094 223ZM292.078 219.88V217.384H298.558V215.8H285.766V211.816H298.414V210.232H283.798V217.384H290.11V219.88H281.35V221.464H300.838V219.88H292.078ZM315.98 220.072C312.812 218.944 310.676 216.208 310.676 213.256V210.544H308.708V213.208C308.708 216.544 306.62 219.424 303.332 220.6L304.364 222.16C306.932 221.2 308.852 219.232 309.74 216.688C310.7 218.944 312.572 220.744 314.996 221.632L315.98 220.072ZM308.756 223.624H306.788V230.296H321.068V228.688H308.756V223.624ZM320.132 215.848V209.224H318.164V225.136H320.132V217.48H323.3V215.848H320.132ZM341.154 209.248V230.824H343.122V209.248H341.154ZM331.77 210.904C328.578 210.904 326.298 213.832 326.298 218.416C326.298 223 328.578 225.928 331.77 225.928C334.962 225.928 337.242 223 337.242 218.416C337.242 213.832 334.962 210.904 331.77 210.904ZM331.77 212.68C333.858 212.68 335.346 214.936 335.346 218.416C335.346 221.92 333.858 224.176 331.77 224.176C329.658 224.176 328.17 221.92 328.17 218.416C328.17 214.936 329.658 212.68 331.77 212.68ZM355.112 225.64H368.048V230.776H370.016V224.056H355.112V225.64ZM357.464 213.736H367.928V216.232H357.464V213.736ZM363.68 220.36V217.792H369.872V209.752H367.928V212.2H357.464V209.752H355.52V217.792H361.712V220.36H352.928V221.968H372.416V220.36H363.68ZM387.798 211.456H382.422V209.032H380.454V211.456H375.102V213.04H387.798V211.456ZM378.174 217.816C378.174 216.424 379.47 215.536 381.438 215.536C383.406 215.536 384.726 216.424 384.726 217.816C384.726 219.232 383.406 220.096 381.438 220.096C379.47 220.096 378.174 219.232 378.174 217.816ZM386.598 217.816C386.598 215.536 384.51 214.072 381.438 214.072C378.366 214.072 376.302 215.536 376.302 217.816C376.302 220.12 378.366 221.584 381.438 221.584C384.51 221.584 386.598 220.12 386.598 217.816ZM389.79 228.904H380.142V226.528H389.79V228.904ZM389.79 224.992H380.142V222.712H378.198V230.488H391.734V222.712H389.79V224.992ZM394.926 214.72H391.734V209.248H389.766V221.752H391.734V216.376H394.926V214.72ZM409.804 219.76C406.684 218.656 404.572 215.944 404.572 213.184V212.32H409.3V210.712H397.804V212.32H402.604V213.184C402.604 216.232 400.372 219.112 397.18 220.24L398.212 221.8C400.732 220.864 402.7 218.896 403.612 216.424C404.572 218.656 406.42 220.432 408.82 221.296L409.804 219.76ZM400.444 224.896H412.852V230.8H414.844V223.312H400.444V224.896ZM412.852 209.248V214.864H408.652V216.472H412.852V222.136H414.844V209.248H412.852ZM428.906 210.592C424.442 210.592 421.082 212.968 421.082 216.544C421.082 220.144 424.442 222.496 428.906 222.496C433.37 222.496 436.73 220.144 436.73 216.544C436.73 212.968 433.37 210.592 428.906 210.592ZM428.906 212.2C432.314 212.2 434.858 213.952 434.858 216.544C434.858 219.16 432.314 220.888 428.906 220.888C425.522 220.888 422.954 219.16 422.954 216.544C422.954 213.952 425.522 212.2 428.906 212.2ZM419.162 226.288V227.92H438.722V226.288H419.162ZM451.992 226.504V222.448H458.88V220.864H445.632V217.384H458.376V210.832H443.64V212.44H456.456V215.8H443.688V222.448H450V226.504H441.24V228.112H460.8V226.504H451.992ZM474.47 224.176C472.406 224.176 470.965 221.92 470.965 218.416C470.965 214.936 472.406 212.68 474.47 212.68C476.51 212.68 477.95 214.936 477.95 218.416C477.95 221.92 476.51 224.176 474.47 224.176ZM484.478 209.248V217.456H479.798C479.486 213.424 477.374 210.904 474.47 210.904C471.326 210.904 469.094 213.832 469.094 218.416C469.094 223 471.326 225.928 474.47 225.928C477.47 225.928 479.606 223.288 479.798 219.064H484.478V230.824H486.446V209.248H484.478ZM500.484 211.696C503.772 211.696 506.004 212.92 506.004 214.816C506.004 216.736 503.772 217.96 500.484 217.96C497.22 217.96 494.988 216.736 494.988 214.816C494.988 212.92 497.22 211.696 500.484 211.696ZM500.484 219.544C504.972 219.544 508.02 217.72 508.02 214.816C508.02 211.936 504.972 210.112 500.484 210.112C496.02 210.112 492.972 211.936 492.972 214.816C492.972 217.72 496.02 219.544 500.484 219.544ZM510.276 221.584H490.788V223.216H499.5V230.8H501.468V223.216H510.276V221.584ZM515.602 218.776H523.234V211.24H513.61V212.848H521.314V217.192H513.658V225.616H515.314C519.202 225.616 521.938 225.496 525.178 224.92L524.986 223.288C521.89 223.84 519.274 223.984 515.602 223.984V218.776ZM528.61 209.224V217.528H524.506V219.136H528.61V230.8H530.578V209.224H528.61ZM552.608 209.272H550.64V225.016H552.608V209.272ZM548.096 220.384C544.928 219.328 542.696 216.712 542.696 213.808V212.632H547.568V211.048H535.76V212.632H540.68V213.808C540.68 216.88 538.496 219.688 535.232 220.816L536.264 222.352C538.808 221.44 540.8 219.496 541.712 217.048C542.696 219.304 544.664 221.08 547.136 221.944L548.096 220.384ZM540.728 228.688V223.528H538.76V230.296H553.256V228.688H540.728ZM5.736 259.08H3.768V265.296H18.576V263.688H5.736V259.08ZM5.448 249.192C5.448 247.488 7.608 246.48 11.016 246.48C14.376 246.48 16.536 247.488 16.536 249.192C16.536 250.896 14.376 251.88 11.016 251.88C7.608 251.88 5.448 250.896 5.448 249.192ZM12 255.696V253.44C16.008 253.224 18.552 251.664 18.552 249.192C18.552 246.504 15.6 244.896 11.016 244.896C6.384 244.896 3.432 246.504 3.432 249.192C3.432 251.688 5.976 253.224 10.032 253.44V255.696H1.272V257.304H20.712V255.696H12ZM29.8693 246.552V248.184H37.7653C37.3093 253.272 34.3573 257.4 28.8613 260.16L29.9413 261.696C36.9013 258.216 39.7093 252.672 39.7093 246.552H29.8693ZM48.7333 252.984H45.2773V244.248H43.3093V265.776H45.2773V254.616H48.7333V252.984ZM52.6194 253.008C56.1474 252.576 59.3394 250.992 60.5394 248.616C61.7394 250.992 64.9554 252.576 68.4834 253.008L69.1794 251.472C65.3874 251.04 61.9314 249.144 61.8114 246.72H68.5074V245.112H52.5714V246.72H59.2674C59.1474 249.144 55.6434 251.04 51.8994 251.472L52.6194 253.008ZM52.9554 260.376H65.8914V265.8H67.8594V258.792H52.9554V260.376ZM61.4994 255.048V251.808H59.5314V255.048H50.7954V256.656H70.3314V255.048H61.4994ZM88.5216 244.248V265.824H90.4896V244.248H88.5216ZM79.1376 245.904C75.9456 245.904 73.6656 248.832 73.6656 253.416C73.6656 258 75.9456 260.928 79.1376 260.928C82.3296 260.928 84.6096 258 84.6096 253.416C84.6096 248.832 82.3296 245.904 79.1376 245.904ZM79.1376 247.68C81.2256 247.68 82.7136 249.936 82.7136 253.416C82.7136 256.92 81.2256 259.176 79.1376 259.176C77.0256 259.176 75.5376 256.92 75.5376 253.416C75.5376 249.936 77.0256 247.68 79.1376 247.68ZM113.087 246.528H107.711V244.056H105.743V246.528H100.391V248.112H113.087V246.528ZM103.463 253.032C103.463 251.616 104.759 250.68 106.727 250.68C108.695 250.68 110.015 251.616 110.015 253.032C110.015 254.448 108.695 255.384 106.727 255.384C104.759 255.384 103.463 254.448 103.463 253.032ZM111.887 253.032C111.887 250.68 109.799 249.192 106.727 249.192C103.655 249.192 101.591 250.68 101.591 253.032C101.591 255.36 103.655 256.848 106.727 256.848C109.799 256.848 111.887 255.36 111.887 253.032ZM105.431 259.992H115.079V263.904H105.431V259.992ZM103.511 265.488H117.023V258.432H103.511V265.488ZM120.215 249.984H117.023V244.272H115.055V257.208H117.023V251.616H120.215V249.984ZM122.901 246.816V248.424H125.997C125.853 252.432 125.109 256.368 122.445 259.8L123.981 260.664C127.077 256.488 127.677 251.424 127.677 246.816H122.901ZM134.901 252.696H132.141C132.381 250.608 132.429 248.592 132.429 246.816H128.397V248.424H130.725C130.653 252.48 130.149 257.328 127.221 261.168L128.757 262.056C130.485 259.704 131.397 256.992 131.901 254.304H134.901V264.672H136.749V244.8H134.901V252.696ZM138.885 244.248V265.752H140.757V244.248H138.885ZM151.498 252.336C155.074 251.976 158.29 250.608 159.586 248.472C160.858 250.608 164.098 251.976 167.65 252.336L168.274 250.824C164.434 250.512 160.954 248.808 160.738 246.624H167.554V245.064H151.618V246.624H158.41C158.194 248.832 154.69 250.488 150.874 250.824L151.498 252.336ZM154.162 261.864H166.81V256.944H152.17V258.456H164.866V260.424H152.242V265.536H167.458V264.024H154.162V261.864ZM149.818 253.416V255H169.306V253.416H149.818ZM189.584 244.248H187.616V255.24H189.584V244.248ZM173.36 245.304V246.912H181.016C180.704 250.344 177.656 252.912 172.28 254.088L173 255.672C179.336 254.232 183.152 250.776 183.152 245.304H173.36ZM177.656 264V261.504H189.584V256.272H175.64V257.832H187.616V260.04H175.688V265.56H190.304V264H177.656ZM212.527 252.456C208.615 251.88 204.775 249.216 204.775 246.216V245.016H202.711V246.216C202.711 249.288 198.919 251.88 195.007 252.456L195.799 254.04C199.159 253.464 202.399 251.616 203.743 249C205.135 251.592 208.375 253.464 211.711 254.04L212.527 252.456ZM213.463 256.368H194.023V258H202.711V265.8H204.679V258H213.487L213.463 256.368ZM239.108 244.272H237.14V256.56H239.108V244.272ZM227.54 247.152C229.676 247.152 231.26 248.568 231.26 250.536C231.26 252.528 229.676 253.92 227.54 253.92C225.404 253.92 223.868 252.528 223.868 250.536C223.868 248.568 225.404 247.152 227.54 247.152ZM227.54 255.552C230.804 255.552 233.18 253.512 233.18 250.536C233.18 247.56 230.804 245.52 227.54 245.52C224.3 245.52 221.948 247.56 221.948 250.536C221.948 253.512 224.3 255.552 227.54 255.552ZM236.708 257.496H234.788V258.648C234.788 260.328 233.756 262.488 231.692 263.76C229.7 262.584 228.716 260.544 228.716 258.648V257.496H226.82V258.648C226.82 260.712 225.212 263.04 222.5 264L223.484 265.488C225.5 264.72 226.964 263.232 227.732 261.504C228.38 263.304 229.676 264.864 231.74 265.68C233.732 264.816 235.052 263.184 235.724 261.432C236.444 263.232 237.932 264.72 240.044 265.488L241.028 264C238.292 263.088 236.708 260.88 236.708 258.648V257.496ZM260.778 250.728H248.106V245.04H246.138V252.336H260.778V250.728ZM247.962 258.96H245.994V265.248H260.898V263.64H247.962V258.96ZM243.498 255.216V256.8H263.01V255.216H243.498ZM272.767 252.96C276.295 252.552 279.511 250.992 280.711 248.64C281.911 250.992 285.127 252.552 288.679 252.96L289.375 251.4C285.607 251.016 282.151 249.192 281.983 246.816H288.679V245.232H272.767V246.816H279.439C279.271 249.192 275.839 251.016 272.047 251.4L272.767 252.96ZM280.687 264.24C277.279 264.24 275.311 263.448 275.311 262.032C275.311 260.64 277.279 259.848 280.687 259.848C284.071 259.848 286.063 260.64 286.063 262.032C286.063 263.448 284.071 264.24 280.687 264.24ZM280.687 258.336C276.079 258.336 273.319 259.656 273.319 262.032C273.319 264.432 276.079 265.752 280.687 265.752C285.295 265.752 288.055 264.432 288.055 262.032C288.055 259.656 285.295 258.336 280.687 258.336ZM281.671 254.976V251.88H279.703V254.976H270.967V256.56H290.431V254.976H281.671ZM305.813 246.456H300.437V244.032H298.469V246.456H293.117V248.04H305.813V246.456ZM296.189 252.816C296.189 251.424 297.485 250.536 299.453 250.536C301.421 250.536 302.741 251.424 302.741 252.816C302.741 254.232 301.421 255.096 299.453 255.096C297.485 255.096 296.189 254.232 296.189 252.816ZM304.613 252.816C304.613 250.536 302.525 249.072 299.453 249.072C296.381 249.072 294.317 250.536 294.317 252.816C294.317 255.12 296.381 256.584 299.453 256.584C302.525 256.584 304.613 255.12 304.613 252.816ZM307.805 263.904H298.157V261.528H307.805V263.904ZM307.805 259.992H298.157V257.712H296.213V265.488H309.749V257.712H307.805V259.992ZM312.941 249.72H309.749V244.248H307.781V256.752H309.749V251.376H312.941V249.72ZM317.812 254.208H322.924V252.648H317.812V248.424H323.932V246.816H315.916V260.592H317.308C320.692 260.592 322.708 260.52 325.156 260.04L324.988 258.432C322.708 258.888 320.836 258.984 317.812 258.984V254.208ZM327.196 252.408H324.1V254.016H327.196V264.672H329.044V244.776H327.196V252.408ZM331.516 244.224V265.752H333.388V244.224H331.516ZM339.986 247.992H346.01V258.72H339.986V247.992ZM338.066 260.304H347.93V246.408H338.066V260.304ZM357.314 252.84H353.762V244.272H351.794V265.776H353.762V254.496H357.314V252.84ZM379.695 247.176C379.695 248.856 379.695 250.44 379.119 252.648L381.039 252.864C381.639 250.656 381.639 248.904 381.639 247.176V245.352H366.975V246.936H379.695V247.176ZM374.295 264.216C370.935 264.216 368.775 263.304 368.775 261.816C368.775 260.28 370.935 259.368 374.295 259.368C377.679 259.368 379.839 260.28 379.839 261.816C379.839 263.304 377.679 264.216 374.295 264.216ZM374.295 257.856C369.711 257.856 366.807 259.32 366.807 261.816C366.807 264.264 369.711 265.752 374.295 265.752C378.879 265.752 381.807 264.264 381.807 261.816C381.807 259.32 378.879 257.856 374.295 257.856ZM374.607 254.28V250.152H372.639V254.28H364.695V255.864H384.063V254.28H374.607ZM398.005 256.968V258.432H402.373V260.64H404.341V244.248H402.373V256.968H398.005ZM393.613 246.576C395.653 246.576 397.045 247.488 397.045 248.856C397.045 250.248 395.653 251.16 393.613 251.16C391.573 251.16 390.181 250.248 390.181 248.856C390.181 247.488 391.573 246.576 393.613 246.576ZM393.613 252.624C396.757 252.624 398.917 251.16 398.917 248.856C398.917 246.6 396.757 245.112 393.613 245.112C390.469 245.112 388.309 246.6 388.309 248.856C388.309 251.16 390.469 252.624 393.613 252.624ZM392.845 259.872H394.813V255.624C396.757 255.504 398.749 255.288 400.645 255L400.477 253.584C395.917 254.16 390.589 254.208 386.605 254.208L386.869 255.84C388.645 255.84 390.709 255.816 392.845 255.72V259.872ZM391.645 263.688V259.032H389.677V265.296H404.893V263.688H391.645ZM424.499 244.272V255.816H426.467V244.272H424.499ZM412.595 256.872V265.488H426.467V256.872H424.523V259.512H414.539V256.872H412.595ZM414.539 261.048H424.523V263.904H414.539V261.048ZM414.899 245.28C411.659 245.28 409.307 247.296 409.307 250.224C409.307 253.2 411.659 255.192 414.899 255.192C418.163 255.192 420.539 253.2 420.539 250.224C420.539 247.296 418.163 245.28 414.899 245.28ZM414.899 246.912C417.083 246.912 418.619 248.28 418.619 250.224C418.619 252.192 417.083 253.56 414.899 253.56C412.763 253.56 411.227 252.192 411.227 250.224C411.227 248.28 412.763 246.912 414.899 246.912ZM434.193 246.336H432.225V260.208H434.001C437.433 260.208 440.817 259.968 444.561 259.2L444.345 257.52C440.769 258.24 437.433 258.528 434.193 258.528V246.336ZM446.553 244.248V265.752H448.521V244.248H446.553ZM455.84 247.944H463.88V246.312H453.872V260.448H455.576C459.632 260.448 462.464 260.304 465.752 259.68L465.536 258.048C462.416 258.6 459.656 258.768 455.84 258.768V247.944ZM473.072 252.744H469.52V244.248H467.552V265.824H469.52V254.376H473.072V252.744ZM477.102 264.312C477.966 264.312 478.686 263.64 478.686 262.656C478.686 261.648 477.966 260.952 477.102 260.952C476.238 260.952 475.518 261.648 475.518 262.656C475.518 263.64 476.238 264.312 477.102 264.312Z" fill="black"/>
<path d="M5.236 469H8.492V455.426H13.112V452.698H0.66V455.426H5.236V469ZM18.8098 469.308C21.8898 469.308 24.7278 466.932 24.7278 462.84C24.7278 458.748 21.8898 456.372 18.8098 456.372C15.7298 456.372 12.8918 458.748 12.8918 462.84C12.8918 466.932 15.7298 469.308 18.8098 469.308ZM18.8098 466.668C17.1378 466.668 16.1918 465.172 16.1918 462.84C16.1918 460.53 17.1378 459.012 18.8098 459.012C20.4818 459.012 21.4278 460.53 21.4278 462.84C21.4278 465.172 20.4818 466.668 18.8098 466.668ZM32.5813 469.308C35.6613 469.308 38.4993 466.932 38.4993 462.84C38.4993 458.748 35.6613 456.372 32.5813 456.372C29.5013 456.372 26.6633 458.748 26.6633 462.84C26.6633 466.932 29.5013 469.308 32.5813 469.308ZM32.5813 466.668C30.9093 466.668 29.9633 465.172 29.9633 462.84C29.9633 460.53 30.9093 459.012 32.5813 459.012C34.2533 459.012 35.1993 460.53 35.1993 462.84C35.1993 465.172 34.2533 466.668 32.5813 466.668ZM44.2408 469.308C45.0108 469.308 45.5388 469.176 45.9128 469.022L45.5168 466.624C45.2968 466.668 45.2088 466.668 45.0768 466.668C44.7688 466.668 44.4388 466.426 44.4388 465.678V451.444H41.2048V465.546C41.2048 467.834 41.9968 469.308 44.2408 469.308ZM2 509H3.86V502.42H9.46V500.86H3.86V495.9H10.46V494.32H2V509ZM12.8752 509H14.6952V498.14H12.8752V509ZM13.7952 495.9C14.5152 495.9 15.0152 495.42 15.0152 494.68C15.0152 493.98 14.5152 493.5 13.7952 493.5C13.0752 493.5 12.5752 493.98 12.5752 494.68C12.5752 495.42 13.0752 495.9 13.7952 495.9ZM22.043 514C25.403 514 27.543 512.26 27.543 510.24C27.543 508.46 26.263 507.66 23.743 507.66H21.623C20.163 507.66 19.723 507.18 19.723 506.48C19.723 505.88 20.023 505.52 20.423 505.18C20.903 505.42 21.503 505.56 22.043 505.56C24.243 505.56 26.003 504.1 26.003 501.78C26.003 500.84 25.643 500.04 25.123 499.54H27.343V498.14H23.563C23.183 498 22.643 497.86 22.043 497.86C19.843 497.86 17.963 499.36 17.963 501.74C17.963 503.04 18.663 504.08 19.383 504.66V504.74C18.823 505.14 18.163 505.86 18.163 506.76C18.163 507.62 18.583 508.2 19.163 508.54V508.62C18.143 509.28 17.563 510.16 17.563 511.08C17.563 512.96 19.383 514 22.043 514ZM22.043 504.32C20.783 504.32 19.723 503.32 19.723 501.74C19.723 500.14 20.763 499.2 22.043 499.2C23.323 499.2 24.363 500.16 24.363 501.74C24.363 503.32 23.283 504.32 22.043 504.32ZM22.303 512.76C20.343 512.76 19.163 512 19.163 510.84C19.163 510.2 19.483 509.56 20.263 509C20.743 509.12 21.263 509.18 21.663 509.18H23.543C24.983 509.18 25.763 509.52 25.763 510.52C25.763 511.66 24.383 512.76 22.303 512.76ZM29.6525 509H31.4725V501.12C32.4725 500 33.3925 499.46 34.2125 499.46C35.5925 499.46 36.2325 500.32 36.2325 502.36V509H38.0525V501.12C39.0725 500 39.9525 499.46 40.7925 499.46C42.1725 499.46 42.8125 500.32 42.8125 502.36V509H44.6325V502.12C44.6325 499.34 43.5725 497.86 41.3325 497.86C40.0125 497.86 38.8725 498.72 37.7525 499.94C37.3125 498.66 36.4125 497.86 34.7525 497.86C33.4525 497.86 32.3125 498.68 31.3725 499.72H31.3125L31.1525 498.14H29.6525V509ZM50.6681 509.26C52.0081 509.26 53.2281 508.56 54.2681 507.7H54.3281L54.4881 509H55.9881V502.32C55.9881 499.64 54.8681 497.86 52.2281 497.86C50.4881 497.86 48.9481 498.64 47.9481 499.28L48.6681 500.54C49.5281 499.96 50.6681 499.38 51.9281 499.38C53.7081 499.38 54.1681 500.72 54.1681 502.12C49.5481 502.64 47.4881 503.82 47.4881 506.18C47.4881 508.14 48.8481 509.26 50.6681 509.26ZM51.1881 507.8C50.1081 507.8 49.2681 507.3 49.2681 506.06C49.2681 504.66 50.5081 503.76 54.1681 503.32V506.36C53.1081 507.3 52.2481 507.8 51.1881 507.8ZM59.1172 512.8C60.9172 512.04 62.0372 510.54 62.0372 508.62C62.0372 507.28 61.4572 506.46 60.4972 506.46C59.7572 506.46 59.1172 506.96 59.1172 507.74C59.1172 508.58 59.7572 509.02 60.4572 509.02C60.5372 509.02 60.5972 509.02 60.6772 509C60.6772 510.18 59.9372 511.16 58.6772 511.72L59.1172 512.8ZM69.6563 509H71.5163V494.32H69.6563V509ZM77.2756 509.26C77.7756 509.26 78.0756 509.2 78.3356 509.1L78.0756 507.7C77.8756 507.74 77.7956 507.74 77.6956 507.74C77.4156 507.74 77.1756 507.52 77.1756 506.96V493.08H75.3556V506.84C75.3556 508.38 75.9156 509.26 77.2756 509.26ZM82.9788 509.26C83.4788 509.26 83.7788 509.2 84.0388 509.1L83.7788 507.7C83.5788 507.74 83.4988 507.74 83.3988 507.74C83.1188 507.74 82.8788 507.52 82.8788 506.96V493.08H81.0588V506.84C81.0588 508.38 81.6188 509.26 82.9788 509.26ZM89.9219 509.26C91.4219 509.26 92.5019 508.48 93.5219 507.3H93.5819L93.7219 509H95.2419V498.14H93.4219V505.84C92.3819 507.14 91.6019 507.68 90.4819 507.68C89.0419 507.68 88.4419 506.82 88.4419 504.8V498.14H86.6219V505.02C86.6219 507.78 87.6419 509.26 89.9219 509.26ZM101.75 509.26C104.31 509.26 105.71 507.8 105.71 506.04C105.71 503.98 103.97 503.34 102.39 502.74C101.17 502.28 100.05 501.9 100.05 500.86C100.05 500.02 100.69 499.3 102.07 499.3C103.03 499.3 103.79 499.7 104.53 500.26L105.41 499.08C104.57 498.42 103.39 497.86 102.05 497.86C99.6903 497.86 98.2903 499.22 98.2903 500.94C98.2903 502.78 99.9503 503.52 101.47 504.08C102.67 504.54 103.95 505.02 103.95 506.14C103.95 507.08 103.25 507.84 101.81 507.84C100.51 507.84 99.5303 507.32 98.5903 506.56L97.6903 507.76C98.7303 508.62 100.21 509.26 101.75 509.26ZM111.237 509.26C111.897 509.26 112.617 509.06 113.237 508.86L112.877 507.5C112.517 507.64 112.017 507.78 111.637 507.78C110.377 507.78 109.957 507.02 109.957 505.68V499.62H112.897V498.14H109.957V495.08H108.437L108.217 498.14L106.517 498.24V499.62H108.137V505.64C108.137 507.8 108.917 509.26 111.237 509.26ZM115.356 509H117.176V502.02C117.896 500.16 119.016 499.52 119.916 499.52C120.356 499.52 120.616 499.56 120.976 499.7L121.316 498.1C120.976 497.92 120.636 497.86 120.156 497.86C118.936 497.86 117.836 498.74 117.076 500.12H117.016L116.856 498.14H115.356V509ZM125.063 509.26C126.403 509.26 127.623 508.56 128.663 507.7H128.723L128.883 509H130.383V502.32C130.383 499.64 129.263 497.86 126.623 497.86C124.883 497.86 123.343 498.64 122.343 499.28L123.063 500.54C123.923 499.96 125.063 499.38 126.323 499.38C128.103 499.38 128.563 500.72 128.563 502.12C123.943 502.64 121.883 503.82 121.883 506.18C121.883 508.14 123.243 509.26 125.063 509.26ZM125.583 507.8C124.503 507.8 123.663 507.3 123.663 506.06C123.663 504.66 124.903 503.76 128.563 503.32V506.36C127.503 507.3 126.643 507.8 125.583 507.8ZM136.979 509.26C137.639 509.26 138.359 509.06 138.979 508.86L138.619 507.5C138.259 507.64 137.759 507.78 137.379 507.78C136.119 507.78 135.699 507.02 135.699 505.68V499.62H138.639V498.14H135.699V495.08H134.179L133.959 498.14L132.259 498.24V499.62H133.879V505.64C133.879 507.8 134.659 509.26 136.979 509.26ZM145.025 509.26C147.685 509.26 150.065 507.18 150.065 503.58C150.065 499.96 147.685 497.86 145.025 497.86C142.365 497.86 139.985 499.96 139.985 503.58C139.985 507.18 142.365 509.26 145.025 509.26ZM145.025 507.74C143.145 507.74 141.885 506.08 141.885 503.58C141.885 501.08 143.145 499.38 145.025 499.38C146.905 499.38 148.185 501.08 148.185 503.58C148.185 506.08 146.905 507.74 145.025 507.74ZM152.934 509H154.754V502.02C155.474 500.16 156.594 499.52 157.494 499.52C157.934 499.52 158.194 499.56 158.554 499.7L158.894 498.1C158.554 497.92 158.214 497.86 157.734 497.86C156.514 497.86 155.414 498.74 154.654 500.12H154.594L154.434 498.14H152.934V509Z" fill="black"/>
<path d="M228.002 469H231.258V463.214H233.436C236.934 463.214 239.728 461.542 239.728 457.824C239.728 453.974 236.956 452.698 233.348 452.698H228.002V469ZM231.258 460.64V455.294H233.106C235.35 455.294 236.538 455.932 236.538 457.824C236.538 459.694 235.46 460.64 233.216 460.64H231.258ZM242.412 469H245.646V461.652C246.328 459.87 247.494 459.232 248.462 459.232C248.968 459.232 249.32 459.298 249.76 459.43L250.31 456.636C249.936 456.482 249.54 456.372 248.858 456.372C247.582 456.372 246.262 457.252 245.36 458.858H245.294L245.052 456.68H242.412V469ZM256.884 469.308C259.964 469.308 262.802 466.932 262.802 462.84C262.802 458.748 259.964 456.372 256.884 456.372C253.804 456.372 250.966 458.748 250.966 462.84C250.966 466.932 253.804 469.308 256.884 469.308ZM256.884 466.668C255.212 466.668 254.266 465.172 254.266 462.84C254.266 460.53 255.212 459.012 256.884 459.012C258.556 459.012 259.502 460.53 259.502 462.84C259.502 465.172 258.556 466.668 256.884 466.668ZM269.842 469.308C271.118 469.308 272.35 468.604 273.252 467.724H273.34L273.582 469H276.2V451.444H272.988V455.778L273.098 457.714C272.218 456.9 271.36 456.372 269.974 456.372C267.312 456.372 264.804 458.836 264.804 462.84C264.804 466.888 266.784 469.308 269.842 469.308ZM270.678 466.646C269.05 466.646 268.126 465.37 268.126 462.818C268.126 460.354 269.292 459.034 270.678 459.034C271.448 459.034 272.24 459.276 272.988 459.958V465.37C272.262 466.294 271.536 466.646 270.678 466.646ZM283.34 469.308C285.012 469.308 286.2 468.494 287.256 467.24H287.344L287.586 469H290.226V456.68H286.992V464.996C286.156 466.096 285.496 466.536 284.484 466.536C283.296 466.536 282.768 465.854 282.768 463.962V456.68H279.534V464.38C279.534 467.46 280.678 469.308 283.34 469.308ZM298.91 469.308C300.274 469.308 301.77 468.846 302.958 467.812L301.66 465.678C300.978 466.25 300.142 466.668 299.262 466.668C297.502 466.668 296.204 465.172 296.204 462.84C296.204 460.53 297.48 459.012 299.372 459.012C300.054 459.012 300.626 459.298 301.242 459.826L302.782 457.736C301.88 456.966 300.714 456.372 299.196 456.372C295.852 456.372 292.904 458.748 292.904 462.84C292.904 466.932 295.5 469.308 298.91 469.308ZM309.527 469.308C310.605 469.308 311.463 469.066 312.123 468.846L311.595 466.492C311.265 466.624 310.781 466.756 310.385 466.756C309.285 466.756 308.713 466.096 308.713 464.688V459.232H311.749V456.68H308.713V453.358H306.029L305.655 456.68L303.741 456.834V459.232H305.479V464.688C305.479 467.438 306.601 469.308 309.527 469.308ZM314.256 469H317.49V456.68H314.256V469ZM315.884 454.7C316.984 454.7 317.754 453.996 317.754 452.918C317.754 451.862 316.984 451.158 315.884 451.158C314.762 451.158 313.992 451.862 313.992 452.918C313.992 453.996 314.762 454.7 315.884 454.7ZM326.085 469.308C329.165 469.308 332.003 466.932 332.003 462.84C332.003 458.748 329.165 456.372 326.085 456.372C323.005 456.372 320.167 458.748 320.167 462.84C320.167 466.932 323.005 469.308 326.085 469.308ZM326.085 466.668C324.413 466.668 323.467 465.172 323.467 462.84C323.467 460.53 324.413 459.012 326.085 459.012C327.757 459.012 328.703 460.53 328.703 462.84C328.703 465.172 327.757 466.668 326.085 466.668ZM334.709 469H337.943V460.53C338.845 459.628 339.483 459.144 340.495 459.144C341.705 459.144 342.233 459.804 342.233 461.718V469H345.467V461.322C345.467 458.22 344.323 456.372 341.661 456.372C339.989 456.372 338.735 457.252 337.657 458.308H337.591L337.349 456.68H334.709V469ZM226.968 509H237.11V507.262H232.644C231.83 507.262 230.84 507.35 230.004 507.416C233.788 503.83 236.318 500.552 236.318 497.34C236.318 494.458 234.514 492.566 231.632 492.566C229.586 492.566 228.2 493.512 226.88 494.942L228.046 496.086C228.926 495.03 230.07 494.216 231.39 494.216C233.392 494.216 234.36 495.558 234.36 497.406C234.36 500.178 232.028 503.39 226.968 507.812V509ZM244.319 509.286C247.377 509.286 249.335 506.492 249.335 500.882C249.335 495.294 247.377 492.566 244.319 492.566C241.239 492.566 239.281 495.272 239.281 500.882C239.281 506.492 241.239 509.286 244.319 509.286ZM244.319 507.68C242.471 507.68 241.239 505.634 241.239 500.882C241.239 496.174 242.471 494.172 244.319 494.172C246.145 494.172 247.377 496.174 247.377 500.882C247.377 505.634 246.145 507.68 244.319 507.68ZM251.374 509H261.516V507.262H257.05C256.236 507.262 255.246 507.35 254.41 507.416C258.194 503.83 260.724 500.552 260.724 497.34C260.724 494.458 258.92 492.566 256.038 492.566C253.992 492.566 252.606 493.512 251.286 494.942L252.452 496.086C253.332 495.03 254.476 494.216 255.796 494.216C257.798 494.216 258.766 495.558 258.766 497.406C258.766 500.178 256.434 503.39 251.374 507.812V509ZM264.545 509H273.389V507.328H270.155V492.852H268.615C267.735 493.38 266.701 493.754 265.271 494.018V495.294H268.131V507.328H264.545V509ZM277.871 509.286C278.663 509.286 279.323 508.67 279.323 507.768C279.323 506.844 278.663 506.206 277.871 506.206C277.079 506.206 276.419 506.844 276.419 507.768C276.419 508.67 277.079 509.286 277.871 509.286ZM287.052 509.286C290.11 509.286 292.068 506.492 292.068 500.882C292.068 495.294 290.11 492.566 287.052 492.566C283.972 492.566 282.014 495.272 282.014 500.882C282.014 506.492 283.972 509.286 287.052 509.286ZM287.052 507.68C285.204 507.68 283.972 505.634 283.972 500.882C283.972 496.174 285.204 494.172 287.052 494.172C288.878 494.172 290.11 496.174 290.11 500.882C290.11 505.634 288.878 507.68 287.052 507.68ZM295.999 497.802C295.999 495.602 297.187 494.15 298.727 494.15C300.795 494.15 302.027 495.91 302.247 499.232C301.213 500.75 299.981 501.388 298.881 501.388C296.967 501.388 295.999 499.98 295.999 497.802ZM298.287 509.286C301.323 509.286 304.139 506.778 304.139 500.244C304.139 495.118 301.829 492.566 298.727 492.566C296.219 492.566 294.107 494.678 294.107 497.802C294.107 501.146 295.867 502.884 298.551 502.884C299.893 502.884 301.279 502.114 302.269 500.904C302.115 505.898 300.311 507.614 298.221 507.614C297.187 507.614 296.197 507.152 295.537 506.382L294.415 507.636C295.317 508.582 296.549 509.286 298.287 509.286Z" fill="black"/>
<path d="M405.002 469H409.644C414.44 469 417.52 466.272 417.52 460.794C417.52 455.294 414.44 452.698 409.468 452.698H405.002V469ZM408.258 466.382V455.316H409.27C412.306 455.316 414.198 456.812 414.198 460.794C414.198 464.754 412.306 466.382 409.27 466.382H408.258ZM425.811 469.308C427.329 469.308 428.891 468.78 430.101 467.944L429.001 465.964C428.121 466.514 427.241 466.822 426.229 466.822C424.403 466.822 423.083 465.766 422.819 463.742H430.409C430.497 463.456 430.563 462.862 430.563 462.246C430.563 458.858 428.803 456.372 425.415 456.372C422.489 456.372 419.673 458.858 419.673 462.84C419.673 466.91 422.357 469.308 425.811 469.308ZM422.775 461.586C423.017 459.804 424.161 458.88 425.459 458.88C427.043 458.88 427.791 459.936 427.791 461.586H422.775ZM436.746 469.308C439.958 469.308 441.652 467.57 441.652 465.414C441.652 463.126 439.848 462.312 438.22 461.696C436.922 461.212 435.778 460.882 435.778 459.98C435.778 459.276 436.306 458.792 437.428 458.792C438.33 458.792 439.188 459.21 440.068 459.848L441.52 457.89C440.508 457.12 439.122 456.372 437.34 456.372C434.524 456.372 432.742 457.934 432.742 460.134C432.742 462.202 434.48 463.148 436.042 463.742C437.34 464.248 438.616 464.666 438.616 465.59C438.616 466.36 438.066 466.888 436.834 466.888C435.69 466.888 434.634 466.404 433.534 465.546L432.06 467.57C433.292 468.582 435.096 469.308 436.746 469.308ZM444.119 469H447.353V456.68H444.119V469ZM445.747 454.7C446.847 454.7 447.617 453.996 447.617 452.918C447.617 451.862 446.847 451.158 445.747 451.158C444.625 451.158 443.855 451.862 443.855 452.918C443.855 453.996 444.625 454.7 445.747 454.7ZM455.135 474.346C459.249 474.346 461.845 472.454 461.845 469.968C461.845 467.812 460.217 466.888 457.247 466.888H455.157C453.705 466.888 453.221 466.536 453.221 465.876C453.221 465.37 453.419 465.106 453.749 464.82C454.277 464.996 454.849 465.106 455.333 465.106C457.973 465.106 460.085 463.698 460.085 460.926C460.085 460.156 459.843 459.474 459.535 459.056H461.625V456.68H457.181C456.675 456.504 456.015 456.372 455.333 456.372C452.715 456.372 450.361 457.934 450.361 460.816C450.361 462.268 451.153 463.434 452.011 464.05V464.138C451.263 464.666 450.625 465.524 450.625 466.448C450.625 467.46 451.109 468.098 451.747 468.516V468.626C450.625 469.264 449.987 470.144 449.987 471.178C449.987 473.356 452.231 474.346 455.135 474.346ZM455.333 463.104C454.255 463.104 453.397 462.29 453.397 460.816C453.397 459.386 454.233 458.572 455.333 458.572C456.433 458.572 457.269 459.386 457.269 460.816C457.269 462.29 456.411 463.104 455.333 463.104ZM455.619 472.3C453.837 472.3 452.693 471.706 452.693 470.672C452.693 470.166 452.935 469.682 453.485 469.242C453.925 469.352 454.453 469.418 455.201 469.418H456.697C458.017 469.418 458.743 469.638 458.743 470.518C458.743 471.486 457.467 472.3 455.619 472.3ZM463.927 469H467.161V460.53C468.063 459.628 468.701 459.144 469.713 459.144C470.923 459.144 471.451 459.804 471.451 461.718V469H474.685V461.322C474.685 458.22 473.541 456.372 470.879 456.372C469.207 456.372 467.953 457.252 466.875 458.308H466.809L466.567 456.68H463.927V469ZM408.214 509.286C411.36 509.286 412.636 507.042 412.636 504.27V492.852H410.612V504.072C410.612 506.514 409.754 507.504 408.016 507.504C406.85 507.504 405.948 506.976 405.222 505.7L403.77 506.734C404.716 508.406 406.168 509.286 408.214 509.286ZM419.569 509.286C421.043 509.286 422.385 508.516 423.529 507.57H423.595L423.771 509H425.421V501.652C425.421 498.704 424.189 496.746 421.285 496.746C419.371 496.746 417.677 497.604 416.577 498.308L417.369 499.694C418.315 499.056 419.569 498.418 420.955 498.418C422.913 498.418 423.419 499.892 423.419 501.432C418.337 502.004 416.071 503.302 416.071 505.898C416.071 508.054 417.567 509.286 419.569 509.286ZM420.141 507.68C418.953 507.68 418.029 507.13 418.029 505.766C418.029 504.226 419.393 503.236 423.419 502.752V506.096C422.253 507.13 421.307 507.68 420.141 507.68ZM429.237 509H431.239V500.332C432.449 499.122 433.285 498.506 434.517 498.506C436.101 498.506 436.783 499.452 436.783 501.696V509H438.785V501.432C438.785 498.374 437.641 496.746 435.133 496.746C433.505 496.746 432.273 497.648 431.129 498.77H431.063L430.887 497.054H429.237V509ZM446.712 514.5C450.408 514.5 452.762 512.586 452.762 510.364C452.762 508.406 451.354 507.526 448.582 507.526H446.25C444.644 507.526 444.16 506.998 444.16 506.228C444.16 505.568 444.49 505.172 444.93 504.798C445.458 505.062 446.118 505.216 446.712 505.216C449.132 505.216 451.068 503.61 451.068 501.058C451.068 500.024 450.672 499.144 450.1 498.594H452.542V497.054H448.384C447.966 496.9 447.372 496.746 446.712 496.746C444.292 496.746 442.224 498.396 442.224 501.014C442.224 502.444 442.994 503.588 443.786 504.226V504.314C443.17 504.754 442.444 505.546 442.444 506.536C442.444 507.482 442.906 508.12 443.544 508.494V508.582C442.422 509.308 441.784 510.276 441.784 511.288C441.784 513.356 443.786 514.5 446.712 514.5ZM446.712 503.852C445.326 503.852 444.16 502.752 444.16 501.014C444.16 499.254 445.304 498.22 446.712 498.22C448.12 498.22 449.264 499.276 449.264 501.014C449.264 502.752 448.076 503.852 446.712 503.852ZM446.998 513.136C444.842 513.136 443.544 512.3 443.544 511.024C443.544 510.32 443.896 509.616 444.754 509C445.282 509.132 445.854 509.198 446.294 509.198H448.362C449.946 509.198 450.804 509.572 450.804 510.672C450.804 511.926 449.286 513.136 446.998 513.136ZM460.179 509H464.315C469.177 509 471.839 505.986 471.839 500.882C471.839 495.756 469.177 492.852 464.227 492.852H460.179V509ZM462.225 507.328V494.524H464.051C467.857 494.524 469.727 496.79 469.727 500.882C469.727 504.952 467.857 507.328 464.051 507.328H462.225ZM477.856 509.286C479.33 509.286 480.672 508.516 481.816 507.57H481.882L482.058 509H483.708V501.652C483.708 498.704 482.476 496.746 479.572 496.746C477.658 496.746 475.964 497.604 474.864 498.308L475.656 499.694C476.602 499.056 477.856 498.418 479.242 498.418C481.2 498.418 481.706 499.892 481.706 501.432C476.624 502.004 474.358 503.302 474.358 505.898C474.358 508.054 475.854 509.286 477.856 509.286ZM478.428 507.68C477.24 507.68 476.316 507.13 476.316 505.766C476.316 504.226 477.68 503.236 481.706 502.752V506.096C480.54 507.13 479.594 507.68 478.428 507.68ZM492.166 509.286C495.092 509.286 497.71 506.998 497.71 503.038C497.71 499.056 495.092 496.746 492.166 496.746C489.24 496.746 486.622 499.056 486.622 503.038C486.622 506.998 489.24 509.286 492.166 509.286ZM492.166 507.614C490.098 507.614 488.712 505.788 488.712 503.038C488.712 500.288 490.098 498.418 492.166 498.418C494.234 498.418 495.642 500.288 495.642 503.038C495.642 505.788 494.234 507.614 492.166 507.614ZM505.508 509.286C508.434 509.286 511.052 506.998 511.052 503.038C511.052 499.056 508.434 496.746 505.508 496.746C502.582 496.746 499.964 499.056 499.964 503.038C499.964 506.998 502.582 509.286 505.508 509.286ZM505.508 507.614C503.44 507.614 502.054 505.788 502.054 503.038C502.054 500.288 503.44 498.418 505.508 498.418C507.576 498.418 508.984 500.288 508.984 503.038C508.984 505.788 507.576 507.614 505.508 507.614ZM514.208 509H516.21V500.332C517.42 499.122 518.256 498.506 519.488 498.506C521.072 498.506 521.754 499.452 521.754 501.696V509H523.756V501.432C523.756 498.374 522.612 496.746 520.104 496.746C518.476 496.746 517.244 497.648 516.1 498.77H516.034L515.858 497.054H514.208V509Z" fill="black"/>
</svg>
