<svg width="376" height="19" viewBox="0 0 376 19" fill="none" xmlns="http://www.w3.org/2000/svg">
<path d="M10.5 14.48V10.64H15.76V8.52H5.46V3.68H15.62V1.56H2.8V10.64H7.86V14.48H0.86V16.64H17.54V14.48H10.5ZM30.5384 8C27.5584 7.14 26.2584 4.98 26.2584 2.76V0.979999H23.5784V2.76C23.5784 5.02 22.2584 7.36 19.1784 8.32L20.4584 10.4C22.6184 9.72 24.1184 8.32 24.9584 6.56C25.7784 8.18 27.1984 9.44 29.2784 10.06L30.5384 8ZM24.8984 13.62H31.9784V16.44H24.8984V13.62ZM22.2984 18.5H34.5584V11.56H22.2984V18.5ZM31.8984 0.299999V10.7H34.5584V0.299999H31.8984ZM57.9281 5.84C53.7681 5.34 51.8281 3.3 51.8281 1.16V0.619999H49.1281V1.16C49.1281 3.24 47.1481 5.34 43.0081 5.84L43.9881 7.9C47.0681 7.46 49.3081 6.16 50.4681 4.34C51.6281 6.18 53.8681 7.46 56.9681 7.9L57.9281 5.84ZM44.0281 14.7H54.1881V18.74H56.8281V12.62H44.0281V14.7ZM51.8081 9.22V6.84H49.1681V9.22H42.1881V11.32H58.8481V9.22H51.8081ZM71.5978 3.98H75.4178V2.28H65.5978V3.98H69.5378V5.72C69.5378 8.72 67.6978 12.14 64.9378 13.46L66.1178 15.1C68.1978 14.08 69.7978 11.92 70.5978 9.4C71.4178 11.68 72.9578 13.68 74.9778 14.64L76.1178 13.02C73.3778 11.72 71.5978 8.52 71.5978 5.72V3.98ZM82.0778 7.6H79.2578V0.479999H77.1978V18.54H79.2578V9.3H82.0778V7.6ZM85.8763 6.18C85.8763 4.54 87.0563 3.42 88.6363 3.42C90.1763 3.42 91.3563 4.54 91.3563 6.18C91.3563 7.86 90.1763 8.98 88.6363 8.98C87.0563 8.98 85.8763 7.86 85.8763 6.18ZM96.5763 4.84V7.52H93.1163C93.2563 7.1 93.3163 6.66 93.3163 6.18C93.3163 5.7 93.2563 5.26 93.1163 4.84H96.5763ZM96.5763 9.2V13.78H98.6363V0.499999H96.5763V3.16H92.2363C91.3963 2.2 90.1163 1.6 88.6363 1.6C85.9563 1.6 83.9163 3.52 83.9163 6.18C83.9163 8.84 85.9563 10.76 88.6363 10.76C90.1163 10.78 91.3963 10.18 92.2363 9.2H96.5763ZM88.9963 16.52V12.44H86.9363V18.2H99.0963V16.52H88.9963ZM114.855 0.46V18.58H116.935V0.46H114.855ZM107.315 1.8C104.635 1.8 102.675 4.28 102.675 8.16C102.675 12.08 104.635 14.54 107.315 14.54C110.015 14.54 111.975 12.08 111.975 8.16C111.975 4.28 110.015 1.8 107.315 1.8ZM107.315 3.66C108.895 3.66 109.995 5.36 109.995 8.16C109.995 11 108.895 12.7 107.315 12.7C105.755 12.7 104.655 11 104.655 8.16C104.655 5.36 105.755 3.66 107.315 3.66ZM135.525 7.62C132.785 6.76 131.265 4.7 131.265 2.36V1.08H129.185V2.4C129.185 4.9 127.625 7.18 124.785 8.08L125.805 9.74C127.965 9 129.485 7.52 130.285 5.6C131.045 7.26 132.485 8.58 134.485 9.24L135.525 7.62ZM129.465 15.18H139.065V10.6H127.405V12.22H137.025V13.66H127.445V18.38H139.665V16.76H129.465V15.18ZM139.065 4.22V0.479999H137.005V9.82H139.065V5.92H141.605V4.22H139.065ZM148.164 12.7C146.584 12.7 145.504 11 145.504 8.18C145.504 5.36 146.584 3.66 148.164 3.66C149.724 3.66 150.824 5.36 150.824 8.18C150.824 11 149.724 12.7 148.164 12.7ZM148.164 1.8C145.464 1.8 143.524 4.28 143.524 8.18C143.524 12.08 145.464 14.54 148.164 14.54C150.864 14.54 152.804 12.08 152.804 8.18C152.804 4.28 150.864 1.8 148.164 1.8ZM160.164 7.54H157.344V0.479999H155.284V18.56H157.344V9.24H160.164V7.54ZM176.642 0.499999H174.582V10.76H176.642V0.499999ZM166.902 3.18C168.502 3.18 169.682 4.2 169.682 5.74C169.682 7.3 168.502 8.3 166.902 8.3C165.302 8.3 164.122 7.3 164.122 5.74C164.122 4.2 165.302 3.18 166.902 3.18ZM166.902 10C169.662 10 171.682 8.26 171.682 5.74C171.682 3.22 169.662 1.48 166.902 1.48C164.142 1.48 162.102 3.22 162.102 5.74C162.102 8.26 164.142 10 166.902 10ZM174.722 11.54H172.702V12.34C172.702 13.7 171.942 15.4 170.342 16.48C168.762 15.48 168.062 13.86 168.062 12.34V11.54H166.062V12.34C166.062 14.1 164.862 15.96 162.562 16.78L163.562 18.3C165.242 17.68 166.402 16.52 167.062 15.1C167.622 16.56 168.682 17.8 170.382 18.46C172.022 17.78 173.102 16.48 173.682 15.06C174.302 16.52 175.482 17.68 177.222 18.3L178.242 16.78C175.902 16.02 174.722 14.2 174.722 12.34V11.54ZM194.661 5.66H184.321V1.12H182.261V7.34H194.661V5.66ZM184.201 12.82H182.141V18.14H194.761V16.48H184.201V12.82ZM180.141 9.5V11.16H196.541V9.5H180.141ZM218.15 8.84H213.33V3.54H217.93V2.22H211.69V10.18H218.15V8.84ZM210.77 8.34C209.15 8.7 207.67 8.8 206.17 8.82V3.58H210.59V2.24H204.55V10.18H205.53C207.35 10.18 208.97 10.12 210.93 9.68L210.77 8.34ZM212.05 14.84V11.06H210.41V14.84H203.13V16.18H219.41V14.84H212.05ZM226.789 13.12C225.169 13.12 223.989 11.96 223.989 10.36C223.989 8.74 225.169 7.58 226.789 7.58C228.429 7.58 229.609 8.74 229.609 10.36C229.609 11.96 228.429 13.12 226.789 13.12ZM226.789 6.22C224.269 6.22 222.449 7.94 222.449 10.36C222.449 12.8 224.269 14.48 226.789 14.48C229.349 14.48 231.169 12.8 231.169 10.36C231.169 7.94 229.349 6.22 226.789 6.22ZM227.589 0.759999H225.949V3.42H221.429V4.74H232.009V3.42H227.589V0.759999ZM238.289 7.92H235.349V0.559999H233.709V18.48H235.349V9.3H238.289V7.92ZM242.267 2.28H240.647V13.94H242.067C244.807 13.94 247.547 13.74 250.607 13.12L250.407 11.76C247.507 12.34 244.847 12.56 242.267 12.56V2.28ZM256.607 7.7H253.727V0.54H252.087V18.48H253.727V9.06H256.607V7.7ZM264.146 1.86C261.366 1.86 259.346 3.56 259.346 6.08C259.346 8.58 261.366 10.3 264.146 10.3C266.946 10.3 268.946 8.58 268.946 6.08C268.946 3.56 266.946 1.86 264.146 1.86ZM264.146 3.26C266.006 3.26 267.346 4.4 267.346 6.08C267.346 7.74 266.006 8.9 264.146 8.9C262.306 8.9 260.946 7.74 260.946 6.08C260.946 4.4 262.306 3.26 264.146 3.26ZM271.306 0.54V18.52H272.946V0.54H271.306ZM258.646 14.58C261.886 14.58 266.226 14.54 270.266 13.8L270.126 12.58C266.206 13.18 261.706 13.2 258.446 13.2L258.646 14.58ZM284.515 14.84H295.295V11.08H283.415V11.94H294.255V14H283.475V18.12H295.955V17.24H284.515V14.84ZM289.875 8.42V6.16H295.515V5.26H284.635V0.92H283.595V6.16H288.835V8.42H281.315V9.34H297.435V8.42H289.875ZM301.494 13.12V8.42H308.334V2.36H300.394V3.28H307.294V7.5H300.454V14.02H301.814C305.394 14.02 307.694 13.88 310.514 13.36L310.414 12.44C307.654 12.98 305.334 13.12 301.814 13.12H301.494ZM316.334 7.92H313.234V0.64H312.174V18.42H313.234V8.82H316.334V7.92ZM326.132 2.04C329.132 2.04 331.172 3.08 331.172 4.64C331.172 6.2 329.132 7.24 326.132 7.24C323.172 7.24 321.132 6.2 321.132 4.64C321.132 3.08 323.172 2.04 326.132 2.04ZM326.132 8.14C329.872 8.14 332.272 6.8 332.272 4.64C332.272 2.48 329.872 1.16 326.132 1.16C322.432 1.16 320.032 2.48 320.032 4.64C320.032 6.8 322.432 8.14 326.132 8.14ZM321.312 12.86H320.272V17.96H332.452V17.04H321.312V12.86ZM318.092 9.88V10.78H325.772V14.72H326.832V10.78H334.232V9.88H318.092ZM345.944 2.38H344.944V6.02C344.944 9.08 343.164 12.26 340.824 13.6L341.524 14.4C343.344 13.28 344.824 11.1 345.464 8.58C346.104 10.88 347.524 12.96 349.264 14.02L349.944 13.2C347.644 11.86 345.944 8.8 345.944 6V2.38ZM351.304 7.24H347.964V8.14H351.304V17.46H352.324V1.08H351.304V7.24ZM354.944 0.64V18.4H355.964V0.64H354.944ZM369.503 9.3C367.083 8.4 364.963 6.08 364.963 3.52V1.5H363.943V3.48C363.943 6.38 361.903 8.78 359.403 9.78L359.963 10.64C362.043 9.78 363.783 8 364.503 5.72C365.223 7.74 366.963 9.36 368.923 10.14L369.503 9.3ZM367.443 17.48C364.603 17.48 362.763 16.62 362.763 15.24C362.763 13.84 364.603 12.98 367.443 12.98C370.303 12.98 372.143 13.84 372.143 15.24C372.143 16.62 370.303 17.48 367.443 17.48ZM367.443 12.12C363.863 12.12 361.723 13.24 361.723 15.24C361.723 17.22 363.863 18.34 367.443 18.34C371.023 18.34 373.183 17.22 373.183 15.24C373.183 13.24 371.023 12.12 367.443 12.12ZM373.043 5.5V0.619999H371.983V11.58H373.043V6.42H375.823V5.5H373.043Z" fill="#525252"/>
</svg>
