<svg width="62" height="41" viewBox="0 0 62 41" fill="none" xmlns="http://www.w3.org/2000/svg">
<path d="M11.004 13.917H5.76953V15.4081H11.004V13.917Z" fill="#8098AF" stroke="white" stroke-miterlimit="10"/>
<path d="M55.4913 13.917H50.2568V15.4081H55.4913V13.917Z" fill="#8098AF" stroke="white" stroke-miterlimit="10"/>
<path d="M8.10332 29.6951C8.10332 27.943 6.66556 26.5226 4.89199 26.5226C3.11842 26.5226 1.68066 27.943 1.68066 29.6951V37.2987C1.68066 39.0509 3.11842 40.4713 4.89199 40.4713C6.66556 40.4713 8.10332 39.0509 8.10332 37.2987V29.6951Z" fill="#8098AF" stroke="white" stroke-miterlimit="10"/>
<path d="M60.1268 29.6951C60.1268 27.943 58.689 26.5226 56.9154 26.5226C55.1419 26.5226 53.7041 27.943 53.7041 29.6951V37.2987C53.7041 39.0509 55.1419 40.4713 56.9154 40.4713C58.689 40.4713 60.1268 39.0509 60.1268 37.2987V29.6951Z" fill="#8098AF" stroke="white" stroke-miterlimit="10"/>
<path d="M53.7041 26.089H8.02832L13.8194 0.528809H47.913L53.7041 26.089Z" fill="#8098AF" stroke="white" stroke-miterlimit="10"/>
<path d="M5.99467 20.7592H55.7274C56.863 20.7592 57.9521 21.2048 58.7551 21.9981C59.5581 22.7914 60.0092 23.8673 60.0092 24.9892V34.6972H1.68079V25.021C1.67651 24.4601 1.78518 23.904 2.00045 23.3851C2.21573 22.8661 2.53333 22.3946 2.93476 21.998C3.3362 21.6014 3.81346 21.2876 4.33877 21.075C4.86409 20.8623 5.42697 20.7549 5.99467 20.7592Z" fill="#8098AF" stroke="white" stroke-miterlimit="10"/>
<path opacity="0.7" d="M13.498 18.644L17.1697 3.01392H44.5623L48.2232 18.644H13.498Z" fill="#8098AF" stroke="white" stroke-miterlimit="10"/>
<path opacity="0.7" d="M22.8223 4.02917L29.4804 18.6441H34.5543L27.7677 4.02917H22.8223Z" fill="#8098AF" stroke="white" stroke-miterlimit="10"/>
<path opacity="0.7" d="M38.3543 18.6441H36.6523L29.9941 4.02917H31.6961L38.3543 18.6441Z" fill="#8098AF" stroke="white" stroke-miterlimit="10"/>
<path d="M5.99467 18.644H55.7274C56.863 18.644 57.9521 19.0897 58.7551 19.883C59.5581 20.6763 60.0092 21.7522 60.0092 22.8741V32.5821H1.68079V22.9058C1.67651 22.345 1.78518 21.7889 2.00045 21.2699C2.21573 20.751 2.53333 20.2795 2.93476 19.8829C3.3362 19.4863 3.81346 19.1725 4.33877 18.9599C4.86409 18.7472 5.42697 18.6398 5.99467 18.644Z" fill="#8098AF" stroke="white" stroke-miterlimit="10"/>
<path d="M36.5667 26.2159H25.1558C24.3222 26.2159 23.6465 26.8835 23.6465 27.707V29.8115C23.6465 30.635 24.3222 31.3026 25.1558 31.3026H36.5667C37.4003 31.3026 38.076 30.635 38.076 29.8115V27.707C38.076 26.8835 37.4003 26.2159 36.5667 26.2159Z" fill="#8098AF" stroke="white" stroke-miterlimit="10"/>
<path d="M10.6293 20.759H5.31988C4.64001 20.759 4.08887 21.3035 4.08887 21.9752V24.2383C4.08887 24.9099 4.64001 25.4544 5.31988 25.4544H10.6293C11.3091 25.4544 11.8603 24.9099 11.8603 24.2383V21.9752C11.8603 21.3035 11.3091 20.759 10.6293 20.759Z" fill="#8098AF" stroke="white" stroke-miterlimit="10"/>
<path d="M56.3588 20.759H51.0494C50.3695 20.759 49.8184 21.3035 49.8184 21.9752V24.2383C49.8184 24.9099 50.3695 25.4544 51.0494 25.4544H56.3588C57.0386 25.4544 57.5898 24.9099 57.5898 24.2383V21.9752C57.5898 21.3035 57.0386 20.759 56.3588 20.759Z" fill="#8098AF" stroke="white" stroke-miterlimit="10"/>
<path d="M7.07556 11.95H1.76616C1.0863 11.95 0.535156 12.4944 0.535156 13.1661V15.4292C0.535156 16.1008 1.0863 16.6453 1.76616 16.6453H7.07556C7.75542 16.6453 8.30657 16.1008 8.30657 15.4292V13.1661C8.30657 12.4944 7.75542 11.95 7.07556 11.95Z" fill="#8098AF" stroke="white" stroke-miterlimit="10"/>
<path d="M60.2445 11.95H54.9351C54.2552 11.95 53.7041 12.4944 53.7041 13.1661V15.4292C53.7041 16.1008 54.2552 16.6453 54.9351 16.6453H60.2445C60.9244 16.6453 61.4755 16.1008 61.4755 15.4292V13.1661C61.4755 12.4944 60.9244 11.95 60.2445 11.95Z" fill="#8098AF" stroke="white" stroke-miterlimit="10"/>
</svg>
